<svg width="367" height="284" viewBox="0 0 367 284" fill="none" xmlns="http://www.w3.org/2000/svg">
<g clip-path="url(#clip0_1_4619)">
<path d="M298.885 74.9878C298.885 74.9878 289.484 84.6912 291.607 86.2074C293.73 87.7235 307.982 78.0201 326.479 66.8005C344.976 55.5809 352.253 45.2711 321.021 60.7359C321.021 60.7359 315.562 48.3034 304.04 55.2777C292.517 62.252 298.885 74.9878 298.885 74.9878Z" fill="#EFE6D9"/>
<path d="M114.485 37.7811C122.256 18.8451 139.511 3.38802 159.769 0.454454C180.026 -2.47912 202.244 8.83155 209.481 27.9781C212.854 21.4158 218.024 15.7886 224.278 11.8735C227.303 9.98006 230.695 8.45284 234.262 8.40274C241.933 8.29504 248.6 16.3482 247.063 23.8636C255.02 20.1194 263.822 18.2114 272.614 18.237C278.078 18.2529 280.351 25.2531 275.961 28.5066C270.727 32.3857 264.682 35.3846 258.819 38.3046C201.217 66.9957 146.125 100.726 94.38 138.984C89.2129 142.805 83.3397 146.876 76.9727 146.007C82.8223 136.348 90.4001 127.738 99.2388 120.71C95.5597 121.474 91.8806 122.238 88.2015 123.003C87.2137 123.208 86.1686 123.41 85.2145 123.082C84.2359 122.746 83.5168 121.901 82.9977 121.006C79.595 115.139 83.2896 107.735 87.5858 102.487C93.0103 95.8605 99.5313 90.134 106.803 85.6113C106.803 85.6113 108.523 52.3067 114.485 37.7811Z" fill="#EFE6D9"/>
<path d="M138.728 220.414C104.62 217.303 69.9335 220.669 37.0614 230.282C22.1912 234.63 6.03972 241.837 0.767886 256.406C0.244283 257.853 -0.155992 259.447 0.310772 260.914C1.17002 263.613 4.4129 264.612 7.20655 265.08C19.234 267.098 31.5223 266.712 43.7058 266.171C72.0544 264.913 100.367 262.849 128.599 259.985C120.445 260.446 112.37 262.251 104.789 265.289C101.68 266.535 101.54 270.935 104.594 272.309C108.118 273.895 112.175 274.628 116.035 275.221C166.468 282.977 217.704 285.502 268.655 282.743C297.246 281.195 327.385 277.36 350.041 259.851C355.839 255.371 361.421 247.69 357.791 241.326C355.398 237.131 350.101 235.775 345.368 234.81C336.278 232.958 327.188 231.105 318.098 229.253C332.285 229.221 346.468 227.411 360.208 223.874C361.081 223.649 361.902 223.212 362.506 222.542C364.847 219.948 362.335 216.848 359.9 215.122C352.036 209.545 342.449 207.039 333.029 204.988C302.001 198.234 270.234 195.262 238.488 194.532C202.044 193.695 164.983 195.904 130.525 207.8C130.82 212.187 135.29 215.826 139.646 215.225L138.728 220.414Z" fill="#EFE6D9"/>
<path d="M328.665 178.394C318.094 176.817 307.174 177.62 296.947 180.726C295.95 181.028 294.915 181.38 294.202 182.139C293.489 182.899 293.234 184.192 293.925 184.972C294.334 185.434 294.964 185.617 295.561 185.773C313.069 190.345 331.546 189.163 349.496 186.876C351.01 186.683 352.916 186.084 352.994 184.561C353.065 183.186 351.539 182.343 350.235 181.902C346.654 180.69 342.926 179.913 339.159 179.593L328.665 178.394Z" fill="#EFE6D9"/>
<path opacity="0.2" d="M93.8376 225.745C43.1142 228.561 27.2254 237.813 43.2617 240.561C59.3046 243.31 130.201 244.691 144.715 235.52C159.23 226.355 115.834 224.518 93.8376 225.745ZM66.639 236.237C59.0029 236.747 54.3503 234.112 63.9908 233.18C75.6024 232.06 74.2817 235.728 66.639 236.237Z" fill="black"/>
<path opacity="0.2" d="M164.88 236.285C144.65 237.196 142.115 246.674 167.324 245.147C192.533 243.619 195.436 234.91 164.88 236.285Z" fill="black"/>
<g opacity="0.2">
<path d="M151.581 253.368C125.216 254.864 131.884 265.652 160.053 264.381C188.222 263.111 181.445 251.673 151.581 253.368Z" fill="black"/>
<path d="M309.436 209.739C271.491 211.892 281.087 227.419 321.63 225.59C362.173 223.761 352.418 207.3 309.436 209.739Z" fill="black"/>
<path d="M200.886 266.243C189.257 266.142 193.858 271.896 203.025 271.896C212.192 271.896 218.456 266.396 200.886 266.243Z" fill="black"/>
<path d="M18.0229 254.962C7.44978 255.26 14.9673 261.837 21.0785 260.462C27.1898 259.087 28.8704 254.656 18.0229 254.962Z" fill="black"/>
<path d="M33.4539 256.184C26.962 256.603 32.2316 259.851 34.8289 259.24C37.4262 258.629 38.1901 255.879 33.4539 256.184Z" fill="black"/>
<path d="M27.5979 250.175C24.4345 250.412 26.6812 251.397 29.1257 251.601C31.5702 251.804 31.6721 249.869 27.5979 250.175Z" fill="black"/>
<path d="M190.039 270.827C186.526 270.994 187.39 273.068 191.77 272.966C196.15 272.864 194.317 270.623 190.039 270.827Z" fill="black"/>
<path d="M323.963 247.013C312.334 246.912 316.935 252.666 326.102 252.666C335.269 252.666 341.533 247.165 323.963 247.013Z" fill="black"/>
<path d="M313.116 251.596C309.603 251.764 310.468 253.837 314.847 253.735C319.227 253.633 317.394 251.393 313.116 251.596Z" fill="black"/>
</g>
<path d="M155.36 171.123C155.36 171.123 150.483 181.259 149.431 181.546C148.379 181.833 139.678 174.087 139.678 174.087L140.443 168.35L147.136 165.003L155.36 171.123Z" fill="#FFB68D"/>
<path opacity="0.3" d="M155.36 171.123C155.36 171.123 150.483 181.259 149.431 181.546C148.379 181.833 139.678 174.087 139.678 174.087L140.443 168.35L147.136 165.003L155.36 171.123Z" fill="black"/>
<path d="M181.033 152.461C181.06 153.48 180.718 154.478 180.329 155.417C179.585 157.22 178.626 158.977 177.178 160.284C175.851 161.484 174.181 162.228 172.546 162.953C167.068 165.379 161.866 169.201 156.382 171.628C155.242 172.137 154.049 172.653 152.802 172.6C150.147 172.492 148.303 169.945 147.211 167.525C146.936 166.908 146.674 166.224 146.802 165.56C146.956 164.763 147.626 164.186 148.257 163.67C148.277 163.656 148.29 163.643 148.31 163.623C154.149 158.829 159.734 152.668 165.58 147.882C166.995 146.722 168.59 145.495 170.42 145.582L173.538 145.763C174.074 145.864 174.543 146.018 174.972 146.212C176.025 146.675 176.876 147.345 178.023 148.009C179.639 148.954 180.973 150.59 181.033 152.461Z" fill="#FFB68D"/>
<path opacity="0.3" d="M181.032 152.461C181.059 153.48 180.717 154.479 180.328 155.417C179.584 157.221 178.625 158.977 177.177 160.284C175.85 161.484 174.181 162.228 172.545 162.953C167.068 165.379 161.865 169.201 156.381 171.628C155.241 172.137 154.048 172.653 152.801 172.6C150.911 172.526 149.436 171.212 148.35 169.59C149.302 169.281 150.153 168.913 150.83 168.49C156.019 165.265 162.522 159.124 162.522 159.124H162.509C165.076 157.281 167.476 155.156 169.776 152.977C171.854 151.013 173.953 148.827 174.972 146.212C176.024 146.675 176.876 147.345 178.022 148.009C179.638 148.954 180.972 150.59 181.032 152.461Z" fill="black"/>
<path d="M271.146 181.853C271.146 186.479 260.919 192.001 256.695 196.151C248.141 198.471 239.432 199.979 231.796 199.979C207.44 199.979 192.53 203.338 182.239 194.522C171.948 185.7 178.036 174.986 179.926 173.31C179.926 173.31 179.933 173.31 179.94 173.304C180.449 173.089 204.51 159.332 233.526 159.124C263.004 158.909 271.146 173.037 271.146 181.853Z" fill="#363E4F"/>
<path d="M196.38 166.631C196.38 166.631 171.978 179.067 167.285 184.932C162.593 190.798 166.347 200.888 175.028 204.407C183.71 207.927 221.955 194.787 221.955 194.787C221.955 194.787 248.35 169.729 238.261 159.405C228.172 149.081 196.38 166.631 196.38 166.631Z" fill="#363E4F"/>
<path opacity="0.3" d="M196.38 166.631C196.38 166.631 171.978 179.067 167.285 184.932C162.593 190.798 166.347 200.888 175.028 204.407C183.71 207.927 221.955 194.787 221.955 194.787C221.955 194.787 248.35 169.729 238.261 159.405C228.172 149.081 196.38 166.631 196.38 166.631Z" fill="black"/>
<path d="M293.544 218.024C293.544 223.864 289.91 227.625 283.944 222.436C282.522 221.195 280.927 219.734 279.278 218.179C273.988 213.211 268.068 207.325 265.005 205.052C260.982 202.069 259.554 195.713 262.926 194.158C262.926 194.158 264.381 193.105 267.123 192.214C270.777 191.027 276.73 190.115 284.594 192.341C284.594 192.341 286.927 195.063 286.927 195.84L281.738 196.229C281.738 196.229 286.404 199.347 287.966 200.902C289.522 202.457 293.544 212.185 293.544 218.024Z" fill="#363E4F"/>
<path d="M279.291 218.179C279.284 218.179 279.284 218.179 279.278 218.179C273.988 213.211 268.068 207.325 265.005 205.052C260.982 202.069 259.554 195.713 262.926 194.158C262.926 194.158 264.381 193.105 267.123 192.213C270.951 192.522 274.551 194.888 278.238 200.641C283.414 208.706 284.99 217.387 279.291 218.179Z" fill="#FFB68D"/>
<path d="M272.965 200.056C272.979 200.344 272.972 200.646 272.952 200.961C272.556 206.841 265.504 206.452 265.504 206.452C265.504 206.452 236.019 207.404 211.971 208.999C203.276 209.569 195.298 210.233 189.673 210.957C168.515 213.699 164.989 199.004 165.183 191.166C165.197 190.657 165.243 190.161 165.337 189.678C166.638 182.692 175.937 178.234 191.638 178.234C198.308 178.234 207.258 179.367 216.624 180.99C216.644 180.99 216.657 180.996 216.678 180.996C221.122 181.774 225.654 182.659 230.086 183.591C247.818 187.312 263.821 191.743 265.309 192.541C268.085 194.022 272.798 194.981 272.965 200.056Z" fill="#FFB68D"/>
<path opacity="0.3" d="M272.965 200.056C272.979 200.344 272.972 200.646 272.952 200.961C272.556 206.841 265.504 206.452 265.504 206.452C265.504 206.452 236.019 207.404 211.971 208.999C203.276 209.569 195.298 210.233 189.673 210.957C168.515 213.699 164.989 199.003 165.183 191.166C165.197 190.657 165.243 190.161 165.337 189.678C165.585 189.986 165.874 190.268 166.189 190.509C168.307 192.118 171.13 192.346 173.778 192.507C187.635 193.365 201.493 194.103 215.363 194.719C216.202 194.76 217.147 194.76 217.743 194.163C218.407 193.499 218.32 192.42 218.186 191.495C217.683 187.995 217.18 184.496 216.678 180.996C221.122 181.774 225.654 182.659 230.086 183.591C230.629 185.91 231.179 188.223 231.728 190.536C231.956 191.495 232.211 192.507 232.922 193.178C233.565 193.781 234.464 194.009 235.328 194.21C247.704 197.093 260.295 199.05 272.965 200.056Z" fill="black"/>
<path d="M212.749 207.967C212.494 208.316 212.233 208.664 211.971 208.999C203.276 209.569 195.298 210.233 189.673 210.957C168.515 213.699 164.989 199.004 165.183 191.166C165.197 190.657 165.243 190.161 165.337 189.678C166.638 182.692 176.062 177.978 191.763 177.978C198.433 177.978 207.258 179.367 216.624 180.99C216.651 181.043 216.678 181.097 216.698 181.151C219.386 186.789 221.216 196.322 212.749 207.967Z" fill="#363E4F"/>
<path opacity="0.3" d="M212.749 207.967C212.494 208.315 212.233 208.664 211.971 208.999C203.276 209.569 195.298 210.233 189.673 210.957C168.515 213.699 164.989 199.003 165.183 191.166C165.197 190.657 165.243 190.161 165.337 189.678C165.585 189.986 165.874 190.268 166.189 190.509C168.307 192.118 171.13 192.346 173.778 192.507C187.635 193.365 201.493 194.103 215.363 194.719C216.202 194.76 217.147 194.76 217.743 194.163C218.407 193.499 218.32 192.42 218.186 191.495C217.69 188.042 217.194 184.596 216.698 181.15C219.386 186.788 221.216 196.322 212.749 207.967Z" fill="black"/>
<path d="M232.784 165.743C232.784 165.743 208.382 178.179 203.69 184.045C198.997 189.911 202.751 200 211.433 203.519C220.114 207.039 258.36 193.899 258.36 193.899C258.36 193.899 274.549 175.128 264.46 164.805C254.371 154.481 232.784 165.743 232.784 165.743Z" fill="#363E4F"/>
<path d="M160.889 73.0584C160.898 73.055 160.923 73.0667 160.936 73.0725C162.681 78.8294 166.249 83.6146 166.249 83.6146C166.249 83.6146 165.71 102.699 179.509 104.007C193.318 105.311 196.432 88.4463 205.075 89.1652C213.722 89.8935 238.254 78.4637 235.672 62.9416C235.186 60.0096 234.048 57.7096 232.521 55.9235C226.004 48.2228 212.394 49.7574 212.394 49.7574C212.394 49.7574 209.91 32.279 190.212 32.5052C175.695 32.6773 169.642 43.6367 169.642 43.6367C169.642 43.6367 159.426 29.7437 154.004 34.4131C148.577 39.0951 154.768 50.5248 154.768 50.5248C154.768 50.5248 137.679 46.6922 141.437 57.6212C145.071 68.2162 159.975 72.7854 160.889 73.0584Z" fill="#363E4F"/>
<path opacity="0.3" d="M160.888 73.0584C160.897 73.055 160.923 73.0667 160.936 73.0725C162.68 78.8294 166.249 83.6146 166.249 83.6146C166.249 83.6146 165.709 102.699 179.509 104.007C193.317 105.311 196.431 88.4463 205.075 89.1652C213.722 89.8935 238.253 78.4637 235.672 62.9416C235.186 60.0095 234.048 57.7096 232.52 55.9234C231.991 62.9457 218.747 64.3866 212.394 53.9983C205.21 42.2511 185.458 31.1242 171.614 49.721C157.772 68.327 144.027 55.2467 144.027 55.2467C144.027 55.2467 144.365 65.9988 160.888 73.0584Z" fill="black"/>
<path d="M190.478 136.143C187.515 141.09 184.538 146.058 182.192 151.327C181.341 153.245 179.879 156.657 178.297 158.032C176.882 159.265 174.496 160.13 172.619 160.244C169.944 160.412 167.557 158.675 166.062 156.329C165.324 155.189 164.802 153.909 164.553 152.628C164.031 149.899 165.371 147.198 166.665 144.744C167.751 142.693 168.831 140.634 169.917 138.583C171.419 135.727 172.927 132.878 174.429 130.022L178.357 131.336C182.775 131.584 187.093 133.293 190.478 136.143Z" fill="#FFB68D"/>
<path opacity="0.3" d="M190.479 136.143C187.516 141.09 184.539 146.058 182.193 151.327C181.341 153.245 179.88 156.657 178.298 158.032C176.883 159.265 174.496 160.13 172.619 160.244C169.944 160.412 167.558 158.675 166.062 156.329C167.336 155.249 168.57 154.123 169.777 152.977C172.344 150.55 174.952 147.774 175.488 144.281C175.542 143.926 175.569 143.557 175.468 143.215C175.227 142.431 174.396 142.022 173.678 141.633C172.25 140.856 170.963 139.817 169.917 138.583C171.419 135.727 172.928 132.878 174.429 130.022L178.358 131.336C182.776 131.584 187.093 133.293 190.479 136.143Z" fill="black"/>
<path d="M205.1 107.892C204.356 112.712 202.432 117.271 200.192 121.595C199.066 123.78 197.846 125.926 196.921 128.205C195.58 131.497 194.863 135.023 193.448 138.288C193.28 138.677 193.086 139.072 192.737 139.307C192.375 139.548 191.899 139.555 191.464 139.562C188.514 139.569 185.551 139.575 182.634 139.14C181.743 139.005 180.844 138.824 179.966 138.59C174.462 137.142 169.353 133.783 167.067 128.634C166.98 128.433 166.893 128.219 166.913 128.004C166.947 127.682 167.201 127.434 167.436 127.213C169.923 124.853 171.619 121.789 173.215 118.752C175.957 113.523 178.531 108.213 180.945 102.83C182.426 99.5182 183.854 96.146 185.919 93.1693C185.993 93.0554 186.073 92.9481 186.154 92.8341C188.346 89.7704 191.356 87.1423 194.99 86.1569L198.925 89.1066C201.433 88.9257 203.135 91.5939 203.933 93.9806C205.415 98.4388 205.824 103.252 205.1 107.892Z" fill="#29319F"/>
<path opacity="0.3" d="M205.101 107.892C204.356 112.712 202.432 117.271 200.193 121.595C199.067 123.78 197.847 125.926 196.922 128.205C195.581 131.497 194.863 135.023 193.449 138.288C193.281 138.677 193.087 139.072 192.738 139.307C192.376 139.548 191.9 139.555 191.464 139.562C188.515 139.569 185.551 139.575 182.635 139.14C181.743 139.005 180.845 138.824 179.967 138.59C180.563 137.497 181.147 136.398 181.717 135.291C185.598 127.783 189.051 119.168 186.631 111.069C185.846 108.435 184.452 105.954 184.164 103.219C183.815 99.8199 185.216 96.5348 185.92 93.1693C185.994 93.0554 186.074 92.9481 186.155 92.8341C188.347 89.7704 191.357 87.1423 194.991 86.1569L198.926 89.1066C201.433 88.9257 203.136 91.5939 203.934 93.9806C205.416 98.4388 205.825 103.252 205.101 107.892Z" fill="black"/>
<path d="M303.972 158.186C303.59 165.534 300.707 172.6 297.738 176.461C293.413 182.079 275.426 191.07 256.695 196.151C260.919 192.002 262.574 186.9 262.574 182.274C262.574 173.458 255.475 165.708 225.997 165.923C196.981 166.13 180.449 173.089 179.939 173.304C181.998 171.534 227.599 147.687 227.599 147.687C227.599 147.687 208.144 140.97 200.561 134.996C199.878 134.46 199.294 133.924 198.825 133.408C194.541 128.641 192.657 118.484 191.993 113.805C191.772 112.296 191.685 111.358 191.685 111.358C191.685 111.358 188.326 105.478 187.696 100.859C187.066 96.2399 188.226 85.1177 205.965 77.1264C209.793 75.3968 213.225 74.0291 216.329 72.9497H216.336C232.091 67.4993 239.204 69.8055 245.868 73.1374C253.846 77.1264 271.276 123.961 271.276 123.961C271.276 123.961 274.427 127.106 292.488 136.558C301.706 141.385 304.408 149.96 303.972 158.186Z" fill="#FDA758"/>
<path opacity="0.3" d="M212.562 107.496C209.042 109.997 204.886 111.471 200.709 112.598C197.913 113.349 194.883 113.912 191.994 113.805C191.772 112.296 191.685 111.357 191.685 111.357C191.685 111.357 188.326 105.478 187.696 100.859C187.066 96.2397 188.226 85.1176 205.965 77.1262C209.793 75.3966 213.226 74.0289 216.33 72.9496H216.336C219.635 76.6436 221.8 81.3632 222.269 86.2975C223.034 94.3961 219.199 102.783 212.562 107.496Z" fill="black"/>
<path opacity="0.3" d="M303.972 158.186C303.59 165.533 300.707 172.6 297.738 176.461C293.413 182.079 275.426 191.07 256.695 196.151C260.919 192.001 262.574 186.9 262.574 182.274C262.574 173.458 255.475 165.708 225.997 165.922C196.981 166.13 180.449 173.089 179.939 173.304C181.998 171.534 227.599 147.687 227.599 147.687C227.599 147.687 208.144 140.97 200.561 134.996C202.633 135.955 204.872 136.612 207.118 136.961C213.004 137.866 219.004 136.974 224.891 136.076C232.942 134.855 240.987 133.629 249.039 132.408C251.204 137.758 255.743 141.868 260.791 144.664C265.652 147.345 271.015 148.954 276.345 150.53C276.553 150.597 276.76 150.657 276.968 150.717C277.806 150.972 278.765 151.327 279.04 152.159C279.811 154.499 274.454 155.41 275.165 157.777C275.373 158.467 276.077 158.876 276.727 159.191C285.241 163.314 295.713 162.711 303.972 158.186Z" fill="black"/>
<path opacity="0.3" d="M276.345 150.53C257.285 154.525 227.599 147.687 227.599 147.687C227.599 147.687 208.144 140.97 200.562 134.996C202.633 135.955 204.872 136.612 207.118 136.961C213.004 137.866 219.005 136.974 224.891 136.076C232.942 134.855 240.987 133.629 249.039 132.408C251.204 137.758 255.743 141.868 260.791 144.664C265.652 147.345 271.015 148.954 276.345 150.53Z" fill="black"/>
<path d="M221.573 82.5231C220.46 85.5399 218.107 88.6842 215.076 90.4742C207.528 94.9324 201.065 94.1413 199.275 91.5736C197.492 88.9993 199.168 86.0025 199.168 86.0025L195.97 83.2002L193.637 81.1554L194.998 79.2984L205.322 65.146L214.741 73.5194L216.236 74.8469C216.779 74.753 217.282 74.6994 217.745 74.6927C222.283 74.5854 223.074 78.4336 221.573 82.5231Z" fill="#FFB68D"/>
<path opacity="0.4" d="M221.572 82.5231C220.459 85.5399 218.106 88.6842 215.076 90.4742C207.527 94.9324 201.064 94.1413 199.274 91.5736C197.491 88.9993 199.167 86.0025 199.167 86.0025L195.969 83.2002C196.579 82.6907 196.07 81.2359 194.997 79.2984L205.321 65.146L214.741 73.5194L216.236 74.8469C216.779 74.753 217.282 74.6994 217.744 74.6927C219.487 77.0458 220.801 79.7074 221.572 82.5231Z" fill="black"/>
<path d="M164.725 62.7157C164.725 62.7157 166.137 55.0427 164.448 54.0831C163.164 53.3584 161.914 54.9597 161.034 56.5645C160.745 57.079 160.5 57.5884 160.298 58.0228C159.483 59.826 160.969 62.7433 162.023 63.6053L163.452 63.1304L164.725 62.7157Z" fill="#ED4A2F"/>
<path opacity="0.3" d="M163.452 63.1304L164.726 62.7157C164.726 62.7157 166.138 55.0427 164.448 54.0831C163.164 53.3584 161.915 54.9597 161.034 56.5645C162.517 55.8403 163.719 57.069 163.496 60.168C163.422 61.1777 163.414 62.1759 163.452 63.1304Z" fill="black"/>
<path d="M165.118 69.6153C165.118 69.6153 164.488 82.3202 163.513 82.5889C162.538 82.8576 161.965 76.9101 161.965 76.9101C161.965 76.9101 160.4 78.4181 159.759 78.3265C159.118 78.2348 161.749 68.0958 161.749 68.0958L165.118 69.6153Z" fill="#ED4A2F"/>
<path opacity="0.3" d="M161.75 68.0936C161.75 68.0936 159.114 78.2323 159.757 78.3273C160.4 78.4223 161.965 76.9134 161.965 76.9134C161.965 76.9134 162.541 82.8551 163.514 82.586C163.555 82.5745 163.599 82.5357 163.64 82.4775C163.002 80.1938 163.19 73.9004 163.718 73.2229C164.193 72.6085 164.137 72.7731 164.973 72.1424C165.067 70.6505 165.12 69.6179 165.12 69.6179L161.75 68.0936Z" fill="black"/>
<path d="M164.575 68.5294C164.575 68.5294 159.613 80.2423 158.605 80.1592C157.597 80.0761 159.105 74.2945 159.105 74.2945C159.105 74.2945 157.117 75.172 156.546 74.8654C155.976 74.5589 161.934 65.9437 161.934 65.9437L164.575 68.5294Z" fill="#ED4A2F"/>
<path d="M165.63 69.0471C164.606 71.0001 161.416 69.161 161.22 66.5753C161.025 63.9895 162.634 60.8107 164.887 61.9101C167.14 63.0094 166.935 66.5593 165.63 69.0471Z" fill="#ED4A2F"/>
<path d="M167.943 76.1761C169.296 73.0307 167.51 67.7942 165.984 65.8459C165.192 64.8253 164.328 66.3495 163.886 68.4595C163.529 70.1472 163.441 72.2014 163.865 73.6306C164.637 76.2238 165.928 78.3363 167.121 77.4037C167.399 77.1839 167.68 76.7855 167.943 76.1761Z" fill="#ED4A2F"/>
<path opacity="0.3" d="M167.943 76.1761C169.297 73.0307 167.511 67.7942 165.984 65.8459C165.192 64.8253 164.328 66.3495 163.887 68.4595C164.438 68.8395 165.544 69.6814 166.786 72.6574C167.659 74.7478 167.486 76.3421 167.121 77.4037C167.399 77.1839 167.68 76.7855 167.943 76.1761Z" fill="black"/>
<path d="M164.838 72.3002C164.945 72.5878 165.057 72.8626 165.173 73.1467C165.889 74.9067 166.749 76.6558 167.737 78.3253C172.856 87.093 184.325 96.6814 194.48 94.4767C195.66 94.2182 196.827 93.8067 197.965 93.2053C208.434 87.6976 214.49 74.954 210.447 65.418C214.604 63.3699 211.935 51.763 208.148 53.3574C206.24 54.1598 205.817 55.6356 205.908 56.9627C199.942 47.106 189.822 36.2895 172.487 47.9514C162.255 54.8377 161.697 63.9172 164.838 72.3002Z" fill="#FFB68D"/>
<path opacity="0.3" d="M164.838 72.3002C165.26 60.4318 172.896 52.2123 186.312 53.522C201.131 54.9689 212.061 84.5905 194.48 94.4767C195.66 94.2182 196.827 93.8067 197.965 93.2053C208.434 87.6976 214.49 74.954 210.447 65.418C214.604 63.3699 211.935 51.763 208.148 53.3574C206.24 54.1598 205.817 55.6356 205.908 56.9627C199.942 47.106 189.822 36.2895 172.487 47.9514C162.255 54.8377 161.697 63.9172 164.838 72.3002Z" fill="black"/>
<path d="M165.176 73.1425C164.09 66.0144 165.122 55.9476 178.133 49.9118C190.845 44.0166 200.462 50.6011 205.952 57.0309C199.988 47.1677 189.864 36.2573 172.493 47.9522C161.908 55.0773 161.676 64.5303 165.176 73.1425Z" fill="#F7BC4B"/>
<path d="M189.152 67.6294C190.056 67.0972 190.188 65.6431 189.446 64.3816C188.703 63.1201 187.368 62.5289 186.464 63.0611C185.559 63.5933 185.428 65.0474 186.17 66.3089C186.912 67.5704 188.247 68.1616 189.152 67.6294Z" fill="#363E4F"/>
<path d="M176.261 76.162C177.166 75.6298 177.297 74.1757 176.555 72.9142C175.813 71.6527 174.478 71.0615 173.573 71.5937C172.669 72.1259 172.537 73.58 173.28 74.8415C174.022 76.103 175.357 76.6942 176.261 76.162Z" fill="#363E4F"/>
<path d="M187.436 56.9131C186.116 56.1968 184.507 55.9763 182.984 56.3464C182.223 56.5315 181.507 56.9348 180.94 57.4676C180.34 57.9808 179.995 58.7076 179.751 59.4034C180.252 58.8396 180.717 58.2953 181.306 57.9155C181.881 57.5321 182.495 57.2155 183.172 57.0638C183.839 56.8873 184.539 56.8185 185.252 56.8008C185.964 56.7982 186.693 56.8218 187.436 56.9131Z" fill="#363E4F"/>
<path d="M172.088 63.7133C171.022 63.5025 169.808 63.7341 168.865 64.5313C168.394 64.932 168.015 65.4505 167.766 66.0156C167.488 66.5732 167.444 67.2127 167.481 67.7986C167.731 67.2503 167.949 66.7378 168.274 66.2933C168.591 65.8515 168.93 65.433 169.353 65.0901C170.172 64.375 171.03 63.9484 172.088 63.7133Z" fill="#363E4F"/>
<path d="M329.948 217.136C329.948 222.976 326.315 226.737 320.348 221.548C318.927 220.307 317.331 218.846 315.682 217.291C310.392 212.323 304.473 206.437 301.409 204.164C297.386 201.181 295.958 194.825 299.331 193.27C299.331 193.27 300.785 192.217 303.527 191.326C307.181 190.139 313.134 189.227 320.998 191.453C320.998 191.453 323.331 194.175 323.331 194.953L318.142 195.341C318.142 195.341 322.808 198.459 324.37 200.014C325.926 201.569 329.948 211.297 329.948 217.136Z" fill="#363E4F"/>
<path d="M315.696 217.291C315.69 217.291 315.69 217.291 315.683 217.291C310.393 212.323 304.474 206.437 301.41 204.164C297.387 201.181 295.959 194.825 299.332 193.27C299.332 193.27 300.786 192.217 303.528 191.326C307.356 191.634 310.956 194.001 314.644 199.753C319.819 207.818 321.395 216.5 315.696 217.291Z" fill="#FFB68D"/>
<path d="M309.37 199.168C309.383 199.456 309.376 199.758 309.356 200.073C308.961 205.953 301.908 205.564 301.908 205.564C301.908 205.564 272.423 206.516 248.376 208.111C239.68 208.681 231.702 209.345 226.078 210.069C204.919 212.811 201.393 198.115 201.587 190.278C201.601 189.769 201.648 189.273 201.742 188.79C203.042 181.804 212.341 177.346 228.042 177.346C234.713 177.346 243.663 178.479 253.028 180.101C253.048 180.101 253.062 180.108 253.082 180.108C257.527 180.886 262.059 181.771 266.49 182.703C284.222 186.423 300.225 190.855 301.714 191.653C304.489 193.134 309.202 194.093 309.37 199.168Z" fill="#FFB68D"/>
<path opacity="0.3" d="M309.37 199.168C309.383 199.456 309.376 199.758 309.356 200.073C308.961 205.953 301.908 205.564 301.908 205.564C301.908 205.564 272.423 206.516 248.376 208.111C239.68 208.681 231.702 209.345 226.078 210.069C204.919 212.811 201.393 198.116 201.587 190.279C201.601 189.769 201.648 189.273 201.742 188.79C201.99 189.099 202.278 189.38 202.593 189.622C204.712 191.231 207.534 191.458 210.182 191.619C224.04 192.477 237.897 193.215 251.768 193.832C252.606 193.872 253.551 193.872 254.148 193.275C254.811 192.612 254.724 191.532 254.59 190.607C254.087 187.107 253.585 183.608 253.082 180.108C257.527 180.886 262.059 181.771 266.49 182.703C267.033 185.022 267.583 187.335 268.133 189.648C268.36 190.607 268.615 191.619 269.326 192.29C269.969 192.893 270.868 193.121 271.733 193.322C284.108 196.205 296.699 198.163 309.37 199.168Z" fill="black"/>
<path d="M249.153 207.079C248.899 207.428 248.637 207.776 248.376 208.112C239.68 208.681 231.703 209.345 226.078 210.069C204.92 212.811 201.127 198.229 201.321 190.392C201.335 189.883 201.508 189.049 201.602 188.566C202.903 181.58 212.358 176.828 228.059 176.828C234.729 176.828 243.663 178.479 253.028 180.102C253.055 180.155 253.082 180.209 253.102 180.263C255.79 185.901 257.621 195.434 249.153 207.079Z" fill="#363E4F"/>
<path opacity="0.3" d="M249.153 207.079C248.898 207.428 248.637 207.776 248.376 208.111C239.68 208.681 231.702 209.345 226.078 210.069C204.919 212.811 201.393 198.116 201.587 190.279C201.601 189.769 201.648 189.273 201.742 188.79C201.99 189.099 202.278 189.38 202.593 189.622C204.712 191.231 207.534 191.458 210.182 191.619C224.04 192.477 237.897 193.215 251.768 193.832C252.606 193.872 253.551 193.872 254.148 193.275C254.811 192.612 254.724 191.532 254.59 190.607C254.094 187.154 253.598 183.709 253.102 180.263C255.79 185.901 257.621 195.434 249.153 207.079Z" fill="black"/>
<path opacity="0.3" d="M224.657 121.648C224.657 121.648 231.218 127.403 243.162 126.226C255.106 125.048 260.358 119.968 260.358 119.968C260.358 119.968 254.938 107.889 242.489 108.73C230.04 109.571 224.657 121.648 224.657 121.648Z" fill="black"/>
<path d="M254.899 131.731C254.516 138.355 252.941 142.76 248.174 145.26C247.658 145.535 247.095 145.783 246.498 146.011C240.411 148.317 233.901 144.536 232.219 137.396C231.494 134.306 230.844 129.204 230.335 124.417C229.678 118.149 229.275 112.41 229.275 112.41C244.4 99.1762 254.476 110.52 254.476 110.52C254.476 110.52 255.321 124.377 254.899 131.731Z" fill="#FFB68D"/>
<path opacity="0.3" d="M254.899 131.731C254.516 138.355 252.941 142.76 248.174 145.26C249.689 139.146 249.562 132.63 247.732 126.603C246.968 124.082 245.493 121.293 242.885 120.904C241.986 120.77 241.075 120.958 240.183 121.166C236.811 121.943 233.506 123.036 230.335 124.417C229.678 118.149 229.275 112.41 229.275 112.41C244.4 99.1762 254.476 110.52 254.476 110.52C254.476 110.52 255.321 124.377 254.899 131.731Z" fill="black"/>
<path d="M260.348 119.959C260.06 119.711 250.768 111.773 242.086 111.15C233.271 110.52 224.656 121.648 224.656 121.648C224.656 121.648 224.649 121.508 224.642 121.239C224.535 116.5 223.737 71.8435 233.901 68.9339C241.161 66.8623 245.7 69.725 248.703 74.5318C251.171 78.4873 252.598 83.75 253.638 88.6776C255.93 99.5114 260.288 119.651 260.348 119.959Z" fill="#29319F"/>
<path opacity="0.3" d="M238.346 101.161C238.567 101.154 238.788 101.154 239.009 101.161C238.788 101.181 238.567 101.174 238.346 101.161Z" fill="black"/>
<path opacity="0.3" d="M260.349 119.959C260.06 119.711 250.769 111.773 242.087 111.15C233.271 110.52 224.656 121.648 224.656 121.648C224.656 121.648 224.649 121.508 224.643 121.239C226.795 116.392 227.639 110.68 231.769 107.442C236.247 103.936 242.623 104.855 248.201 105.941C246.096 103.051 242.583 101.241 239.01 101.161C241.322 101.04 243.434 99.4176 244.654 97.3929C245.988 95.1873 246.451 92.5727 246.847 90.0251C247.638 84.883 248.261 79.7142 248.704 74.5319C251.171 78.4873 252.599 83.75 253.638 88.6776C255.931 99.5114 260.288 119.651 260.349 119.959Z" fill="black"/>
<path d="M281.42 212.697C279.724 212.697 271.659 209.573 271.659 209.573L270.15 209.855C270.15 209.855 275.078 215.332 275.078 217.598C275.078 219.864 271.123 222.029 269.138 220.99C267.16 219.958 262.273 212.791 261.898 212.791C261.516 212.791 259.632 213.642 259.632 213.642C259.632 213.642 261.12 223.913 260.745 225.234C260.369 226.554 257.258 227.312 254.617 226.937C251.976 226.554 251.976 215.714 250.936 215.332C249.897 214.956 248.838 215.633 248.838 215.633C248.838 215.633 247.94 223.538 246.317 225.515C244.702 227.493 240.391 229.29 239.13 224.798C238.071 220.997 240.739 212.811 240.485 210.833C240.445 210.471 240.304 210.317 240.029 210.424C238.232 211.142 226.198 217.43 226.017 212.938C225.836 208.447 241.108 199.644 240.029 196.406C238.956 193.175 235.785 167.169 233.09 154.003C230.388 140.836 233.76 132.556 242.369 130.873C245.171 130.324 247.397 130.531 249.193 131.309C254.604 133.629 256.099 141.11 257.587 148.726C259.571 158.863 265.458 195.716 265.458 195.716C265.458 195.716 279.06 205.624 282.365 207.414C285.664 209.204 283.116 212.697 281.42 212.697Z" fill="#FFB68D"/>
<path opacity="0.3" d="M281.42 212.697C279.724 212.697 271.659 209.573 271.659 209.573L270.151 209.855C270.151 209.855 275.078 215.332 275.078 217.598C275.078 219.864 271.123 222.029 269.138 220.99C267.161 219.958 262.273 212.791 261.898 212.791C261.516 212.791 259.632 213.642 259.632 213.642C259.632 213.642 261.12 223.913 260.745 225.234C260.369 226.554 257.259 227.312 254.617 226.937C251.976 226.554 251.976 215.714 250.937 215.332C249.897 214.956 248.838 215.633 248.838 215.633C248.838 215.633 247.94 223.538 246.317 225.515C244.702 227.493 240.391 229.29 239.131 224.798C238.071 220.997 240.74 212.811 240.485 210.833C244.226 208.856 247.96 206.858 251.325 204.31C252.123 203.707 252.928 203.03 253.283 202.098C253.545 201.421 253.538 200.677 253.524 199.946C253.31 183.708 252.733 167.471 251.795 151.254C251.413 144.55 250.95 137.779 249.194 131.309C254.604 133.629 256.099 141.11 257.587 148.726C259.572 158.863 265.458 195.716 265.458 195.716C265.458 195.716 279.06 205.624 282.366 207.414C285.664 209.204 283.116 212.697 281.42 212.697Z" fill="black"/>
<path d="M243.18 277.479C243.18 277.479 281.111 252.143 327.096 239.841L326.888 234.218C326.888 234.218 281.351 241.608 242.372 268.579L243.18 277.479Z" fill="#F7BC4B"/>
<path opacity="0.5" d="M243.18 277.479C243.18 277.479 281.111 252.143 327.096 239.841L326.888 234.218C326.888 234.218 281.351 241.608 242.372 268.579L243.18 277.479Z" fill="black"/>
<path d="M21.5576 233.567L22.488 238.414C22.488 238.414 85.3621 230.519 120.605 241.797C120.605 241.797 120.464 245.744 125.821 245.885C131.178 246.026 131.742 242.643 131.742 242.643C131.742 242.643 202.143 245.54 243.179 277.48L242.372 268.579C242.372 268.579 219.322 241.565 128.757 233.278C128.757 233.278 61.1569 216.098 21.5576 233.567Z" fill="#F7BC4B"/>
<path opacity="0.3" d="M21.5576 233.567L22.488 238.414C22.488 238.414 85.3621 230.519 120.605 241.797C120.605 241.797 120.464 245.744 125.821 245.885C131.178 246.026 131.742 242.643 131.742 242.643C131.742 242.643 202.143 245.54 243.179 277.48L242.372 268.579C242.372 268.579 219.322 241.565 128.757 233.278C128.757 233.278 61.1569 216.098 21.5576 233.567Z" fill="black"/>
<path d="M21.5576 233.567C21.5576 233.567 68.4309 224.864 122.604 237.596C122.604 237.596 122.294 241.367 125.567 241.484C128.841 241.601 129.286 238.264 129.286 238.264C129.286 238.264 192.216 236.712 242.372 268.579C242.372 268.579 283.937 245.025 326.888 234.218C326.888 234.218 257.889 209.833 170.048 220.64C170.048 220.64 134.856 206.231 101.049 204.568C101.049 204.568 54.5699 212.687 21.5576 233.567Z" fill="#F7BC4B"/>
<path d="M137.528 186.141C137.528 186.141 83.4002 185.918 46.4238 205.52L127.059 228.018L168.268 211.089C168.268 211.089 161.363 195.051 137.528 186.141Z" fill="#ED4A2F"/>
<path opacity="0.6" d="M137.528 186.141C137.528 186.141 83.4002 185.918 46.4238 205.52L127.059 228.018L168.268 211.089C168.268 211.089 161.363 195.051 137.528 186.141Z" fill="black"/>
<path d="M122.604 237.596L129.986 235.094C129.986 235.094 133.916 226.079 127.059 228.018C120.202 229.957 122.604 237.596 122.604 237.596Z" fill="#363E4F"/>
<path d="M46.4238 205.52L41.7461 226.459C41.7461 226.459 83.4002 217.103 122.604 237.596C122.604 237.596 122.604 231.805 127.059 228.018C127.059 228.018 100.329 195.496 46.4238 205.52Z" fill="#ED4A2F"/>
<path opacity="0.3" d="M46.4238 205.52L41.7461 226.459C41.7461 226.459 83.4002 217.103 122.604 237.596C122.604 237.596 122.604 231.805 127.059 228.018C127.059 228.018 100.329 195.496 46.4238 205.52Z" fill="black"/>
<path opacity="0.3" d="M50.5674 210.607C50.5674 210.607 71.0123 207.35 91.2764 212.597C91.2764 212.597 70.0119 209.045 50.5674 210.607Z" fill="black"/>
<path opacity="0.3" d="M50.6602 216.573C50.6602 216.573 90.4297 209.716 121.197 230.607C121.197 230.607 95.7211 212.795 50.6602 216.573Z" fill="black"/>
<path d="M127.06 228.018L168.268 211.089C168.268 211.089 239.325 188.368 308.155 211.311L239.771 238.487L127.06 228.018Z" fill="#ED4A2F"/>
<path opacity="0.6" d="M127.06 228.018L168.268 211.089C168.268 211.089 239.325 188.368 308.155 211.311L239.771 238.487L127.06 228.018Z" fill="black"/>
<path d="M127.06 228.018C127.06 228.018 128.842 230.468 129.287 238.264C129.287 238.264 179.851 226.459 243.335 260.094L241.107 229.354C241.107 229.354 187.425 205.075 127.06 228.018Z" fill="#ED4A2F"/>
<path opacity="0.3" d="M127.06 228.018C127.06 228.018 128.842 230.468 129.287 238.264C129.287 238.264 179.851 226.459 243.335 260.094L241.107 229.354C241.107 229.354 187.425 205.075 127.06 228.018Z" fill="black"/>
<path opacity="0.3" d="M133.413 231.846C133.413 231.846 183.381 219.22 237.972 239.136C237.972 239.136 196.717 216.197 133.413 231.846Z" fill="black"/>
<path opacity="0.3" d="M183.43 232.89C183.43 232.89 213.774 234.487 237.73 247.902C237.73 247.902 205.469 235.445 183.43 232.89Z" fill="black"/>
<path d="M243.335 260.094C243.335 260.094 281.648 239.378 313.946 231.805C313.946 231.805 310.16 216.435 308.155 211.312C308.155 211.312 276.97 216.435 241.107 229.354L243.335 260.094Z" fill="#ED4A2F"/>
<path opacity="0.5" d="M243.335 260.094C243.335 260.094 281.648 239.378 313.946 231.805C313.946 231.805 310.16 216.435 308.155 211.312C308.155 211.312 276.97 216.435 241.107 229.354L243.335 260.094Z" fill="black"/>
<path opacity="0.3" d="M246.515 247.423C246.515 247.423 280.532 231.772 309.758 226.661C309.758 226.661 280.372 227.939 246.515 247.423Z" fill="black"/>
<path opacity="0.3" d="M246.883 238.264C246.883 238.264 275.79 224.849 306.294 220.697C306.294 220.697 276.269 221.814 246.883 238.264Z" fill="black"/>
<path d="M168.268 211.088L127.057 228.016C103.774 195.836 69.6566 187.751 63.6832 186.551C63.5022 186.518 63.348 186.491 63.2206 186.464C62.9257 186.41 62.7715 186.383 62.7715 186.383C62.872 186.343 62.9726 186.296 63.0732 186.256C97.6932 171.527 138.039 168.49 138.039 168.49C150.026 176.052 157.554 186.571 162.1 195.253C166.732 204.122 168.268 211.088 168.268 211.088Z" fill="#ED4A2F"/>
<path d="M139.903 215.855L127.808 220.688C113.254 196.835 82.7969 185.11 82.7969 185.11C90.8619 182.502 98.86 180.47 106.107 178.895C112.784 182.381 133.118 194.502 139.903 215.855Z" fill="#F7BC4B"/>
<path d="M149.348 185.411L128.773 191.311C124.275 186.477 118.543 181.717 111.289 177.829C125.757 174.966 136.161 174.061 136.161 174.061C141.29 176.911 145.695 181.034 149.348 185.411Z" fill="#F7BC4B"/>
<path d="M162.173 206.945L143.053 214.594C141.86 211.155 138.474 202.822 131.308 194.194L151.514 188.153C158.526 197.479 162.173 206.945 162.173 206.945Z" fill="#F7BC4B"/>
<path opacity="0.5" d="M162.1 195.253C153.753 193.899 145.614 190.882 137.362 188.797C113.421 182.756 88.2941 184.526 63.6833 186.551C63.5559 186.564 63.4353 186.571 63.3079 186.585L63.2207 186.464L63.0732 186.256C97.6933 171.527 138.039 168.49 138.039 168.49C139.902 169.67 141.659 170.917 143.315 172.218C144.139 172.861 144.931 173.518 145.702 174.189C153.371 180.846 158.614 188.589 162.1 195.253Z" fill="white"/>
<path d="M127.058 228.016C127.058 228.016 127.084 228.002 127.144 227.976L127.058 228.016Z" fill="#28ABE2"/>
<path d="M127.145 227.976C127.661 227.728 130.55 226.38 135.37 224.604L127.145 227.976Z" fill="#28ABE2"/>
<path d="M301.109 206.248C281.466 206.744 254.529 215.848 244.996 219.294C242.757 220.105 241.476 220.601 241.476 220.601C194.755 206.442 152.647 218.241 135.37 224.604L168.267 211.088C179.698 206.985 191.222 204.183 202.458 202.346C254.972 193.751 301.109 206.248 301.109 206.248Z" fill="#ED4A2F"/>
<path d="M237.407 202.225C227.284 204.759 217.57 208.42 212.501 210.451C188.494 209.097 168.12 213.622 168.12 213.622C191.605 205.537 216.678 202.775 237.407 202.225Z" fill="#F7BC4B"/>
<path d="M283.217 204.417C264.68 205.618 240.002 214.956 240.002 214.956C232.158 212.643 224.046 211.343 216.223 210.713C221.814 208.487 232.319 204.585 242.918 202.131C266.497 201.924 283.217 204.417 283.217 204.417Z" fill="#F7BC4B"/>
<path opacity="0.5" d="M301.11 206.248C281.467 206.744 254.53 215.848 244.997 219.294C232.286 210.652 217.637 204.84 202.459 202.346C254.972 193.751 301.11 206.248 301.11 206.248Z" fill="white"/>
<path opacity="0.3" d="M145.702 174.189C144.026 175.409 140.164 177.997 139.018 176.83C139.018 176.83 141.599 173.786 143.315 172.218C144.14 172.861 144.931 173.518 145.702 174.189Z" fill="black"/>
<path d="M151.642 168.577C151.642 170.696 150.877 172.305 148.169 172.472C145.46 172.647 144.696 172.137 144.696 172.137C144.696 172.137 142.41 175.013 140.379 176.709C139.487 177.447 138.501 177.688 137.811 177.48C136.913 177.219 136.504 176.213 137.409 174.591C139.024 171.715 139.192 166.888 141.31 166.123C143.422 165.359 148.759 164.26 148.759 164.26C148.759 164.26 151.172 166.097 151.581 168.034C151.621 168.215 151.642 168.396 151.642 168.577Z" fill="#FFB68D"/>
<path opacity="0.3" d="M151.641 168.577C151.641 170.696 150.877 172.305 148.168 172.472C145.46 172.647 144.696 172.137 144.696 172.137C144.696 172.137 142.41 175.013 140.378 176.709C139.487 177.447 138.501 177.688 137.811 177.48C141.753 176.34 144.273 169.549 144.273 169.549C149.241 170.099 151.219 168.396 151.581 168.034C151.621 168.215 151.641 168.396 151.641 168.577Z" fill="black"/>
</g>
<defs>
<clipPath id="clip0_1_4619">
<rect width="366.102" height="284" fill="white"/>
</clipPath>
</defs>
</svg>
