<svg width="269" height="259" viewBox="0 0 269 259" fill="none" xmlns="http://www.w3.org/2000/svg">
<path d="M22.5143 123.554C22.0757 123.554 21.7103 123.355 21.5641 122.959C21.0524 121.77 20.5407 120.58 20.1021 119.457C19.8828 118.995 20.1752 118.466 20.76 118.268C21.2717 118.07 21.8565 118.334 22.0757 118.862C22.5143 119.986 23.026 121.175 23.5377 122.298C23.757 122.761 23.4646 123.289 22.9529 123.487C22.8067 123.554 22.6605 123.554 22.5143 123.554Z" fill="url(#paint0_linear_1_5748)"/>
<path d="M18.786 113.18C18.3475 113.18 17.9089 112.916 17.7627 112.454C17.1048 110.075 16.5931 107.696 16.2276 105.318C16.1545 104.789 16.52 104.327 17.1048 104.261C17.6896 104.195 18.2013 104.525 18.2744 105.054C18.6398 107.366 19.1515 109.745 19.8094 112.057C19.9556 112.586 19.5901 113.048 19.0784 113.18C18.9322 113.18 18.8591 113.18 18.786 113.18ZM16.4469 98.975C15.9352 98.975 15.4235 98.5786 15.4235 98.1161C15.3505 96.7286 15.2773 95.275 15.2773 93.8215C15.2773 92.8304 15.2773 91.7732 15.3504 90.7822C15.3504 90.2536 15.8621 89.8572 16.4469 89.8572C17.0317 89.8572 17.4703 90.3197 17.4703 90.8483C17.3972 91.8393 17.3972 92.8304 17.3972 93.8215C17.3972 95.209 17.4703 96.5965 17.5434 97.984C17.4703 98.4465 17.0317 98.909 16.4469 98.975ZM17.0317 84.5715C16.9586 84.5715 16.9586 84.5715 16.8855 84.5715C16.3007 84.5054 15.9352 84.0429 16.0083 83.5143C16.3738 81.1357 16.8124 78.6911 17.4703 76.3125C17.6165 75.784 18.1282 75.5197 18.713 75.5857C19.2977 75.7179 19.5901 76.1804 19.517 76.709C18.9322 79.0215 18.4937 81.4 18.1282 83.7125C17.982 84.2411 17.5434 84.5715 17.0317 84.5715ZM20.6135 70.5643C20.5404 70.5643 20.3942 70.5643 20.3211 70.4982C19.8094 70.3661 19.517 69.8375 19.6632 69.309C20.5404 66.9965 21.4907 64.75 22.5871 62.5036C22.8064 62.0411 23.3912 61.8429 23.976 62.0411C24.4877 62.2393 24.707 62.7679 24.4877 63.2965C23.4643 65.4768 22.4409 67.7233 21.6369 69.9036C21.4176 70.3 21.0521 70.5643 20.6135 70.5643ZM27.0461 57.35C26.8999 57.35 26.6806 57.284 26.5344 57.2179C26.0227 56.9536 25.8765 56.425 26.1689 55.9625C27.4847 53.8482 28.9466 51.8 30.4086 49.7518C30.701 49.3554 31.3589 49.2232 31.8706 49.4875C32.3091 49.7518 32.4553 50.3465 32.1629 50.809C30.701 52.725 29.239 54.7732 27.9964 56.8215C27.7771 57.2179 27.4116 57.35 27.0461 57.35ZM36.1102 45.5232C35.8909 45.5232 35.6716 45.4572 35.4523 45.325C35.0138 44.9947 34.9407 44.4 35.3062 44.0036C37.0605 42.1536 38.8879 40.3697 40.7885 38.6518C41.2271 38.3215 41.8119 38.3215 42.2504 38.6518C42.6159 39.0482 42.6159 39.5768 42.2504 39.9732C40.423 41.625 38.5956 43.409 36.9143 45.1929C36.695 45.3911 36.4026 45.5232 36.1102 45.5232ZM47.4404 35.4143C47.148 35.4143 46.8556 35.2822 46.6363 35.084C46.2708 34.6875 46.3439 34.0929 46.7825 33.7625C48.8293 32.2429 51.0222 30.7893 53.2882 29.4018C53.7268 29.1375 54.3847 29.2036 54.7502 29.6661C55.0426 30.0625 54.9695 30.6572 54.4578 30.9875C52.2648 32.309 50.145 33.6965 48.0983 35.2161C47.9521 35.3482 47.6597 35.4143 47.4404 35.4143ZM144.514 29.1375C144.368 29.1375 144.149 29.0715 144.003 29.0054C141.737 27.8161 139.397 26.6268 137.058 25.6357C136.547 25.4375 136.327 24.8429 136.547 24.3804C136.766 23.9179 137.424 23.7197 137.936 23.9179C140.348 24.975 142.76 26.1643 145.026 27.3536C145.538 27.6179 145.684 28.2125 145.391 28.609C145.245 28.9393 144.88 29.1375 144.514 29.1375ZM60.6711 27.4197C60.3056 27.4197 59.9401 27.2215 59.7939 26.9572C59.5015 26.4947 59.7208 25.9661 60.2325 25.7018C62.5716 24.5786 65.057 23.4554 67.4692 22.5304C67.9809 22.3322 68.5657 22.5304 68.8581 22.9929C69.0773 23.4554 68.8581 23.984 68.3464 24.2482C65.9341 25.1732 63.5219 26.2304 61.2559 27.3536C61.0366 27.3536 60.8904 27.4197 60.6711 27.4197ZM130.187 22.9268C130.041 22.9268 129.968 22.9268 129.822 22.8607C127.336 22.0679 124.851 21.3411 122.293 20.7465C121.708 20.6143 121.415 20.0857 121.562 19.6232C121.708 19.0947 122.293 18.8304 122.804 18.9625C125.363 19.5572 127.994 20.35 130.48 21.1429C130.991 21.3411 131.284 21.8697 131.064 22.3322C130.991 22.6625 130.626 22.9268 130.187 22.9268ZM75.3638 21.8036C74.9252 21.8036 74.4866 21.5393 74.4135 21.1429C74.2673 20.6804 74.5597 20.1518 75.0714 19.9536C77.6298 19.2268 80.2613 18.5661 82.8928 18.1036C83.4776 17.9715 83.9893 18.3018 84.1355 18.8304C84.2817 19.359 83.9162 19.8215 83.3314 19.9536C80.773 20.4822 78.2146 21.0768 75.7293 21.8036C75.5831 21.7375 75.4369 21.8036 75.3638 21.8036ZM114.763 19.2268C114.69 19.2268 114.617 19.2268 114.617 19.2268C112.059 18.8304 109.427 18.5661 106.796 18.434C106.211 18.3679 105.772 17.9715 105.846 17.4429C105.919 16.9143 106.357 16.5179 106.942 16.584C109.647 16.7822 112.351 17.0465 114.983 17.4429C115.568 17.509 115.933 18.0375 115.86 18.5C115.714 18.8965 115.275 19.2268 114.763 19.2268ZM90.9336 18.7643C90.4219 18.7643 89.9833 18.434 89.9102 17.9715C89.8371 17.4429 90.2757 16.9804 90.7874 16.9143C93.4189 16.65 96.1236 16.4518 98.8282 16.3857C99.413 16.3857 99.8515 16.7822 99.8515 17.3107C99.8515 17.8393 99.413 18.2357 98.8282 18.2357C96.1966 18.3018 93.5651 18.434 91.0067 18.7643H90.9336Z" fill="url(#paint1_linear_1_5748)"/>
<path d="M154.456 35.4804C154.237 35.4804 154.017 35.4143 153.798 35.2822C152.775 34.4893 151.678 33.7625 150.582 33.0357C150.143 32.7054 149.997 32.1768 150.362 31.7143C150.728 31.3179 151.313 31.1857 151.824 31.5161C152.921 32.2429 154.017 33.0357 155.114 33.8286C155.552 34.159 155.625 34.7536 155.26 35.15C155.041 35.3482 154.748 35.4804 154.456 35.4804Z" fill="url(#paint2_linear_1_5748)"/>
<path d="M161.984 42.0215L150.435 39.9072C149.485 39.9072 148.973 38.8501 149.704 38.2554L158.695 30.1286C159.353 29.534 160.523 29.9304 160.523 30.7894L163.008 41.0304C163.008 41.6251 162.569 42.0215 161.984 42.0215Z" fill="url(#paint3_linear_1_5748)"/>
<path d="M185.012 227.087C184.792 227.087 184.573 227.021 184.427 226.955C183.988 226.691 183.842 226.096 184.135 225.634C184.866 224.643 185.596 223.586 186.254 222.529C186.547 222.066 187.205 221.934 187.643 222.198C188.155 222.462 188.301 223.057 188.009 223.454C187.278 224.577 186.547 225.634 185.743 226.691C185.67 226.889 185.304 227.087 185.012 227.087Z" fill="url(#paint4_linear_1_5748)"/>
<path d="M138.083 248.23C138.01 248.23 138.083 248.23 138.083 248.23C135.378 248.098 132.747 247.834 130.115 247.371C129.53 247.305 129.165 246.777 129.311 246.248C129.384 245.72 129.969 245.389 130.554 245.521C133.039 245.984 135.597 246.248 138.156 246.38C138.741 246.38 139.179 246.843 139.106 247.371C139.106 247.834 138.594 248.23 138.083 248.23ZM145.904 248.032C145.392 248.032 144.954 247.702 144.881 247.173C144.808 246.645 145.246 246.182 145.831 246.182C148.389 245.984 150.948 245.587 153.36 244.993C153.945 244.861 154.457 245.191 154.603 245.654C154.749 246.182 154.383 246.645 153.872 246.777C151.313 247.371 148.682 247.768 146.05 247.966C145.977 248.032 145.904 248.032 145.904 248.032ZM122.732 245.521C122.586 245.521 122.513 245.521 122.367 245.455C119.881 244.662 117.396 243.671 115.057 242.548C114.545 242.284 114.326 241.755 114.618 241.293C114.911 240.83 115.495 240.632 116.007 240.896C118.273 241.954 120.612 242.879 123.025 243.671C123.536 243.87 123.829 244.398 123.682 244.861C123.609 245.257 123.171 245.521 122.732 245.521ZM161.035 244.662C160.597 244.662 160.231 244.464 160.085 244.068C159.866 243.605 160.085 243.077 160.67 242.879C163.009 242.02 165.348 240.963 167.541 239.773C168.053 239.509 168.638 239.641 168.93 240.104C169.222 240.566 169.076 241.095 168.564 241.359C166.298 242.614 163.886 243.671 161.401 244.596C161.255 244.596 161.182 244.662 161.035 244.662ZM174.412 237.461C174.12 237.461 173.828 237.329 173.608 237.13C173.243 236.734 173.316 236.139 173.754 235.809C175.728 234.355 177.629 232.77 179.31 231.052C179.675 230.655 180.333 230.655 180.772 230.986C181.21 231.316 181.21 231.911 180.845 232.307C179.017 234.091 177.117 235.743 175.07 237.263C174.924 237.395 174.632 237.461 174.412 237.461Z" fill="url(#paint5_linear_1_5748)"/>
<path d="M108.917 238.914C108.697 238.914 108.478 238.848 108.332 238.716C107.235 237.989 106.139 237.196 105.042 236.338C104.604 236.007 104.531 235.413 104.896 235.016C105.262 234.62 105.919 234.554 106.358 234.884C107.381 235.677 108.478 236.47 109.501 237.13C109.94 237.461 110.086 237.989 109.721 238.452C109.574 238.782 109.282 238.914 108.917 238.914Z" fill="url(#paint6_linear_1_5748)"/>
<path d="M96.5627 229.004L108.331 229.598C109.282 229.466 109.94 230.457 109.355 231.118L101.753 240.368C101.168 241.029 99.9983 240.764 99.8521 239.905L95.6856 230.061C95.5394 229.532 95.978 229.07 96.5627 229.004Z" fill="url(#paint7_linear_1_5748)"/>
<path d="M50.7299 153.286H13.3769C11.9881 153.286 10.8916 152.295 10.8916 151.039V130.095C10.8916 128.839 11.9881 127.848 13.3769 127.848H50.7299C52.1188 127.848 53.2152 128.839 53.2152 130.095V151.039C53.2152 152.295 52.1188 153.286 50.7299 153.286Z" fill="url(#paint8_linear_1_5748)"/>
<path d="M33.4053 150.907L44.2969 160.421C45.174 161.214 46.7091 160.62 46.7091 159.496V150.709L33.4053 150.907Z" fill="url(#paint9_linear_1_5748)"/>
<path d="M45.1748 137.825H19.5906C19.0058 137.825 18.4941 137.363 18.4941 136.834C18.4941 136.305 19.0058 135.843 19.5906 135.843H45.1748C45.7596 135.843 46.2713 136.305 46.2713 136.834C46.3444 137.363 45.8327 137.825 45.1748 137.825Z" fill="white"/>
<path d="M45.1748 145.027H19.5906C19.0058 145.027 18.4941 144.564 18.4941 144.036C18.4941 143.507 19.0058 143.045 19.5906 143.045H45.1748C45.7596 143.045 46.2713 143.507 46.2713 144.036C46.3444 144.63 45.8327 145.027 45.1748 145.027Z" fill="white"/>
<path d="M229.454 152.162C223.899 156.061 210.303 159.629 201.823 158.637C194.075 157.712 192.759 153.814 202.554 152.493C204.016 151.964 203.358 150.511 202.773 149.982C200.434 147.802 197.437 147.075 194.586 146.877C192.613 146.877 190.785 146.745 189.177 146.414C180.771 144.895 180.406 140.204 193.563 140.204C206.721 140.204 225.361 126.725 231.282 123.554C240.565 118.532 245.828 124.743 223.241 138.221C222.656 138.552 216.077 142.45 215.419 142.78C213.08 144.036 211.399 146.48 213.957 147.471C218.709 149.454 227.7 143.111 230.478 141.393C239.249 135.843 238.007 146.216 229.454 152.162Z" fill="url(#paint10_linear_1_5748)"/>
<path d="M242.246 130.821C239.468 133.134 238.226 134.389 239.322 136.041C240.419 137.693 241.661 137.627 244.512 134.984C248.313 131.548 245.17 128.509 242.246 130.821Z" fill="url(#paint11_linear_1_5748)"/>
<path d="M239.98 147.868C237.129 149.916 233.913 153.22 228.65 156.127C222.51 159.562 223.68 160.091 227.627 159.298C231.647 158.505 237.568 154.739 239.907 152.493C244.439 148.132 242.393 146.15 239.98 147.868Z" fill="url(#paint12_linear_1_5748)"/>
<path d="M239.029 152.163V207.266C239.029 209.711 236.836 211.759 234.059 211.759H120.318C117.614 211.759 115.348 209.777 115.348 207.266V152.163C115.348 149.718 117.541 147.67 120.318 147.67H234.059C236.836 147.736 239.029 149.718 239.029 152.163Z" fill="url(#paint13_linear_1_5748)"/>
<path d="M166.516 147.736V211.825H120.318C117.614 211.825 115.348 209.843 115.348 207.332V152.229C115.348 149.784 117.541 147.736 120.318 147.736H166.516Z" fill="url(#paint14_linear_1_5748)"/>
<path d="M220.17 180.639H184.571C183.621 180.639 182.89 179.979 182.89 179.12C182.89 178.261 183.621 177.6 184.571 177.6H220.17C221.12 177.6 221.851 178.261 221.851 179.12C221.851 179.979 221.12 180.639 220.17 180.639Z" fill="url(#paint15_linear_1_5748)"/>
<path d="M220.17 187.973H184.571C183.621 187.973 182.89 187.313 182.89 186.454C182.89 185.595 183.621 184.934 184.571 184.934H220.17C221.12 184.934 221.851 185.595 221.851 186.454C221.851 187.246 221.12 187.973 220.17 187.973Z" fill="url(#paint16_linear_1_5748)"/>
<path d="M220.17 195.241H184.571C183.621 195.241 182.89 194.58 182.89 193.721C182.89 192.863 183.621 192.202 184.571 192.202H220.17C221.12 192.202 221.851 192.863 221.851 193.721C221.851 194.58 221.12 195.241 220.17 195.241Z" fill="url(#paint17_linear_1_5748)"/>
<path d="M213.371 169.275H186.545C184.498 169.275 182.89 167.822 182.89 165.972C182.89 164.122 184.498 162.668 186.545 162.668H213.371C215.418 162.668 217.026 164.122 217.026 165.972C217.099 167.755 215.418 169.275 213.371 169.275Z" fill="url(#paint18_linear_1_5748)"/>
<path d="M129.821 201.055H166.297C167.832 201.055 169.001 199.932 169.001 198.611V161.148C169.001 159.761 167.759 158.704 166.297 158.704H129.821C128.286 158.704 127.116 159.827 127.116 161.148V198.611C127.116 199.932 128.286 201.055 129.821 201.055Z" fill="url(#paint19_linear_1_5748)"/>
<path d="M161.035 63.3625V216.78C161.035 219.357 158.769 221.405 155.918 221.405H54.2389C51.3881 221.405 49.1221 219.357 49.1221 216.78V63.3625C49.1221 60.7858 51.3881 58.7375 54.2389 58.7375H155.991C158.769 58.7375 161.035 60.8518 161.035 63.3625Z" fill="url(#paint20_linear_1_5748)"/>
<path d="M161.035 63.3625V65.8733H49.0488V63.3625C49.0488 60.7858 51.3149 58.7375 54.1657 58.7375H155.918C158.769 58.7375 161.035 60.8518 161.035 63.3625Z" fill="url(#paint21_linear_1_5748)"/>
<path d="M49.0488 217.045V214.534H161.035V217.045C161.035 219.621 158.769 221.67 155.918 221.67H54.2388C51.388 221.67 49.0488 219.555 49.0488 217.045Z" fill="url(#paint22_linear_1_5748)"/>
<path d="M105.041 157.052C125.954 157.052 142.906 141.729 142.906 122.827C142.906 103.925 125.954 88.6018 105.041 88.6018C84.1294 88.6018 67.1768 103.925 67.1768 122.827C67.1768 141.729 84.1294 157.052 105.041 157.052Z" fill="url(#paint23_linear_1_5748)"/>
<path d="M39.546 189.559C41.8121 190.814 41.6659 192.863 38.2303 192.598C34.7947 192.334 30.3357 191.277 30.0433 193.391C29.824 195.505 45.1746 205.416 58.4053 210.834C71.7091 216.252 74.8523 215.591 73.9751 220.414C73.171 225.238 67.3232 226.361 55.993 222.066C44.6629 217.771 26.096 206.011 21.7102 199.932C17.3243 193.854 16.7395 191.607 20.3213 191.343C23.9031 191.079 26.9001 190.418 24.8534 188.634C22.7335 186.784 15.4237 180.573 15.3506 177.93C15.2044 175.288 15.7161 175.42 19.5903 177.996C23.4645 180.573 35.3795 187.246 39.546 189.559Z" fill="url(#paint24_linear_1_5748)"/>
<path d="M0.950364 174.429C-2.11974 176.675 4.38596 183.546 7.82155 185.198C11.2572 186.85 12.2074 183.877 8.99112 179.054C5.77482 174.23 2.77781 173.107 0.950364 174.429Z" fill="url(#paint25_linear_1_5748)"/>
<path d="M223.313 98.1161V137.363C223.313 138.948 222.217 140.27 220.682 140.732C220.243 140.864 219.805 140.996 219.293 140.996H155.552C155.113 140.996 154.674 140.93 154.309 140.798C152.701 140.336 151.531 138.948 151.531 137.363V98.1161C151.531 96.134 153.359 94.4822 155.552 94.4822H219.293C220.682 94.4822 221.924 95.1429 222.655 96.134C223.094 96.7286 223.313 97.4554 223.313 98.1161Z" fill="url(#paint26_linear_1_5748)"/>
<path d="M152.189 96.3982L180.844 67.525C184.426 63.8911 190.785 63.8911 194.367 67.525L222.583 96.2L152.189 96.3982Z" fill="url(#paint27_linear_1_5748)"/>
<path d="M223.313 98.1161V137.363C223.313 139.345 221.486 140.996 219.293 140.996H213.664L193.928 124.611C192.247 123.223 192.32 120.911 193.928 119.523L221.778 96.6625C222.071 96.3982 222.363 96.2661 222.729 96.0679C223.094 96.7286 223.313 97.4554 223.313 98.1161Z" fill="url(#paint28_linear_1_5748)"/>
<path d="M151.604 98.1161V137.363C151.604 139.345 153.432 140.996 155.625 140.996H161.253L180.99 124.611C182.671 123.223 182.598 120.911 180.99 119.523L153.14 96.6625C152.847 96.3982 152.555 96.2661 152.189 96.0679C151.824 96.7286 151.604 97.4554 151.604 98.1161Z" fill="url(#paint29_linear_1_5748)"/>
<path d="M220.682 140.798C220.244 140.93 219.805 141.062 219.294 141.062H155.552C155.114 141.062 154.675 140.996 154.31 140.864L182.233 118.202C185.23 115.757 190.128 115.757 193.125 118.202L220.682 140.798Z" fill="url(#paint30_linear_1_5748)"/>
<path d="M240.273 92.7642C234.132 99.3053 227.554 109.018 215.931 118.664C202.335 129.962 205.332 130.953 214.834 127.254C224.337 123.554 237.349 111.529 242.173 104.723C251.456 91.5749 245.462 87.2142 240.273 92.7642Z" fill="url(#paint31_linear_1_5748)"/>
<path d="M180.04 72.6786C189.245 72.6786 196.707 65.9341 196.707 57.6143C196.707 49.2946 189.245 42.55 180.04 42.55C170.836 42.55 163.374 49.2946 163.374 57.6143C163.374 65.9341 170.836 72.6786 180.04 72.6786Z" fill="url(#paint32_linear_1_5748)"/>
<path d="M176.093 65.2125C175.728 65.2125 175.362 65.0804 175.143 64.8161L168.93 59.0679C168.418 58.6054 168.418 57.8125 168.93 57.2839C169.441 56.8214 170.319 56.8214 170.903 57.2839L176.02 62.0411L186.546 49.6196C186.985 49.0911 187.862 48.9589 188.447 49.4214C189.032 49.8179 189.178 50.6107 188.666 51.1393L177.19 64.75C176.97 65.0143 176.605 65.2125 176.166 65.2125C176.093 65.2125 176.093 65.2125 176.093 65.2125Z" fill="white"/>
<path d="M133.988 185.33H76.1681C71.2705 185.33 67.3232 181.763 67.3232 177.336C67.3232 172.909 71.2705 169.341 76.1681 169.341H133.988C138.886 169.341 142.833 172.909 142.833 177.336C142.833 181.763 138.886 185.33 133.988 185.33Z" fill="url(#paint33_linear_1_5748)"/>
<path d="M105.042 182.952C104.457 182.952 104.019 182.555 104.019 182.027V173.107C104.019 172.579 104.457 172.182 105.042 172.182C105.627 172.182 106.065 172.579 106.065 173.107V182.027C106.065 182.555 105.627 182.952 105.042 182.952Z" fill="white"/>
<path d="M110.013 178.525H100.144C99.5597 178.525 99.1211 178.129 99.1211 177.6C99.1211 177.071 99.5597 176.675 100.144 176.675H110.013C110.597 176.675 111.036 177.071 111.036 177.6C111.036 178.063 110.597 178.525 110.013 178.525Z" fill="white"/>
<path d="M117.03 193.391H93.1269C92.6152 193.391 92.1035 192.995 92.1035 192.466C92.1035 192.004 92.5421 191.541 93.1269 191.541H117.03C117.542 191.541 118.053 191.938 118.053 192.466C117.98 192.995 117.542 193.391 117.03 193.391Z" fill="url(#paint34_linear_1_5748)"/>
<path d="M114.763 105.648C114.763 105.648 111.327 117.277 109.792 127.452C108.257 137.627 108.33 138.353 109.719 139.146C112.058 140.468 116.371 137.561 116.371 137.561C116.371 137.561 118.198 139.873 120.464 138.023C122.73 136.173 122.657 134.653 122.657 134.653C122.657 134.653 124.339 136.702 125.728 133.927C127.043 131.152 125.362 121.241 122.804 114.502C120.903 109.744 114.763 105.648 114.763 105.648Z" fill="url(#paint35_linear_1_5748)"/>
<path d="M116.663 137.362C116.517 137.428 116.444 137.428 116.298 137.362C116.152 137.23 116.079 136.9 116.152 136.636C116.152 136.636 116.81 135.116 116.883 133.728C117.029 132.275 116.883 131.02 116.883 131.02C116.883 130.755 117.029 130.491 117.248 130.425C117.467 130.425 117.614 130.623 117.687 130.887C117.687 130.954 117.833 132.275 117.687 133.861C117.541 135.446 116.883 137.098 116.883 137.164C116.737 137.296 116.663 137.362 116.663 137.362Z" fill="#600B32"/>
<path d="M122.73 134.719C122.657 134.786 122.511 134.786 122.365 134.719C122.146 134.587 122.072 134.323 122.219 134.059C122.219 134.059 122.584 133.134 122.584 132.209C122.584 131.284 122.511 130.425 122.511 130.425C122.511 130.161 122.584 129.896 122.803 129.83C123.023 129.764 123.169 129.962 123.242 130.227C123.242 130.293 123.388 131.152 123.315 132.209C123.242 133.332 122.876 134.389 122.876 134.455C122.876 134.587 122.803 134.653 122.73 134.719Z" fill="#600B32"/>
<path d="M119.733 116.286C119.879 115.559 120.757 115.162 121.414 115.427C122.438 115.823 123.681 116.682 123.9 118.73C124.338 122.298 121.999 124.412 120.318 125.007C119.806 125.139 119.441 125.205 119.075 125.205C118.271 125.205 117.76 124.478 117.906 123.818L119.733 116.286Z" fill="url(#paint36_linear_1_5748)"/>
<path d="M120.464 117.871C120.538 117.475 121.049 117.211 121.488 117.409C122.073 117.607 122.804 118.135 122.95 119.325C123.242 121.439 121.853 122.628 120.903 122.959C120.611 123.025 120.391 123.091 120.172 123.091C119.733 123.091 119.368 122.694 119.514 122.298L120.464 117.871Z" fill="url(#paint37_linear_1_5748)"/>
<path d="M89.983 110.405C89.983 110.405 86.6205 121.043 85.1585 125.932C83.6234 130.821 83.5503 134.191 86.0357 135.777C88.521 137.296 90.7139 134.323 90.7139 134.323C90.7139 134.323 91.1525 137.891 92.6876 138.882C94.2226 139.873 95.8308 137.891 95.8308 137.891C95.8308 137.891 100.29 142.384 102.921 138.684C104.018 137.098 100.948 123.752 99.4126 117.078C97.8775 110.405 89.983 110.405 89.983 110.405Z" fill="url(#paint38_linear_1_5748)"/>
<path d="M95.8305 137.362C95.9767 137.428 96.0498 137.428 96.196 137.362C96.3422 137.23 96.4153 136.9 96.3422 136.636C96.3422 136.636 95.6843 135.116 95.6112 133.728C95.465 132.275 95.6112 131.02 95.6112 131.02C95.6112 130.755 95.465 130.491 95.2457 130.425C95.0264 130.425 94.8803 130.623 94.8072 130.887C94.8072 130.954 94.661 132.275 94.8072 133.861C94.9534 135.446 95.6112 137.098 95.6843 137.164C95.6843 137.296 95.7574 137.362 95.8305 137.362Z" fill="#600B32"/>
<path d="M90.4217 134.125C90.4948 134.191 90.6409 134.191 90.7871 134.125C91.0064 133.993 91.0795 133.728 90.9333 133.464C90.9333 133.464 90.5678 132.539 90.5678 131.614C90.5678 130.689 90.641 129.83 90.641 129.83C90.641 129.566 90.5679 129.302 90.3486 129.236C90.1293 129.17 89.9831 129.368 89.91 129.632C89.91 129.698 89.7638 130.557 89.8369 131.614C89.91 132.737 90.2755 133.794 90.2755 133.861C90.2755 133.993 90.3486 134.059 90.4217 134.125Z" fill="#600B32"/>
<path d="M90.1295 116.286C89.9833 115.559 89.1061 115.162 88.4483 115.427C87.4249 115.823 86.1822 116.682 85.9629 118.73C85.5244 122.298 87.8635 124.412 89.5447 125.007C90.0564 125.139 90.4219 125.205 90.7874 125.205C91.5915 125.205 92.1032 124.479 91.957 123.818L90.1295 116.286Z" fill="url(#paint39_linear_1_5748)"/>
<path d="M89.399 117.871C89.3259 117.475 88.8142 117.211 88.3756 117.409C87.7909 117.607 87.0599 118.136 86.9137 119.325C86.6213 121.439 88.0102 122.628 88.9604 122.959C89.2528 123.025 89.4721 123.091 89.6914 123.091C90.13 123.091 90.4955 122.695 90.3493 122.298L89.399 117.871Z" fill="url(#paint40_linear_1_5748)"/>
<path d="M100.802 141.261L109.062 141.393L109.354 129.896L101.094 129.698L100.802 141.261Z" fill="url(#paint41_linear_1_5748)"/>
<path d="M93.3452 127.386C97.0001 134.653 104.091 136.503 110.669 133.728C117.175 131.02 119.88 120.382 119.734 114.039C119.587 107.696 115.64 100.495 106.576 99.966C98.2428 99.4374 93.4914 101.618 91.3716 106.705C91.1523 107.168 91.0061 107.696 90.8599 108.159C90.8599 108.159 90.5675 110.339 90.3482 113.312C89.9827 117.805 91.5909 124.082 93.3452 127.386Z" fill="url(#paint42_linear_1_5748)"/>
<path d="M90.0557 115.625C90.275 115.625 90.7866 115.691 91.0059 115.691C92.6872 115.493 95.6842 112.916 95.6842 113.114C95.6842 113.312 96.1228 115.295 98.7543 114.37C101.386 113.511 102.628 111.198 102.628 111.198C102.628 111.198 103.798 111.595 106.21 112.057C108.623 112.52 113.812 111.991 113.812 111.991C113.812 111.991 107.745 108.093 107.672 107.895C107.599 107.63 104.895 107.63 104.895 107.63C104.895 107.63 101.313 106.705 99.8508 106.309C98.4619 105.912 92.3948 107.564 92.3948 107.564C92.3948 107.564 91.9562 108.159 91.3714 109.084C91.1521 109.546 91.0059 110.075 90.8597 110.537C90.9328 110.537 90.275 112.652 90.0557 115.625Z" fill="url(#paint43_linear_1_5748)"/>
<path d="M103.214 109.216C103.214 109.216 100.509 113.246 98.1699 113.907C95.8308 114.568 95.977 111.727 95.977 111.727C95.977 111.727 92.1028 114.832 89.8368 115.162C87.5707 115.493 89.1789 109.678 90.787 107.696C92.4683 105.648 106.795 102.939 103.214 109.216Z" fill="url(#paint44_linear_1_5748)"/>
<path d="M116.883 112.189L118.125 123.553L120.684 114.171C120.611 114.171 118.637 112.718 116.883 112.189Z" fill="#600B32"/>
<path d="M93.199 111.462L91.9563 123.818L88.4476 112.916C88.3745 112.916 91.3715 111.991 93.199 111.462Z" fill="#600B32"/>
<path d="M125.143 114.105C125.289 115.559 123.608 116.55 122.219 115.889C118.783 114.171 110.085 110.273 101.532 110.736C90.5675 111.33 88.8863 114.105 87.5705 113.643C85.2314 112.718 86.6203 109.084 87.0589 108.423C87.4974 107.762 88.0091 95.6714 101.386 91.9053C114.763 88.1392 121.122 93.6892 122.219 96.266C123.973 100.429 120.976 103.071 121.122 104.921C121.269 106.771 123.973 110.736 124.412 111.595C124.631 111.991 125.07 113.048 125.143 114.105Z" fill="url(#paint45_linear_1_5748)"/>
<path d="M124.265 112.387C124.338 112.387 124.338 112.321 124.411 112.255C124.557 112.057 124.484 111.859 124.338 111.661C124.046 111.462 117.832 106.375 107.087 105.384C96.4148 104.459 88.1548 107.564 88.0817 107.564C87.8624 107.63 87.7893 107.895 87.8624 108.093C87.9355 108.291 88.2279 108.423 88.4472 108.357C88.5203 108.357 96.561 105.252 107.087 106.177C117.54 107.102 123.753 112.189 123.827 112.255C123.973 112.454 124.119 112.454 124.265 112.387Z" fill="#CB2527"/>
<path d="M120.756 114.7C120.829 114.634 120.902 114.568 120.976 114.502C120.976 114.436 121.341 113.445 121.56 112.123C121.78 110.802 121.707 110.339 121.707 110.273C121.633 110.075 121.414 109.877 121.195 109.877C120.976 109.877 120.829 110.075 120.902 110.339C120.902 110.339 120.976 110.736 120.756 111.859C120.537 113.114 120.245 114.105 120.245 114.105C120.172 114.304 120.318 114.568 120.537 114.634C120.537 114.766 120.61 114.766 120.756 114.7Z" fill="#CB2527"/>
<path d="M115.859 112.387C115.932 112.321 116.005 112.255 116.078 112.123L117.174 108.159C117.248 107.961 117.101 107.696 116.882 107.63C116.663 107.564 116.443 107.63 116.37 107.895L115.274 111.859C115.201 112.057 115.347 112.321 115.566 112.387C115.639 112.387 115.786 112.387 115.859 112.387Z" fill="#CB2527"/>
<path d="M110.376 111C110.523 110.934 110.596 110.868 110.596 110.736L111.327 106.507C111.4 106.309 111.181 106.045 110.961 105.978C110.742 105.912 110.523 106.045 110.523 106.243L109.792 110.471C109.719 110.67 109.938 110.934 110.157 111C110.157 111.066 110.303 111.066 110.376 111Z" fill="#CB2527"/>
<path d="M105.186 110.207C105.333 110.141 105.406 110.075 105.406 109.943L105.99 105.846C105.99 105.648 105.844 105.384 105.625 105.384C105.406 105.318 105.186 105.45 105.186 105.648L104.602 109.745C104.602 109.943 104.748 110.207 104.967 110.207C104.967 110.273 105.113 110.273 105.186 110.207Z" fill="#CB2527"/>
<path d="M98.9729 110.141C99.046 110.075 99.1922 110.009 99.1922 109.877L100.069 105.978C100.142 105.78 99.9963 105.516 99.777 105.45C99.5577 105.384 99.3384 105.516 99.2653 105.714L98.3882 109.612C98.3151 109.811 98.4612 110.075 98.6805 110.141C98.8267 110.141 98.8998 110.141 98.9729 110.141Z" fill="#CB2527"/>
<path d="M93.1985 110.868C93.2716 110.802 93.4178 110.736 93.4178 110.604L94.295 106.705C94.3681 106.507 94.2219 106.243 94.0026 106.177C93.7833 106.111 93.564 106.243 93.4909 106.441L92.6137 110.339C92.5406 110.537 92.6868 110.802 92.9061 110.868C93.0523 110.868 93.1254 110.868 93.1985 110.868Z" fill="#CB2527"/>
<path d="M89.324 112.189C89.4702 112.123 89.5433 112.057 89.5433 111.925L90.1281 107.63C90.1281 107.432 89.9819 107.168 89.7626 107.168C89.5433 107.102 89.324 107.234 89.324 107.498L88.7393 111.793C88.7393 111.991 88.8855 112.255 89.1047 112.255C89.1778 112.255 89.2509 112.189 89.324 112.189Z" fill="#CB2527"/>
<path d="M130.553 148.198C123.828 153.682 114.91 157.052 105.115 157.052C95.4656 157.052 86.6939 153.814 80.042 148.462C82.308 147.405 90.5681 143.837 98.6819 142.979C108.185 141.987 114.398 142.979 120.173 144.168C125.29 145.159 129.602 147.604 130.553 148.198Z" fill="url(#paint46_linear_1_5748)"/>
<path d="M110.596 143.838H99.0469C97.9504 143.838 97.0732 143.045 97.0732 142.054V139.675C97.0732 138.684 97.9504 137.891 99.0469 137.891H110.596C111.693 137.891 112.57 138.684 112.57 139.675V142.054C112.497 143.045 111.62 143.838 110.596 143.838Z" fill="url(#paint47_linear_1_5748)"/>
<path d="M111.839 142.912C111.839 142.912 111.766 142.912 111.766 142.979C111.62 143.045 108.038 144.102 104.456 144.102C100.801 144.102 98.0967 143.309 97.9505 143.309C97.6581 143.243 97.5119 142.979 97.585 142.714C97.6581 142.45 97.9505 142.318 98.2429 142.384C98.2429 142.384 100.948 143.177 104.383 143.177C107.819 143.177 111.401 142.12 111.401 142.12C111.693 142.054 111.985 142.186 112.058 142.45C112.205 142.582 112.058 142.846 111.839 142.912Z" fill="#F3802A"/>
<path d="M100.071 143.573C99.9976 143.639 99.9245 143.639 99.7783 143.639C99.4859 143.639 99.2666 143.309 99.2666 142.979L99.4859 139.609C99.4859 139.279 99.7783 139.014 100.071 139.014C100.363 139.014 100.582 139.345 100.582 139.675L100.363 143.045C100.29 143.309 100.217 143.441 100.071 143.573Z" fill="#F3802A"/>
<path d="M103.58 143.903C103.507 143.97 103.433 143.97 103.36 143.97C103.068 143.97 102.849 143.705 102.849 143.375V139.477C102.849 139.146 103.068 138.882 103.36 138.882C103.653 138.882 103.872 139.146 103.872 139.477V143.375C103.872 143.639 103.726 143.837 103.58 143.903Z" fill="#F3802A"/>
<path d="M107.088 143.705C107.015 143.771 106.942 143.771 106.869 143.771C106.576 143.771 106.357 143.507 106.357 143.177L106.211 139.212C106.211 138.882 106.43 138.552 106.723 138.552C107.015 138.552 107.234 138.816 107.234 139.146L107.38 143.111C107.307 143.375 107.234 143.573 107.088 143.705Z" fill="#F3802A"/>
<path d="M110.305 143.111C110.232 143.177 110.158 143.177 110.158 143.177C109.866 143.243 109.647 142.979 109.574 142.648L109.281 139.477C109.281 139.146 109.427 138.816 109.72 138.816C110.012 138.75 110.232 139.014 110.305 139.345L110.597 142.516C110.597 142.714 110.524 142.979 110.305 143.111Z" fill="#F3802A"/>
<path d="M101.314 156.854C97.147 156.457 93.1266 155.466 89.4717 153.946L97.22 143.573C97.22 143.573 99.9978 145.291 101.094 149.586C101.898 152.889 101.533 155.73 101.314 156.854Z" fill="#F69241"/>
<path d="M120.757 154.013C117.102 155.532 113.155 156.523 108.988 156.854C108.769 155.73 108.33 152.889 109.207 149.586C110.304 145.291 113.082 143.573 113.082 143.573L120.757 154.013Z" fill="#F69241"/>
<path d="M100.071 156.721C92.1761 155.796 85.0856 152.625 79.457 148C79.7494 147.538 80.5535 146.877 82.6002 146.084C86.8399 144.498 90.641 143.177 92.907 143.045C95.1731 142.913 97.366 142.186 98.828 144.696C101.094 148.33 100.144 156.061 100.071 156.721Z" fill="url(#paint48_linear_1_5748)"/>
<path d="M130.626 148.066C125.363 152.427 118.711 155.466 111.328 156.589C111.109 155.532 110.305 151.171 110.743 147.802C111.182 144.564 111.182 141.921 116.591 142.714C123.097 143.771 129.602 147.471 130.626 148.066Z" fill="url(#paint49_linear_1_5748)"/>
<path d="M110.538 118.155C110.055 118.181 109.7 118.764 109.746 119.456C109.792 120.148 110.222 120.687 110.705 120.661C111.189 120.635 111.544 120.052 111.497 119.36C111.451 118.668 111.022 118.128 110.538 118.155Z" fill="#461C34"/>
<path d="M98.7649 118.371C98.2813 118.398 97.9267 118.98 97.9729 119.672C98.019 120.364 98.4484 120.904 98.932 120.877C99.4156 120.851 99.7702 120.269 99.724 119.577C99.6779 118.885 99.2484 118.345 98.7649 118.371Z" fill="#461C34"/>
<path d="M111.986 115.229C112.424 115.559 111.913 116.154 110.378 115.625C108.843 115.03 108.696 114.37 109.281 114.304C109.866 114.172 111.109 114.502 111.986 115.229Z" fill="#461C34"/>
<path d="M97.366 115.229C97.5853 115.03 99.5589 113.841 99.9975 114.304C100.436 114.766 98.2432 115.889 97.5122 115.955C96.7812 116.021 97.366 115.229 97.366 115.229Z" fill="#461C34"/>
<path d="M108.404 127.782C108.55 127.98 107.6 129.897 104.676 129.632C102.044 129.434 101.313 128.046 101.533 128.046C101.752 128.046 103.287 128.773 104.895 128.773C106.503 128.839 108.038 127.32 108.404 127.782Z" fill="url(#paint50_linear_1_5748)"/>
<path d="M105.188 120.316C105.48 120.646 106.211 124.875 105.992 125.866C105.846 126.593 104.457 127.055 103.945 125.8C103.434 124.545 104.53 119.721 105.188 120.316Z" fill="url(#paint51_linear_1_5748)"/>
<defs>
<linearGradient id="paint0_linear_1_5748" x1="20.0253" y1="120.902" x2="23.5531" y2="120.902" gradientUnits="userSpaceOnUse">
<stop stop-color="#827FCB"/>
<stop offset="1" stop-color="#A8A7E1"/>
</linearGradient>
<linearGradient id="paint1_linear_1_5748" x1="15.2624" y1="64.7785" x2="145.576" y2="64.7785" gradientUnits="userSpaceOnUse">
<stop stop-color="#827FCB"/>
<stop offset="1" stop-color="#A8A7E1"/>
</linearGradient>
<linearGradient id="paint2_linear_1_5748" x1="150.188" y1="33.3794" x2="155.51" y2="33.3794" gradientUnits="userSpaceOnUse">
<stop stop-color="#827FCB"/>
<stop offset="1" stop-color="#A8A7E1"/>
</linearGradient>
<linearGradient id="paint3_linear_1_5748" x1="149.368" y1="35.9277" x2="163.031" y2="35.9277" gradientUnits="userSpaceOnUse">
<stop stop-color="#827FCB"/>
<stop offset="1" stop-color="#A8A7E1"/>
</linearGradient>
<linearGradient id="paint4_linear_1_5748" x1="183.967" y1="224.549" x2="188.226" y2="224.549" gradientUnits="userSpaceOnUse">
<stop stop-color="#827FCB"/>
<stop offset="1" stop-color="#A8A7E1"/>
</linearGradient>
<linearGradient id="paint5_linear_1_5748" x1="114.561" y1="239.471" x2="181.167" y2="239.471" gradientUnits="userSpaceOnUse">
<stop stop-color="#827FCB"/>
<stop offset="1" stop-color="#A8A7E1"/>
</linearGradient>
<linearGradient id="paint6_linear_1_5748" x1="104.671" y1="236.819" x2="109.969" y2="236.819" gradientUnits="userSpaceOnUse">
<stop stop-color="#827FCB"/>
<stop offset="1" stop-color="#A8A7E1"/>
</linearGradient>
<linearGradient id="paint7_linear_1_5748" x1="95.6135" y1="234.851" x2="109.497" y2="234.851" gradientUnits="userSpaceOnUse">
<stop stop-color="#827FCB"/>
<stop offset="1" stop-color="#A8A7E1"/>
</linearGradient>
<linearGradient id="paint8_linear_1_5748" x1="53.2481" y1="167.743" x2="25.116" y2="123.54" gradientUnits="userSpaceOnUse">
<stop stop-color="#ED4527"/>
<stop offset="0.9946" stop-color="#F26A41"/>
</linearGradient>
<linearGradient id="paint9_linear_1_5748" x1="52.6928" y1="167.059" x2="24.5608" y2="122.857" gradientUnits="userSpaceOnUse">
<stop stop-color="#ED4527"/>
<stop offset="0.9946" stop-color="#F26A41"/>
</linearGradient>
<linearGradient id="paint10_linear_1_5748" x1="186.476" y1="151.955" x2="242.058" y2="130.801" gradientUnits="userSpaceOnUse">
<stop stop-color="#F0CBDD"/>
<stop offset="0.9946" stop-color="#FAEBF3"/>
</linearGradient>
<linearGradient id="paint11_linear_1_5748" x1="239.128" y1="135.783" x2="245.837" y2="130.627" gradientUnits="userSpaceOnUse">
<stop stop-color="#F0CBDD"/>
<stop offset="0.9946" stop-color="#FAEBF3"/>
</linearGradient>
<linearGradient id="paint12_linear_1_5748" x1="222.966" y1="162.845" x2="238.262" y2="148.462" gradientUnits="userSpaceOnUse">
<stop stop-color="#19207D"/>
<stop offset="1" stop-color="#0E125C"/>
</linearGradient>
<linearGradient id="paint13_linear_1_5748" x1="50.3279" y1="210.655" x2="206.24" y2="164.156" gradientUnits="userSpaceOnUse">
<stop stop-color="#ECEEFB"/>
<stop offset="1" stop-color="#E3E0FD"/>
</linearGradient>
<linearGradient id="paint14_linear_1_5748" x1="158.807" y1="179.738" x2="176.558" y2="179.738" gradientUnits="userSpaceOnUse">
<stop stop-color="#C9CDFB"/>
<stop offset="1" stop-color="#E3E0FD"/>
</linearGradient>
<linearGradient id="paint15_linear_1_5748" x1="94.6957" y1="228.091" x2="198.723" y2="170.182" gradientUnits="userSpaceOnUse">
<stop stop-color="#827FCB"/>
<stop offset="1" stop-color="#A8A7E1"/>
</linearGradient>
<linearGradient id="paint16_linear_1_5748" x1="97.9466" y1="233.93" x2="201.973" y2="176.021" gradientUnits="userSpaceOnUse">
<stop stop-color="#827FCB"/>
<stop offset="1" stop-color="#A8A7E1"/>
</linearGradient>
<linearGradient id="paint17_linear_1_5748" x1="101.197" y1="239.77" x2="205.224" y2="181.862" gradientUnits="userSpaceOnUse">
<stop stop-color="#827FCB"/>
<stop offset="1" stop-color="#A8A7E1"/>
</linearGradient>
<linearGradient id="paint18_linear_1_5748" x1="88.3631" y1="216.714" x2="192.389" y2="158.805" gradientUnits="userSpaceOnUse">
<stop stop-color="#827FCB"/>
<stop offset="1" stop-color="#A8A7E1"/>
</linearGradient>
<linearGradient id="paint19_linear_1_5748" x1="84.0383" y1="208.945" x2="188.065" y2="151.036" gradientUnits="userSpaceOnUse">
<stop stop-color="#827FCB"/>
<stop offset="1" stop-color="#A8A7E1"/>
</linearGradient>
<linearGradient id="paint20_linear_1_5748" x1="105.064" y1="18.1112" x2="105.064" y2="232.8" gradientUnits="userSpaceOnUse">
<stop stop-color="#F0CBDD"/>
<stop offset="0.9946" stop-color="#FAEBF3"/>
</linearGradient>
<linearGradient id="paint21_linear_1_5748" x1="133.548" y1="32.8708" x2="79.2539" y2="105.041" gradientUnits="userSpaceOnUse">
<stop stop-color="#FBB666"/>
<stop offset="1" stop-color="#F89E44"/>
</linearGradient>
<linearGradient id="paint22_linear_1_5748" x1="148.587" y1="161.818" x2="92.2174" y2="248.509" gradientUnits="userSpaceOnUse">
<stop stop-color="#FBB666"/>
<stop offset="1" stop-color="#F89E44"/>
</linearGradient>
<linearGradient id="paint23_linear_1_5748" x1="109.822" y1="154.809" x2="97.7878" y2="55.7907" gradientUnits="userSpaceOnUse">
<stop stop-color="#19207D"/>
<stop offset="1" stop-color="#0E125C"/>
</linearGradient>
<linearGradient id="paint24_linear_1_5748" x1="22.0412" y1="205.936" x2="65.0272" y2="191.584" gradientUnits="userSpaceOnUse">
<stop stop-color="#F0CBDD"/>
<stop offset="0.9946" stop-color="#FAEBF3"/>
</linearGradient>
<linearGradient id="paint25_linear_1_5748" x1="5.47716" y1="173.903" x2="5.56191" y2="185.706" gradientUnits="userSpaceOnUse">
<stop stop-color="#F0CBDD"/>
<stop offset="0.9946" stop-color="#FAEBF3"/>
</linearGradient>
<linearGradient id="paint26_linear_1_5748" x1="187.453" y1="56.4703" x2="187.453" y2="94.5978" gradientUnits="userSpaceOnUse">
<stop stop-color="#FBB666"/>
<stop offset="1" stop-color="#F69241"/>
</linearGradient>
<linearGradient id="paint27_linear_1_5748" x1="187.425" y1="56.4703" x2="187.425" y2="94.5978" gradientUnits="userSpaceOnUse">
<stop stop-color="#FBB666"/>
<stop offset="1" stop-color="#F69241"/>
</linearGradient>
<linearGradient id="paint28_linear_1_5748" x1="223.9" y1="114.529" x2="197.861" y2="145.152" gradientUnits="userSpaceOnUse">
<stop stop-color="#FBB666"/>
<stop offset="1" stop-color="#F89E44"/>
</linearGradient>
<linearGradient id="paint29_linear_1_5748" x1="158.333" y1="116.686" x2="167.778" y2="134.32" gradientUnits="userSpaceOnUse">
<stop stop-color="#FBB666"/>
<stop offset="1" stop-color="#F89E44"/>
</linearGradient>
<linearGradient id="paint30_linear_1_5748" x1="187.533" y1="115.979" x2="187.533" y2="150.671" gradientUnits="userSpaceOnUse">
<stop stop-color="#FBB666"/>
<stop offset="1" stop-color="#F89E44"/>
</linearGradient>
<linearGradient id="paint31_linear_1_5748" x1="204.795" y1="138.301" x2="238.41" y2="96.6563" gradientUnits="userSpaceOnUse">
<stop stop-color="#ED4527"/>
<stop offset="0.9946" stop-color="#F26A41"/>
</linearGradient>
<linearGradient id="paint32_linear_1_5748" x1="177.996" y1="41.3038" x2="182.692" y2="87.4404" gradientUnits="userSpaceOnUse">
<stop stop-color="#B22878"/>
<stop offset="1" stop-color="#C24A9A"/>
</linearGradient>
<linearGradient id="paint33_linear_1_5748" x1="63.3331" y1="155.904" x2="130.545" y2="198.137" gradientUnits="userSpaceOnUse">
<stop stop-color="#ED4527"/>
<stop offset="0.9946" stop-color="#F26A41"/>
</linearGradient>
<linearGradient id="paint34_linear_1_5748" x1="103.925" y1="188.704" x2="92.824" y2="143.041" gradientUnits="userSpaceOnUse">
<stop stop-color="#F0CBDD"/>
<stop offset="0.9946" stop-color="#FAEBF3"/>
</linearGradient>
<linearGradient id="paint35_linear_1_5748" x1="117.245" y1="112.965" x2="117.334" y2="129.278" gradientUnits="userSpaceOnUse">
<stop offset="0.00537634" stop-color="#6A0F35"/>
<stop offset="1" stop-color="#772743"/>
</linearGradient>
<linearGradient id="paint36_linear_1_5748" x1="129.924" y1="118.2" x2="115.14" y2="122.08" gradientUnits="userSpaceOnUse">
<stop stop-color="#F27C7D"/>
<stop offset="1" stop-color="#F7B0AC"/>
</linearGradient>
<linearGradient id="paint37_linear_1_5748" x1="120.977" y1="120.245" x2="124.94" y2="115.811" gradientUnits="userSpaceOnUse">
<stop stop-color="#F27C7D"/>
<stop offset="1" stop-color="#F7B0AC"/>
</linearGradient>
<linearGradient id="paint38_linear_1_5748" x1="95.8516" y1="119.442" x2="93.95" y2="134.226" gradientUnits="userSpaceOnUse">
<stop offset="0.00537634" stop-color="#6A0F35"/>
<stop offset="1" stop-color="#772743"/>
</linearGradient>
<linearGradient id="paint39_linear_1_5748" x1="79.9682" y1="118.2" x2="94.7519" y2="122.08" gradientUnits="userSpaceOnUse">
<stop stop-color="#F27C7D"/>
<stop offset="1" stop-color="#F7B0AC"/>
</linearGradient>
<linearGradient id="paint40_linear_1_5748" x1="88.9162" y1="120.245" x2="84.9534" y2="115.811" gradientUnits="userSpaceOnUse">
<stop stop-color="#F27C7D"/>
<stop offset="1" stop-color="#F7B0AC"/>
</linearGradient>
<linearGradient id="paint41_linear_1_5748" x1="105.182" y1="130.624" x2="105.026" y2="138.386" gradientUnits="userSpaceOnUse">
<stop stop-color="#F27C7D"/>
<stop offset="1" stop-color="#F6A2A4"/>
</linearGradient>
<linearGradient id="paint42_linear_1_5748" x1="84.2874" y1="129.159" x2="98.0011" y2="119.049" gradientUnits="userSpaceOnUse">
<stop stop-color="#F27C7D"/>
<stop offset="1" stop-color="#F7B0AC"/>
</linearGradient>
<linearGradient id="paint43_linear_1_5748" x1="101.99" y1="113.88" x2="101.068" y2="105.481" gradientUnits="userSpaceOnUse">
<stop offset="0.00537634" stop-color="#F05A53"/>
<stop offset="1" stop-color="#F0635E"/>
</linearGradient>
<linearGradient id="paint44_linear_1_5748" x1="96.7593" y1="114.425" x2="95.7983" y2="105.667" gradientUnits="userSpaceOnUse">
<stop offset="0.00537634" stop-color="#6A0F35"/>
<stop offset="1" stop-color="#772743"/>
</linearGradient>
<linearGradient id="paint45_linear_1_5748" x1="111.759" y1="118.727" x2="99.6639" y2="90.2855" gradientUnits="userSpaceOnUse">
<stop stop-color="#EC4728"/>
<stop offset="1" stop-color="#F16843"/>
</linearGradient>
<linearGradient id="paint46_linear_1_5748" x1="105.304" y1="135.268" x2="105.304" y2="171.806" gradientUnits="userSpaceOnUse">
<stop stop-color="#FBB666"/>
<stop offset="1" stop-color="#F89E44"/>
</linearGradient>
<linearGradient id="paint47_linear_1_5748" x1="104.808" y1="134.919" x2="104.808" y2="149.853" gradientUnits="userSpaceOnUse">
<stop stop-color="#FBB666"/>
<stop offset="1" stop-color="#F89E44"/>
</linearGradient>
<linearGradient id="paint48_linear_1_5748" x1="91.6612" y1="163.521" x2="88.9534" y2="136.56" gradientUnits="userSpaceOnUse">
<stop stop-color="#B22878"/>
<stop offset="1" stop-color="#C24A9A"/>
</linearGradient>
<linearGradient id="paint49_linear_1_5748" x1="122.025" y1="161.122" x2="119.467" y2="135.654" gradientUnits="userSpaceOnUse">
<stop stop-color="#B22878"/>
<stop offset="1" stop-color="#C24A9A"/>
</linearGradient>
<linearGradient id="paint50_linear_1_5748" x1="104.853" y1="129.474" x2="104.944" y2="127.401" gradientUnits="userSpaceOnUse">
<stop offset="0.00537634" stop-color="#F05A53"/>
<stop offset="1" stop-color="#F0635E"/>
</linearGradient>
<linearGradient id="paint51_linear_1_5748" x1="105.103" y1="126.122" x2="104.344" y2="119.985" gradientUnits="userSpaceOnUse">
<stop offset="0.00537634" stop-color="#F05A53"/>
<stop offset="1" stop-color="#F0635E"/>
</linearGradient>
</defs>
</svg>
