<?xml version="1.0" encoding="utf-8"?>
<!-- Generator: Adobe Illustrator 24.3.0, SVG Export Plug-In . SVG Version: 6.00 Build 0)  -->
<svg version="1.1" id="Layer_1" xmlns="http://www.w3.org/2000/svg" xmlns:xlink="http://www.w3.org/1999/xlink" x="0px" y="0px"
	 viewBox="0 0 1080 1080" style="enable-background:new 0 0 1080 1080;" xml:space="preserve">
<style type="text/css">
	.st0{fill:url(#SVGID_1_);}
	.st1{fill:url(#SVGID_2_);}
	.st2{fill:url(#SVGID_3_);}
</style>
<g>
	<linearGradient id="SVGID_1_" gradientUnits="userSpaceOnUse" x1="356.9965" y1="536.7654" x2="756.2994" y2="536.7654">
		<stop  offset="1.331947e-07" style="stop-color:#FFBA7C"/>
		<stop  offset="0.1539" style="stop-color:#FDA271"/>
		<stop  offset="0.4766" style="stop-color:#F76653"/>
		<stop  offset="0.5324" style="stop-color:#F65B4E"/>
		<stop  offset="0.8222" style="stop-color:#944251"/>
		<stop  offset="0.9944" style="stop-color:#573353"/>
	</linearGradient>
	<path class="st0" d="M680.88,500.13L680.88,500.13c1.25-4.56,1.76-9.18,1.52-13.76c-0.03-0.46-0.05-0.92-0.09-1.38
		c-0.01-0.16-0.02-0.31-0.04-0.46l-0.14-1.41l-1.25-0.68c-0.92-0.5-1.85-0.96-2.8-1.39c-3.83-1.72-7.9-2.86-12.17-3.42
		c-13.54-1.75-28.33,2.62-43.92,12.98l-0.19,0.13c-0.28,0.18-0.55,0.38-0.78,0.53c-15.4,10.4-25.11,22.29-28.91,35.35
		c-0.05,0.18-0.1,0.35-0.15,0.52c-0.01,0.01-0.01,0.02-0.01,0.04c-0.28,0.99-0.51,1.99-0.71,3.02c-0.54,2.64-0.83,5.32-0.86,8.02
		c-0.01,0.35-0.01,0.71-0.01,1.07c0.01,1.01,0.05,2.03,0.14,3.05l0.09,1.01c0.01,0.16,0.02,0.31,0.04,0.46l0.01,0.01l1.3,0.67
		c4.7,2.45,9.83,4,15.24,4.61c13.79,1.57,28.82-2.97,44.68-13.5l0.19-0.12C667.56,525.17,677.25,513.3,680.88,500.13z
		 M649.11,531.02l-0.19,0.12c-14.79,9.82-28.62,14.07-41.12,12.65c-4.25-0.49-8.29-1.62-12.04-3.38c-0.17-4.14,0.33-8.28,1.5-12.3
		c3.43-11.82,12.44-22.73,26.83-32.45c0.22-0.17,0.45-0.31,0.68-0.47l0.2-0.13c14.49-9.63,28.04-13.71,40.28-12.14
		c4.17,0.55,8.14,1.73,11.82,3.55c0.23,4.06-0.21,8.17-1.34,12.24C672.45,510.59,663.49,521.46,649.11,531.02z M558.32,413.68
		l0.2-0.15c2.75-2.04,5.5-3.96,8.24-5.78c-2.74,1.81-5.49,3.73-8.24,5.77L558.32,413.68c-4.39,3.25-8.5,6.6-12.33,10.08
		C549.82,420.29,553.93,416.93,558.32,413.68z M545.99,423.76c-1.28,1.15-2.52,2.32-3.74,3.5
		C543.46,426.08,544.71,424.92,545.99,423.76z M509.28,500.8c-0.17-3.51-0.09-7.02,0.21-10.52
		C509.18,493.78,509.11,497.29,509.28,500.8c0.04,0.98,0.1,1.95,0.19,2.91C509.39,502.74,509.33,501.77,509.28,500.8z M682.81,411.9
		c1.04,0.9,2.08,1.83,3.11,2.78C684.9,413.72,683.85,412.79,682.81,411.9z M701.12,431.82c-2.95-3.98-6-7.68-9.16-11.08
		C695.11,424.15,698.17,427.85,701.12,431.82c0.91,1.24,1.79,2.48,2.66,3.72C702.93,434.3,702.04,433.06,701.12,431.82z
		 M550.19,560.98c-0.31-0.18-0.62-0.37-0.92-0.56c0.31,0.19,0.62,0.38,0.93,0.57c0.32,0.18,0.64,0.36,0.96,0.53
		C550.83,561.35,550.51,561.17,550.19,560.98z M548.06,565.78c0.05,0.03,0.1,0.06,0.14,0.09l0.01-0.01
		C548.16,565.83,548.11,565.8,548.06,565.78z M678.09,481.05c-0.01-0.13-0.03-0.26-0.05-0.39l-0.21-1.37l-1.25-0.6
		c-4.62-2.22-9.62-3.54-14.84-3.94c-13.31-1.02-27.51,3.98-42.21,14.87l-0.18,0.13c-0.27,0.2-0.53,0.4-0.73,0.56
		c-14.5,10.92-23.39,23.02-26.45,35.95c-0.07,0.29-0.13,0.58-0.19,0.88c-0.01,0.01-0.01,0.02-0.01,0.04
		c-0.18,0.86-0.34,1.73-0.46,2.62c0.05-0.23,0.11-0.46,0.16-0.68c3.28-12.83,12.47-24.84,27.57-36.03l0.19-0.14
		c0.25-0.19,0.5-0.37,0.75-0.55c14.57-10.62,28.25-15.56,41.06-14.83c5.03,0.28,9.77,1.44,14.22,3.47c0.94,0.43,1.88,0.89,2.79,1.4
		C678.22,481.98,678.16,481.52,678.09,481.05z M745.62,568.73c7.83-14.54,11.38-29.71,10.57-45.19c-0.04-0.8-0.1-1.61-0.16-2.41
		c-0.07-0.8-0.15-1.6-0.24-2.41c-0.12-1.07-0.26-2.13-0.41-3.2c-0.59-3.87-1.44-7.75-2.56-11.62c-0.27-0.92-0.55-1.84-0.86-2.76
		c-0.56-1.74-1.19-3.48-1.87-5.22c-0.76-1.98-1.61-3.96-2.52-5.93c-0.24-0.53-0.49-1.06-0.75-1.59c-0.41-0.86-0.84-1.72-1.28-2.58
		c-0.78-1.5-1.59-3-2.44-4.5c-2.56-4.5-5.49-8.98-8.79-13.42c-3.87-5.22-7.92-9.99-12.11-14.25c-1.4-1.42-2.81-2.78-4.24-4.08
		c-0.82-1.73-1.7-3.46-2.64-5.2c-2.83-5.21-6.19-10.44-10.03-15.63c-3.08-4.16-6.29-8.03-9.6-11.61c-0.83-0.89-1.67-1.77-2.51-2.62
		c-0.42-0.42-0.84-0.85-1.27-1.27c-1.17-1.15-2.35-2.27-3.54-3.34c-0.75-0.67-1.5-1.34-2.25-1.98c-1.14-0.97-2.28-1.91-3.43-2.82
		c-0.77-0.6-1.55-1.19-2.32-1.77c-0.39-0.28-0.78-0.57-1.17-0.85c-0.63-0.45-1.26-0.9-1.89-1.33c0,0-0.01,0.01-0.01,0
		c-0.91-0.62-1.84-1.23-2.77-1.82c0,0-0.01,0.01-0.01,0c-0.93-0.59-1.86-1.15-2.8-1.71c-2.83-1.65-5.73-3.13-8.67-4.43
		c-4.92-2.18-9.97-3.84-15.12-5.01c-1.55-0.35-3.1-0.65-4.65-0.9c-0.01,0.01-0.01,0-0.01,0c-0.52-0.08-1.04-0.17-1.57-0.23
		c-5.43-0.78-10.98-1.01-16.61-0.68c-0.86,0.05-1.74,0.11-2.61,0.18c-0.55,0.05-1.09,0.11-1.65,0.16c-0.9,0.1-1.8,0.21-2.7,0.33
		c-1.84,0.25-3.7,0.55-5.55,0.92c-2.75,0.54-5.52,1.21-8.29,2c-0.95,0.27-1.89,0.55-2.84,0.85c-0.72,0.23-1.45,0.47-2.18,0.71
		c-0.86,0.29-1.72,0.59-2.57,0.91c-1.05,0.38-2.11,0.78-3.16,1.2c-0.88,0.34-1.77,0.71-2.65,1.08c-1.68,0.71-3.38,1.47-5.07,2.27
		c-1.7,0.8-3.39,1.65-5.09,2.54c-1.14,0.6-2.26,1.21-3.4,1.84c-0.78,0.44-1.56,0.89-2.34,1.34c-1.37,0.8-2.73,1.61-4.1,2.47
		c-1.37,0.85-2.74,1.74-4.12,2.64c-2.74,1.81-5.48,3.74-8.24,5.78l-0.2,0.15c-4.39,3.25-8.5,6.61-12.33,10.08
		c-1.27,1.16-2.52,2.32-3.74,3.5c-0.69,0.67-1.38,1.34-2.05,2.03c-0.83,0.84-1.64,1.68-2.44,2.53
		c-6.78,7.22-12.42,14.84-16.88,22.81c-0.79,1.41-1.54,2.83-2.25,4.25c-0.47,0.94-0.93,1.89-1.37,2.83
		c-3.5,7.61-5.88,15.31-7.1,23.06c-0.2,1.33-0.38,2.65-0.53,4c-0.06,0.5-0.1,1-0.14,1.5c-0.3,3.49-0.38,7-0.21,10.52
		c0.05,0.97,0.11,1.94,0.19,2.91c0.31,3.58,0.87,7.12,1.68,10.61c0.23,1.02,0.5,2.03,0.78,3.05c0.12,0.43,0.24,0.85,0.37,1.27
		c0.14,0.49,0.29,0.98,0.44,1.46c0.07,0.23,0.14,0.46,0.22,0.68c0.15,0.46,0.3,0.92,0.47,1.38c2.75,7.87,6.83,15.47,12.21,22.73
		c5.54,7.48,11.54,13.51,17.84,17.95c0.66,0.46,1.33,0.91,1.99,1.35c0.01,0,0.02,0.02,0.03,0.02c0.67,0.44,1.36,0.87,2.04,1.26
		c0.16,0.11,0.34,0.21,0.51,0.3c0.05,0.03,0.1,0.06,0.15,0.08l0.01,0.01l-0.01,0l-150.17,25.52l-0.01-0.01L357,621.78l48.58,65.57
		l207.76-36.88c0.79-0.11,1.59-0.24,2.38-0.37c0.79-0.13,1.58-0.28,2.37-0.43c0.79-0.15,1.56-0.31,2.36-0.49
		c2.5-0.56,4.71-1.03,6.75-1.45l0.08-0.02c1.85-0.45,3.69-0.91,5.52-1.39c1.6-0.42,3.21-0.86,4.8-1.31c2.03-0.57,4.06-1.17,6.06-1.8
		c4.18-1.3,8.29-2.7,12.33-4.19c4.6-1.7,9.11-3.53,13.52-5.47c13.34-5.89,25.21-12.66,35.3-20.14l0.2-0.15
		C723.38,599.63,737.05,584.65,745.62,568.73z M674.24,572.15c-9.98,7.39-21.58,14.01-34.81,19.84c-10.45,4.6-21.35,8.5-32.67,11.65
		l-0.01,0.01c-3,0.83-6.03,1.62-9.1,2.36c-1.95,0.42-3.96,0.83-5.96,1.29c-0.28,0.05-0.55,0.12-0.83,0.17
		c-2.28,0.51-4.6,0.94-6.93,1.28L448.5,633l-17.43,2.98l-29.55-39.89l104.15-17.71l62.95-10.7l-9.47-2.89l-1.08-0.33
		c-1.05-0.32-2.11-0.7-3.16-1.14c-0.59-0.24-1.19-0.51-1.78-0.79c-0.67-0.32-1.33-0.65-1.99-1.02c-0.32-0.17-0.64-0.35-0.96-0.53
		c-0.31-0.19-0.63-0.38-0.93-0.57c-0.93-0.57-1.86-1.19-2.79-1.83c-5.83-4.11-11.44-9.77-16.64-16.79
		c-7.52-10.15-12.32-20.96-14.34-32.24c-0.22-1.18-0.4-2.38-0.54-3.57c-0.01-0.01-0.01-0.01,0-0.01c-0.05-0.45-0.11-0.89-0.15-1.35
		c-0.07-0.68-0.13-1.35-0.18-2.03c-0.06-0.68-0.1-1.36-0.13-2.03c-0.02-0.57-0.04-1.14-0.06-1.71c-0.02-0.57-0.02-1.13-0.02-1.71
		c0-1.14,0.02-2.28,0.08-3.41c0.04-0.91,0.1-1.82,0.18-2.73c0.08-0.91,0.17-1.82,0.28-2.73c0.05-0.45,0.12-0.91,0.18-1.37
		c0.13-0.91,0.27-1.81,0.44-2.72c0-0.01,0-0.01,0-0.01c0.24-1.36,0.52-2.73,0.84-4.09c0.21-0.9,0.43-1.8,0.68-2.7
		c0.37-1.36,0.78-2.71,1.22-4.07c0-0.01,0-0.01,0-0.01c0.44-1.35,0.92-2.71,1.44-4.05c0.51-1.35,1.07-2.7,1.67-4.05
		c0.39-0.9,0.81-1.79,1.24-2.68c0.86-1.79,1.79-3.58,2.78-5.35c1-1.79,2.07-3.57,3.2-5.33c0.57-0.87,1.14-1.75,1.74-2.62
		c0.29-0.44,0.6-0.87,0.91-1.3c0.61-0.86,1.24-1.72,1.88-2.57c1.39-1.84,2.85-3.67,4.38-5.47c1.02-1.2,2.07-2.39,3.15-3.56
		l0.01-0.01c1.87-2.02,3.82-4.02,5.87-5.98c4.51-4.32,9.46-8.48,14.85-12.47l0.2-0.15c1.36-1.01,2.73-2,4.1-2.95
		c1.36-0.95,2.72-1.88,4.08-2.78c0.06-0.04,0.12-0.08,0.19-0.12c1.02-0.68,2.05-1.34,3.07-1.97c13.75-8.62,27.34-14.28,40.53-16.86
		c9.89-1.95,19.53-2.16,28.83-0.65c0.26,0.04,0.5,0.08,0.75,0.12c0.72,0.13,1.45,0.27,2.18,0.41c0.97,0.19,1.93,0.41,2.89,0.65
		c0.95,0.24,1.91,0.49,2.87,0.76c0.95,0.28,1.91,0.57,2.85,0.88c1.42,0.47,2.83,0.98,4.22,1.54c0.93,0.37,1.86,0.76,2.78,1.17
		c2.32,1.03,4.61,2.17,6.86,3.43c0.9,0.5,1.79,1.03,2.69,1.57c1.78,1.09,3.53,2.24,5.27,3.48c1.3,0.92,2.59,1.88,3.87,2.9
		c1.06,0.84,2.12,1.7,3.16,2.6c1.04,0.9,2.09,1.82,3.11,2.78c2.05,1.91,4.07,3.93,6.04,6.06c3.16,3.41,6.22,7.11,9.16,11.08
		c0.92,1.24,1.81,2.48,2.66,3.72c0.41,0.6,0.82,1.19,1.21,1.79c0.8,1.19,1.56,2.38,2.3,3.58c0.37,0.6,0.73,1.19,1.09,1.79
		c0.15,0.27,0.31,0.54,0.47,0.8c0.64,1.07,1.24,2.14,1.82,3.22c-6.23-4.98-12.79-8.97-19.65-12.02
		c-15.32-6.77-31.63-8.47-48.93-5.07c-15.09,2.98-30.49,9.74-46.14,20.31c-0.13,0.07-0.24,0.14-0.34,0.22l-0.13,0.09
		c-1.99,1.35-3.97,2.75-5.96,4.22c-0.05,0.04-0.1,0.07-0.15,0.11c-0.03,0.03-0.07,0.04-0.09,0.07
		c-14.54,10.98-23.39,22.74-26.6,35.3c-3.27,12.84-0.32,25.46,8.87,37.87c5.59,7.54,11.95,12.86,19.12,15.97
		c-0.01-0.15-0.03-0.3-0.04-0.46c-0.15-1.35-0.23-2.7-0.22-4.06c0-0.35-0.01-0.71,0.01-1.07c0.06-2.8,0.43-5.6,1.1-8.42
		c0.13-0.88,0.28-1.76,0.46-2.62c0-0.02,0-0.03,0.01-0.04c0.06-0.3,0.13-0.59,0.19-0.88c3.05-12.94,11.94-25.03,26.45-35.95
		c0.2-0.16,0.46-0.37,0.73-0.56l0.18-0.13c14.7-10.89,28.91-15.9,42.21-14.87c5.23,0.4,10.22,1.73,14.84,3.94l1.25,0.6l0.21,1.37
		c0.02,0.13,0.04,0.25,0.05,0.39c0.07,0.47,0.13,0.93,0.17,1.4c1.38,0.75,2.73,1.61,4.05,2.54c4.42,3.12,8.52,7.23,12.29,12.32
		c9.1,12.28,12.11,24.77,9.02,37.46c-2.47,10.22-8.73,19.86-18.76,28.93l-0.05,0.04c-0.05,0.05-0.1,0.08-0.16,0.13l-9.31,7.46
		l-0.01,0.01c-0.01,0.01-0.01,0.01-0.01,0.01c-0.29,0.22-0.59,0.45-0.88,0.66L674.24,572.15z"/>
	<g>
		<g>
			<linearGradient id="SVGID_2_" gradientUnits="userSpaceOnUse" x1="56.9666" y1="578.0561" x2="647.304" y2="578.0561">
				<stop  offset="1.331947e-07" style="stop-color:#FFBA7C"/>
				<stop  offset="0.1539" style="stop-color:#FDA271"/>
				<stop  offset="0.4766" style="stop-color:#F76653"/>
				<stop  offset="0.5324" style="stop-color:#F65B4E"/>
				<stop  offset="0.8222" style="stop-color:#944251"/>
				<stop  offset="0.9944" style="stop-color:#573353"/>
			</linearGradient>
			<path class="st1" d="M647.3,814.57L494.92,938.16c-25.01,18.27-63.04,15.34-84.95-6.54L71.25,593.31
				c-20.96-20.95-18.57-52.08,5.36-69.59l196.12-144.86l-0.54,1.12l234.49-174.02l89.05,89.4l0.32,0.33l0.53,0.53L245.4,544.97
				l242.37,243.3C532.18,833.75,603.61,845.53,647.3,814.57z"/>
		</g>
		<linearGradient id="SVGID_3_" gradientUnits="userSpaceOnUse" x1="506.6793" y1="414.3672" x2="1023.0334" y2="414.3672">
			<stop  offset="1.331947e-07" style="stop-color:#FFBA7C"/>
			<stop  offset="0.1539" style="stop-color:#FDA271"/>
			<stop  offset="0.4766" style="stop-color:#F76653"/>
			<stop  offset="0.5324" style="stop-color:#F65B4E"/>
			<stop  offset="0.8222" style="stop-color:#944251"/>
			<stop  offset="0.9944" style="stop-color:#573353"/>
		</linearGradient>
		<path class="st2" d="M1017.57,538.19c-0.02,0.05-0.05,0.09-0.07,0.14c-3.27,5.87-7.99,11.24-14.11,15.7L807.4,698.81l-0.14,0.09
			l0.42-0.85l18.36-37.54c7.27-14.89,11.68-30.43,13.34-46.11c0.09-0.67,0.15-1.34,0.21-2.02c3.8-41.77-11.92-84.31-45.23-117.59
			L619.87,319.6l-23.29-23.38l-0.53-0.53l-0.32-0.33l-89.05-89.4l83.98-62.29c25.01-18.27,57.46-19.41,79.37,2.48l338.72,338.3
			C1024.32,500,1027,521.16,1017.57,538.19z"/>
	</g>
</g>
</svg>
