<svg width="368" height="368" viewBox="0 0 368 368" fill="none" xmlns="http://www.w3.org/2000/svg">
<path d="M108.137 22.9131L108.137 22.9086C107.924 21.6445 108.855 20.4758 110.135 20.4041C112.74 20.2584 117.381 20.0222 123.613 19.7988C124.723 19.759 125.684 20.5672 125.827 21.6685C125.828 21.6837 125.83 21.6989 125.832 21.7142C125.997 22.985 125.024 24.121 123.743 24.1442C119.631 24.2185 113.945 24.5048 110.377 24.7046C109.283 24.7658 108.319 23.9939 108.137 22.9131Z" fill="url(#paint0_linear_1_4748)"/>
<path d="M124.359 32.5091C120.232 32.6702 116.154 32.8727 112.176 33.1232C110.874 33.2051 109.722 32.2952 109.505 31.0087L109.482 30.8729C109.231 29.3802 110.328 28.0006 111.84 27.9101C115.586 27.6859 120.643 27.4935 124.178 27.3717C125.504 27.3259 126.641 28.3062 126.789 29.6252C126.791 29.6423 126.793 29.6594 126.795 29.6765C126.96 31.1497 125.84 32.4512 124.359 32.5091Z" fill="url(#paint1_linear_1_4748)"/>
<path d="M204.427 33.0854C192.005 32.5465 165.198 31.609 138.09 32.114C134.859 32.1742 132.108 29.7803 131.724 26.5724C131.718 26.5228 131.712 26.4734 131.706 26.424C131.263 22.7328 134.105 19.472 137.822 19.3964C155.575 19.0351 179.525 19.0557 205.047 20.521C208.161 20.6997 210.677 23.134 210.954 26.2403L210.954 26.2464C211.292 30.0321 208.224 33.2501 204.427 33.0854Z" fill="url(#paint2_linear_1_4748)"/>
<path d="M231.254 29.4746C232.771 26.9962 232.422 23.6945 230.209 21.5845C227.818 19.3059 223.947 19.2804 221.529 21.5298C218.882 23.9921 218.826 28.1283 221.355 30.6582C223.469 32.7716 226.701 33.0828 229.141 31.5881L234.455 36.9024C235.038 37.486 235.985 37.486 236.568 36.9024V36.9024C237.152 36.3187 237.152 35.3725 236.568 34.7889L231.254 29.4746ZM223.15 28.8637C221.667 27.3804 221.663 24.9712 223.15 23.4841C224.633 22.0008 227.046 22.0008 228.53 23.4841C230.017 24.9711 230.013 27.3804 228.53 28.8637C227.043 30.3508 224.637 30.3508 223.15 28.8637Z" fill="url(#paint3_linear_1_4748)"/>
<path d="M84.567 156.093C84.567 156.093 98.6736 148.81 99.8236 156.477C100.974 164.143 103.964 162.533 111.63 161.92C119.297 161.307 120.6 164.603 120.6 164.603C120.6 164.603 99.3125 170.762 79.9414 163.658L84.567 156.093Z" fill="url(#paint4_linear_1_4748)"/>
<path d="M113.982 145.36C113.982 145.36 93.3328 150.062 79.9417 163.658C79.9417 163.658 78.3061 147.813 82.9061 143.315C87.5061 138.818 90.2661 147.711 90.2661 147.711C90.2661 147.711 92.0039 144.235 95.0705 144.746C98.1372 145.258 98.8528 147.711 101.715 145.155C104.577 142.6 113.982 145.36 113.982 145.36Z" fill="url(#paint5_linear_1_4748)"/>
<path d="M309.889 151.8C309.889 151.8 309.122 161.92 296.702 165.983C296.702 165.983 308.969 164.757 315.179 160.157L309.889 151.8Z" fill="url(#paint6_linear_1_4748)"/>
<path d="M292.103 147.43C292.103 147.43 305.059 149.653 315.179 160.157C315.179 160.157 319.089 149.04 316.866 145.437C314.643 141.833 310.196 148.963 310.196 148.963C310.196 148.963 310.273 145.207 306.209 145.13C302.146 145.053 302.529 148.197 292.103 147.43Z" fill="url(#paint7_linear_1_4748)"/>
<path d="M300.436 71.9638C291.44 73.5994 290.213 85.9683 290.213 85.9683C290.213 85.9683 284.387 85.1505 284.182 89.546C283.978 93.9416 268.031 96.5994 268.031 96.5994C268.031 96.5994 295.427 94.7594 308.716 85.2527L300.436 71.9638Z" fill="url(#paint8_linear_1_4748)"/>
<path d="M264.197 62.023C264.197 62.023 292.666 66.0352 308.715 85.253C308.715 85.253 315.053 73.8041 311.373 67.1596C307.693 60.5152 300.946 64.7063 300.946 64.7063C300.946 64.7063 302.377 52.3374 292.973 52.0307C283.568 51.7241 285.92 60.7196 285.92 60.7196C285.92 60.7196 274.368 58.113 264.197 62.023Z" fill="url(#paint9_linear_1_4748)"/>
<path d="M57.2468 80.8578L56.2246 87.2978C56.2246 87.2978 67.1624 91.2844 88.1179 91.6933C88.1179 91.6933 82.2913 91.2844 79.0202 86.5822C75.7491 81.88 71.9668 86.48 71.9668 86.48C71.9668 86.48 72.2735 76.5644 65.0157 76.2578C57.7579 75.9511 57.2468 80.8578 57.2468 80.8578Z" fill="url(#paint10_linear_1_4748)"/>
<path d="M56.225 87.2977C56.225 87.2977 63.3805 78.0977 81.7805 71.8621C81.7805 71.8621 77.4872 70.2266 66.2428 73.5999C66.2428 73.5999 65.3228 63.6843 60.2116 65.7288C55.1005 67.7732 57.3494 76.9732 57.3494 76.9732C57.3494 76.9732 55.1005 76.1555 54.6916 78.0977C54.2828 80.0399 54.8961 84.9466 56.225 87.2977Z" fill="url(#paint11_linear_1_4748)"/>
<path d="M73.8281 232.662C74.7072 232.662 75.4198 231.949 75.4198 231.07C75.4198 230.191 74.7072 229.479 73.8281 229.479C72.949 229.479 72.2363 230.191 72.2363 231.07C72.2363 231.949 72.949 232.662 73.8281 232.662Z" fill="url(#paint12_linear_1_4748)"/>
<path d="M92.433 243.484C93.9239 243.484 95.1326 242.275 95.1326 240.784C95.1326 239.293 93.9239 238.085 92.433 238.085C90.942 238.085 89.7334 239.293 89.7334 240.784C89.7334 242.275 90.942 243.484 92.433 243.484Z" fill="url(#paint13_linear_1_4748)"/>
<path d="M218.217 195.38C219.708 195.38 220.917 194.171 220.917 192.68C220.917 191.189 219.708 189.981 218.217 189.981C216.726 189.981 215.518 191.189 215.518 192.68C215.518 194.171 216.726 195.38 218.217 195.38Z" fill="url(#paint14_linear_1_4748)"/>
<path d="M70.1989 36.6927C71.9969 36.6927 73.4545 35.2351 73.4545 33.4371C73.4545 31.6391 71.9969 30.1816 70.1989 30.1816C68.4009 30.1816 66.9434 31.6391 66.9434 33.4371C66.9434 35.2351 68.4009 36.6927 70.1989 36.6927Z" fill="url(#paint15_linear_1_4748)"/>
<path d="M85.9888 41.4257C87.1136 41.4257 88.0254 40.5139 88.0254 39.3891C88.0254 38.2643 87.1136 37.3524 85.9888 37.3524C84.864 37.3524 83.9521 38.2643 83.9521 39.3891C83.9521 40.5139 84.864 41.4257 85.9888 41.4257Z" fill="url(#paint16_linear_1_4748)"/>
<path d="M71.4575 55.463C72.4339 55.463 73.2255 54.6714 73.2255 53.695C73.2255 52.7186 72.4339 51.927 71.4575 51.927C70.481 51.927 69.6895 52.7186 69.6895 53.695C69.6895 54.6714 70.481 55.463 71.4575 55.463Z" fill="url(#paint17_linear_1_4748)"/>
<path d="M312.466 118.302C314.283 118.302 315.756 116.829 315.756 115.013C315.756 113.196 314.283 111.723 312.466 111.723C310.65 111.723 309.177 113.196 309.177 115.013C309.177 116.829 310.65 118.302 312.466 118.302Z" fill="url(#paint18_linear_1_4748)"/>
<path d="M328.563 136.378C329.443 136.378 330.155 135.665 330.155 134.786C330.155 133.907 329.443 133.194 328.563 133.194C327.684 133.194 326.972 133.907 326.972 134.786C326.972 135.665 327.684 136.378 328.563 136.378Z" fill="url(#paint19_linear_1_4748)"/>
<path d="M129.881 46.6129C129.881 46.6129 138.723 51.8262 141.892 55.9151C141.892 55.9151 149.559 85.2529 151.705 105.288L136.679 92.5106L129.881 46.6129Z" fill="url(#paint20_linear_1_4748)"/>
<path d="M95.5332 97.2127L103.864 106.311C103.864 106.311 129.42 104.777 151.704 105.288C151.704 105.288 148.638 100.688 140.613 94.7594C132.589 88.8305 101.207 88.8305 95.5332 97.2127Z" fill="url(#paint21_linear_1_4748)"/>
<path d="M140.614 94.7595C119.761 94.4529 95.5339 97.2129 95.5339 97.2129L92.8598 83.2227L89.4374 65.3257L86.9473 52.2862C105.961 47.0729 129.881 46.6129 129.881 46.6129C131.402 50.4339 132.818 55.224 134.082 60.2902C135.597 66.3376 136.909 72.7899 137.952 78.451C139.639 87.6387 140.614 94.7595 140.614 94.7595Z" fill="url(#paint22_linear_1_4748)"/>
<path d="M137.952 78.4511C126.36 79.0644 106.954 80.4322 92.8599 83.2228L89.4375 65.3258C97.1594 63.6759 116.075 60.094 134.082 60.2903C135.597 66.3377 136.91 72.79 137.952 78.4511Z" fill="url(#paint23_linear_1_4748)"/>
<path d="M124.68 68.4946C126.751 75.0638 123.183 81.462 116.711 82.7854C110.24 84.1089 103.316 79.8563 101.245 73.2871C99.1753 66.7179 102.743 60.3197 109.215 58.9963C115.686 57.6729 122.61 61.9254 124.68 68.4946Z" fill="url(#paint24_linear_1_4748)"/>
<path d="M165.911 113.466L174.089 119.088C174.089 119.088 196.884 119.804 214.876 121.848L213.138 115.92C213.138 115.92 196.067 111.524 165.911 113.466Z" fill="url(#paint25_linear_1_4748)"/>
<path d="M154.769 55.9151C154.769 55.9151 161.157 91.3862 165.911 113.466C165.911 113.466 189.217 113.926 213.137 115.92C213.137 115.92 210.173 88.0129 202.711 57.1418C202.711 57.1418 185.435 53.0529 154.769 55.9151Z" fill="url(#paint26_linear_1_4748)"/>
<path d="M201.268 109.511C191.282 108.864 182.108 108.466 175.623 108.234C175.213 106.223 173.92 104.575 172.192 103.67C171.333 103.221 170.366 102.954 169.347 102.918C166.77 90.259 164.03 75.7255 162.229 66.0011C163.567 65.9477 164.729 65.3266 165.516 64.391C166.356 63.3931 166.77 62.0375 166.516 60.6315C169.686 60.4896 172.804 60.4182 175.852 60.4182C183.155 60.4182 189.016 60.8309 193.277 61.2902C193.586 62.6853 194.311 63.9097 195.311 64.8359C196.368 65.8161 197.733 66.4622 199.236 66.6232C202.514 81.4612 204.733 95.08 206.065 104.325C205.274 104.274 204.525 104.425 203.863 104.732C202.112 105.542 200.97 107.435 201.268 109.511Z" fill="url(#paint27_linear_1_4748)"/>
<path d="M263.022 90.7734C263.022 90.7734 250.552 87.811 238.39 86.1734C238.39 86.1734 235.937 83.4625 230.619 80.2732L253.239 52.207L260.317 58.831C260.317 58.831 263.537 76.4644 263.022 90.7734Z" fill="url(#paint28_linear_1_4748)"/>
<path d="M263.022 90.7736C263.022 90.7736 250.552 87.8112 238.39 86.1736C238.39 86.1736 235.937 83.4626 230.619 80.2733L245.492 79.66L257.452 84.6402L263.022 90.7736Z" fill="url(#paint29_linear_1_4748)"/>
<path d="M257.453 84.6402C244.573 81.4999 230.62 80.2733 230.62 80.2733C230.313 77.9549 229.964 75.5199 229.602 73.0728C229.448 72.0485 229.295 71.0242 229.136 69.9999C228.492 65.7496 227.811 61.5789 227.21 57.9786C227.032 56.8869 226.854 55.8565 226.695 54.8874C225.897 50.2015 225.333 47.0735 225.333 47.0735C242.654 47.8402 253.24 52.2071 253.24 52.2071C253.651 54.4397 254.062 57.0647 254.46 59.8309C254.607 60.8551 254.755 61.9039 254.896 62.9589C255.423 66.8597 255.914 70.8647 256.319 74.3546C256.447 75.4341 256.564 76.4583 256.674 77.4213C257.159 81.6962 257.453 84.6402 257.453 84.6402Z" fill="url(#paint30_linear_1_4748)"/>
<path d="M254.896 62.9587C243.237 59.659 231.847 58.3894 227.211 57.9785C227.033 56.8867 226.855 55.8563 226.695 54.8873C231.117 55.2675 242.63 56.5065 254.461 59.8307C254.608 60.855 254.755 61.9038 254.896 62.9587Z" fill="url(#paint31_linear_1_4748)"/>
<path d="M256.674 77.4214C245.837 74.5756 235.128 73.4777 229.602 73.0729C229.449 72.0486 229.295 71.0244 229.136 70.0001C234.607 70.3988 245.395 71.4905 256.319 74.3548C256.447 75.4342 256.564 76.4585 256.674 77.4214Z" fill="url(#paint32_linear_1_4748)"/>
<path d="M156.438 128.03C156.438 128.03 163.36 132.735 165.841 136.152C165.841 136.152 171.843 159.574 173.523 175.346L161.759 164.296L156.438 128.03Z" fill="url(#paint33_linear_1_4748)"/>
<path d="M129.55 164.977L136.072 172.672C136.072 172.672 156.079 173.331 173.524 175.346C173.524 175.346 171.123 171.538 164.841 166.335C158.559 161.132 133.991 158.855 129.55 164.977Z" fill="url(#paint34_linear_1_4748)"/>
<path d="M164.841 166.335C148.516 164.583 129.549 164.977 129.549 164.977L127.456 153.879L124.777 139.681L122.827 129.338C137.712 126.654 156.438 128.03 156.438 128.03C157.629 131.119 158.738 134.955 159.727 138.995C160.913 143.819 161.941 148.943 162.757 153.431C164.077 160.714 164.841 166.335 164.841 166.335Z" fill="url(#paint35_linear_1_4748)"/>
<path d="M162.757 153.431C153.682 153.068 138.49 152.726 127.456 153.879L124.776 139.681C130.822 138.955 145.63 137.536 159.727 138.995C160.913 143.818 161.941 148.943 162.757 153.431Z" fill="url(#paint36_linear_1_4748)"/>
<path d="M201.301 131.455C201.301 131.455 206.742 135.461 208.537 138.301C208.537 138.301 211.534 156.612 211.597 167.951L203.331 159.897L201.301 131.455Z" fill="url(#paint37_linear_1_4748)"/>
<path d="M178.655 159.825L183.446 165.369C183.446 165.369 198.476 166.209 211.595 167.951C211.595 167.951 210.05 165.242 205.582 161.423C201.036 157.537 182.129 155.46 178.655 159.825Z" fill="url(#paint38_linear_1_4748)"/>
<path d="M205.583 161.422C193.115 159.872 178.657 159.824 178.657 159.824L177.155 151.666L175.131 140.676L173.322 131.202C185.844 129.975 201.301 131.455 201.301 131.455C202.098 134.059 202.769 137.243 203.319 140.539C203.967 144.401 204.455 148.417 204.807 151.863C205.363 157.323 205.583 161.422 205.583 161.422Z" fill="url(#paint39_linear_1_4748)"/>
<path d="M197.035 144.989C198.058 149.1 195.621 152.648 191.633 152.991C187.668 153.332 183.542 150.383 182.375 146.329C181.183 142.187 183.512 138.442 187.622 138.043C191.757 137.641 195.991 140.788 197.035 144.989Z" fill="url(#paint40_linear_1_4748)"/>
<path d="M286.635 180.685C286.635 180.685 263.347 177.431 240.431 176.743C240.431 176.743 239.986 176.039 230.361 170.826L277.946 110.318L285.051 116.227C285.051 116.227 289.901 152.159 286.635 180.685Z" fill="url(#paint41_linear_1_4748)"/>
<path d="M286.635 180.685C286.635 180.685 263.347 177.431 240.431 176.743C240.431 176.743 239.986 176.039 230.361 170.826L258.802 166.472L280.798 173.841L286.635 180.685Z" fill="url(#paint42_linear_1_4748)"/>
<path d="M280.799 173.844C256.757 170.317 230.359 170.826 230.359 170.826C230.144 166.287 229.868 161.522 229.567 156.738C229.525 156.069 229.482 155.394 229.439 154.726C229.353 153.395 229.261 152.064 229.169 150.733C228.623 142.429 227.991 134.29 227.421 127.267C227.255 125.139 227.083 123.127 226.93 121.238C226.157 112.099 225.587 106.009 225.587 106.009C258.468 103.874 277.941 110.321 277.941 110.321C278.37 114.663 278.732 119.79 279.051 125.2C279.051 125.231 279.057 125.274 279.057 125.323C279.174 127.292 279.284 129.297 279.382 131.321C279.769 138.957 280.063 146.808 280.278 153.653C280.333 155.192 280.376 156.682 280.413 158.105C280.431 158.633 280.45 159.154 280.462 159.669C280.707 168.054 280.799 173.844 280.799 173.844Z" fill="url(#paint43_linear_1_4748)"/>
<path d="M280.412 158.105C261.258 154.873 239.491 154.628 229.438 154.726C229.352 153.395 229.26 152.064 229.168 150.733C228.622 142.428 227.991 134.29 227.42 127.267C227.255 125.139 227.083 123.127 226.93 121.238C235.296 121.06 257.038 121.091 279.051 125.2C279.051 125.231 279.057 125.274 279.057 125.323L280.412 158.105Z" fill="url(#paint44_linear_1_4748)"/>
<path d="M94.1509 174.493C74.2375 173.099 64.7109 200.857 75.9043 202.242C87.0976 203.627 109.484 175.567 94.1509 174.493Z" fill="url(#paint45_linear_1_4748)"/>
<path d="M97.3158 198.309C89.8603 197.788 86.2935 208.18 90.4843 208.698C94.6751 209.217 103.057 198.711 97.3158 198.309Z" fill="url(#paint46_linear_1_4748)"/>
<path d="M117.23 113.081C105.545 112.263 99.9553 128.55 106.523 129.362C113.091 130.175 126.227 113.71 117.23 113.081Z" fill="url(#paint47_linear_1_4748)"/>
<path d="M93.3227 124.189C89.072 123.891 87.0385 129.816 89.4278 130.112C91.8171 130.408 96.5957 124.418 93.3227 124.189Z" fill="url(#paint48_linear_1_4748)"/>
<path d="M253.992 35.3772C247.533 34.925 244.442 43.9289 248.073 44.3781C251.704 44.8273 258.966 35.7254 253.992 35.3772Z" fill="url(#paint49_linear_1_4748)"/>
<path d="M282.057 26.0325C270.27 25.2074 264.631 41.6372 271.257 42.4569C277.882 43.2766 291.133 26.6678 282.057 26.0325Z" fill="url(#paint50_linear_1_4748)"/>
<path d="M228.514 86.5709C224.263 86.2733 222.23 92.1984 224.619 92.4941C227.008 92.7897 231.787 86.8 228.514 86.5709Z" fill="url(#paint51_linear_1_4748)"/>
<path d="M271.079 226.86L279.564 231.431L289.632 226.86L290.092 217.66L271.079 226.86Z" fill="url(#paint52_linear_1_4748)"/>
<path d="M258.863 212.111L268.856 215.587L282.579 209.377L284.623 199.844L258.863 212.111Z" fill="url(#paint53_linear_1_4748)"/>
<path d="M290.093 217.66L271.08 226.86L266.468 208.485L258.862 212.109L261.622 187.269L284.622 199.843L277.342 203.308L290.093 217.66Z" fill="url(#paint54_linear_1_4748)"/>
<path d="M174.938 309.216L173.038 315.327L172.291 317.715L168.303 330.549L166.732 335.602L166.309 336.954L157.51 365.24H124.542L133.765 332.89C133.765 332.89 133.177 322.009 133.912 317.45C134.2 315.692 135.023 312.927 135.941 310.192C137.394 305.839 139.058 301.569 139.058 301.569L161.086 306.263L174.938 309.216Z" fill="#573353"/>
<path d="M174.937 309.216L173.037 315.327L172.29 317.715L168.302 330.549L166.732 335.602L166.308 336.954L157.509 365.24H144.022L146.439 359.929C146.439 359.929 146.439 359.929 146.439 359.923L152.662 346.242V346.236L157.733 335.096C157.733 335.096 151.574 334.613 146.163 333.596H146.157C144.228 333.231 142.399 332.802 140.969 332.302C137.399 331.049 146.681 327.073 153.11 324.032C156.48 322.432 159.068 321.097 158.615 320.538C158.168 319.991 156.462 318.691 153.898 317.174C153.521 316.95 153.127 316.721 152.71 316.486H152.704C148.481 314.121 142.434 311.421 135.94 310.192C137.393 305.84 139.058 301.569 139.058 301.569L161.085 306.263L174.937 309.216Z" fill="#573353"/>
<path d="M124.542 365.24C125.175 362.506 125.886 359.793 126.554 357.069C127.254 354.354 127.96 351.64 128.689 348.933C130.134 343.515 131.643 338.115 133.177 332.723L133.154 332.923C133.036 330.23 132.95 327.547 132.969 324.852C132.982 323.505 133.006 322.158 133.083 320.807C133.124 320.131 133.161 319.455 133.243 318.777C133.313 318.106 133.417 317.406 133.563 316.742C133.868 315.403 134.253 314.114 134.678 312.834L135.334 310.924C135.554 310.289 135.798 309.648 136.047 309.033C137.052 306.545 138.019 304.044 139.058 301.569C138.275 304.137 137.419 306.678 136.601 309.233C136.39 309.877 136.178 310.496 135.992 311.14L135.434 313.064C135.084 314.349 134.729 315.64 134.489 316.927C134.371 317.576 134.3 318.209 134.253 318.872C134.201 319.528 134.172 320.191 134.147 320.854C134.1 322.181 134.104 323.516 134.119 324.85C134.151 327.517 134.232 330.195 134.375 332.857L134.38 332.959L134.352 333.058C132.812 338.448 131.247 343.832 129.618 349.198C128.809 351.882 127.978 354.56 127.141 357.236C126.273 359.904 125.446 362.583 124.542 365.24Z" fill="#573353"/>
<path d="M159.547 332.008C159.547 332.008 159.567 332.137 159.605 332.381C159.625 332.623 159.655 332.997 159.633 333.457C159.607 334.383 159.473 335.699 159.223 337.259C158.981 338.82 158.629 340.627 158.199 342.55C157.778 344.474 157.259 346.508 156.728 348.538C156.446 349.549 156.165 350.559 155.887 351.554C155.613 352.549 155.306 353.519 155.025 354.461C154.453 356.342 153.885 358.088 153.372 359.576C152.358 362.557 151.558 364.505 151.558 364.505C151.558 364.505 151.962 362.439 152.695 359.381C153.055 357.85 153.496 356.07 153.985 354.169C154.236 353.22 154.472 352.233 154.745 351.24C155.009 350.244 155.276 349.233 155.544 348.221C156.092 346.202 156.64 344.184 157.153 342.291C157.659 340.398 158.132 338.631 158.536 337.117C158.925 335.599 159.231 334.33 159.392 333.433C159.474 332.982 159.519 332.634 159.539 332.386C159.544 332.139 159.547 332.008 159.547 332.008Z" fill="#573353"/>
<path d="M163.665 337.497C163.665 337.497 163.59 337.59 163.451 337.765C163.313 337.941 163.113 338.2 162.81 338.492C162.517 338.795 162.158 339.168 161.728 339.557C161.304 339.957 160.823 340.407 160.28 340.872C159.744 341.347 159.159 341.858 158.525 342.376C157.896 342.902 157.233 343.457 156.53 344.007C155.139 345.131 153.62 346.279 152.1 347.426C151.331 347.987 150.561 348.549 149.804 349.101C149.051 349.659 148.286 350.175 147.558 350.691C146.094 351.713 144.71 352.642 143.51 353.419C141.116 354.982 139.451 355.927 139.451 355.927C139.451 355.927 140.874 354.647 143.095 352.85C144.201 351.945 145.507 350.911 146.918 349.821C147.627 349.28 148.349 348.706 149.101 348.149C149.849 347.586 150.608 347.014 151.368 346.442C152.134 345.879 152.9 345.316 153.653 344.762C154.411 344.213 155.156 343.672 155.878 343.149C157.329 342.115 158.684 341.15 159.845 340.323C161.007 339.498 161.984 338.814 162.64 338.319C162.977 338.079 163.235 337.87 163.402 337.72C163.573 337.575 163.665 337.497 163.665 337.497Z" fill="#573353"/>
<path d="M160.332 345.536C160.332 345.536 160.13 345.86 159.687 346.43C159.254 346.988 158.632 347.769 157.853 348.682C157.08 349.598 156.157 350.647 155.148 351.752C154.639 352.299 154.125 352.878 153.58 353.443C153.038 354.01 152.487 354.587 151.937 355.164C151.375 355.731 150.814 356.297 150.262 356.855C149.714 357.417 149.148 357.944 148.615 358.469C147.541 359.509 146.519 360.462 145.627 361.262C143.851 362.872 142.589 363.868 142.589 363.868C142.589 363.868 143.556 362.583 145.123 360.77C145.902 359.859 146.829 358.815 147.842 357.715C148.353 357.169 148.866 356.59 149.413 356.028C149.956 355.461 150.507 354.885 151.058 354.309C151.619 353.743 152.18 353.176 152.732 352.618C153.28 352.057 153.842 351.527 154.374 351.002C155.446 349.959 156.462 349.002 157.348 348.196C158.228 347.385 158.982 346.724 159.507 346.267C159.771 346.039 159.978 345.86 160.119 345.738C160.258 345.606 160.332 345.536 160.332 345.536Z" fill="#573353"/>
<path d="M153.962 316.528L137.661 316.029C137.661 316.029 135.945 328.209 135.802 329.42C135.659 330.631 140.807 334.05 142.665 334.263C144.524 334.477 150.602 332.198 151.674 330.844C152.747 329.491 153.962 316.528 153.962 316.528Z" fill="#573353"/>
<path d="M214.399 365.24H178.579L169.203 340.095C169.203 340.095 167.897 338.819 166.309 336.954C165.844 336.413 165.356 335.819 164.868 335.19C163.133 332.966 161.41 330.325 160.821 328.037C160.515 326.861 160.386 324.879 160.363 322.526C160.304 317.397 160.763 310.492 161.086 306.263C161.268 303.963 161.41 302.451 161.41 302.451C161.41 302.451 190.378 292.305 195.377 302.598C196.342 304.581 197.648 308.151 199.13 312.633C204.753 329.643 212.911 359.717 214.399 365.24Z" fill="#573353"/>
<path d="M195.377 302.599C195.377 302.599 195.883 303.492 196.598 305.141C197.306 306.79 198.274 309.167 199.309 312.063C199.824 313.516 200.382 315.077 200.936 316.751C201.497 318.422 202.086 320.184 202.659 322.017C203.24 323.848 203.838 325.74 204.419 327.671C204.994 329.603 205.578 331.566 206.163 333.529C206.724 335.499 207.285 337.468 207.838 339.407C208.389 341.346 208.9 343.263 209.404 345.115C210.406 348.822 211.302 352.292 212.042 355.273C212.794 358.252 213.359 360.75 213.778 362.492C214.185 364.238 214.399 365.24 214.399 365.24C214.399 365.24 214.089 364.264 213.548 362.555C213.021 360.842 212.267 358.396 211.363 355.461C210.485 352.519 209.461 349.086 208.364 345.409C207.286 341.727 206.136 337.799 204.986 333.872C203.843 329.943 202.7 326.015 201.629 322.332C201.088 320.493 200.564 318.716 200.068 317.03C199.563 315.346 199.085 313.754 198.644 312.284C197.743 309.353 196.986 306.91 196.377 305.228C196.074 304.387 195.836 303.724 195.657 303.279C195.474 302.835 195.377 302.599 195.377 302.599Z" fill="#573353"/>
<path d="M166.631 317.892L183.394 317.377C183.394 317.377 185.159 329.949 185.306 331.199C185.453 332.449 180.159 335.978 178.247 336.199C176.336 336.419 170.086 334.067 168.984 332.67C167.881 331.273 166.631 317.892 166.631 317.892Z" fill="#573353"/>
<path d="M184.938 347.301C185.761 348.677 190.667 358.088 194.302 365.24H178.58L169.204 340.095C169.204 340.095 167.898 338.819 166.31 336.954C165.846 336.413 165.357 335.819 164.869 335.19C165.451 335.325 166.075 335.461 166.734 335.602C175.809 337.484 190.955 339.301 194.79 341.272C196.69 342.248 195.902 343.007 194.131 343.672C190.826 344.924 184.073 345.865 184.938 347.301Z" fill="#573353"/>
<path d="M165.674 317.009C163.033 318.085 161.356 320.179 160.362 322.526C160.274 314.603 161.409 302.451 161.409 302.451C161.409 302.451 190.377 292.305 195.377 302.598C196.342 304.581 197.647 308.151 199.129 312.633C186.466 313.762 170.703 314.956 165.674 317.009Z" fill="#573353"/>
<path d="M196.21 308.481C196.21 308.481 196.681 309.314 197.182 310.636C197.31 310.966 197.444 311.325 197.568 311.711C197.694 312.095 197.83 312.501 197.942 312.929C198.185 313.78 198.396 314.705 198.531 315.657C198.596 316.133 198.646 316.616 198.647 317.111C198.645 317.362 198.653 317.601 198.601 317.87C198.576 318.004 198.574 318.12 198.529 318.265C198.479 318.412 198.425 318.558 198.367 318.697C198.139 319.118 197.79 319.497 197.491 319.782C197.187 320.084 196.866 320.318 196.568 320.526C195.972 320.939 195.436 321.206 195.055 321.376C194.673 321.545 194.445 321.617 194.445 321.617C194.445 321.617 194.618 321.455 194.921 321.173C195.22 320.892 195.64 320.487 196.11 319.991C196.339 319.739 196.583 319.465 196.813 319.167C197.046 318.856 197.234 318.57 197.403 318.21C197.413 318.142 197.427 318.077 197.447 318.014C197.465 317.947 197.457 317.834 197.465 317.746C197.484 317.568 197.462 317.351 197.458 317.142C197.431 316.72 197.385 316.272 197.317 315.825C197.263 315.377 197.18 314.925 197.11 314.48C197.036 314.033 196.962 313.592 196.891 313.166C196.741 312.313 196.609 311.509 196.504 310.816C196.288 309.432 196.21 308.481 196.21 308.481Z" fill="#573353"/>
<path d="M193.171 309.363C193.171 309.363 193.306 310.246 193.544 311.791C193.776 313.334 194.148 315.536 194.668 318.151C194.935 319.456 195.245 320.869 195.67 322.313C195.891 323.034 196.136 323.754 196.5 324.413C196.887 325.112 197.283 325.877 197.584 326.712C197.732 327.134 197.849 327.595 197.898 328.063C197.948 328.532 197.939 328.979 197.94 329.405C197.939 329.826 197.948 330.263 197.97 330.66C197.998 331.117 198.043 331.464 198.133 331.863C198.298 332.628 198.716 333.339 199.126 334.171C199.534 334.988 199.87 335.896 200.116 336.751C200.62 338.499 201.049 340.218 201.489 341.925C201.929 343.628 202.332 345.31 202.729 346.935C203.121 348.561 203.501 350.133 203.861 351.623C204.23 353.111 204.579 354.517 204.902 355.816C205.521 358.44 205.863 360.646 206.139 362.186C206.4 363.728 206.515 364.616 206.515 364.616C206.515 364.616 206.289 363.751 205.892 362.239C205.692 361.484 205.45 360.568 205.172 359.516C204.881 358.47 204.563 357.283 204.185 356.01C203.788 354.744 203.358 353.339 202.948 351.863C202.525 350.386 202.099 348.825 201.668 347.207C201.236 345.591 200.791 343.921 200.338 342.224C199.892 340.531 199.429 338.793 198.948 337.109C198.705 336.248 198.423 335.474 198.045 334.695C197.682 333.934 197.189 333.094 196.983 332.129C196.878 331.671 196.821 331.146 196.81 330.733C196.795 330.26 196.798 329.831 196.809 329.391C196.846 328.507 196.828 327.795 196.57 327.055C196.319 326.309 195.976 325.597 195.615 324.871C195.23 324.102 194.998 323.309 194.8 322.557C194.408 321.043 194.183 319.6 193.985 318.27C193.6 315.607 193.44 313.375 193.311 311.817C193.198 310.257 193.171 309.363 193.171 309.363Z" fill="#573353"/>
<path d="M174.545 339.066C174.545 339.066 175.049 339.099 175.93 339.156C176.371 339.181 176.903 339.254 177.516 339.33C178.131 339.4 178.819 339.5 179.565 339.629C180.314 339.746 181.122 339.887 181.971 340.061C182.824 340.224 183.72 340.404 184.641 340.617C186.49 341.017 188.442 341.517 190.393 342.022C191.364 342.291 192.334 342.561 193.29 342.826C194.246 343.09 195.176 343.386 196.081 343.654C197.887 344.206 199.563 344.752 200.991 345.249C203.851 346.229 205.719 347.007 205.719 347.007C205.719 347.007 203.733 346.624 200.795 345.926C199.325 345.581 197.615 345.163 195.79 344.694C194.878 344.457 193.93 344.231 192.977 343.969C192.02 343.717 191.049 343.462 190.077 343.206C186.201 342.155 182.325 341.103 179.418 340.315C178.69 340.122 178.023 339.945 177.432 339.789C176.839 339.645 176.327 339.487 175.894 339.396C175.035 339.186 174.545 339.066 174.545 339.066Z" fill="#573353"/>
<path d="M185.818 347.399C185.818 347.399 185.936 347.409 186.153 347.486C186.373 347.56 186.684 347.669 187.075 347.831C187.857 348.149 188.962 348.63 190.266 349.248C191.574 349.86 193.082 350.605 194.682 351.432C195.48 351.85 196.312 352.268 197.141 352.722C197.972 353.173 198.816 353.631 199.66 354.089C200.496 354.56 201.333 355.032 202.156 355.496C202.982 355.955 203.777 356.439 204.556 356.89C206.108 357.803 207.543 358.679 208.761 359.451C211.204 360.983 212.777 362.104 212.777 362.104C212.777 362.104 211.002 361.343 208.418 360.066C207.122 359.433 205.624 358.672 204.031 357.834C203.237 357.41 202.407 356.99 201.581 356.531C200.752 356.079 199.909 355.62 199.066 355.161C198.23 354.691 197.393 354.221 196.57 353.759C195.744 353.301 194.946 352.823 194.165 352.377C192.608 351.475 191.165 350.615 189.935 349.866C188.706 349.114 187.682 348.487 186.966 348.048C186.606 347.833 186.324 347.654 186.131 347.549C185.939 347.433 185.818 347.399 185.818 347.399Z" fill="#573353"/>
<path d="M133.277 306.127C127.784 304.169 108.962 292.205 106.415 284.853C104.386 278.989 108.65 268.39 112.997 257.42C114.103 254.638 115.208 251.832 116.22 249.074C116.961 247.056 117.726 245.203 118.514 243.498C123.037 233.675 128.237 228.917 133.077 227.999C133.077 227.999 139.259 245.609 137.742 253.338C137.618 253.985 137.436 254.561 137.195 255.055C135.877 257.726 133.689 262.155 131.583 266.401C128.666 272.277 125.925 277.795 125.925 277.795C132.195 285.247 142.488 291.523 142.982 295.934C143.471 300.346 138.765 308.086 133.277 306.127Z" fill="#BA3888"/>
<path d="M114.575 282.894C114.575 282.894 115.684 282.389 117.347 281.63C117.757 281.436 118.202 281.226 118.672 281.004C119.134 280.771 119.621 280.526 120.125 280.272C120.622 280.009 121.126 279.722 121.62 279.417C121.871 279.269 122.111 279.105 122.347 278.937L122.736 278.67C122.908 278.571 123.064 278.472 123.326 278.42C123.402 278.412 123.453 278.394 123.551 278.406C123.65 278.423 123.742 278.431 123.838 278.487C124.05 278.602 124.149 278.792 124.192 278.931C124.274 279.22 124.233 279.389 124.219 279.58C124.168 279.935 124.07 280.238 123.968 280.539C123.764 281.135 123.494 281.676 123.23 282.194C122.693 283.226 122.1 284.13 121.551 284.873C121.003 285.617 120.492 286.195 120.115 286.579C119.736 286.962 119.501 287.159 119.501 287.159C119.501 287.159 120.224 286.166 121.108 284.586C121.547 283.795 122.04 282.862 122.501 281.84C122.735 281.332 122.943 280.793 123.127 280.255C123.213 279.987 123.293 279.709 123.322 279.464C123.334 279.356 123.335 279.213 123.322 279.208C123.321 279.204 123.335 279.259 123.411 279.298C123.468 279.331 123.51 279.319 123.48 279.326C123.441 279.328 123.327 279.382 123.236 279.432L122.869 279.674C122.608 279.853 122.346 280.025 122.079 280.177C121.551 280.498 121.004 280.748 120.481 280.998C119.425 281.475 118.414 281.842 117.538 282.12C115.786 282.684 114.575 282.894 114.575 282.894Z" fill="#BA3888"/>
<path d="M121.046 291.276C121.046 291.276 121.334 291.279 121.853 291.317C122.366 291.354 123.095 291.415 123.967 291.516C124.84 291.611 125.854 291.743 126.937 291.904C128.021 292.06 129.171 292.26 130.322 292.458C131.469 292.675 132.616 292.889 133.686 293.123C134.757 293.35 135.753 293.581 136.604 293.797C138.307 294.218 139.427 294.584 139.427 294.584C139.427 294.584 138.251 294.522 136.509 294.317C135.637 294.218 134.624 294.084 133.541 293.92C133.001 293.834 132.44 293.76 131.875 293.658C131.308 293.561 130.733 293.462 130.158 293.363C129.011 293.146 127.864 292.932 126.794 292.7C125.723 292.474 124.726 292.246 123.875 292.033C123.023 291.827 122.316 291.634 121.822 291.496C121.328 291.356 121.046 291.276 121.046 291.276Z" fill="#BA3888"/>
<path d="M122.296 295.687C122.296 295.687 122.357 295.72 122.473 295.781C122.594 295.835 122.764 295.89 122.997 295.944C123.46 296.052 124.136 296.129 124.953 296.188C125.771 296.242 126.728 296.282 127.755 296.323C128.784 296.364 129.881 296.407 130.979 296.45C131.529 296.481 132.079 296.511 132.62 296.541C133.162 296.566 133.694 296.617 134.211 296.654C135.243 296.737 136.207 296.842 137.031 296.971C137.855 297.093 138.539 297.244 139.007 297.388C139.243 297.453 139.422 297.533 139.541 297.585C139.658 297.642 139.721 297.673 139.721 297.673C139.721 297.673 139.451 297.602 138.972 297.568C138.495 297.527 137.81 297.511 136.987 297.497C136.162 297.488 135.201 297.476 134.171 297.464C133.139 297.452 132.038 297.411 130.936 297.369C129.834 297.307 128.73 297.242 127.697 297.129C126.664 297.022 125.7 296.882 124.88 296.709C124.06 296.541 123.384 296.328 122.937 296.116C122.713 296.017 122.543 295.898 122.444 295.821C122.347 295.734 122.296 295.687 122.296 295.687Z" fill="#BA3888"/>
<path d="M137.742 253.338C137.618 253.985 137.436 254.561 137.195 255.055C135.877 257.726 133.689 262.155 131.584 266.401C125.684 259.196 117.838 257.62 112.997 257.42C114.103 254.638 115.209 251.832 116.22 249.074C116.961 247.056 117.726 245.203 118.514 243.498C123.537 243.715 131.79 245.415 137.742 253.338Z" fill="#BA3888"/>
<path d="M105.929 280.248C105.929 280.248 105.941 280.01 105.965 279.564C105.982 279.118 106.043 278.463 106.156 277.633C106.397 275.98 106.869 273.627 107.703 270.883C108.536 268.14 109.619 264.975 110.905 261.638C111.549 259.973 112.214 258.253 112.891 256.504C113.557 254.751 114.234 252.97 114.91 251.189C115.617 249.423 116.265 247.634 117 245.889C117.727 244.146 118.523 242.469 119.357 240.878C120.177 239.267 121.101 237.792 122.04 236.432C122.971 235.068 123.968 233.856 124.957 232.806C125.444 232.274 125.957 231.806 126.441 231.361C126.954 230.947 127.428 230.541 127.918 230.216C128.388 229.864 128.872 229.601 129.303 229.335C129.759 229.112 130.161 228.875 130.556 228.729C130.945 228.569 131.29 228.426 131.607 228.346C131.92 228.255 132.182 228.168 132.405 228.134C132.843 228.046 133.077 227.999 133.077 227.999C133.077 227.999 132.848 228.063 132.417 228.182C132.2 228.232 131.945 228.337 131.643 228.45C131.338 228.553 131.004 228.716 130.63 228.892C130.25 229.056 129.866 229.312 129.432 229.554C129.023 229.839 128.564 230.12 128.123 230.491C127.215 231.197 126.273 232.094 125.339 233.156C124.404 234.217 123.467 235.436 122.597 236.806C121.72 238.17 120.867 239.663 120.069 241.238C119.262 242.819 118.491 244.49 117.794 246.217C117.09 247.936 116.462 249.739 115.769 251.517C115.073 253.291 114.376 255.064 113.691 256.81C112.995 258.553 112.31 260.268 111.647 261.928C110.993 263.587 110.361 265.191 109.762 266.712C109.181 268.239 108.648 269.689 108.195 271.039C107.751 272.393 107.345 273.635 107.039 274.751C106.72 275.864 106.498 276.848 106.332 277.663C106.182 278.479 106.059 279.122 106.015 279.568C105.959 280.011 105.929 280.248 105.929 280.248Z" fill="#BA3888"/>
<path d="M125.925 277.795C125.925 277.795 126.207 278.07 126.7 278.552C127.184 279.038 127.91 279.7 128.773 280.496C129.641 281.287 130.666 282.195 131.773 283.16C132.883 284.124 134.067 285.153 135.251 286.181C135.837 286.706 136.422 287.232 136.999 287.749C137.577 288.266 138.124 288.8 138.657 289.315C139.713 290.355 140.661 291.375 141.375 292.338C141.742 292.811 142.033 293.282 142.27 293.707C142.499 294.14 142.682 294.525 142.783 294.862C142.845 295.025 142.879 295.179 142.904 295.313C142.935 295.444 142.953 295.558 142.957 295.652C142.973 295.836 142.982 295.934 142.982 295.934C142.982 295.934 142.956 295.839 142.908 295.661C142.865 295.484 142.763 295.233 142.617 294.929C142.33 294.314 141.754 293.531 140.968 292.675C140.186 291.816 139.189 290.886 138.102 289.906C136.998 288.937 135.821 287.904 134.643 286.871C133.47 285.827 132.293 284.782 131.228 283.756C130.158 282.737 129.191 281.748 128.4 280.867C126.813 279.103 125.925 277.795 125.925 277.795Z" fill="#BA3888"/>
<path d="M177.805 212.607C177.805 212.607 168.247 209.078 166.556 209.151C164.865 209.225 165.699 219.224 167.684 221.871C169.669 224.517 180.305 226.135 180.305 226.135L179.864 217.092L177.805 212.607Z" fill="#F2DAC9"/>
<path d="M164.912 219.628C164.903 221.316 166.126 221.404 168.238 221.514C170.351 221.624 172.144 221.446 172.099 220.188C172.054 218.93 171.471 218.146 169.217 218.204C166.963 218.261 164.918 218.5 164.912 219.628Z" fill="#F2DAC9"/>
<path d="M164.519 216.554C164.308 218.318 165.576 218.555 167.771 218.922C169.967 219.289 171.863 219.317 171.966 217.996C172.069 216.675 171.552 215.786 169.189 215.578C166.826 215.37 164.66 215.375 164.519 216.554Z" fill="#F2DAC9"/>
<path d="M164.488 212.97C163.945 214.685 165.262 215.108 167.55 215.797C169.838 216.486 171.865 216.795 172.213 215.503C172.561 214.211 172.167 213.253 169.67 212.697C167.174 212.14 164.851 211.824 164.488 212.97Z" fill="#F2DAC9"/>
<path d="M164.937 209.519C164.222 211.169 165.489 211.725 167.695 212.644C169.9 213.563 171.885 214.077 172.363 212.827C172.841 211.578 172.547 210.585 170.121 209.776C167.695 208.967 165.415 208.416 164.937 209.519Z" fill="#F2DAC9"/>
<path d="M181.481 217.459C181.481 217.459 178.614 211.063 177.879 210.548C177.143 210.033 171.776 206.798 170.526 205.99C169.277 205.181 170.232 208.122 171.115 209.225C171.997 210.327 173.614 212.533 173.614 212.533C173.614 212.533 172.438 214.445 173.1 217.092C173.761 219.738 180.967 221.65 180.967 221.65L181.481 217.459Z" fill="#F2DAC9"/>
<path d="M190.745 220.032C190.745 220.032 185.23 216.577 182.731 216.136C180.231 215.695 177.143 219.15 177.51 222.753C177.878 226.355 179.643 228.193 180.598 228.855C181.554 229.517 191.48 233.414 191.48 233.414L190.745 220.032Z" fill="#F2DAC9"/>
<path d="M183.269 226.527C183.56 220.705 186.406 218.194 191.405 218.587C196.405 218.979 223.363 234.664 226.696 236.624C230.03 238.585 230.912 249.368 226.598 251.623C222.285 253.878 212.482 252.211 205.522 248.976C198.562 245.741 182.877 234.37 183.269 226.527Z" fill="#BA3888"/>
<path d="M154.386 210.083L154.679 218.546L164.486 216.991L164.72 208.06L159.69 204.915L154.386 210.083Z" fill="url(#paint55_linear_1_4748)"/>
<path d="M165.488 211.659C163.235 210.612 158.759 206.024 158.759 206.024C158.759 206.024 151.378 199.749 154.142 196.072C156.901 192.39 164.159 193.849 164.159 193.849C164.159 193.849 165.882 197.325 167.776 201.001C168.77 201.795 169.647 202.342 170.899 202.872C171.864 203.284 170.658 204.031 169.67 204.642C170.011 205.289 170.341 205.913 170.652 206.477C170.929 206.989 171.188 207.46 171.417 207.866C171.77 208.483 172.064 208.96 172.264 209.248C173.799 211.424 167.729 212.712 165.488 211.659Z" fill="url(#paint56_linear_1_4748)"/>
<path d="M171.418 207.866C171.259 207.983 171.077 208.083 170.859 208.166C169.136 208.801 168.159 207.366 168.159 207.366C169.012 207.207 169.912 206.842 170.653 206.478C170.93 206.989 171.188 207.46 171.418 207.866Z" fill="white"/>
<path d="M165.778 199.105C165.778 199.105 165.438 198.373 164.914 198.44C164.39 198.507 164.808 198.929 164.808 198.929C164.808 198.929 163.133 199.377 163.197 200.756C163.197 200.756 164.098 199.752 165.778 199.105Z" fill="url(#paint57_linear_1_4748)"/>
<path d="M165.167 201.96C165.453 202.488 166.033 202.727 166.463 202.494C166.894 202.262 167.011 201.645 166.725 201.117C166.439 200.589 165.859 200.35 165.428 200.583C164.998 200.816 164.881 201.432 165.167 201.96Z" fill="url(#paint58_linear_1_4748)"/>
<path d="M141.499 203.726C142.191 204.292 142.892 204.848 143.602 205.413C148.433 209.253 153.314 212.928 153.314 212.928L158.627 211.108L158.396 202.799L161.572 203.634L159.257 200.555C162.174 198.993 160.184 197.112 160.184 197.112C160.184 197.112 171.587 194.757 171.87 191.788C172.138 188.948 168.446 188.941 168.108 188.941C174.198 187.127 178.125 183.409 176.965 180.499C176.602 179.604 175.757 178.787 174.35 178.132C168.36 175.328 162.207 180.123 162.207 180.123C167.298 173.613 162.722 168.751 155.11 174.317C147.497 179.883 144.32 191.814 144.32 191.814C144.32 191.814 141.291 186.069 139.937 187.312C138.583 188.556 142.221 192.887 142.221 192.887C142.221 192.887 136.478 189.446 135.7 191.04C134.904 192.633 141.997 195.022 141.997 195.022C138.955 195.381 136.114 199.343 141.499 203.726Z" fill="url(#paint59_linear_1_4748)"/>
<path d="M143.602 205.413C148.433 209.253 153.314 212.928 153.314 212.928L158.627 211.108L158.396 202.799L161.572 203.634L159.257 200.555C162.174 198.993 160.184 197.111 160.184 197.111C160.184 197.111 171.587 194.757 171.87 191.788C172.138 188.948 168.446 188.941 168.108 188.941C174.198 187.127 178.124 183.409 176.965 180.498C172.677 184.693 161.002 188.07 160.331 188.271C160.644 188.336 163.052 188.853 161.804 191.62C160.47 194.572 148.98 198.035 148.98 198.035C148.98 198.035 149.045 202.365 143.602 205.413Z" fill="url(#paint60_linear_1_4748)"/>
<path d="M164.235 178.467C164.904 178.046 165.729 177.608 166.675 177.269C167.154 177.124 167.642 176.93 168.17 176.85C168.689 176.731 169.23 176.681 169.772 176.629C170.316 176.631 170.865 176.612 171.398 176.696C171.937 176.745 172.452 176.872 172.94 177.032C173.441 177.145 173.876 177.399 174.299 177.589C174.729 177.777 175.08 178.029 175.413 178.278C176.068 178.768 176.492 179.332 176.7 179.753C176.911 180.177 176.944 180.441 176.944 180.441C176.944 180.441 176.804 180.213 176.492 179.902C176.181 179.591 175.683 179.224 175.02 178.907C174.695 178.758 174.317 178.589 173.917 178.474C173.51 178.362 173.102 178.199 172.651 178.132C172.429 178.089 172.204 178.045 171.976 178.001C171.743 177.986 171.509 177.965 171.274 177.937C170.805 177.874 170.318 177.912 169.838 177.919C168.87 177.955 167.909 178.148 167.007 178.354C166.563 178.485 166.123 178.586 165.717 178.728C165.306 178.854 164.926 179.003 164.567 179.127C163.152 179.671 162.207 180.13 162.207 180.13C162.207 180.13 162.894 179.319 164.235 178.467Z" fill="url(#paint61_linear_1_4748)"/>
<path d="M145.573 187.153C146.048 185.78 146.696 184.205 147.547 182.588C147.964 181.777 148.431 180.953 148.955 180.146C149.472 179.333 150.051 178.542 150.654 177.766C151.296 177.022 151.93 176.266 152.654 175.612C153.331 174.907 154.121 174.37 154.87 173.791C155.592 173.289 156.419 172.823 157.182 172.466C157.963 172.113 158.741 171.859 159.482 171.717C160.967 171.405 162.304 171.731 163.016 172.24C163.738 172.763 163.868 173.284 163.891 173.257C163.891 173.257 163.811 173.168 163.66 173.001C163.505 172.841 163.245 172.641 162.888 172.457C162.164 172.082 160.968 172.024 159.656 172.438C159 172.644 158.316 172.952 157.616 173.328C156.915 173.73 156.256 174.176 155.518 174.726C154.868 175.275 154.154 175.845 153.522 176.507C152.851 177.131 152.261 177.863 151.659 178.577C151.073 179.308 150.506 180.057 149.995 180.832C149.487 181.605 148.974 182.365 148.539 183.138C147.633 184.664 146.875 186.146 146.255 187.435C145.643 188.727 145.13 189.813 144.82 190.593C144.499 191.371 144.315 191.816 144.315 191.816C144.315 191.816 144.386 191.337 144.582 190.515C144.788 189.696 145.086 188.522 145.573 187.153Z" fill="url(#paint62_linear_1_4748)"/>
<path d="M162.195 205.273C162.195 205.273 158.049 198.994 155.161 201.632C152.272 204.27 158.094 210.301 162.195 205.273Z" fill="url(#paint63_linear_1_4748)"/>
<path d="M199.054 308.997C199.054 308.997 178.568 312.791 163.763 311.491C158.828 311.056 153.641 310.003 149.094 308.856C141.547 306.962 135.754 304.804 135.754 304.804L137.954 293.922L187.908 297.728L196.849 298.41L199.054 308.997Z" fill="#FDA758"/>
<path d="M187.908 297.728C175.645 304.463 165.351 305.439 156.999 304.345C153.417 303.874 150.888 305.904 149.094 308.856C141.547 306.962 135.754 304.804 135.754 304.804L137.954 293.922L187.908 297.728Z" fill="#FDA758"/>
<path d="M172.067 225.399L146.116 222.752C146.116 222.752 146.704 217.164 147.363 215.694C147.963 214.37 153.104 212.741 159.439 213.241C160.133 213.3 160.838 213.382 161.556 213.488C168.832 214.594 171.338 216.794 171.479 218.558C171.555 219.423 171.696 221.076 171.826 222.54C171.955 224.075 172.067 225.399 172.067 225.399Z" fill="#FDA758"/>
<path d="M172.067 225.399L146.116 222.752C146.116 222.752 146.704 217.164 147.363 215.694C147.963 214.37 153.104 212.741 159.439 213.241C159.45 214.211 159.221 215.441 159.092 216.858C158.815 219.905 165.62 220.258 171.826 222.54C171.955 224.075 172.067 225.399 172.067 225.399Z" fill="#FDA758"/>
<path d="M150.447 213.994C150.447 213.994 150.557 213.952 150.761 213.874C150.967 213.798 151.271 213.683 151.665 213.567C152.452 213.328 153.601 213.049 155.008 212.873C155.711 212.784 156.478 212.715 157.291 212.694C158.11 212.675 158.953 212.66 159.864 212.748C160.299 212.789 160.741 212.83 161.189 212.872L161.526 212.903L161.61 212.911L161.724 212.927L161.892 212.951C162.117 212.987 162.343 213.022 162.569 213.058C163.478 213.204 164.427 213.405 165.345 213.63C167.173 214.147 169.03 214.789 170.496 216.02C171.208 216.627 171.849 217.461 171.927 218.462C171.978 219.275 171.998 220.024 172.022 220.726C172.121 223.526 172.067 225.399 172.067 225.399C172.067 225.399 171.71 223.557 171.32 220.788C171.226 220.097 171.124 219.348 171.016 218.557C170.923 217.936 170.429 217.343 169.811 216.856C169.179 216.366 168.402 215.991 167.595 215.647C166.779 215.314 165.91 215.051 165.033 214.816C164.144 214.585 163.273 214.384 162.373 214.225C162.147 214.185 161.922 214.145 161.698 214.105L161.531 214.073C161.516 214.07 161.446 214.058 161.477 214.062L161.393 214.05L161.058 214.003C160.613 213.941 160.173 213.879 159.74 213.819C158.916 213.71 158.067 213.646 157.285 213.607C156.497 213.575 155.75 213.56 155.059 213.572C153.677 213.601 152.522 213.701 151.716 213.804C150.91 213.906 150.447 213.994 150.447 213.994Z" fill="#FDA758"/>
<path d="M200.289 296.94C199.407 299.592 197.778 302.11 197.778 302.11C197.778 302.11 187.878 305.439 166.704 303.969C145.529 302.498 137.883 296.422 137.883 296.422C137.883 296.422 135.136 293.381 133.96 290.246C132.783 287.111 137.101 270.836 137.101 270.836C137.101 270.836 132.542 260.902 130.142 252.22C129.554 250.091 129.095 248.044 128.866 246.232C127.69 237.016 130.925 227.899 130.925 227.899C130.925 227.899 138.665 220.446 157.587 220.941C176.509 221.429 188.172 225.94 191.013 227.705C192.049 228.346 192.966 230.975 193.754 234.439C195.131 240.504 196.101 249.12 196.601 254.173C196.96 257.814 196.766 262.566 196.466 266.819C196.113 271.854 195.613 276.2 195.719 277.206C195.919 279.071 200.424 290.146 200.818 293.481C200.942 294.516 200.695 295.74 200.289 296.94Z" fill="#FDA758"/>
<path d="M130.924 227.899C130.924 227.899 131.092 227.721 131.441 227.423C131.786 227.12 132.313 226.697 133.026 226.218C133.378 225.971 133.79 225.734 134.228 225.455C134.678 225.2 135.166 224.922 135.696 224.643C136.765 224.102 137.995 223.526 139.388 223.031C140.083 222.783 140.806 222.513 141.575 222.302C142.337 222.069 143.131 221.845 143.959 221.668C144.372 221.572 144.79 221.475 145.214 221.377C145.639 221.287 146.074 221.221 146.512 221.14C146.95 221.064 147.393 220.988 147.841 220.91C148.289 220.838 148.745 220.8 149.204 220.743C150.122 220.639 151.055 220.515 152.005 220.477C152.953 220.434 153.914 220.322 154.883 220.346C155.855 220.347 156.823 220.333 157.817 220.347C158.788 220.382 159.764 220.417 160.739 220.452C162.698 220.57 164.665 220.71 166.582 220.917C167.545 220.998 168.494 221.138 169.432 221.262C170.372 221.377 171.294 221.535 172.202 221.681C174.019 221.97 175.763 222.329 177.405 222.709C179.051 223.078 180.59 223.5 182 223.922C183.411 224.338 184.684 224.788 185.802 225.209C186.357 225.431 186.876 225.639 187.356 225.831C187.829 226.041 188.263 226.233 188.655 226.407C189.433 226.768 190.02 227.102 190.418 227.329C190.806 227.574 191.013 227.705 191.013 227.705C191.013 227.705 190.795 227.594 190.387 227.387C189.972 227.195 189.354 226.937 188.561 226.627C188.161 226.482 187.718 226.322 187.235 226.148C186.747 225.991 186.219 225.822 185.654 225.641C184.517 225.306 183.228 224.951 181.814 224.601C180.397 224.258 178.855 223.918 177.216 223.605C176.396 223.452 175.555 223.286 174.688 223.158C173.822 223.023 172.941 222.862 172.038 222.749C170.237 222.482 168.365 222.285 166.464 222.096C164.559 221.904 162.629 221.783 160.691 221.677C159.715 221.635 158.74 221.593 157.769 221.551C156.819 221.531 155.85 221.538 154.9 221.53L154.187 221.526L153.479 221.558C153.008 221.577 152.539 221.595 152.073 221.614C151.139 221.63 150.224 221.732 149.321 221.814C148.871 221.86 148.421 221.887 147.98 221.948C147.54 222.011 147.104 222.073 146.672 222.134C146.241 222.197 145.812 222.246 145.392 222.319C144.974 222.4 144.561 222.481 144.153 222.56C143.747 222.643 143.341 222.708 142.949 222.803C142.557 222.9 142.172 222.996 141.793 223.09C141.028 223.258 140.308 223.487 139.613 223.695C138.226 224.121 136.982 224.597 135.891 225.053C135.351 225.29 134.852 225.53 134.39 225.75C133.941 225.994 133.516 226.2 133.152 226.419C132.42 226.85 131.849 227.203 131.482 227.475C131.108 227.737 130.924 227.899 130.924 227.899Z" fill="#FDA758"/>
<path d="M196.466 266.819C183.115 256.338 175.698 241.704 184.203 231.134L193.755 234.44C195.131 240.504 196.102 249.121 196.602 254.173C196.96 257.814 196.766 262.566 196.466 266.819Z" fill="#FDA758"/>
<path d="M200.288 296.94C199.406 299.592 197.777 302.11 197.777 302.11C197.777 302.11 187.878 305.439 166.703 303.968C145.528 302.498 137.882 296.422 137.882 296.422C137.882 296.422 135.135 293.381 133.959 290.246C132.783 287.111 137.1 270.836 137.1 270.836C137.1 270.836 132.541 260.902 130.142 252.22C141.376 262.449 165.58 268.148 179.349 267.748C199.641 267.16 192.289 274.953 168.468 277.453C145.676 279.847 162.592 302.698 200.288 296.94Z" fill="#FDA758"/>
<path d="M153.963 226.134C153.963 226.134 153.822 226.4 153.631 226.928C153.434 227.452 153.191 228.238 152.951 229.253C152.696 230.265 152.493 231.518 152.324 232.959C152.24 233.679 152.2 234.452 152.137 235.261C152.125 236.076 152.062 236.929 152.071 237.821C152.079 239.606 152.156 241.538 152.351 243.574C152.457 244.591 152.539 245.637 152.713 246.698C152.877 247.76 152.994 248.85 153.218 249.945C153.434 251.04 153.588 252.165 153.864 253.281C154.119 254.413 154.375 255.512 154.622 256.705C154.857 257.861 155.094 259.026 155.331 260.195C155.485 261.4 155.655 262.61 155.793 263.821C155.839 265.034 155.949 266.246 155.936 267.455C155.9 268.664 155.921 269.872 155.788 271.058C155.734 271.652 155.696 272.246 155.631 272.833C155.549 273.417 155.469 273.998 155.388 274.575C155.233 275.73 155.016 276.855 154.834 277.965C154.445 280.178 154.068 282.3 153.873 284.324C153.804 284.829 153.816 285.329 153.783 285.822C153.771 286.314 153.717 286.8 153.739 287.276C153.756 287.753 153.774 288.221 153.791 288.681C153.802 289.142 153.819 289.595 153.896 290.032C153.956 290.471 154.015 290.902 154.072 291.322C154.127 291.744 154.177 292.156 154.283 292.548C154.466 293.339 154.64 294.09 154.802 294.795C155.01 295.489 155.241 296.129 155.435 296.727C155.647 297.318 155.786 297.885 156.013 298.356C156.827 300.287 157.293 301.39 157.293 301.39C157.293 301.39 156.747 300.321 155.793 298.45C155.537 297.988 155.366 297.429 155.117 296.845C154.887 296.254 154.617 295.621 154.366 294.93C154.159 294.223 153.939 293.471 153.707 292.678C153.573 292.285 153.508 291.865 153.433 291.436C153.356 291.008 153.278 290.569 153.198 290.121C153.1 289.675 153.063 289.212 153.031 288.739C152.994 288.266 152.956 287.784 152.918 287.294C152.873 286.803 152.917 286.304 152.913 285.797C152.931 285.291 152.906 284.771 152.96 284.254C153.098 282.173 153.41 280.004 153.768 277.788C154.102 275.572 154.464 273.293 154.607 270.969C154.731 269.809 154.701 268.636 154.731 267.46C154.737 266.284 154.619 265.105 154.572 263.926C154.431 262.759 154.29 261.592 154.15 260.43C153.92 259.259 153.69 258.094 153.462 256.937C153.222 255.784 152.984 254.64 152.749 253.509C152.49 252.376 152.353 251.231 152.155 250.12C151.952 249.009 151.842 247.9 151.714 246.82C151.57 245.742 151.518 244.677 151.441 243.643C151.296 241.576 151.301 239.612 151.37 237.804C151.402 236.901 151.49 236.036 151.551 235.215C151.663 234.397 151.748 233.62 151.874 232.896C152.129 231.449 152.406 230.198 152.722 229.191C153.015 228.179 153.337 227.414 153.57 226.902C153.802 226.389 153.963 226.134 153.963 226.134Z" fill="#FDA758"/>
<path d="M141.264 267.219C141.264 267.219 141.447 267.285 141.791 267.41C142.137 267.528 142.644 267.701 143.289 267.921C143.94 268.128 144.721 268.396 145.633 268.659C146.539 268.938 147.573 269.215 148.693 269.538C149.818 269.842 151.039 270.164 152.333 270.489C153.631 270.801 154.997 271.134 156.421 271.436C157.133 271.587 157.851 271.763 158.588 271.901C159.323 272.043 160.066 272.187 160.816 272.333C162.31 272.651 163.85 272.86 165.377 273.131C166.908 273.384 168.447 273.583 169.958 273.808C171.476 273.989 172.969 274.166 174.414 274.338C175.864 274.472 177.266 274.602 178.595 274.725C179.259 274.795 179.907 274.843 180.535 274.875C181.162 274.915 181.768 274.955 182.35 274.993C183.515 275.052 184.582 275.173 185.53 275.191C186.479 275.228 187.306 275.26 187.987 275.287C189.351 275.345 190.132 275.395 190.132 275.395C190.132 275.395 189.354 275.453 187.99 275.526C187.307 275.56 186.478 275.601 185.527 275.648C184.574 275.716 183.501 275.692 182.328 275.697C181.156 275.682 179.882 275.73 178.54 275.639C177.198 275.571 175.779 275.526 174.316 275.414C172.856 275.272 171.343 275.16 169.812 274.984C168.285 274.77 166.73 274.585 165.183 274.342C163.643 274.054 162.092 273.828 160.587 273.494C159.076 273.187 157.596 272.853 156.174 272.485C154.745 272.151 153.384 271.742 152.092 271.369C150.801 270.99 149.594 270.587 148.484 270.207C147.375 269.821 146.366 269.449 145.484 269.087C144.595 268.744 143.834 268.406 143.204 268.143C141.954 267.586 141.264 267.219 141.264 267.219Z" fill="#FDA758"/>
<path d="M144.88 273.042C144.88 273.042 145.546 273.311 146.711 273.781C147.869 274.265 149.549 274.896 151.552 275.671C152.558 276.048 153.647 276.457 154.799 276.888C155.95 277.323 157.174 277.75 158.435 278.203C159.691 278.673 161.017 279.077 162.342 279.55C163.675 279.998 165.038 280.426 166.399 280.859C167.768 281.262 169.128 281.704 170.483 282.073C171.845 282.417 173.162 282.852 174.468 283.144C175.117 283.304 175.756 283.46 176.382 283.614C177.005 283.779 177.618 283.924 178.22 284.041C179.423 284.278 180.552 284.561 181.606 284.747C182.663 284.922 183.63 285.1 184.489 285.259C185.347 285.418 186.105 285.476 186.727 285.565C187.971 285.726 188.684 285.835 188.684 285.835C188.684 285.835 187.967 285.835 186.708 285.803C186.08 285.774 185.311 285.789 184.437 285.713C183.563 285.64 182.576 285.556 181.499 285.444C180.423 285.332 179.27 285.128 178.045 284.94C176.815 284.769 175.545 284.464 174.219 284.196C173.555 284.065 172.887 283.905 172.213 283.733C171.539 283.562 170.857 283.389 170.169 283.215C168.796 282.856 167.421 282.426 166.035 282.029C164.667 281.579 163.296 281.134 161.957 280.669C160.624 280.188 159.311 279.716 158.059 279.213C156.799 278.729 155.595 278.228 154.461 277.736C153.318 277.263 152.26 276.765 151.279 276.317C149.321 275.41 147.727 274.576 146.611 273.997C146.052 273.71 145.624 273.461 145.329 273.297C145.036 273.131 144.88 273.042 144.88 273.042Z" fill="#FDA758"/>
<path d="M223.857 254.761C222.11 255.055 215.852 255.39 208.717 255.185C203.806 255.043 198.477 254.643 193.913 253.808C189.831 253.049 186.366 251.944 184.349 250.35C176.802 244.368 179.155 226.622 188.76 228.093C188.76 228.093 192.413 228.999 197.506 230.416C200.759 231.316 204.594 232.428 208.441 233.639C217.981 236.627 227.598 240.251 228.562 242.897C230.521 248.291 227.874 254.073 223.857 254.761Z" fill="#BA3888"/>
<path d="M208.717 255.184C203.806 255.043 198.477 254.643 193.913 253.808C189.737 247.756 187.743 237.709 197.507 230.416C200.759 231.316 204.594 232.427 208.441 233.639C201.824 243.138 204.982 250.62 208.717 255.184Z" fill="#BA3888"/>
<path d="M188.759 228.093C188.759 228.093 189.306 228.196 190.258 228.399C191.207 228.61 192.571 228.887 194.194 229.264C195.006 229.455 195.885 229.661 196.815 229.879C197.744 230.089 198.735 230.376 199.729 230.65C201.738 231.202 203.871 231.824 206.006 232.442C207.072 232.767 208.13 233.067 209.186 233.409C210.229 233.739 211.249 234.096 212.235 234.437C214.206 235.125 216.029 235.817 217.572 236.457C219.12 237.087 220.379 237.688 221.26 238.104C221.7 238.313 222.038 238.493 222.27 238.613C222.501 238.734 222.624 238.798 222.624 238.798C222.624 238.798 222.103 238.606 221.19 238.269C220.28 237.926 218.964 237.483 217.388 236.952C215.809 236.426 213.963 235.83 211.98 235.206C210.987 234.898 209.961 234.579 208.918 234.256C207.89 233.933 206.807 233.638 205.745 233.324C203.616 232.687 201.487 232.052 199.5 231.425C198.492 231.124 197.564 230.795 196.641 230.54C195.725 230.268 194.86 230.011 194.061 229.773C192.463 229.295 191.142 228.859 190.213 228.571C189.285 228.274 188.759 228.093 188.759 228.093Z" fill="#BA3888"/>
<path d="M185.133 247.897C185.133 247.897 185.281 247.884 185.558 247.859C185.837 247.842 186.243 247.788 186.757 247.726C187.784 247.617 189.255 247.4 191.018 247.178C192.783 246.958 194.842 246.701 197.048 246.426C199.255 246.157 201.612 245.896 203.968 245.63C206.327 245.383 208.684 245.129 210.898 244.922C213.112 244.708 215.179 244.525 216.953 244.384C218.727 244.235 220.209 244.151 221.244 244.072C222.282 244.011 222.875 243.976 222.875 243.976C222.875 243.976 222.29 244.084 221.265 244.25C220.238 244.407 218.775 244.658 217.013 244.909C215.252 245.168 213.195 245.449 210.988 245.727C209.884 245.861 208.745 246.016 207.585 246.143C206.425 246.275 205.246 246.41 204.068 246.544C201.708 246.791 199.349 247.038 197.132 247.23C194.917 247.429 192.846 247.591 191.068 247.701C189.291 247.82 187.809 247.873 186.765 247.904C186.244 247.927 185.837 247.919 185.559 247.908C185.281 247.901 185.133 247.897 185.133 247.897Z" fill="#BA3888"/>
<path d="M192.779 249.857C192.779 249.857 192.892 249.84 193.103 249.808C193.316 249.786 193.632 249.753 194.047 249.726C194.862 249.682 196.016 249.6 197.406 249.557C198.795 249.507 200.415 249.473 202.151 249.459C203.886 249.439 205.737 249.455 207.588 249.47C209.438 249.504 211.289 249.536 213.023 249.601C214.758 249.658 216.376 249.732 217.763 249.813C219.15 249.886 220.305 249.989 221.114 250.041C221.923 250.103 222.385 250.151 222.385 250.151C222.385 250.151 221.921 250.185 221.111 250.22C220.301 250.246 219.143 250.312 217.755 250.341C216.366 250.379 214.746 250.404 213.011 250.411C211.276 250.424 209.426 250.404 207.576 250.389C205.726 250.355 203.876 250.325 202.142 250.267C200.408 250.215 198.79 250.152 197.403 250.083C196.017 250.009 194.862 249.947 194.053 249.904C193.651 249.883 193.334 249.867 193.118 249.856C192.897 249.857 192.779 249.857 192.779 249.857Z" fill="#BA3888"/>
<defs>
<linearGradient id="paint0_linear_1_4748" x1="126.344" y1="-0.852636" x2="93.2239" y2="80.9251" gradientUnits="userSpaceOnUse">
<stop stop-color="#2AAABB"/>
<stop offset="1" stop-color="#1F93A1"/>
</linearGradient>
<linearGradient id="paint1_linear_1_4748" x1="130.093" y1="0.665414" x2="96.9728" y2="82.4432" gradientUnits="userSpaceOnUse">
<stop stop-color="#2AAABB"/>
<stop offset="1" stop-color="#1F93A1"/>
</linearGradient>
<linearGradient id="paint2_linear_1_4748" x1="174.41" y1="18.614" x2="141.29" y2="100.392" gradientUnits="userSpaceOnUse">
<stop stop-color="#2AAABB"/>
<stop offset="1" stop-color="#1F93A1"/>
</linearGradient>
<linearGradient id="paint3_linear_1_4748" x1="224.815" y1="39.0281" x2="191.695" y2="120.806" gradientUnits="userSpaceOnUse">
<stop stop-color="#2AAABB"/>
<stop offset="1" stop-color="#1F93A1"/>
</linearGradient>
<linearGradient id="paint4_linear_1_4748" x1="117.57" y1="151.703" x2="101.623" y2="160.903" gradientUnits="userSpaceOnUse">
<stop stop-color="#E6BAC1"/>
<stop offset="1" stop-color="#D67E8B"/>
</linearGradient>
<linearGradient id="paint5_linear_1_4748" x1="97.5716" y1="139.955" x2="94.7094" y2="179.412" gradientUnits="userSpaceOnUse">
<stop stop-color="#E6BAC1"/>
<stop offset="1" stop-color="#D67E8B"/>
</linearGradient>
<linearGradient id="paint6_linear_1_4748" x1="298.613" y1="158.405" x2="314.356" y2="160.041" gradientUnits="userSpaceOnUse">
<stop stop-color="#E6BAC1"/>
<stop offset="1" stop-color="#D67E8B"/>
</linearGradient>
<linearGradient id="paint7_linear_1_4748" x1="305.488" y1="150.633" x2="312.848" y2="185.184" gradientUnits="userSpaceOnUse">
<stop stop-color="#E6BAC1"/>
<stop offset="1" stop-color="#D67E8B"/>
</linearGradient>
<linearGradient id="paint8_linear_1_4748" x1="277.41" y1="101.889" x2="296.224" y2="83.0755" gradientUnits="userSpaceOnUse">
<stop stop-color="#E6BAC1"/>
<stop offset="1" stop-color="#D67E8B"/>
</linearGradient>
<linearGradient id="paint9_linear_1_4748" x1="288.359" y1="56.6307" x2="288.359" y2="110.604" gradientUnits="userSpaceOnUse">
<stop stop-color="#E6BAC1"/>
<stop offset="1" stop-color="#D67E8B"/>
</linearGradient>
<linearGradient id="paint10_linear_1_4748" x1="90.4899" y1="65.5567" x2="70.4544" y2="88.25" gradientUnits="userSpaceOnUse">
<stop stop-color="#E6BAC1"/>
<stop offset="1" stop-color="#D67E8B"/>
</linearGradient>
<linearGradient id="paint11_linear_1_4748" x1="70.2818" y1="64.6533" x2="61.6951" y2="107.996" gradientUnits="userSpaceOnUse">
<stop stop-color="#E6BAC1"/>
<stop offset="1" stop-color="#D67E8B"/>
</linearGradient>
<linearGradient id="paint12_linear_1_4748" x1="72.2363" y1="231.07" x2="75.4198" y2="231.07" gradientUnits="userSpaceOnUse">
<stop stop-color="#2AAABB"/>
<stop offset="1" stop-color="#1F93A1"/>
</linearGradient>
<linearGradient id="paint13_linear_1_4748" x1="89.7334" y1="240.784" x2="95.1326" y2="240.784" gradientUnits="userSpaceOnUse">
<stop stop-color="#2AAABB"/>
<stop offset="1" stop-color="#1F93A1"/>
</linearGradient>
<linearGradient id="paint14_linear_1_4748" x1="215.518" y1="192.68" x2="220.917" y2="192.68" gradientUnits="userSpaceOnUse">
<stop stop-color="#2AAABB"/>
<stop offset="1" stop-color="#1F93A1"/>
</linearGradient>
<linearGradient id="paint15_linear_1_4748" x1="67.3972" y1="35.0952" x2="73.0006" y2="31.7791" gradientUnits="userSpaceOnUse">
<stop stop-color="#2AAABB"/>
<stop offset="1" stop-color="#1F93A1"/>
</linearGradient>
<linearGradient id="paint16_linear_1_4748" x1="84.2361" y1="40.4263" x2="87.7415" y2="38.3518" gradientUnits="userSpaceOnUse">
<stop stop-color="#2AAABB"/>
<stop offset="1" stop-color="#1F93A1"/>
</linearGradient>
<linearGradient id="paint17_linear_1_4748" x1="69.9359" y1="54.5955" x2="72.979" y2="52.7946" gradientUnits="userSpaceOnUse">
<stop stop-color="#2AAABB"/>
<stop offset="1" stop-color="#1F93A1"/>
</linearGradient>
<linearGradient id="paint18_linear_1_4748" x1="309.635" y1="116.688" x2="315.297" y2="113.337" gradientUnits="userSpaceOnUse">
<stop stop-color="#2AAABB"/>
<stop offset="1" stop-color="#1F93A1"/>
</linearGradient>
<linearGradient id="paint19_linear_1_4748" x1="327.194" y1="135.597" x2="329.933" y2="133.976" gradientUnits="userSpaceOnUse">
<stop stop-color="#2AAABB"/>
<stop offset="1" stop-color="#1F93A1"/>
</linearGradient>
<linearGradient id="paint20_linear_1_4748" x1="141.36" y1="55.0526" x2="139.52" y2="122.826" gradientUnits="userSpaceOnUse">
<stop stop-color="#FCF2D3"/>
<stop offset="1" stop-color="#ECBF8F"/>
</linearGradient>
<linearGradient id="paint21_linear_1_4748" x1="118.721" y1="75.4391" x2="124.395" y2="105.339" gradientUnits="userSpaceOnUse">
<stop stop-color="#DDCE9F"/>
<stop offset="1" stop-color="#CE9B66"/>
</linearGradient>
<linearGradient id="paint22_linear_1_4748" x1="86.9473" y1="71.9129" x2="140.614" y2="71.9129" gradientUnits="userSpaceOnUse">
<stop stop-color="#D26F83"/>
<stop offset="1" stop-color="#CC3A60"/>
</linearGradient>
<linearGradient id="paint23_linear_1_4748" x1="116.704" y1="61.0074" x2="105.51" y2="101.487" gradientUnits="userSpaceOnUse">
<stop stop-color="#F9E480"/>
<stop offset="1" stop-color="#E39E35"/>
</linearGradient>
<linearGradient id="paint24_linear_1_4748" x1="120.946" y1="47.1316" x2="101.472" y2="105.092" gradientUnits="userSpaceOnUse">
<stop stop-color="white"/>
<stop offset="1" stop-color="#F4DCC1"/>
</linearGradient>
<linearGradient id="paint25_linear_1_4748" x1="189.34" y1="99.2852" x2="190.72" y2="123.359" gradientUnits="userSpaceOnUse">
<stop stop-color="#DDCE9F"/>
<stop offset="1" stop-color="#CE9B66"/>
</linearGradient>
<linearGradient id="paint26_linear_1_4748" x1="154.769" y1="85.4089" x2="213.137" y2="85.4089" gradientUnits="userSpaceOnUse">
<stop stop-color="#2C406B"/>
<stop offset="1" stop-color="#242250"/>
</linearGradient>
<linearGradient id="paint27_linear_1_4748" x1="196.079" y1="66.7637" x2="148.546" y2="140.057" gradientUnits="userSpaceOnUse">
<stop stop-color="#453E8F"/>
<stop offset="1" stop-color="#323478"/>
</linearGradient>
<linearGradient id="paint28_linear_1_4748" x1="250.284" y1="64.002" x2="243.078" y2="108.775" gradientUnits="userSpaceOnUse">
<stop stop-color="#FCF2D3"/>
<stop offset="1" stop-color="#ECBF8F"/>
</linearGradient>
<linearGradient id="paint29_linear_1_4748" x1="249.8" y1="72.5402" x2="245.507" y2="91.2469" gradientUnits="userSpaceOnUse">
<stop stop-color="#DDCE9F"/>
<stop offset="1" stop-color="#CE9B66"/>
</linearGradient>
<linearGradient id="paint30_linear_1_4748" x1="225.333" y1="65.8569" x2="257.453" y2="65.8569" gradientUnits="userSpaceOnUse">
<stop stop-color="#2AAABB"/>
<stop offset="1" stop-color="#1F93A1"/>
</linearGradient>
<linearGradient id="paint31_linear_1_4748" x1="247.567" y1="46.1636" x2="229.014" y2="81.1236" gradientUnits="userSpaceOnUse">
<stop stop-color="#F9E480"/>
<stop offset="1" stop-color="#E39E35"/>
</linearGradient>
<linearGradient id="paint32_linear_1_4748" x1="255.336" y1="50.2871" x2="236.783" y2="85.2471" gradientUnits="userSpaceOnUse">
<stop stop-color="#F9E480"/>
<stop offset="1" stop-color="#E39E35"/>
</linearGradient>
<linearGradient id="paint33_linear_1_4748" x1="165.381" y1="144.406" x2="163.388" y2="180.593" gradientUnits="userSpaceOnUse">
<stop stop-color="#FCF2D3"/>
<stop offset="1" stop-color="#ECBF8F"/>
</linearGradient>
<linearGradient id="paint34_linear_1_4748" x1="149.28" y1="151.462" x2="152.5" y2="178.142" gradientUnits="userSpaceOnUse">
<stop stop-color="#DDCE9F"/>
<stop offset="1" stop-color="#CE9B66"/>
</linearGradient>
<linearGradient id="paint35_linear_1_4748" x1="122.827" y1="147.006" x2="164.841" y2="147.006" gradientUnits="userSpaceOnUse">
<stop stop-color="#2AAABB"/>
<stop offset="1" stop-color="#1F93A1"/>
</linearGradient>
<linearGradient id="paint36_linear_1_4748" x1="151.382" y1="124.09" x2="135.027" y2="172.339" gradientUnits="userSpaceOnUse">
<stop stop-color="#F9E480"/>
<stop offset="1" stop-color="#E39E35"/>
</linearGradient>
<linearGradient id="paint37_linear_1_4748" x1="207.95" y1="131.852" x2="205.19" y2="164.665" gradientUnits="userSpaceOnUse">
<stop stop-color="#FCF2D3"/>
<stop offset="1" stop-color="#ECBF8F"/>
</linearGradient>
<linearGradient id="paint38_linear_1_4748" x1="193.338" y1="142.923" x2="195.024" y2="162.703" gradientUnits="userSpaceOnUse">
<stop stop-color="#DDCE9F"/>
<stop offset="1" stop-color="#CE9B66"/>
</linearGradient>
<linearGradient id="paint39_linear_1_4748" x1="201.716" y1="123.122" x2="181.067" y2="162.171" gradientUnits="userSpaceOnUse">
<stop stop-color="#F9E480"/>
<stop offset="1" stop-color="#E39E35"/>
</linearGradient>
<linearGradient id="paint40_linear_1_4748" x1="201.551" y1="123.034" x2="180.902" y2="162.083" gradientUnits="userSpaceOnUse">
<stop stop-color="white"/>
<stop offset="1" stop-color="#F4DCC1"/>
</linearGradient>
<linearGradient id="paint41_linear_1_4748" x1="269.696" y1="115.891" x2="257.736" y2="179.831" gradientUnits="userSpaceOnUse">
<stop stop-color="#FCF2D3"/>
<stop offset="1" stop-color="#ECBF8F"/>
</linearGradient>
<linearGradient id="paint42_linear_1_4748" x1="258.624" y1="155.213" x2="258.471" y2="180.207" gradientUnits="userSpaceOnUse">
<stop stop-color="#DDCE9F"/>
<stop offset="1" stop-color="#CE9B66"/>
</linearGradient>
<linearGradient id="paint43_linear_1_4748" x1="225.587" y1="139.71" x2="280.799" y2="139.71" gradientUnits="userSpaceOnUse">
<stop stop-color="#683A75"/>
<stop offset="1" stop-color="#3F2A63"/>
</linearGradient>
<linearGradient id="paint44_linear_1_4748" x1="282.969" y1="103.626" x2="246.578" y2="148.399" gradientUnits="userSpaceOnUse">
<stop stop-color="#A77AAE"/>
<stop offset="1" stop-color="#7E60A4"/>
</linearGradient>
<linearGradient id="paint45_linear_1_4748" x1="97.8366" y1="190.201" x2="72.3247" y2="186.521" gradientUnits="userSpaceOnUse">
<stop stop-color="#F9E480"/>
<stop offset="1" stop-color="#E39E35"/>
</linearGradient>
<linearGradient id="paint46_linear_1_4748" x1="98.6957" y1="204.19" x2="89.1441" y2="202.813" gradientUnits="userSpaceOnUse">
<stop stop-color="#F9E480"/>
<stop offset="1" stop-color="#E39E35"/>
</linearGradient>
<linearGradient id="paint47_linear_1_4748" x1="119.392" y1="122.297" x2="104.423" y2="120.138" gradientUnits="userSpaceOnUse">
<stop stop-color="#F9E480"/>
<stop offset="1" stop-color="#E39E35"/>
</linearGradient>
<linearGradient id="paint48_linear_1_4748" x1="94.1094" y1="127.542" x2="88.6637" y2="126.756" gradientUnits="userSpaceOnUse">
<stop stop-color="#F9E480"/>
<stop offset="1" stop-color="#E39E35"/>
</linearGradient>
<linearGradient id="paint49_linear_1_4748" x1="255.188" y1="40.4722" x2="246.912" y2="39.2786" gradientUnits="userSpaceOnUse">
<stop stop-color="#F9E480"/>
<stop offset="1" stop-color="#E39E35"/>
</linearGradient>
<linearGradient id="paint50_linear_1_4748" x1="284.238" y1="35.3296" x2="269.138" y2="33.1517" gradientUnits="userSpaceOnUse">
<stop stop-color="#F9E480"/>
<stop offset="1" stop-color="#E39E35"/>
</linearGradient>
<linearGradient id="paint51_linear_1_4748" x1="229.301" y1="89.9237" x2="223.855" y2="89.1383" gradientUnits="userSpaceOnUse">
<stop stop-color="#F9E480"/>
<stop offset="1" stop-color="#E39E35"/>
</linearGradient>
<linearGradient id="paint52_linear_1_4748" x1="292.388" y1="179.266" x2="283.188" y2="215.657" gradientUnits="userSpaceOnUse">
<stop stop-color="#FDA758"/>
<stop offset="1" stop-color="#D07F30"/>
</linearGradient>
<linearGradient id="paint53_linear_1_4748" x1="279.502" y1="176.009" x2="270.302" y2="212.4" gradientUnits="userSpaceOnUse">
<stop stop-color="#FDA758"/>
<stop offset="1" stop-color="#D07F30"/>
</linearGradient>
<linearGradient id="paint54_linear_1_4748" x1="278.626" y1="195.365" x2="265.593" y2="228.792" gradientUnits="userSpaceOnUse">
<stop stop-color="#FDA758"/>
<stop offset="1" stop-color="#E39E35"/>
</linearGradient>
<linearGradient id="paint55_linear_1_4748" x1="152.636" y1="218.452" x2="163.621" y2="209.736" gradientUnits="userSpaceOnUse">
<stop stop-color="#F2DAC9"/>
<stop offset="1" stop-color="#D67F79"/>
</linearGradient>
<linearGradient id="paint56_linear_1_4748" x1="164.683" y1="200.697" x2="157.992" y2="212.534" gradientUnits="userSpaceOnUse">
<stop stop-color="#F2DAC9"/>
<stop offset="1" stop-color="#D67F79"/>
</linearGradient>
<linearGradient id="paint57_linear_1_4748" x1="170.555" y1="183.491" x2="161.635" y2="207.398" gradientUnits="userSpaceOnUse">
<stop stop-color="#2C406B"/>
<stop offset="1" stop-color="#242250"/>
</linearGradient>
<linearGradient id="paint58_linear_1_4748" x1="172.42" y1="184.187" x2="163.5" y2="208.094" gradientUnits="userSpaceOnUse">
<stop stop-color="#2C406B"/>
<stop offset="1" stop-color="#242250"/>
</linearGradient>
<linearGradient id="paint59_linear_1_4748" x1="154.434" y1="185.213" x2="168.029" y2="206.018" gradientUnits="userSpaceOnUse">
<stop stop-color="#2C406B"/>
<stop offset="1" stop-color="#242250"/>
</linearGradient>
<linearGradient id="paint60_linear_1_4748" x1="142.987" y1="180.67" x2="164.701" y2="196.396" gradientUnits="userSpaceOnUse">
<stop stop-color="#293960"/>
<stop offset="1" stop-color="#1D1B44"/>
</linearGradient>
<linearGradient id="paint61_linear_1_4748" x1="160.668" y1="171.48" x2="173.941" y2="184.035" gradientUnits="userSpaceOnUse">
<stop stop-color="#6C80B1"/>
<stop offset="1" stop-color="#616097"/>
</linearGradient>
<linearGradient id="paint62_linear_1_4748" x1="152.104" y1="180.532" x2="165.377" y2="193.087" gradientUnits="userSpaceOnUse">
<stop stop-color="#6C80B1"/>
<stop offset="1" stop-color="#616097"/>
</linearGradient>
<linearGradient id="paint63_linear_1_4748" x1="163.766" y1="197.128" x2="151.293" y2="212.574" gradientUnits="userSpaceOnUse">
<stop stop-color="#F2DAC9"/>
<stop offset="1" stop-color="#D67F79"/>
</linearGradient>
</defs>
</svg>
