<svg width="293" height="383" viewBox="0 0 293 383" fill="none" xmlns="http://www.w3.org/2000/svg">
<g clip-path="url(#clip0_1_4226)">
<path d="M163.466 211.641C163.466 211.641 55.2665 273.591 35.2632 285.795C15.2598 297.998 -5.65143 302.692 13.4403 280.164C32.5358 257.635 47.9922 236.048 47.9922 236.048C47.9922 236.048 13.4403 235.111 12.5324 224.786C11.6246 214.461 35.2632 166.592 47.9922 153.448C60.7213 140.303 92.5459 101.823 107.095 130.919C107.095 130.919 109.822 101.823 124.371 92.4348C138.919 83.047 169.832 85.8626 175.287 117.779C175.287 117.779 235.297 84.9254 253.481 80.2314C271.665 75.5375 282.578 101.819 281.666 119.653C280.758 137.488 269.845 164.706 269.845 164.706C269.845 164.706 288.941 157.197 291.365 167.209C293.79 177.222 141.949 258.26 141.949 258.26L163.466 211.641Z" fill="#F3E7D9"/>
<path d="M134.373 24.8536C134.373 24.8536 116.189 -3.30589 94.3662 10.7758C78.5458 20.9822 76.1823 40.8137 76.1823 40.8137C76.1823 40.8137 80.7293 22.9792 55.2711 38.9353C29.813 54.8915 38.903 79.2982 38.903 79.2982C38.903 79.2982 30.9928 90.7186 47.0851 99.9482C63.4533 109.336 98.9131 78.361 129.826 58.6482C160.739 38.9353 204.385 -5.18425 184.381 0.446864C164.378 6.07797 134.373 24.8536 134.373 24.8536Z" fill="#F3E7D9"/>
<path d="M254.269 315.01C254.269 315.01 202.717 311.589 186.513 311.589C170.31 311.589 96.6247 324.066 96.6247 324.066L74.4838 329.479L77.8356 330.681L43.1649 345.87C43.1649 345.87 25.977 352.138 22.0889 355.547C18.2047 358.956 9.8042 364.638 9.8042 364.638L27.8386 372.618C27.8386 372.618 155.302 383.817 159.527 382.16C163.752 380.507 219.434 349.631 219.434 349.631C219.434 349.631 245.803 332.496 248.014 331.358C250.224 330.219 248.014 328.696 252.063 326.794C256.112 324.892 260.164 323.753 261.268 322.614C262.371 321.475 262.371 320.333 259.793 319.573C257.215 318.814 261.268 315.773 254.269 315.01Z" fill="#FFACFF"/>
<path d="M214.385 327.561L258.809 313.919C266.087 314.709 261.873 317.873 264.554 318.664C267.236 319.455 267.236 320.641 266.087 321.827C264.938 323.014 256.51 326.177 256.51 326.177L252.297 330.923C249.998 332.109 226.203 358.066 226.203 358.066L203.774 371.519C203.774 371.519 176.719 383.631 158.01 382.939L207.563 348.211L207.413 340.516L214.385 327.561Z" fill="#856792"/>
<path d="M139.826 318.332L91.1814 341.327L88.9099 345.083L14.6537 367.141L9.8042 365.109L22.5333 354.313L75.5219 330.191L71.9365 329.281L88.9099 324.9L139.826 318.332Z" fill="#856792"/>
<path d="M109.821 338.824L61.1265 361.091L36.626 373.555L97.0919 379.028L158.922 343.518L109.821 338.824Z" fill="#856792"/>
<path d="M216.734 319.506L219.841 316.766L148.388 316.062L147.933 316.691L216.734 319.506Z" fill="#856792"/>
<path d="M209.838 330.222C207.617 329.807 205.594 332.726 211.658 332.306C217.718 331.891 212.06 330.638 209.838 330.222Z" fill="#856792"/>
<path d="M209.51 326.699C213.145 327.324 210.571 329.266 207.288 328.158C205.974 327.719 205.874 326.074 209.51 326.699Z" fill="#856792"/>
<path d="M184.178 354.625L176.903 351.288L167.001 354.835L164.374 357.129C164.374 357.129 170.84 356.919 171.445 356.919C172.05 356.919 179.121 355.25 179.121 355.25L184.178 354.625Z" fill="#856792"/>
<path d="M187.613 348.37C187.613 348.37 189.835 345.657 191.049 345.867C192.26 346.076 197.312 346.701 197.312 346.701L197.109 350.454L187.613 348.37Z" fill="#856792"/>
<path d="M188.421 342.11C188.421 342.11 190.846 341.485 191.857 341.694C192.868 341.904 194.485 344.407 194.485 344.407H188.222L188.421 342.11Z" fill="#856792"/>
<path d="M159.225 370.269L143.462 364.95L134.978 369.957L133.767 374.022L144.979 375.588L159.225 370.269Z" fill="#856792"/>
<path d="M180.137 357.753L175.287 362.447L186.503 364.95L194.08 364.326L192.563 356.816L180.137 357.753Z" fill="#856792"/>
<path d="M53.8365 359.877L45.3632 356.409L30.0331 357.951L25.5552 364.116L39.8088 366.046L53.8365 359.877Z" fill="#856792"/>
<path d="M131.645 340.86L60.7212 375.276L142.554 342.11L131.645 340.86Z" fill="#FFACFF"/>
<path d="M88.0655 315.9C88.0655 315.9 90.3715 308.315 87.5484 299.584C84.7291 290.852 86.4184 293.893 86.5256 301.549C86.6367 309.205 84.9896 316.307 84.9896 316.307C84.9896 316.307 84.6869 309.81 80.435 306.191C76.183 302.573 72.1609 302.455 72.1609 302.455C72.1609 302.455 81.0785 312.032 82.6759 318.399C82.6759 318.399 82.1089 315.556 75.5012 315.694C68.8895 315.832 67.5986 315.959 67.5986 315.959C67.5986 315.959 82.6299 320.06 86.2 324.991L88.0655 315.9Z" fill="#288453"/>
<path d="M90.1211 308.631C90.1211 308.631 84.969 295.178 85.8768 285.79C86.7847 276.402 86.7847 276.402 86.7847 276.402C86.7847 276.402 91.9368 296.428 92.5421 302.684C93.1511 308.943 90.1211 308.631 90.1211 308.631Z" fill="#288453"/>
<path d="M89.8182 301.434C89.8182 301.434 86.4856 287.669 79.2113 285.791C71.937 283.912 71.937 283.912 71.937 283.912L89.8182 301.434Z" fill="#288453"/>
<path d="M70.804 329.95C70.804 329.95 72.9644 319.913 68.2834 315.821C63.6024 311.732 68.6435 319.909 68.6435 321.768C68.6435 321.768 67.5633 317.307 62.5222 316.564C57.4811 315.821 64.3226 321.768 64.3226 321.768C64.3226 321.768 59.2815 322.14 57.1211 325.113C54.9568 328.091 70.804 329.95 70.804 329.95Z" fill="#288453"/>
<path d="M72.2444 329.206C72.2444 329.206 71.1642 319.913 76.5653 318.055C81.9665 316.196 72.2444 329.206 72.2444 329.206Z" fill="#288453"/>
<path d="M237.118 208.197C237.118 208.197 245.602 177.534 251.061 180.037C256.516 182.54 249.851 190.05 249.851 190.05C249.851 190.05 263.185 180.662 262.58 187.547C261.974 194.431 257.125 192.553 257.125 192.553C257.125 192.553 269.249 188.171 268.643 193.803C268.287 197.104 267.192 204.511 258.339 207.568C252.08 209.731 237.118 208.197 237.118 208.197Z" fill="#288453"/>
<path d="M239.542 216.335C239.542 216.335 248.636 188.8 251.061 192.557C253.485 196.314 249.85 201.945 249.85 201.945C249.85 201.945 256.519 191.307 260.154 196.314C263.79 201.32 257.73 203.198 257.73 203.198C257.73 203.198 271.673 203.198 272.278 210.708C272.883 218.217 254.094 224.473 254.094 224.473L239.542 216.335Z" fill="#33A86D"/>
<path d="M266.21 228.847C266.21 228.847 272.27 217.584 275.909 220.712C279.544 223.84 274.698 227.597 274.698 227.597C274.698 227.597 282.578 221.341 288.033 223.844C293.488 226.347 282.578 230.1 282.578 230.1C282.578 230.1 294.097 233.853 292.882 238.235C291.672 242.616 281.973 246.994 281.973 246.994C281.973 246.994 296.521 249.497 287.428 252.625C278.334 255.753 269.244 248.243 269.244 248.243C269.244 248.243 289.852 264.512 281.368 264.512C272.879 264.516 261.36 257.006 266.21 228.847Z" fill="#288453"/>
<path d="M274.698 285.166C274.698 285.166 279.548 275.153 281.367 277.031C283.187 278.91 278.943 287.044 278.943 287.044C278.943 287.044 285.003 280.159 288.037 283.916C291.067 287.669 271.063 302.688 271.063 302.688C271.063 302.688 282.582 293.3 283.792 298.306C285.003 303.313 275.307 319.581 266.819 313.95C258.33 308.319 274.698 285.166 274.698 285.166Z" fill="#288453"/>
<path d="M122.096 258.572C122.096 258.572 140.28 239.8 144.826 238.859C149.373 237.922 161.647 235.106 166.194 241.204C170.74 247.306 177.103 310.664 177.103 312.071C177.103 313.479 125.731 318.644 125.731 318.644C125.731 318.644 113.458 266.081 122.096 258.572Z" fill="#1D2538"/>
<path d="M91.1831 319.581C91.1831 319.581 92.5468 287.198 93.4546 281.096C94.3625 274.995 92.091 268.893 96.182 263.733C100.273 258.572 108.911 252.937 115.278 254.345C121.644 255.752 128.462 255.282 130.734 267.015C133.006 278.748 135.281 320.048 135.281 320.048L121.644 325.679H99.8211L91.1831 319.581Z" fill="#273252"/>
<path d="M88.4551 327.561C88.4551 327.561 88.9837 304.566 89.5123 297.994C90.0409 291.422 90.0409 285.79 93.7375 283.916C97.434 282.038 102.192 283.446 103.249 288.139C104.306 292.833 108.003 328.502 108.003 328.502L88.4551 327.561Z" fill="#1D2538"/>
<path d="M87.5469 327.561C87.5469 327.561 88.0027 304.566 88.4547 297.994C88.9106 291.422 88.9106 285.79 92.09 283.916C95.2732 282.038 99.3643 283.446 100.272 288.139C101.18 292.833 104.363 328.502 104.363 328.502L87.5469 327.561Z" fill="#273252"/>
<path d="M103.004 259.509C103.004 259.509 114.825 261.854 117.097 263.262C119.368 264.67 127.098 279.218 127.554 285.79L128.462 280.159L118.916 261.388L108.007 259.043L103.004 259.509Z" fill="#1D2538"/>
<path d="M233.336 107.299L246.36 117.976V315.698H229.888L233.336 107.299Z" fill="#C94039"/>
<path d="M150.212 275.707V111.281L233.336 107.299V283.271L150.212 275.707Z" fill="#EE5D4F"/>
<path d="M153.277 275.758V113.5L230.272 109.538V283.272L153.277 275.758Z" fill="#F7BC4B"/>
<path d="M155.444 270.459V116.628L227.195 113.045V271.646L155.444 270.459Z" fill="#FEED7F"/>
<path d="M148.925 316.406C148.925 316.406 148.672 291.789 149.074 284.319C149.473 276.889 148.925 274.904 149.607 274.457C151.947 272.919 153.438 272.737 153.438 272.737C153.438 272.737 229.069 273.927 230.141 274.335C231.214 274.742 232.647 275.525 233.371 276.284C234.095 277.043 235.393 319.803 235.393 319.803L148.925 316.406Z" fill="#F5894E"/>
<path opacity="0.75" d="M148.924 316.406L202.752 285.253L205.82 277.74C206.287 276.597 207.364 275.869 208.594 275.865C214.24 275.845 229.704 275.845 230.302 276.47C231.029 277.229 232.573 319.791 232.573 319.791L148.924 316.406Z" fill="#F7BC4B"/>
<path d="M181.653 144.997L218.779 143.538" stroke="#1689CB" stroke-width="2.29959" stroke-miterlimit="10"/>
<path d="M193.444 135.74L218.779 134.672" stroke="#1689CB" stroke-width="2.29959" stroke-miterlimit="10"/>
<path d="M213.072 126.85L218.19 126.605" stroke="#1689CB" stroke-width="2.29959" stroke-miterlimit="10"/>
<path d="M191.957 127.945L202.15 127.439" stroke="#1689CB" stroke-width="2.29959" stroke-miterlimit="10"/>
<path d="M212.301 125.632L209.879 125.748L209.987 128.158L212.409 128.042L212.301 125.632Z" fill="#1689CB"/>
<path d="M192.704 134.498L190.282 134.614L190.39 137.023L192.812 136.908L192.704 134.498Z" fill="#1689CB"/>
<path d="M209.32 125.814L206.898 125.93L207.006 128.34L209.428 128.224L209.32 125.814Z" fill="#1689CB"/>
<path d="M204.725 128.649C205.472 128.649 206.077 128.024 206.077 127.253C206.077 126.483 205.472 125.858 204.725 125.858C203.978 125.858 203.373 126.483 203.373 127.253C203.373 128.024 203.978 128.649 204.725 128.649Z" fill="#1689CB"/>
<path d="M189.269 129.484C190.016 129.484 190.621 128.859 190.621 128.088C190.621 127.317 190.016 126.692 189.269 126.692C188.522 126.692 187.917 127.317 187.917 128.088C187.917 128.859 188.522 129.484 189.269 129.484Z" fill="#1689CB"/>
<path d="M200.768 255.903L207.353 255.954" stroke="#1689CB" stroke-width="2.29959" stroke-miterlimit="10"/>
<path d="M173.609 255.812L186.725 255.887" stroke="#1689CB" stroke-width="2.29959" stroke-miterlimit="10"/>
<path d="M196.811 257.386L199.929 257.41L199.788 254.278L196.673 254.258L196.811 257.386Z" fill="#1689CB"/>
<path d="M192.977 257.41L196.095 257.434L195.957 254.302L192.839 254.282L192.977 257.41Z" fill="#1689CB"/>
<path d="M172.341 257.268L170.123 254.242L168.116 257.299L172.341 257.268Z" fill="#1689CB"/>
<path d="M191.203 257.243C191.914 256.612 191.967 255.472 191.322 254.697C190.677 253.922 189.578 253.805 188.867 254.435C188.156 255.066 188.103 256.205 188.748 256.981C189.393 257.756 190.493 257.873 191.203 257.243Z" fill="#1689CB"/>
<path d="M188.153 137.515C188.9 137.515 189.506 136.89 189.506 136.119C189.506 135.348 188.9 134.724 188.153 134.724C187.407 134.724 186.801 135.348 186.801 136.119C186.801 136.89 187.407 137.515 188.153 137.515Z" fill="#1689CB"/>
<path d="M153.918 279.222L212.059 281.777L208.856 284.007L153.918 282.038V279.222Z" fill="#CC6D3D"/>
<path d="M153.918 284.383V287.198L206.566 289.872L206.872 286.285L153.918 284.383Z" fill="#CC6D3D"/>
<path d="M154.072 289.709V292.525L206.26 295.178L206.107 292.047L154.072 289.709Z" fill="#CC6D3D"/>
<path d="M153.918 294.866V297.682L206.566 300.509L206.412 297.373L153.918 294.866Z" fill="#CC6D3D"/>
<path d="M176.656 317.549V306.607C176.656 305.701 177.372 304.989 178.257 305.021L198.249 305.844C199.134 305.875 199.85 306.638 199.85 307.544V318.387" stroke="#CC6D3D" stroke-width="0.383265" stroke-miterlimit="10" stroke-linecap="round"/>
<path d="M181.956 317.798V312.27L191.854 312.44L191.908 318.229L181.956 317.798Z" fill="#CC6D3D"/>
<path d="M216.508 171.068V178.788L222.365 175.035L216.508 171.068Z" fill="#BB83C3"/>
<path d="M216.508 217.794V225.509L222.365 221.756L216.508 217.794Z" fill="#BB83C3"/>
<path d="M163.569 171.068V178.788L157.708 175.035L163.569 171.068Z" fill="#BB83C3"/>
<path d="M164.377 217.794V225.509L158.517 221.756L164.377 217.794Z" fill="#BB83C3"/>
<path d="M208.018 192.865L193.603 192.94V155.943L208.018 155.322V192.865Z" fill="#F7BC4B"/>
<path d="M208.018 240.738L193.603 240.639V203.641L208.018 203.19V240.738Z" fill="#F7BC4B"/>
<path d="M187.241 240.516L173.772 240.726L173.466 204.254L187.241 203.827V240.516Z" fill="#F7BC4B"/>
<path d="M187.242 192.984L173.467 193.055V156.888L187.242 156.295V192.984Z" fill="#F7BC4B" stroke="#1689CB" stroke-width="0.383265" stroke-miterlimit="10"/>
<path opacity="0.5" d="M225.597 173.884L158.565 119.238L224.402 115.687L225.597 173.884Z" fill="#EE5D4F"/>
<path opacity="0.5" d="M158.462 124.45V133.838L223.942 187.341V179.361L158.462 124.45Z" fill="#EE5D4F"/>
<path d="M106.493 342.569C106.493 342.569 106.405 344.265 107.022 344.684C107.635 345.103 110.002 345.621 113.063 345.886C116.119 346.151 119.471 344.854 121.685 344.787C123.899 344.72 130.09 343.66 130.396 341.991C130.702 340.322 129.672 338.713 129.672 338.713L106.493 342.569Z" fill="#29ABE2"/>
<path d="M107.792 336.123C105.976 337.669 106.332 340.156 106.463 341.88C106.593 343.604 110.24 344.51 113.76 344.605C117.062 344.692 117.315 343.45 125.654 342.885C130.35 342.568 130.492 341.291 130.324 337.803C130.197 335.174 126.106 334.655 123.218 333.469C118.475 331.531 109.355 334.794 107.792 336.123Z" fill="#1D2538"/>
<path d="M107.792 336.123C105.976 337.669 106.332 340.156 106.463 341.88C106.593 343.605 110.24 344.51 113.76 344.605C117.062 344.692 125.654 342.885 125.654 342.885L120.429 341.169L123.218 333.473C123.218 333.473 109.355 334.794 107.792 336.123Z" fill="#121721"/>
<path d="M131.925 344.554C131.925 344.554 131.933 346.476 132.649 346.907C133.366 347.338 136.07 347.769 139.537 347.864C143.003 347.958 146.704 346.278 149.197 346.056C151.691 345.835 159.521 344.233 159.758 342.327C160 340.421 158.739 338.677 158.739 338.677L131.925 344.554Z" fill="#29ABE2"/>
<path d="M132.993 337.194C131.043 339.057 131.595 341.841 131.848 343.778C132.101 345.716 136.272 346.499 140.248 346.372C143.979 346.254 144.186 344.834 153.56 343.652C158.838 342.984 159.827 341.536 159.424 337.613C159.122 334.656 153.564 334.339 150.231 333.192C144.765 331.31 134.675 335.593 132.993 337.194Z" fill="#1D2538"/>
<path d="M132.993 337.194C131.043 339.057 131.595 341.841 131.848 343.778C132.101 345.716 136.272 346.499 140.248 346.372C143.979 346.254 144.186 344.834 153.56 343.652L147.404 342.426L146.799 336.482C146.799 336.478 134.675 335.592 132.993 337.194Z" fill="#121721"/>
<path d="M105.353 237.922C104.973 244.178 104.747 246.214 105.126 254.349C105.28 257.643 106.693 263.839 106.693 263.839C106.693 263.839 107.904 282.769 108.21 289.547C108.513 296.325 122.556 301.019 124.98 288.503C127.405 275.987 123.314 244.961 120.587 239.642C117.856 234.324 105.732 231.662 105.353 237.922Z" fill="#CE9436"/>
<path d="M115.986 256.797C116.997 259.925 117.702 265.924 117.702 265.924C117.702 265.924 118.307 277.605 118.61 284.383C118.912 291.161 122.551 301.019 124.976 288.503C127.401 275.988 121.341 252.941 118.61 247.622C115.882 242.304 113.695 249.702 115.986 256.797Z" fill="#FEED7F"/>
<path d="M115.074 337.728C115.074 337.728 108.639 338.432 107.562 335.861C106.49 333.291 107.536 332.623 107.976 330.139C108.417 327.66 107.237 298.793 107.999 290.378C108.761 281.963 123.885 283.434 124.543 289.95C125.198 296.463 124.371 313.962 123.961 321.459C123.789 324.623 123.758 327.367 123.597 329.582C123.379 332.619 125.551 334.038 124.16 334.81C121.54 336.269 115.074 337.728 115.074 337.728Z" fill="#CE9436"/>
<path d="M118.307 336.791C117.234 334.22 117.977 332.611 118.418 330.131C118.858 327.648 118.609 285.011 118.609 285.011C118.609 285.011 123.888 283.442 124.543 289.954C125.198 296.467 124.371 313.966 123.961 321.463C123.788 324.627 123.758 327.371 123.597 329.586C123.379 332.623 125.55 334.042 124.16 334.814C121.54 336.269 120.28 336.32 118.307 336.791Z" fill="#FEED7F"/>
<path d="M138.111 248.457C137.985 255.539 124.673 258.94 120.736 257.845C116.794 256.749 105.578 254.681 104.977 247.623C104.371 240.532 103.9 236.36 112.856 236.36C121.808 236.356 138.414 231.247 138.111 248.457Z" fill="#CE9436"/>
<path d="M145.584 282.453C146.81 278.653 143.16 245.74 139.524 235.732C135.889 225.723 123.612 244.649 124.524 249.968C125.347 249.766 125.34 259.786 129.373 281.255C130.323 286.313 134.372 288.191 137.709 287.879C141.037 287.566 145.282 283.394 145.584 282.453Z" fill="#FEED7F"/>
<path d="M140.333 281.619C141.153 279.08 141.597 272.1 139.525 259.09C139.322 257.809 142.563 248.86 142.344 247.642C141.463 242.699 140.494 238.401 139.525 235.728C135.89 225.715 117.602 244.384 118.51 249.703C119.334 249.501 124.176 262.444 128.209 283.912C129.159 288.97 134.373 288.187 137.705 287.875C141.038 287.566 140.03 282.56 140.333 281.619Z" fill="#CE9436"/>
<path d="M137.402 336.949C137.402 336.949 132.959 338.93 132.35 334.865C131.741 330.8 132.147 329.859 132.147 329.859C132.147 329.859 132.246 295.182 131.641 288.61C131.036 282.038 129.419 279.535 132.752 275.782C136.085 272.029 145.581 269.21 146.492 284.229C147.404 299.248 149.22 325.999 149.522 327.874C149.825 329.752 152.855 328.811 149.825 334.13C146.799 339.452 137.402 336.949 137.402 336.949Z" fill="#FEED7F"/>
<path d="M135.281 338.147C135.281 338.147 130.837 340.128 130.228 336.063C129.623 331.994 130.025 331.057 130.025 331.057C130.025 331.057 129.925 295.178 129.316 288.61C128.711 282.038 127.095 279.535 130.427 275.782C133.76 272.029 141.49 265.615 142.398 280.63C143.306 295.645 146.286 334.394 146.592 336.269C142.961 339.191 135.281 338.147 135.281 338.147Z" fill="#CE9436"/>
<path d="M116.793 319.897C116.793 319.897 119.521 328.815 121.34 332.101C121.34 332.097 115.881 334.6 116.793 319.897Z" fill="#CE9436"/>
<path d="M144.221 320.522C144.221 320.522 144.524 326.778 148.163 329.127C148.163 329.127 145.436 329.439 144.072 327.877C142.708 326.311 144.221 320.522 144.221 320.522Z" fill="#CE9436"/>
<path d="M108.075 219.641C108.075 219.641 97.5716 211.898 95.1353 210.929C92.6991 209.96 90.259 214.219 90.8221 218.094C91.3852 221.966 101.326 226.031 105.076 227.581C108.822 229.127 112.951 226.225 108.075 219.641Z" fill="#A96443"/>
<path d="M107.137 189.828C102.261 193.312 91.1941 206.67 89.884 213.061C88.5701 219.451 97.0089 223.71 103.762 211.898C105.321 209.173 110.535 200.984 112.013 198.54C115.764 192.343 110.887 187.147 107.137 189.828Z" fill="#7A462F"/>
<path d="M109.76 194.281L99.82 212.867C99.82 212.867 97.0084 223.71 103.758 211.898C105.317 209.173 110.53 200.984 112.009 198.54C115.763 192.343 109.76 194.281 109.76 194.281Z" fill="#A96443"/>
<path d="M106.386 219.641C106.386 219.641 95.8822 211.898 93.4459 210.929C91.0096 209.96 88.5695 214.219 89.1326 218.094C89.6957 221.97 99.6361 226.031 103.386 227.581C107.136 229.127 111.262 226.225 106.386 219.641Z" fill="#7A462F"/>
<path d="M132.184 177.842C132.184 177.842 131.303 185.569 130.993 188.298C130.683 191.026 118.969 189.959 118.969 189.959L120.172 177.431L132.184 177.842Z" fill="#A96443"/>
<path d="M131.718 177.842C131.718 177.842 130.837 185.569 130.527 188.298C130.217 191.026 118.503 189.959 118.503 189.959L119.706 177.431L131.718 177.842Z" fill="#7A462F"/>
<path d="M105.259 239.002C105.259 239.002 102.926 209.213 104.32 198.152C104.55 196.337 105.726 191.861 106.757 190.216C107.787 188.571 117.574 186.052 119.708 185.992C120.719 185.965 125.232 185.898 129.729 186.538C133.927 187.135 140.822 187.859 142.006 190.168C142.753 191.628 141.197 200.003 140.366 205.084C139.485 210.462 140.217 214.674 138.895 218.462C138.221 220.4 139.573 237.946 139.573 237.946C139.573 237.946 125.507 239.203 116.13 239.69C106.76 240.164 105.259 239.002 105.259 239.002Z" fill="#1689CB"/>
<path d="M133.391 219.498L135.643 204.396C135.643 204.396 140.14 188.966 142.013 190.164C143.373 191.034 142.477 197.717 141.646 202.799C140.765 208.177 140.224 214.67 138.903 218.458C138.229 220.396 140.297 238.021 140.297 238.021L133.969 238.42L133.391 219.498Z" fill="#29ABE2"/>
<path d="M137.14 208.367L136.485 220.803L137.987 238.175" stroke="#1689CB" stroke-width="0.383265" stroke-miterlimit="10"/>
<path d="M141.55 202.218C140.964 207.766 139.765 211.044 137.907 211.123C136.038 211.202 135.501 207.398 135.501 201.783C135.501 195.028 137.811 189.148 140.424 189.148C143.009 189.148 142.255 195.562 141.55 202.218Z" fill="#7A462F"/>
<path d="M130.648 186.534C130.648 186.534 125.232 188.084 122.232 187.598C119.233 187.111 117.211 186.593 117.938 186.277C120.83 185.023 130.648 186.534 130.648 186.534Z" fill="#7A462F"/>
<path d="M119.224 165.588C119.73 159.423 120.626 155.947 127.058 155.982C130.417 155.998 134.619 156.892 136.473 158.122C138.151 159.237 139.859 159.336 139.672 165.05C139.568 168.142 139.453 175.707 138.078 180.927C137.197 184.272 132.658 182.853 129.168 182.813C120.339 182.718 119.121 181.01 118.841 174.461C118.577 168.3 119.017 168.118 119.224 165.588Z" fill="#A96443"/>
<path d="M117.91 165.588C118.416 159.423 119.312 155.947 125.744 155.982C129.103 155.998 133.306 156.892 135.16 158.122C136.837 159.237 138.546 159.336 138.358 165.05C138.255 168.142 138.14 175.707 136.765 180.927C135.884 184.272 131.222 183.236 127.732 183.201C118.903 183.106 117.811 181.014 117.527 174.465C117.267 168.3 117.704 168.118 117.91 165.588Z" fill="#7A462F"/>
<path d="M115.808 167.66C115.026 173.524 116.233 177.629 116.792 179.855C117.83 183.988 124.802 182.6 125.794 182.758C135.167 184.268 131.586 170.705 132.103 164.006C132.62 157.307 128.606 154.733 122.415 155.895C118.443 156.643 116.899 159.466 115.808 167.66Z" fill="#273252"/>
<path d="M124.53 155.753C124.53 155.753 126.878 155.425 132.827 156.334C137.16 156.995 138.546 159.723 138.546 159.723C138.546 159.723 137.236 160.103 135.417 160.993C133.72 161.823 127.828 161.333 127.828 161.333L124.53 155.753Z" fill="#273252"/>
<path d="M136.486 159.672C136.486 159.672 137.612 166.204 133.299 171.144C133.299 171.144 129.629 166.311 129.077 163.302C128.526 160.293 136.486 159.672 136.486 159.672Z" fill="#273252"/>
<path d="M129.886 172.251C130.53 174.426 132.257 175.861 133.759 175.521C133.759 175.521 133.579 170.491 133.579 169.53C133.579 168.925 133.157 167.094 131.556 167.458C129.955 167.818 129.22 169.997 129.886 172.251Z" fill="#A96443"/>
<path d="M130.484 172.437C131.128 174.612 132.855 176.047 134.357 175.707C134.357 175.707 134.177 170.677 134.177 169.716C134.177 169.111 133.756 167.28 132.154 167.644C130.553 168.008 129.814 170.183 130.484 172.437Z" fill="#7A462F"/>
<path d="M131.583 175.011C131.694 175.604 132.264 176.015 132.85 175.932C133.437 175.849 133.831 175.308 133.728 174.714C133.624 174.117 133.053 173.694 132.456 173.773C131.858 173.856 131.468 174.41 131.583 175.011Z" fill="#F3E7D9"/>
<path d="M139.197 168.368C139.235 167.675 139.115 167.104 138.93 167.093C138.744 167.082 138.562 167.636 138.524 168.329C138.486 169.022 138.606 169.593 138.792 169.604C138.978 169.615 139.159 169.062 139.197 168.368Z" fill="#273252"/>
<path d="M139.615 165.991C139.615 165.991 138.975 165.528 138.274 166.086C138.24 166.114 138.205 166.141 138.171 166.173" stroke="#273252" stroke-width="0.383265" stroke-miterlimit="10"/>
<path d="M158.287 214.512C152.844 212.377 142.26 206.908 139.004 204.266C135.744 201.625 135.25 195.958 137.284 192.344C139.184 188.966 141.279 188.227 145.259 191.996C149.239 195.764 150.354 197.753 154.02 199.315C157.686 200.877 162.034 203.752 164.263 207.73C166.492 211.708 163.731 216.647 158.287 214.512Z" fill="#7A462F"/>
<path d="M152.051 201.443C147.964 200.719 145.075 193.724 143.398 191.288C141.72 188.852 145.255 191.995 145.255 191.995C149.235 195.764 150.35 197.753 154.016 199.315C155.95 200.142 158.08 201.332 159.984 202.858C161.685 204.219 156.096 202.158 152.051 201.443Z" fill="#A96443"/>
<path d="M159.891 209.49C159.428 208.019 160.508 203.092 162.565 198.429C164.622 193.767 165.817 190.489 167.311 188.31C168.805 186.131 168.973 185.23 171.754 185.969C174.535 186.709 173.536 190.782 171.988 196.255C170.598 201.178 168 214.931 162.339 214.769C159.205 214.243 160.351 210.961 159.891 209.49Z" fill="#7A462F"/>
<path d="M167.131 209.443C169.188 204.781 173.072 190.058 173.072 190.058C173.072 190.058 173.237 191.79 171.689 197.263C170.299 202.186 168.134 214.92 162.473 214.762C162.476 214.762 165.074 214.105 167.131 209.443Z" fill="#A96443"/>
<path d="M172.027 190.409C172.027 190.409 169.403 192.055 167.572 189.152C166.829 187.97 167.852 182.627 167.852 180.294C167.852 178.649 170.299 175.533 171.46 174.532C173.149 173.081 173.992 172.694 175.306 173.275C176.62 173.856 175.586 174.631 174.18 176.177C172.969 177.51 172.774 178.985 172.774 178.985C172.774 178.985 173.804 178.645 176.432 179.42C179.056 180.195 179.995 181.405 179.807 182.762C179.619 184.118 179.198 187.262 178.259 187.262C177.321 187.262 175.869 186.534 175.869 186.534C175.869 186.534 174.463 191.374 172.027 190.409Z" fill="#7A462F"/>
<path d="M240.998 281.919V249.889C240.998 249.889 239.466 240.002 242.147 233.28C244.829 226.557 243.679 222.603 247.127 217.858C250.575 213.112 254.405 209.553 256.703 209.158C259.002 208.762 261.3 209.158 263.982 211.531C266.663 213.903 266.663 213.903 269.344 215.485C272.026 217.067 272.792 238.025 273.558 242.771C274.324 247.516 277.006 289.037 276.623 295.76C276.24 302.482 277.745 311.973 276.213 313.95C274.68 315.928 261.967 319.894 261.967 319.894L240.232 315.532L240.998 281.919Z" fill="#3E4C6F"/>
<path d="M241.967 236.669C241.967 236.669 249.674 235.103 255.279 237.998C256.723 238.741 262.17 246.08 262.17 248.453C262.17 250.826 263.373 256.773 263.813 261.518C264.258 266.264 265.265 306.907 265.265 306.907C265.265 306.907 266.472 266.663 265.587 260.336C264.702 254.009 264.016 252.574 263.572 247.828C263.127 243.083 260.228 238.092 256.244 236.511C249.322 233.228 241.967 236.669 241.967 236.669Z" fill="#273252"/>
<path d="M266.663 216.442C266.663 216.442 265.131 220.001 265.131 221.583C265.131 223.6 264.748 230.283 265.131 232.655C265.514 235.028 265.131 241.355 265.131 241.355C265.131 241.355 264.748 240.169 263.982 232.655C263.215 225.142 263.518 223.501 263.982 221.583C264.748 218.419 266.663 216.442 266.663 216.442Z" fill="#273252"/>
<path d="M265.514 249.596L270.126 260.277C270.792 270.594 269.578 269.526 271.244 276.063C272.911 282.6 271.911 298.421 271.578 302.206C271.244 305.99 272.577 314.931 272.577 314.931C272.577 314.931 271.911 307.362 272.911 302.206C273.91 297.049 274.244 282.255 272.577 276.407C270.911 270.558 271.233 263.203 270.911 260.585C270.589 257.963 268.019 252.589 265.514 249.596Z" fill="#273252"/>
<path d="M249.042 225.142C247.509 226.723 247.509 228.701 250.574 227.119C253.638 225.537 250.574 223.56 249.042 225.142Z" fill="#273252"/>
<path d="M251.724 228.305C251.341 229.492 252.107 229.887 253.256 228.305C254.406 226.724 252.107 227.119 251.724 228.305Z" fill="#273252"/>
<path d="M267.122 240.738C267.122 240.738 267.728 244.807 266.517 242.929C265.303 241.05 266.211 239.33 267.122 240.738Z" fill="#273252"/>
<path d="M268.788 246.527C268.788 246.527 266.363 244.961 268.183 242.775C270.002 240.588 271.362 247.935 268.788 246.527Z" fill="#273252"/>
<path d="M254.091 318.644L258.941 318.332L258.335 305.504C258.335 305.504 259.546 290.172 256.818 284.229C254.091 278.285 251.364 273.279 247.725 268.898C244.089 264.516 241.056 272.967 241.056 272.967L240.232 314.907L254.091 318.644Z" fill="#273252"/>
<path d="M213.277 327.925C213.277 327.925 212.185 309.549 212.185 305.816C212.185 302.083 214.717 303.949 214.353 298.354C213.993 292.758 213.993 288.654 218.689 283.801C223.39 278.949 221.581 279.697 227.366 278.578C233.15 277.459 242.186 279.697 243.994 282.311C245.802 284.924 249.779 296.863 249.779 296.863C249.779 296.863 254.839 298.354 255.923 302.834C257.007 307.314 255.911 321.459 255.911 321.459C255.911 321.459 248.568 326.798 247.12 327.17C245.672 327.541 234.54 329.906 234.54 329.906L213.277 327.925Z" fill="#3E4C6F"/>
<path d="M234.541 329.831L240.604 326.312L242.186 317.387L242.271 327.953L234.541 329.831Z" fill="#273252"/>
<path d="M227.997 283.022C227.997 283.022 237.34 284.596 238.864 286.763C240.389 288.93 242.105 299.362 242.105 299.362L242.186 317.386L242.105 324.358L243.251 316.682L243.821 298.967L240.581 285.387C240.581 285.387 234.478 282.038 227.997 283.022Z" fill="#273252"/>
<path d="M218.084 299.655C218.084 299.655 223.52 299.358 228.094 300.54C232.671 301.723 235.246 304.969 236.674 311.462C238.103 317.96 236.104 323.27 236.104 323.27L235.533 311.755C235.533 311.755 230.672 302.897 226.669 302.308C222.666 301.719 214.943 301.422 214.943 301.422L218.084 299.655Z" fill="#273252"/>
<path d="M221.662 283.604C220.601 283.604 216.966 287.673 220.754 286.732C226.129 285.399 222.723 283.604 221.662 283.604Z" fill="#273252"/>
<path d="M230.45 310.407C229.239 310.095 226.661 312.439 228.933 312.598C231.208 312.752 231.664 310.719 230.45 310.407Z" fill="#273252"/>
<path d="M218.935 289.86C219.54 290.643 218.33 292.521 216.813 292.363C215.296 292.205 218.326 289.077 218.935 289.86Z" fill="#273252"/>
<path d="M260.151 289.235C260.151 289.235 251.36 283.291 250.755 280.476C250.15 277.656 252.877 290.484 260.151 289.235Z" fill="#3E4C6F"/>
<path d="M244.997 325.007L247.219 310.822L246.008 295.803L244.798 302.059C244.798 302.059 245.403 308.525 245.606 309.359C245.805 310.197 244.997 325.007 244.997 325.007Z" fill="#273252"/>
<path d="M247.474 240.947L245.022 246.551L250.975 246.733L247.474 240.947Z" fill="#273252"/>
<path d="M248.21 242.296L246.482 246.246L250.677 246.373L248.21 242.296Z" fill="#3E4C6F"/>
<path d="M247.739 254.503C249.431 254.503 250.803 253.087 250.803 251.34C250.803 249.592 249.431 248.176 247.739 248.176C246.046 248.176 244.674 249.592 244.674 251.34C244.674 253.087 246.046 254.503 247.739 254.503Z" fill="#273252"/>
<path d="M248.351 253.866C249.703 253.866 250.799 252.735 250.799 251.339C250.799 249.944 249.703 248.812 248.351 248.812C246.999 248.812 245.903 249.944 245.903 251.339C245.903 252.735 246.999 253.866 248.351 253.866Z" fill="#3E4C6F"/>
<path d="M251.209 256.279H245.149V258.363H251.209V256.279Z" fill="#273252"/>
<path d="M251.152 256.5H246.153V258.22H251.152V256.5Z" fill="#3E4C6F"/>
</g>
<defs>
<clipPath id="clip0_1_4226">
<rect width="293" height="382.873" fill="white"/>
</clipPath>
</defs>
</svg>
