<svg width="290" height="264" viewBox="0 0 290 264" fill="none" xmlns="http://www.w3.org/2000/svg">
<path d="M76.8793 99.2219C74.0681 98.3991 71.9425 99.9761 74.3423 102.307C76.7422 104.639 80.719 107.244 78.5249 108.89C76.3308 110.535 55.8295 106.147 41.5677 100.182C27.3059 94.2166 26.1403 91.4053 21.3407 95.3136C16.541 99.2219 18.8723 104.364 30.6657 109.713C42.459 115.061 67.0058 120.546 76.4679 119.586C85.93 118.626 88.7412 117.461 86.8214 114.649C84.9015 111.838 83.7359 109.164 87.0957 109.438C90.4554 109.713 101.769 110.741 104.786 109.027C107.803 107.313 107.323 107.038 102.043 105.941C96.7635 104.844 82.0218 100.662 76.8793 99.2219Z" fill="url(#paint0_linear_1_5186)"/>
<path d="M60.7659 93.8737C55.8291 92.091 50.481 89.0741 48.6983 92.091C46.9841 95.1079 55.5549 99.2904 61.1087 99.0162C66.6626 98.7419 67.8282 96.4107 60.7659 93.8737Z" fill="url(#paint1_linear_1_5186)"/>
<path d="M116.716 96.8221C113.631 96.685 113.699 104.227 119.459 105.256C136.326 108.273 158.542 103.267 173.146 98.8105C175.477 98.0563 175.82 101.622 171.638 104.639C167.455 107.656 160.599 109.37 164.918 111.907C169.238 114.444 192.002 106.696 199.064 99.9761C206.127 93.2567 199.887 92.1596 195.91 91.9539C191.933 91.7482 190.836 87.9085 197.35 84.5487C203.932 81.2576 221.074 72.0011 219.703 69.0528C218.331 66.1044 196.527 79.612 174.243 86.6057C142.429 96.8221 131.184 97.3021 116.716 96.8221Z" fill="url(#paint2_linear_1_5186)"/>
<path d="M202.356 181.021C204.413 179.65 206.469 180.267 205.235 182.804C204.001 185.341 201.396 188.426 203.59 189.181C205.784 189.935 221.074 180.884 230.879 172.245C240.684 163.605 240.89 161.069 245.826 162.92C250.763 164.771 250.215 169.502 242.193 176.976C234.17 184.45 215.932 195.42 208.115 197.203C200.23 198.986 197.693 198.78 198.447 196.037C199.201 193.295 199.476 190.826 196.87 191.923C194.265 193.02 185.42 196.929 182.54 196.312C179.66 195.694 179.934 195.352 183.911 193.089C187.888 190.826 198.653 183.558 202.356 181.021Z" fill="url(#paint3_linear_1_5186)"/>
<path d="M213.874 172.451C217.371 169.708 220.868 165.8 223.062 167.788C225.256 169.776 219.497 175.399 214.971 176.633C210.377 177.867 208.869 176.359 213.874 172.451Z" fill="#FAE1ED"/>
<path d="M169.718 189.798C172.187 188.907 174.107 194.872 169.787 197.272C157.034 204.197 137.904 206.185 124.945 206.459C122.888 206.528 123.573 209.476 127.756 210.779C131.938 212.082 137.904 211.602 135.161 214.825C132.418 218.047 112.054 217.91 104.58 214.413C97.1067 210.916 101.769 208.379 104.923 207.145C108.077 205.911 107.94 202.551 101.769 201.591C95.5982 200.7 79.3481 197.889 79.6909 195.146C80.0337 192.403 101.152 197.409 120.899 197.066C149.08 196.723 158.268 194.049 169.718 189.798Z" fill="url(#paint4_linear_1_5186)"/>
<path d="M223.405 81.3947C225.12 81.0519 231.908 83.3831 222.103 89.417C217.646 92.1596 212.366 95.6565 210.378 93.5995C208.389 91.5425 213.738 83.3146 223.405 81.3947Z" fill="url(#paint5_linear_1_5186)"/>
<path d="M263.174 147.424C268.591 143.859 274.419 147.767 265.437 154.898C261.323 158.12 254.946 163.126 252.683 161.274C250.489 159.423 255.015 152.841 263.174 147.424Z" fill="url(#paint6_linear_1_5186)"/>
<path d="M253.437 94.5594C253.574 91.7482 249.666 93.3938 243.769 97.3021C237.872 101.279 228.753 112.935 196.595 118.763C164.369 124.591 160.598 123.357 159.707 130.351C158.815 137.345 178.768 131.859 192.55 127.677C206.332 123.494 215.04 123.357 214.354 128.637C213.668 133.916 194.538 146.601 155.113 145.504C115.687 144.407 98.5457 131.791 89.2893 138.785C80.0328 145.778 103.071 161.549 135.023 162.097C166.975 162.646 187.75 159.354 213.531 143.653C239.312 127.951 241.643 118.832 238.832 116.843C236.089 114.855 231.564 121.986 226.216 122.809C220.868 123.631 220.936 121.506 224.296 118.763C227.656 116.021 253.231 99.5648 253.437 94.5594Z" fill="url(#paint7_linear_1_5186)"/>
<path d="M41.7737 145.23C38.2083 144.133 33.82 151.264 39.4424 155.72C45.0649 160.109 76.0568 166.623 77.5653 169.159C79.0737 171.696 78.5938 173.753 72.3542 174.302C66.1147 174.85 57.8868 172.382 60.7665 177.73C63.6463 183.078 92.1699 189.181 103.758 186.575C115.277 183.97 109.517 178.964 105.472 176.29C101.426 173.616 102.729 168.885 111.574 169.502C120.488 170.119 144.074 171.216 144.486 167.308C144.897 163.4 113.7 164.017 86.2046 157.298C58.7096 150.578 57.1325 149.892 41.7737 145.23Z" fill="url(#paint8_linear_1_5186)"/>
<path d="M57.6125 137.893C59.3267 139.196 59.121 143.036 52.95 141.527C46.7791 140.019 32.3116 135.014 32.5859 131.517C32.8601 128.02 48.0818 130.694 57.6125 137.893Z" fill="url(#paint9_linear_1_5186)"/>
<path d="M81.0617 81.4633C75.165 83.3832 93.4036 91.1312 109.928 91.954C125.561 92.7768 130.429 89.2799 128.715 87.6343C127.001 85.9887 118.019 87.7029 104.991 85.5087C91.9637 83.3146 85.3128 80.0234 81.0617 81.4633Z" fill="url(#paint10_linear_1_5186)"/>
<path d="M137.149 85.9886C134.749 86.9485 135.023 90.3083 138.109 89.8283C141.194 89.3483 150.451 87.8399 153.125 86.0571C155.799 84.2744 153.742 82.286 150.108 82.766C146.405 83.3145 140.646 84.5487 137.149 85.9886Z" fill="#F47D56"/>
<path d="M144.325 198.201C141.514 201.218 97.1515 176.329 91.2548 169.266C91.1176 169.061 90.9805 168.855 90.8434 168.718C87.1408 162.547 82.9583 102.209 89.1978 101.729C97.9057 101.111 141.925 116.607 143.159 125.932C143.297 127.03 143.571 130.184 143.777 134.572C144.942 153.427 146.656 195.664 144.325 198.201Z" fill="url(#paint11_linear_1_5186)"/>
<path d="M144.325 198.201C141.514 201.218 97.1516 176.329 91.2549 169.266C94.3404 167.415 98.0429 165.221 102.5 162.547C122.864 150.548 141.377 128.949 141.377 128.949L143.777 134.503C144.942 153.427 146.656 195.664 144.325 198.201Z" fill="url(#paint12_linear_1_5186)"/>
<path d="M144.051 198.475C144.051 198.475 171.409 196.007 187.111 193.264C202.812 190.522 211.177 190.042 212.48 186.819C213.783 183.597 214.057 159.05 213.029 141.223C212 123.464 211.589 116.196 208.092 113.933C204.595 111.671 140.691 120.104 140.486 122.23C140.28 124.355 139.046 127.167 139.869 141.223C140.691 155.279 141.171 182.842 141.583 186.751C141.926 190.659 141.308 198.27 144.051 198.475Z" fill="url(#paint13_linear_1_5186)"/>
<path d="M89.1973 101.729C89.1973 101.729 108.122 107.9 119.161 112.905C130.2 117.91 139.182 121.681 140.485 122.23C141.719 122.778 174.768 119.076 184.71 118.527C194.652 117.979 207.337 116.745 208.982 114.825C210.628 112.905 164.62 97.7518 158.243 96.3805C151.867 94.872 92.077 98.0946 89.1973 101.729Z" fill="url(#paint14_linear_1_5186)"/>
<path d="M202.264 122.161C202.264 122.161 170.655 125.932 160.301 126.344C145.971 126.961 145.971 129.292 145.971 130.115C145.971 130.938 147.685 174.34 147.273 180.648C146.862 186.956 147.685 191.55 147.685 191.55C147.685 191.55 199.178 184.831 202.058 184.214C204.938 183.597 208.023 182.568 208.023 181.882C208.023 181.265 208.229 154.182 207.817 140.331C207.406 126.618 208.435 121.75 202.264 122.161Z" fill="#BF2726"/>
<path d="M200 125.247C200 125.247 171.203 128.675 161.74 129.086C148.713 129.635 148.713 131.761 148.713 132.515C148.713 133.269 150.29 172.832 149.879 178.591C149.536 184.351 150.221 188.533 150.221 188.533C150.221 188.533 197.121 182.431 199.726 181.814C202.332 181.265 205.211 180.305 205.211 179.688C205.211 179.071 205.417 154.456 205.006 141.84C204.731 129.292 205.623 124.904 200 125.247Z" fill="url(#paint15_linear_1_5186)"/>
<path d="M193.967 148.765C193.967 148.765 213.988 145.748 215.291 145.885C216.594 146.022 218.719 147.256 219.062 150.89C219.474 154.456 219.611 159.324 217.417 160.49C213.92 162.41 197.258 163.712 195.681 164.055C192.87 164.741 191.293 159.941 191.156 156.376C191.019 152.81 191.636 149.656 193.967 148.765Z" fill="#D02527"/>
<path d="M194.035 148.011C194.035 148.011 214.057 144.994 215.359 145.131C216.662 145.268 218.788 146.502 219.131 150.136C219.473 153.77 218.925 157.473 216.731 158.639C213.234 160.558 197.326 161.93 195.749 162.273C192.938 162.958 191.361 159.187 191.224 155.622C191.087 152.125 191.704 148.971 194.035 148.011Z" fill="url(#paint16_linear_1_5186)"/>
<path d="M193.418 148.902C192.253 149.519 193.076 149.999 196.984 149.451C200.824 148.902 214.742 146.914 215.634 146.639C216.525 146.434 216.388 145.474 215.291 145.474C214.194 145.474 204.046 146.914 201.441 147.188C198.767 147.531 194.31 148.422 193.418 148.902Z" fill="url(#paint17_linear_1_5186)"/>
<path d="M168.117 128.332C168.117 128.332 168.803 164.878 169.009 174.546C169.214 184.214 168.46 186.065 169.214 185.859C169.968 185.654 170.517 186.545 170.86 185.448C171.203 184.351 171.066 128.058 170.037 127.51C169.009 126.961 168.323 127.578 168.117 128.332Z" fill="#BF2726"/>
<path d="M187.796 125.453C187.796 125.453 188.482 161.998 188.687 171.666C188.893 181.403 188.139 183.185 188.893 182.98C189.579 182.774 190.196 183.665 190.539 182.568C190.881 181.471 190.744 125.178 189.716 124.63C188.619 124.081 188.002 124.698 187.796 125.453Z" fill="#BF2726"/>
<path d="M168.118 125.932L167.912 119.693L170.586 119.487V126.207C170.518 126.344 168.392 127.372 168.118 125.932Z" fill="#BF2726"/>
<path d="M187.933 124.424L187.728 118.322L190.402 118.116L190.333 124.767C190.333 124.767 188.207 125.864 187.933 124.424Z" fill="#BF2726"/>
<path d="M168.803 194.773L168.598 187.505L171.272 187.299V195.184C171.272 195.184 169.078 196.487 168.803 194.773Z" fill="#BF2726"/>
<path d="M188.207 191.962L188.001 184.831L190.675 184.625L190.606 192.373C190.606 192.373 188.481 193.676 188.207 191.962Z" fill="#BF2726"/>
<path d="M167.843 119.899L112.441 98.0261L114.293 97.7518L170.654 119.624L167.843 119.899Z" fill="#BF2726"/>
<path d="M187.727 118.253L132.806 96.5175L135 96.449L190.47 117.979L187.727 118.253Z" fill="#BF2726"/>
<path d="M86.0439 120.31L139.937 145.68L139.868 148.696L86.0439 123.601V120.31Z" fill="#BF2726"/>
<path d="M87.4834 148.422L140.828 173.792L140.759 176.877L87.6205 151.782L87.4834 148.422Z" fill="#BF2726"/>
<path d="M211.383 152.468C211.383 152.468 212.068 152.056 213.302 153.153C214.537 154.25 213.302 155.69 213.302 155.69L219.268 153.428C219.268 153.428 219.268 150.891 219.062 149.382C218.856 147.874 217.965 147.462 217.965 147.462L210.834 150.685L211.383 152.468Z" fill="url(#paint18_linear_1_5186)"/>
<path d="M211.656 152.536C211.656 152.536 212.616 152.262 213.37 153.29C214.125 154.319 213.645 155.073 213.645 155.073L213.37 155.416C213.37 155.416 213.713 155.553 214.262 155.005C214.742 154.456 214.947 153.085 213.782 152.193C212.616 151.302 211.931 151.576 211.313 152.056C210.696 152.536 210.765 153.428 210.765 153.428L211.656 152.536Z" fill="#BA2026"/>
<path d="M138.726 15.3655C140.166 14.7484 140.989 13.1713 140.646 11.6629C140.235 9.81159 140.577 7.41178 144.349 6.04046C151.068 3.57207 156.485 8.5774 154.291 16.8053C152.097 25.0333 142.086 22.5649 138.658 26.6103C136.601 29.0787 136.258 32.8498 136.326 35.4554C136.395 37.1009 137.492 38.4723 139.069 38.8837L143.251 39.9122C145.377 40.4607 147.434 39.0208 147.777 36.8952C148.12 34.564 149.011 31.9585 151.617 31.1357C156.69 29.5587 165.536 23.3191 165.261 14.1998C164.987 5.01196 155.936 -1.02186 147.708 0.143763C139.48 1.30939 136.189 6.93182 134.749 10.223C134.544 10.6344 134.406 11.1144 134.269 11.5258C133.515 14.1313 136.189 16.4625 138.726 15.3655Z" fill="url(#paint19_linear_1_5186)"/>
<path d="M140.783 55.6824C144.115 55.6824 146.817 52.981 146.817 49.6486C146.817 46.3162 144.115 43.6147 140.783 43.6147C137.45 43.6147 134.749 46.3162 134.749 49.6486C134.749 52.981 137.45 55.6824 140.783 55.6824Z" fill="url(#paint20_linear_1_5186)"/>
<path d="M99.2314 29.8329C99.9856 28.9416 100.054 27.5702 99.2999 26.6789C98.4086 25.5818 97.7915 23.7991 99.9856 21.5364C103.757 17.6281 109.173 19.2737 110.408 25.6504C111.642 32.0271 103.962 33.6726 102.934 37.5809C102.317 39.9807 103.345 42.6548 104.237 44.4375C104.785 45.5346 106.019 46.1517 107.254 45.8774L110.476 45.1918C112.122 44.8489 113.082 43.2033 112.533 41.6263C111.985 39.9122 111.779 37.7866 113.287 36.3467C116.236 33.5355 120.281 26.3361 117.059 20.1651C113.836 13.9256 105.471 13.7884 100.191 17.2853C94.9117 20.8508 94.6374 24.759 94.706 27.5017C94.706 27.8445 94.7746 28.1873 94.8431 28.5302C95.186 30.7243 97.86 31.4785 99.2314 29.8329Z" fill="url(#paint21_linear_1_5186)"/>
<path d="M112.053 57.328C114.59 57.328 116.647 55.2712 116.647 52.7341C116.647 50.1969 114.59 48.1401 112.053 48.1401C109.516 48.1401 107.459 50.1969 107.459 52.7341C107.459 55.2712 109.516 57.328 112.053 57.328Z" fill="url(#paint22_linear_1_5186)"/>
<defs>
<linearGradient id="paint0_linear_1_5186" x1="84.0968" y1="113.025" x2="30.1387" y2="98.5399" gradientUnits="userSpaceOnUse">
<stop stop-color="#F1CCDE"/>
<stop offset="0.9946" stop-color="#FBECF4"/>
</linearGradient>
<linearGradient id="paint1_linear_1_5186" x1="70.9984" y1="98.1157" x2="53.4349" y2="94.4943" gradientUnits="userSpaceOnUse">
<stop stop-color="#F1CCDE"/>
<stop offset="0.9946" stop-color="#FBECF4"/>
</linearGradient>
<linearGradient id="paint2_linear_1_5186" x1="208.203" y1="76.1162" x2="161.488" y2="97.4821" gradientUnits="userSpaceOnUse">
<stop stop-color="#F1CCDE"/>
<stop offset="0.9946" stop-color="#FBECF4"/>
</linearGradient>
<linearGradient id="paint3_linear_1_5186" x1="214.684" y1="198.523" x2="214.973" y2="162.196" gradientUnits="userSpaceOnUse">
<stop stop-color="#F1CCDE"/>
<stop offset="0.9946" stop-color="#FBECF4"/>
</linearGradient>
<linearGradient id="paint4_linear_1_5186" x1="78.4266" y1="203.913" x2="130.574" y2="203.551" gradientUnits="userSpaceOnUse">
<stop stop-color="#F1CCDE"/>
<stop offset="0.9946" stop-color="#FBECF4"/>
</linearGradient>
<linearGradient id="paint5_linear_1_5186" x1="219.387" y1="93.0969" x2="217.721" y2="82.2352" gradientUnits="userSpaceOnUse">
<stop stop-color="#F1CCDE"/>
<stop offset="0.9946" stop-color="#FBECF4"/>
</linearGradient>
<linearGradient id="paint6_linear_1_5186" x1="262.594" y1="159.384" x2="259.422" y2="147.99" gradientUnits="userSpaceOnUse">
<stop stop-color="#F1CCDE"/>
<stop offset="0.9946" stop-color="#FBECF4"/>
</linearGradient>
<linearGradient id="paint7_linear_1_5186" x1="236.301" y1="78.1907" x2="205.882" y2="101.005" gradientUnits="userSpaceOnUse">
<stop stop-color="#F1CCDE"/>
<stop offset="0.9946" stop-color="#FBECF4"/>
</linearGradient>
<linearGradient id="paint8_linear_1_5186" x1="50.7895" y1="163.342" x2="137.702" y2="180" gradientUnits="userSpaceOnUse">
<stop stop-color="#FDC07C"/>
<stop offset="0.9946" stop-color="#F1AD66"/>
</linearGradient>
<linearGradient id="paint9_linear_1_5186" x1="33.2866" y1="137.388" x2="57.9221" y2="134.4" gradientUnits="userSpaceOnUse">
<stop stop-color="#FDC07C"/>
<stop offset="0.9946" stop-color="#F1AD66"/>
</linearGradient>
<linearGradient id="paint10_linear_1_5186" x1="161.183" y1="87.0771" x2="114.105" y2="86.715" gradientUnits="userSpaceOnUse">
<stop stop-color="#8B1D56"/>
<stop offset="1" stop-color="#C84799"/>
</linearGradient>
<linearGradient id="paint11_linear_1_5186" x1="120.915" y1="193.252" x2="108.68" y2="72.3403" gradientUnits="userSpaceOnUse">
<stop stop-color="#C53027"/>
<stop offset="0.9946" stop-color="#D95530"/>
</linearGradient>
<linearGradient id="paint12_linear_1_5186" x1="128.052" y1="175.265" x2="110.059" y2="135.2" gradientUnits="userSpaceOnUse">
<stop stop-color="#BF2726"/>
<stop offset="0.9892" stop-color="#D95530"/>
</linearGradient>
<linearGradient id="paint13_linear_1_5186" x1="171.848" y1="193.287" x2="176.646" y2="153.222" gradientUnits="userSpaceOnUse">
<stop stop-color="#C53027"/>
<stop offset="0.9946" stop-color="#DA6330"/>
</linearGradient>
<linearGradient id="paint14_linear_1_5186" x1="220.654" y1="162.953" x2="145.083" y2="105.015" gradientUnits="userSpaceOnUse">
<stop stop-color="#C53027"/>
<stop offset="0.9946" stop-color="#D95530"/>
</linearGradient>
<linearGradient id="paint15_linear_1_5186" x1="166.172" y1="213.058" x2="176.635" y2="157.951" gradientUnits="userSpaceOnUse">
<stop stop-color="#C53027"/>
<stop offset="0.9946" stop-color="#DA6330"/>
</linearGradient>
<linearGradient id="paint16_linear_1_5186" x1="205.978" y1="137.281" x2="204.179" y2="175.906" gradientUnits="userSpaceOnUse">
<stop stop-color="#C53027"/>
<stop offset="0.9946" stop-color="#D95530"/>
</linearGradient>
<linearGradient id="paint17_linear_1_5186" x1="203.345" y1="153.971" x2="204.543" y2="147.664" gradientUnits="userSpaceOnUse">
<stop stop-color="#C53027"/>
<stop offset="0.9946" stop-color="#DA6330"/>
</linearGradient>
<linearGradient id="paint18_linear_1_5186" x1="215.481" y1="143.91" x2="214.65" y2="161.734" gradientUnits="userSpaceOnUse">
<stop stop-color="#C53027"/>
<stop offset="0.9946" stop-color="#D95530"/>
</linearGradient>
<linearGradient id="paint19_linear_1_5186" x1="148.404" y1="34.0896" x2="150.599" y2="-1.36226" gradientUnits="userSpaceOnUse">
<stop stop-color="#292A69"/>
<stop offset="0.9946" stop-color="#1C194E"/>
</linearGradient>
<linearGradient id="paint20_linear_1_5186" x1="141.759" y1="33.763" x2="143.923" y2="-1.20196" gradientUnits="userSpaceOnUse">
<stop stop-color="#292A69"/>
<stop offset="0.9946" stop-color="#1C194E"/>
</linearGradient>
<linearGradient id="paint21_linear_1_5186" x1="325.836" y1="287.806" x2="361.307" y2="329.938" gradientUnits="userSpaceOnUse">
<stop stop-color="#FDC07C"/>
<stop offset="0.9946" stop-color="#F1AD66"/>
</linearGradient>
<linearGradient id="paint22_linear_1_5186" x1="316.53" y1="295.64" x2="352" y2="337.773" gradientUnits="userSpaceOnUse">
<stop stop-color="#FDC07C"/>
<stop offset="0.9946" stop-color="#F1AD66"/>
</linearGradient>
</defs>
</svg>
