<svg version="1.1" id="Layer_1" xmlns="http://www.w3.org/2000/svg" xmlns:xlink="http://www.w3.org/1999/xlink" x="0px" y="0px"
	 width="100%" viewBox="0 0 612 612" enable-background="new 0 0 612 612" xml:space="preserve">
<path fill="#CAD3F0" opacity="1.000000" stroke="none" 
	d="
M1.000000,390.000000 
	C1.000000,260.373260 1.000000,130.746506 1.000000,1.059878 
	C204.897263,1.059878 408.794556,1.059878 613.000000,1.059878 
	C613.000000,130.357254 613.000000,259.714752 612.531372,389.535431 
	C560.671509,390.007111 509.280304,390.015625 457.714233,389.650757 
	C457.260101,386.146790 456.980835,383.016205 457.187683,379.846619 
	C474.916901,379.807617 492.160004,379.807617 510.598602,379.807617 
	C509.692871,375.402039 508.968384,371.878082 508.199615,368.029846 
	C498.913544,355.133972 489.515656,342.672424 480.522491,329.925385 
	C477.725281,325.960541 474.776611,324.464508 469.877472,324.562134 
	C458.120209,324.796478 446.348053,324.284698 434.180603,324.071777 
	C426.294128,319.806885 424.787384,312.790131 425.457581,304.976440 
	C448.250336,304.959473 470.573914,304.993591 492.897186,304.923615 
	C500.490784,304.899811 505.002319,300.311432 505.005951,292.832947 
	C505.023254,257.182068 505.123566,221.530304 504.833374,185.881805 
	C504.807190,182.664917 503.011200,178.448517 500.586273,176.530823 
	C497.779449,174.311081 493.370300,173.204407 489.650543,173.189697 
	C438.007568,172.985352 386.363525,173.051208 334.719727,173.052521 
	C332.054291,173.052597 329.380188,172.929962 326.724976,173.098389 
	C318.083038,173.646591 314.021576,177.928909 313.989410,186.443039 
	C313.957275,194.939148 313.818787,203.440979 314.113495,211.926895 
	C314.170593,213.570694 316.009247,215.152634 316.572266,216.854584 
	C310.858124,217.416092 305.597809,217.886108 300.236694,217.874664 
	C300.096741,206.398300 299.965179,195.402649 300.058411,184.408875 
	C300.103394,179.103790 297.194733,175.956161 292.768829,174.248581 
	C290.216431,173.263840 287.226990,173.100647 284.433655,173.097458 
	C230.451218,173.035675 176.468674,173.036758 122.486183,173.068115 
	C113.442535,173.073364 108.981964,177.638611 108.982216,186.574860 
	C108.983177,220.897079 108.987274,255.219284 108.975304,289.541504 
	C108.971207,301.281708 112.629517,304.945068 124.531448,304.957550 
	C146.357605,304.980438 168.183807,304.981812 190.008011,305.402679 
	C188.597382,313.111938 188.057770,320.911407 179.306122,324.225006 
	C178.792557,324.449127 178.525970,324.344635 178.158264,324.113617 
	C177.753387,324.258362 177.517471,324.271942 177.221756,324.408325 
	C177.166138,324.605194 176.968735,324.963531 176.511688,324.864929 
	C173.246521,324.750427 170.438004,324.695557 167.630371,324.725372 
	C154.769592,324.861938 141.909073,325.022247 128.742203,325.308685 
	C120.625099,339.959778 112.814262,354.476196 104.711494,369.282959 
	C104.419571,372.819946 104.419571,376.066681 104.419571,380.031189 
	C120.870850,380.031189 136.898422,380.031189 152.907135,380.424377 
	C152.564331,383.206238 152.240372,385.594971 151.626617,388.240723 
	C149.354080,388.998474 147.372101,389.932953 145.388535,389.936310 
	C97.259125,390.017761 49.129547,389.999939 1.000000,390.000000 
M331.958221,57.461578 
	C320.090637,48.299221 306.702148,46.084492 292.967316,51.239246 
	C278.327637,56.733574 269.505127,68.125595 268.198395,83.832115 
	C266.840179,100.157814 273.068726,113.556847 287.759155,121.741936 
	C305.513763,131.634277 325.312256,127.117310 337.470184,112.200943 
	C349.480072,97.466263 350.055115,73.547882 331.958221,57.461578 
M183.534637,110.862122 
	C191.320450,120.523293 201.126968,126.610260 213.758270,126.892982 
	C234.476181,127.356697 254.758865,111.555450 254.160019,86.439384 
	C253.604431,63.137665 232.199188,44.008545 206.869308,49.669136 
	C178.898651,55.919880 167.333054,86.155052 183.534637,110.862122 
M436.264618,97.738914 
	C439.281006,88.933769 438.091827,80.501244 434.552216,72.044418 
	C424.738617,48.597702 394.363281,40.812897 373.817810,57.469875 
	C354.623749,73.031189 354.738617,104.133095 375.678467,119.291771 
	C399.257202,136.360840 430.208893,122.496307 436.264618,97.738914 
z"/>
<path fill="#F0F1F6" opacity="1.000000" stroke="none" 
	d="
M613.000000,403.000000 
	C613.000000,472.970551 613.000000,542.941101 613.000000,612.955811 
	C409.115295,612.955811 205.230606,612.955811 1.000000,612.955811 
	C1.000000,543.311707 1.000000,473.622833 1.468280,403.445557 
	C51.381226,402.980377 100.825890,403.003601 150.303650,403.472656 
	C147.493027,431.115631 144.649307,458.312775 141.782242,485.733337 
	C143.941376,485.733337 145.487289,485.733337 147.220230,485.733337 
	C149.171616,475.210693 151.046448,464.938354 152.986038,454.678253 
	C156.249863,437.413116 159.554855,420.155762 163.322021,402.908691 
	C170.158493,402.953156 176.515472,402.984039 182.905289,403.436768 
	C182.630859,404.599701 182.113571,405.322845 182.048523,406.084656 
	C181.328735,414.513947 180.738586,422.954437 179.992630,431.381256 
	C179.338272,438.773285 178.530457,446.151703 177.767715,453.762756 
	C179.851288,453.762756 181.293793,453.762756 182.988098,453.762756 
	C183.356155,452.082611 183.743042,450.487152 184.052628,448.876831 
	C186.995819,433.567322 189.925903,418.255249 193.337677,402.937866 
	C205.902405,402.951447 217.989243,402.971100 230.138123,403.456757 
	C230.095398,406.079224 230.076660,408.243958 229.871292,410.390808 
	C228.832886,421.245728 231.513840,430.858765 239.562561,438.510010 
	C243.004715,441.782196 246.831802,444.649445 250.684677,447.868347 
	C250.042465,448.461517 249.434921,448.977295 248.878647,449.543457 
	C243.002823,455.523163 243.668213,460.617462 251.126572,464.599670 
	C254.312347,466.300659 257.840393,467.360565 260.938660,469.026978 
	C250.589142,471.226654 240.435989,472.773102 230.456161,475.071960 
	C214.025528,478.856781 198.172012,484.266479 184.115494,493.968140 
	C166.264725,506.288574 164.995575,523.965454 180.909637,536.344788 
	C192.398026,545.281433 205.441940,550.998840 219.263000,554.906555 
	C238.778641,560.424377 258.668396,564.466248 278.981354,564.940063 
	C300.392090,565.439392 321.904816,566.030090 343.228241,564.527222 
	C363.692841,563.084961 384.034241,559.249329 403.433441,551.917847 
	C416.380341,547.024841 428.940948,541.444458 438.594666,530.942322 
	C445.652344,523.264282 446.542206,510.736237 439.420624,503.215332 
	C434.465179,497.982025 428.780640,493.029480 422.546478,489.495728 
	C405.768066,479.985229 387.253448,475.289001 368.375336,471.904266 
	C363.752167,471.075348 359.232147,469.671112 354.974213,468.357117 
	C359.969818,466.475250 365.313232,465.226715 366.479523,459.462952 
	C367.409027,454.869507 363.715851,452.367462 360.522919,449.911346 
	C360.377350,449.799347 360.436523,449.421173 360.382812,449.044189 
	C361.918274,448.071838 363.460327,447.099823 364.997986,446.120941 
	C378.220795,437.703186 385.928040,426.382874 384.125854,409.989807 
	C383.872375,407.683990 383.964905,405.340118 384.372070,402.989929 
	C396.217194,402.984131 407.587494,403.002350 419.108948,403.398438 
	C422.129822,419.090302 425.162170,434.376801 427.760773,449.736603 
	C428.454956,453.839783 429.991943,454.764679 433.856415,453.384308 
	C432.201538,436.535675 430.552765,419.749603 429.377625,402.950714 
	C435.558624,403.291962 441.265991,403.646027 447.068665,404.392517 
	C452.190918,431.819427 457.217926,458.853912 462.289734,486.129486 
	C464.326721,485.969910 465.889679,485.847473 467.672455,485.707825 
	C464.878693,459.310883 462.134827,433.385406 459.562988,407.034943 
	C459.613586,402.942749 462.046875,402.925781 464.739227,402.928375 
	C514.159485,402.976105 563.579712,402.983795 613.000000,403.000000 
z"/>
<path fill="#B0C1EA" opacity="1.000000" stroke="none" 
	d="
M613.000000,402.536804 
	C563.579712,402.983795 514.159485,402.976105 464.739227,402.928375 
	C462.046875,402.925781 459.613586,402.942749 459.413422,406.631287 
	C458.690948,401.109833 458.290039,395.566956 457.889099,390.024109 
	C509.280304,390.015625 560.671509,390.007111 612.531372,389.999329 
	C613.000000,394.024536 613.000000,398.049103 613.000000,402.536804 
z"/>
<path fill="#B0C1EA" opacity="1.000000" stroke="none" 
	d="
M150.270554,403.026855 
	C100.825890,403.003601 51.381226,402.980377 1.468280,402.978577 
	C1.000000,398.975464 1.000000,394.950897 1.000000,390.463196 
	C49.129547,389.999939 97.259125,390.017761 145.388535,389.936310 
	C147.372101,389.932953 149.354080,388.998474 151.680359,388.668549 
	C151.439468,393.568512 150.855011,398.297668 150.270554,403.026855 
z"/>
<path fill="#0242B2" opacity="1.000000" stroke="none" 
	d="
M178.331421,324.056458 
	C178.525970,324.344635 178.792557,324.449127 179.455902,324.563934 
	C178.834183,327.153992 177.887741,329.550079 176.623123,332.751648 
	C194.911560,332.751648 211.991653,332.769043 229.071671,332.736176 
	C232.276031,332.730011 232.021729,330.639404 231.143402,328.612427 
	C230.571930,327.293579 229.554428,326.167999 229.211182,324.856750 
	C233.138168,324.743286 236.607605,324.921326 240.034882,324.619995 
	C241.408691,324.499207 243.102264,323.647552 243.944214,322.574585 
	C248.449432,316.833038 252.731598,310.916473 257.352203,304.997681 
	C257.750366,304.819275 257.887207,304.703552 258.229004,304.589355 
	C258.702850,304.470917 258.876984,304.269165 259.304260,303.914856 
	C265.985840,301.496429 272.319458,299.148804 279.086670,296.832733 
	C280.982605,297.101562 282.521637,297.122559 283.895355,297.609741 
	C296.983673,302.250946 310.160919,304.305939 323.739075,299.640503 
	C326.963806,298.532471 330.338837,297.862061 334.062805,296.949768 
	C341.708618,299.575775 348.936371,302.242371 356.342957,305.182617 
	C360.559448,310.757782 364.945831,315.840973 368.467072,321.465790 
	C369.922058,323.789948 371.034515,324.665771 373.639008,324.749542 
	C377.408569,324.870819 381.160645,325.537537 384.619141,326.135498 
	C383.768219,328.074829 383.218353,329.850189 382.668457,331.625519 
	C384.338989,331.986298 386.007660,332.649597 387.680389,332.660065 
	C401.280670,332.745056 414.881775,332.707886 428.482605,332.707855 
	C431.075684,332.707855 433.668762,332.707825 437.067566,332.707825 
	C436.076324,329.264832 435.329132,326.669434 434.581909,324.074005 
	C446.348053,324.284698 458.120209,324.796478 469.877472,324.562134 
	C474.776611,324.464508 477.725281,325.960541 480.522491,329.925385 
	C489.515656,342.672424 498.913544,355.133972 507.952057,368.420593 
	C506.655090,369.409454 505.561676,369.921661 504.467682,369.922882 
	C463.276581,369.968811 422.085419,369.985748 380.894501,369.889221 
	C379.600403,369.886200 378.309174,368.646942 377.107788,367.634460 
	C377.116150,362.658203 377.033264,358.031494 377.354980,353.372803 
	C384.451843,353.330231 385.577545,351.774139 383.446381,345.385742 
	C382.298676,341.945282 381.025970,338.545807 379.915131,335.093903 
	C378.575287,330.930420 375.871185,329.454041 371.397095,330.375671 
	C371.912598,333.587585 372.379242,336.495331 372.596375,339.623718 
	C367.730042,341.226440 363.113220,342.608521 358.251587,343.799286 
	C357.265106,342.956543 356.489960,342.339294 355.786621,341.648865 
	C332.519287,318.808380 297.310059,313.812744 269.514862,332.763214 
	C264.364258,336.274811 259.684998,340.477753 254.378220,344.342834 
	C249.630737,343.140656 245.293198,341.957275 240.813507,340.454590 
	C240.844330,336.633209 241.017303,333.131134 241.248474,328.451019 
	C238.520081,329.677917 235.141769,330.120941 234.541748,331.652496 
	C231.893661,338.411469 228.776596,345.247650 229.970230,353.268921 
	C232.618988,353.268921 234.897171,353.268921 237.208878,353.745087 
	C237.074203,357.018524 236.486938,359.877808 236.888351,362.590790 
	C237.146484,364.335449 238.858429,365.865021 239.899063,367.727478 
	C239.622589,368.345795 239.365799,368.727661 238.863022,369.176147 
	C238.443817,369.522308 238.270599,369.801788 238.092865,370.095398 
	C238.088348,370.109558 238.114929,370.138123 237.641434,370.088501 
	C195.015259,370.015472 152.862564,370.004730 110.709991,369.927368 
	C108.807236,369.923889 106.905586,369.317963 105.003418,368.992645 
	C112.814262,354.476196 120.625099,339.959778 129.065964,325.557983 
	C144.734543,325.773315 159.773071,325.888092 174.811813,325.931122 
	C175.529861,325.933167 176.249725,325.300598 176.968750,324.963562 
	C176.968735,324.963531 177.166138,324.605194 177.394821,324.506165 
	C177.918274,324.409393 178.154251,324.292511 178.331421,324.056458 
z"/>
<path fill="#FAFCFD" opacity="1.000000" stroke="none" 
	d="
M258.024017,304.587860 
	C257.887207,304.703552 257.750366,304.819275 256.879578,304.950439 
	C244.097061,304.968445 232.048508,304.970978 219.740829,304.731567 
	C209.657791,304.657166 199.833878,304.824646 190.009979,304.992157 
	C168.183807,304.981812 146.357605,304.980438 124.531448,304.957550 
	C112.629517,304.945068 108.971207,301.281708 108.975304,289.541504 
	C108.987274,255.219284 108.983177,220.897079 108.982216,186.574860 
	C108.981964,177.638611 113.442535,173.073364 122.486183,173.068115 
	C176.468674,173.036758 230.451218,173.035675 284.433655,173.097458 
	C287.226990,173.100647 290.216431,173.263840 292.768829,174.248581 
	C297.194733,175.956161 300.103394,179.103790 300.058411,184.408875 
	C299.965179,195.402649 300.096741,206.398300 300.219360,217.878372 
	C300.302826,218.363556 300.272491,218.381317 300.030457,218.294342 
	C299.517365,218.396332 299.246338,218.585312 298.587769,218.862091 
	C296.146820,219.434769 294.093445,219.919647 292.009277,219.908295 
	C291.962006,208.919266 291.708923,198.419067 292.036743,187.937042 
	C292.183258,183.252609 290.658875,182.029327 286.110352,182.040726 
	C231.644821,182.177261 177.178848,182.126083 122.712990,182.141235 
	C120.947815,182.141724 119.182686,182.325943 117.382187,182.426498 
	C117.382187,216.534149 117.382187,250.094345 117.382187,284.215240 
	C175.134781,284.215240 232.555542,284.215240 290.136780,284.376770 
	C290.617310,284.858215 290.937408,285.178131 291.208832,285.926758 
	C290.039185,289.260925 288.918213,292.166382 287.397552,295.013275 
	C284.216248,295.570221 281.434692,296.185699 278.653107,296.801178 
	C272.319458,299.148804 265.985840,301.496429 259.109192,303.943665 
	C258.302246,304.142029 258.121552,304.323547 258.024017,304.587860 
M207.381821,291.065002 
	C205.281403,291.254700 202.922241,290.950439 201.196121,291.854675 
	C200.402771,292.270264 200.110809,295.830994 200.905197,296.589325 
	C202.174744,297.801208 204.898285,298.789581 206.365601,298.219910 
	C209.279037,297.088898 209.718338,294.389465 207.381821,291.065002 
z"/>
<path fill="#FAFCFD" opacity="1.000000" stroke="none" 
	d="
M356.164093,304.908966 
	C348.936371,302.242371 341.708618,299.575775 333.763428,296.763428 
	C330.787659,296.266602 328.529297,295.915527 326.158569,295.242432 
	C324.585083,291.856201 323.123962,288.792023 321.792755,285.506958 
	C322.289612,284.929901 322.656555,284.573669 323.493286,284.229675 
	C381.519196,284.241852 439.075348,284.241852 496.590027,284.241852 
	C496.590027,249.716080 496.590027,216.150833 496.590027,182.484711 
	C438.347351,182.484711 380.465485,182.484711 321.976105,182.484711 
	C321.976105,194.145462 321.976105,205.440826 321.570282,216.821320 
	C319.785004,216.858673 318.405548,216.810898 317.026093,216.763123 
	C316.009247,215.152634 314.170593,213.570694 314.113495,211.926895 
	C313.818787,203.440979 313.957275,194.939148 313.989410,186.443039 
	C314.021576,177.928909 318.083038,173.646591 326.724976,173.098389 
	C329.380188,172.929962 332.054291,173.052597 334.719727,173.052521 
	C386.363525,173.051208 438.007568,172.985352 489.650543,173.189697 
	C493.370300,173.204407 497.779449,174.311081 500.586273,176.530823 
	C503.011200,178.448517 504.807190,182.664917 504.833374,185.881805 
	C505.123566,221.530304 505.023254,257.182068 505.005951,292.832947 
	C505.002319,300.311432 500.490784,304.899811 492.897186,304.923615 
	C470.573914,304.993591 448.250336,304.959473 425.018433,304.978088 
	C418.878540,304.692413 413.647736,304.173431 408.415588,304.159882 
	C403.261169,304.146515 398.105438,304.645325 392.486694,304.936157 
	C381.719940,304.682739 371.416748,304.412628 360.751923,304.097198 
	C359.266907,304.270264 358.143585,304.488586 356.799255,304.727997 
	C356.578278,304.749084 356.164093,304.908966 356.164093,304.908966 
M411.679749,298.323364 
	C414.670044,294.313110 414.241699,290.790344 410.543060,290.303986 
	C409.135315,290.118835 407.053711,290.755310 406.211456,291.782104 
	C405.367554,292.810852 404.964111,295.510284 405.651886,296.203796 
	C406.942566,297.505219 409.159180,297.888397 411.679749,298.323364 
z"/>
<path fill="#FDFEFE" opacity="1.000000" stroke="none" 
	d="
M332.214661,57.714531 
	C350.055115,73.547882 349.480072,97.466263 337.470184,112.200943 
	C325.312256,127.117310 305.513763,131.634277 287.759155,121.741936 
	C273.068726,113.556847 266.840179,100.157814 268.198395,83.832115 
	C269.505127,68.125595 278.327637,56.733574 292.967316,51.239246 
	C306.702148,46.084492 320.090637,48.299221 332.214661,57.714531 
M305.436981,82.134209 
	C300.307068,74.767746 296.352539,66.539124 289.846527,60.070324 
	C289.228882,61.366325 288.971710,62.484600 289.402344,63.172028 
	C294.514160,71.332260 299.677002,79.462311 304.989166,87.492668 
	C305.573029,88.375298 307.162750,89.030098 308.294342,89.042786 
	C316.434753,89.134010 324.578308,89.081421 332.717987,88.924980 
	C333.667480,88.906731 334.599457,87.975906 335.539581,87.468147 
	C335.409851,86.972580 335.280121,86.477005 335.150391,85.981430 
	C327.754395,85.981430 320.352386,85.807915 312.965210,86.063194 
	C309.822083,86.171799 307.461121,85.545876 305.436981,82.134209 
z"/>
<path fill="#FDFEFE" opacity="1.000000" stroke="none" 
	d="
M183.340393,110.558212 
	C167.333054,86.155052 178.898651,55.919880 206.869308,49.669136 
	C232.199188,44.008545 253.604431,63.137665 254.160019,86.439384 
	C254.758865,111.555450 234.476181,127.356697 213.758270,126.892982 
	C201.126968,126.610260 191.320450,120.523293 183.340393,110.558212 
M201.680191,68.898804 
	C204.380203,73.284103 206.766556,77.907913 209.868744,81.987389 
	C212.950470,86.039963 212.081345,88.589790 208.284119,91.351234 
	C204.396896,94.178139 200.773178,97.384003 197.179916,100.587540 
	C196.204910,101.456787 195.757004,102.917259 195.067184,104.106377 
	C195.544312,104.535675 196.021454,104.964973 196.498581,105.394272 
	C201.148239,101.573067 205.859299,97.823715 210.433228,93.913918 
	C217.393356,87.964378 217.417130,87.878632 212.651718,79.951950 
	C208.973434,73.833572 205.153107,67.798485 201.270645,61.807560 
	C200.776276,61.044697 199.523651,60.773212 198.622330,60.274075 
	C198.539597,61.396595 198.077820,62.672977 198.457321,63.607868 
	C199.134155,65.275276 200.319244,66.736374 201.680191,68.898804 
z"/>
<path fill="#FDFEFE" opacity="1.000000" stroke="none" 
	d="
M436.182495,98.142609 
	C430.208893,122.496307 399.257202,136.360840 375.678467,119.291771 
	C354.738617,104.133095 354.623749,73.031189 373.817810,57.469875 
	C394.363281,40.812897 424.738617,48.597702 434.552216,72.044418 
	C438.091827,80.501244 439.281006,88.933769 436.182495,98.142609 
M386.971436,73.562958 
	C399.707581,91.855164 414.602966,106.015907 420.789032,104.512947 
	C418.299957,102.183182 416.247711,100.171791 414.099640,98.268585 
	C407.429840,92.359009 399.869751,87.456734 395.234131,79.373856 
	C391.860535,73.491516 387.669159,68.068512 383.682251,62.556557 
	C382.970428,61.572468 381.476044,61.154446 380.342987,60.475044 
	C380.459534,61.753536 380.181976,63.260826 380.766510,64.267578 
	C382.513458,67.276283 384.598022,70.088959 386.971436,73.562958 
z"/>
<path fill="#023171" opacity="1.000000" stroke="none" 
	d="
M323.023529,284.217468 
	C322.656555,284.573669 322.289612,284.929901 321.393799,285.536957 
	C310.968140,288.520477 301.096954,288.631287 291.257538,285.498047 
	C290.937408,285.178131 290.617310,284.858215 290.133789,284.005859 
	C287.913910,280.485504 286.040466,277.349670 283.767487,274.536652 
	C276.267731,265.255096 272.358429,255.493179 275.462708,243.039932 
	C278.001740,232.854355 282.315155,224.888367 292.040039,220.404526 
	C294.093445,219.919647 296.146820,219.434769 298.833435,218.923401 
	C299.735291,218.725052 300.003876,218.553177 300.272491,218.381317 
	C300.272491,218.381317 300.302826,218.363556 300.320160,218.359848 
	C305.597809,217.886108 310.858124,217.416092 316.572266,216.854584 
	C318.405548,216.810898 319.785004,216.858673 321.950226,216.874268 
	C326.403595,215.588623 330.071228,214.335190 334.968201,212.661591 
	C334.968201,217.276459 335.926849,222.198517 334.708344,226.504456 
	C333.395111,231.145157 334.025421,234.717422 335.353333,239.179672 
	C337.144897,245.200073 338.502716,252.153366 337.182312,258.066772 
	C335.897614,263.820435 330.858276,268.685608 327.743561,274.099701 
	C325.894562,277.313721 324.578979,280.834595 323.023529,284.217468 
z"/>
<path fill="#053273" opacity="1.000000" stroke="none" 
	d="
M377.016602,367.984009 
	C378.309174,368.646942 379.600403,369.886200 380.894501,369.889221 
	C422.085419,369.985748 463.276581,369.968811 504.467682,369.922882 
	C505.561676,369.921661 506.655090,369.409454 507.996338,368.744812 
	C508.968384,371.878082 509.692871,375.402039 510.598602,379.807617 
	C492.160004,379.807617 474.916901,379.807617 456.744171,379.870422 
	C451.500336,379.968262 447.186066,380.003296 442.422455,379.940918 
	C436.707336,379.910156 431.441589,379.976837 425.724121,380.004059 
	C421.847473,380.002625 418.422516,380.040649 414.543427,379.946716 
	C402.404388,379.875793 390.719452,379.936829 378.865234,379.671753 
	C377.421844,375.901855 376.147736,372.458099 375.161285,368.926514 
	C375.971527,368.553833 376.494080,368.268921 377.016602,367.984009 
z"/>
<path fill="#073474" opacity="1.000000" stroke="none" 
	d="
M104.711494,369.282959 
	C106.905586,369.317963 108.807236,369.923889 110.709991,369.927368 
	C152.862564,370.004730 195.015259,370.015472 237.615692,370.457825 
	C237.037277,373.911926 236.011139,376.947144 234.522812,379.907379 
	C221.586090,379.958862 209.111557,380.085297 196.151001,380.144257 
	C192.240387,380.046082 188.815750,380.015381 184.900909,379.904968 
	C178.417877,379.942902 172.425064,380.060608 166.053802,380.027313 
	C161.425568,379.927948 157.175781,379.979584 152.925980,380.031189 
	C136.898422,380.031189 120.870850,380.031189 104.419571,380.031189 
	C104.419571,376.066681 104.419571,372.819946 104.711494,369.282959 
z"/>
<path fill="#E7E9F1" opacity="1.000000" stroke="none" 
	d="
M392.950287,304.919434 
	C398.105438,304.645325 403.261169,304.146515 408.415588,304.159882 
	C413.647736,304.173431 418.878540,304.692413 424.549133,304.988403 
	C424.787384,312.790131 426.294128,319.806885 434.180603,324.071777 
	C435.329132,326.669434 436.076324,329.264832 437.067566,332.707825 
	C433.668762,332.707825 431.075684,332.707855 428.482605,332.707855 
	C414.881775,332.707886 401.280670,332.745056 387.680389,332.660065 
	C386.007660,332.649597 384.338989,331.986298 382.668457,331.625519 
	C383.218353,329.850189 383.768219,328.074829 384.946808,326.010468 
	C387.202423,323.947937 389.331024,322.420471 390.347687,320.347656 
	C392.236206,316.497101 393.640015,312.376556 394.851349,308.252594 
	C395.101471,307.401154 393.628876,306.043701 392.950287,304.919434 
z"/>
<path fill="#E7E9F1" opacity="1.000000" stroke="none" 
	d="
M190.008011,305.402679 
	C199.833878,304.824646 209.657791,304.657166 219.736359,305.180084 
	C219.353622,313.860260 222.616516,320.062714 228.736725,324.955811 
	C229.554428,326.167999 230.571930,327.293579 231.143402,328.612427 
	C232.021729,330.639404 232.276031,332.730011 229.071671,332.736176 
	C211.991653,332.769043 194.911560,332.751648 176.623123,332.751648 
	C177.887741,329.550079 178.834183,327.153992 179.630844,324.419006 
	C188.057770,320.911407 188.597382,313.111938 190.008011,305.402679 
z"/>
<path fill="#0D48B0" opacity="1.000000" stroke="none" 
	d="
M442.871826,380.038330 
	C447.186066,380.003296 451.500336,379.968262 456.258057,379.909424 
	C456.980835,383.016205 457.260101,386.146790 457.714233,389.650757 
	C458.290039,395.566956 458.690948,401.109833 459.241455,407.056335 
	C462.134827,433.385406 464.878693,459.310883 467.672455,485.707825 
	C465.889679,485.847473 464.326721,485.969910 462.289734,486.129486 
	C457.217926,458.853912 452.190918,431.819427 447.103699,403.988159 
	C445.742157,398.050537 444.440826,392.909698 443.105835,387.342224 
	C443.005371,384.623169 442.938599,382.330719 442.871826,380.038330 
z"/>
<path fill="#0B47B2" opacity="1.000000" stroke="none" 
	d="
M152.907135,380.424377 
	C157.175781,379.979584 161.425568,379.927948 166.028244,380.441589 
	C166.109039,383.125214 165.836960,385.243622 165.371765,387.724487 
	C164.399948,393.023010 163.621231,397.959045 162.842514,402.895111 
	C159.554855,420.155762 156.249863,437.413116 152.986038,454.678253 
	C151.046448,464.938354 149.171616,475.210693 147.220230,485.733337 
	C145.487289,485.733337 143.941376,485.733337 141.782242,485.733337 
	C144.649307,458.312775 147.493027,431.115631 150.303650,403.472656 
	C150.855011,398.297668 151.439468,393.568512 151.970154,388.411499 
	C152.240372,385.594971 152.564331,383.206238 152.907135,380.424377 
z"/>
<path fill="#073CA2" opacity="1.000000" stroke="none" 
	d="
M176.511688,324.864929 
	C176.249725,325.300598 175.529861,325.933167 174.811813,325.931122 
	C159.773071,325.888092 144.734543,325.773315 129.372223,325.423340 
	C141.909073,325.022247 154.769592,324.861938 167.630371,324.725372 
	C170.438004,324.695557 173.246521,324.750427 176.511688,324.864929 
z"/>
<path fill="#E7E9F1" opacity="1.000000" stroke="none" 
	d="
M178.158264,324.113617 
	C178.154251,324.292511 177.918274,324.409393 177.450439,324.309265 
	C177.517471,324.271942 177.753387,324.258362 178.158264,324.113617 
z"/>
<path fill="#020B2F" opacity="1.000000" stroke="none" 
	d="
M234.984985,379.982330 
	C236.011139,376.947144 237.037277,373.911926 238.089172,370.507446 
	C238.114929,370.138123 238.088348,370.109558 238.318054,370.001343 
	C238.824646,369.696259 239.011719,369.435028 239.109024,369.109497 
	C239.365799,368.727661 239.622589,368.345795 240.115311,367.417969 
	C245.163544,359.368530 249.975845,351.865051 254.788177,344.361603 
	C259.684998,340.477753 264.364258,336.274811 269.514862,332.763214 
	C297.310059,313.812744 332.519287,318.808380 355.786621,341.648865 
	C356.489960,342.339294 357.265106,342.956543 358.378052,344.143311 
	C364.124115,352.790558 369.498871,360.902435 374.873596,369.014313 
	C376.147736,372.458099 377.421844,375.901855 378.891113,380.054352 
	C380.000916,383.862793 380.915558,386.962524 381.819580,390.484894 
	C382.505066,394.942993 383.201141,398.978455 383.897217,403.013885 
	C383.964905,405.340118 383.872375,407.683990 384.125854,409.989807 
	C385.928040,426.382874 378.220795,437.703186 364.997986,446.120941 
	C363.460327,447.099823 361.918274,448.071838 360.382812,449.044189 
	C360.436523,449.421173 360.377350,449.799347 360.522919,449.911346 
	C363.715851,452.367462 367.409027,454.869507 366.479523,459.462952 
	C365.313232,465.226715 359.969818,466.475250 354.578094,468.391876 
	C340.768707,470.479614 327.664917,472.358276 314.299072,474.274536 
	C314.299072,482.297058 314.299072,491.121948 314.299072,500.445129 
	C325.833160,497.399506 336.893707,494.447235 347.977509,491.585144 
	C349.713409,491.136902 351.871674,490.404053 353.270294,491.041382 
	C355.145905,491.895966 357.754547,493.990112 357.715790,495.491882 
	C357.665009,497.461578 355.682404,499.883728 353.857330,501.105835 
	C352.857208,501.775574 350.269043,500.714966 348.769104,499.814636 
	C347.305084,498.935852 346.314636,497.268066 344.895050,495.702698 
	C335.619690,498.255005 326.132233,500.865692 316.644775,503.476379 
	C316.635986,503.984589 316.627228,504.492798 316.618439,505.000977 
	C330.294403,507.896729 343.928314,511.018890 357.668274,513.570068 
	C362.735626,514.510986 364.818207,516.582153 362.755005,521.185791 
	C359.265717,521.152161 356.178680,521.137634 352.756653,520.893066 
	C352.664825,517.917603 351.402740,516.791260 348.679382,516.180908 
	C340.252716,514.292358 331.909241,512.035034 323.521484,509.969543 
	C318.614471,508.761169 313.760284,506.526337 308.666321,509.661682 
	C307.701447,510.255585 305.776215,510.271118 304.799438,509.695709 
	C300.303131,507.046967 296.096313,509.078705 291.869965,510.185150 
	C283.511139,512.373474 275.193665,514.720947 266.870544,517.043762 
	C264.788849,517.624695 262.897034,517.725037 262.074921,520.884583 
	C261.574341,522.808594 257.608215,525.067871 255.366516,524.902466 
	C253.635101,524.774719 250.702255,520.967651 250.891846,519.052612 
	C251.251434,515.420593 254.507950,513.810669 258.399231,514.557556 
	C259.043701,514.681274 259.760468,514.887024 260.357971,514.729431 
	C273.034210,511.386932 285.698090,507.997711 298.364410,504.617645 
	C298.354492,504.295197 298.344604,503.972748 298.334686,503.650299 
	C287.920746,501.029846 277.506836,498.409424 267.306488,495.842743 
	C266.007385,497.876190 265.072418,499.777985 263.735809,501.334991 
	C261.389740,504.067993 258.583130,503.983124 256.728851,501.027924 
	C255.597992,499.225525 254.514145,495.643311 255.385468,494.714539 
	C256.992767,493.001160 260.252869,491.538605 262.474915,491.934174 
	C270.641876,493.388184 278.660034,495.670441 286.745331,497.594299 
	C291.018127,498.610992 295.313904,499.531250 299.677307,500.512634 
	C299.677307,490.959717 299.677307,482.078369 299.677307,474.074493 
	C286.516693,472.239624 273.864807,470.475708 261.212921,468.711792 
	C257.840393,467.360565 254.312347,466.300659 251.126572,464.599670 
	C243.668213,460.617462 243.002823,455.523163 248.878647,449.543457 
	C249.434921,448.977295 250.042465,448.461517 250.684677,447.868347 
	C246.831802,444.649445 243.004715,441.782196 239.562561,438.510010 
	C231.513840,430.858765 228.832886,421.245728 229.871292,410.390808 
	C230.076660,408.243958 230.095398,406.079224 230.311249,403.108002 
	C230.987106,398.210236 231.551910,394.127228 232.353638,389.762726 
	C233.388718,386.314941 234.186859,383.148621 234.984985,379.982330 
z"/>
<path fill="#ADBEE9" opacity="1.000000" stroke="none" 
	d="
M363.157196,521.204834 
	C364.818207,516.582153 362.735626,514.510986 357.668274,513.570068 
	C343.928314,511.018890 330.294403,507.896729 316.618439,505.000977 
	C316.627228,504.492798 316.635986,503.984589 316.644775,503.476379 
	C326.132233,500.865692 335.619690,498.255005 344.895050,495.702698 
	C346.314636,497.268066 347.305084,498.935852 348.769104,499.814636 
	C350.269043,500.714966 352.857208,501.775574 353.857330,501.105835 
	C355.682404,499.883728 357.665009,497.461578 357.715790,495.491882 
	C357.754547,493.990112 355.145905,491.895966 353.270294,491.041382 
	C351.871674,490.404053 349.713409,491.136902 347.977509,491.585144 
	C336.893707,494.447235 325.833160,497.399506 314.299072,500.445129 
	C314.299072,491.121948 314.299072,482.297058 314.299072,474.274536 
	C327.664917,472.358276 340.768707,470.479614 354.268585,468.566162 
	C359.232147,469.671112 363.752167,471.075348 368.375336,471.904266 
	C387.253448,475.289001 405.768066,479.985229 422.546478,489.495728 
	C428.780640,493.029480 434.465179,497.982025 439.420624,503.215332 
	C446.542206,510.736237 445.652344,523.264282 438.594666,530.942322 
	C428.940948,541.444458 416.380341,547.024841 403.433441,551.917847 
	C384.034241,559.249329 363.692841,563.084961 343.228241,564.527222 
	C321.904816,566.030090 300.392090,565.439392 278.981354,564.940063 
	C258.668396,564.466248 238.778641,560.424377 219.263000,554.906555 
	C205.441940,550.998840 192.398026,545.281433 180.909637,536.344788 
	C164.995575,523.965454 166.264725,506.288574 184.115494,493.968140 
	C198.172012,484.266479 214.025528,478.856781 230.456161,475.071960 
	C240.435989,472.773102 250.589142,471.226654 260.938660,469.026978 
	C273.864807,470.475708 286.516693,472.239624 299.677307,474.074493 
	C299.677307,482.078369 299.677307,490.959717 299.677307,500.512634 
	C295.313904,499.531250 291.018127,498.610992 286.745331,497.594299 
	C278.660034,495.670441 270.641876,493.388184 262.474915,491.934174 
	C260.252869,491.538605 256.992767,493.001160 255.385468,494.714539 
	C254.514145,495.643311 255.597992,499.225525 256.728851,501.027924 
	C258.583130,503.983124 261.389740,504.067993 263.735809,501.334991 
	C265.072418,499.777985 266.007385,497.876190 267.306488,495.842743 
	C277.506836,498.409424 287.920746,501.029846 298.334686,503.650299 
	C298.344604,503.972748 298.354492,504.295197 298.364410,504.617645 
	C285.698090,507.997711 273.034210,511.386932 260.357971,514.729431 
	C259.760468,514.887024 259.043701,514.681274 258.399231,514.557556 
	C254.507950,513.810669 251.251434,515.420593 250.891846,519.052612 
	C250.702255,520.967651 253.635101,524.774719 255.366516,524.902466 
	C257.608215,525.067871 261.574341,522.808594 262.074921,520.884583 
	C262.897034,517.725037 264.788849,517.624695 266.870544,517.043762 
	C275.193665,514.720947 283.511139,512.373474 291.869965,510.185150 
	C296.096313,509.078705 300.303131,507.046967 304.799438,509.695709 
	C305.776215,510.271118 307.701447,510.255585 308.666321,509.661682 
	C313.760284,506.526337 318.614471,508.761169 323.521484,509.969543 
	C331.909241,512.035034 340.252716,514.292358 348.679382,516.180908 
	C351.402740,516.791260 352.664825,517.917603 352.828094,521.228638 
	C354.997620,523.188721 356.800446,525.709900 358.512268,525.649475 
	C360.110809,525.593201 361.612732,522.795715 363.157196,521.204834 
z"/>
<path fill="#0A1234" opacity="1.000000" stroke="none" 
	d="
M414.997559,380.078674 
	C418.422516,380.040649 421.847473,380.002625 425.744934,380.398285 
	C426.631836,383.949097 427.046173,387.066193 427.423126,390.627380 
	C427.891846,395.035492 428.397949,398.999542 428.904022,402.963562 
	C430.552765,419.749603 432.201538,436.535675 433.856415,453.384308 
	C429.991943,454.764679 428.454956,453.839783 427.760773,449.736603 
	C425.162170,434.376801 422.129822,419.090302 419.149109,402.995453 
	C418.231934,398.099426 417.425720,393.984314 416.615295,389.445251 
	C416.073242,386.040466 415.535400,383.059570 414.997559,380.078674 
z"/>
<path fill="#091233" opacity="1.000000" stroke="none" 
	d="
M185.391129,379.984680 
	C188.815750,380.015381 192.240387,380.046082 196.102509,380.560913 
	C196.074112,384.026306 195.608200,387.007568 195.013367,390.373047 
	C194.209549,394.819519 193.534668,398.881714 192.859772,402.943939 
	C189.925903,418.255249 186.995819,433.567322 184.052628,448.876831 
	C183.743042,450.487152 183.356155,452.082611 182.988098,453.762756 
	C181.293793,453.762756 179.851288,453.762756 177.767715,453.762756 
	C178.530457,446.151703 179.338272,438.773285 179.992630,431.381256 
	C180.738586,422.954437 181.328735,414.513947 182.048523,406.084656 
	C182.113571,405.322845 182.630859,404.599701 183.027237,403.021149 
	C183.456696,398.130676 183.797043,394.077667 184.325745,389.662964 
	C184.806427,386.195709 185.098770,383.090179 185.391129,379.984680 
z"/>
<path fill="#B0BFE8" opacity="1.000000" stroke="none" 
	d="
M193.337677,402.937866 
	C193.534668,398.881714 194.209549,394.819519 195.472748,390.377136 
	C208.079605,390.012726 220.098160,390.028473 232.116714,390.044220 
	C231.551910,394.127228 230.987106,398.210236 230.249176,402.641998 
	C217.989243,402.971100 205.902405,402.951447 193.337677,402.937866 
z"/>
<path fill="#B0BFE8" opacity="1.000000" stroke="none" 
	d="
M416.619537,389.869171 
	C417.425720,393.984314 418.231934,398.099426 418.997955,402.617554 
	C407.587494,403.002350 396.217194,402.984131 384.372070,402.989929 
	C383.201141,398.978455 382.505066,394.942993 382.299347,390.471069 
	C394.066315,389.979431 405.342926,389.924286 416.619537,389.869171 
z"/>
<path fill="#ADBEE9" opacity="1.000000" stroke="none" 
	d="
M184.137390,390.024658 
	C183.797043,394.077667 183.456696,398.130676 182.994400,402.599304 
	C176.515472,402.984039 170.158493,402.953156 163.322021,402.908691 
	C163.621231,397.959045 164.399948,393.023010 165.540466,388.164124 
	C167.428482,388.829498 168.932709,389.845490 170.485046,389.925171 
	C175.025558,390.158386 179.585220,390.018402 184.137390,390.024658 
z"/>
<path fill="#ACBCE6" opacity="1.000000" stroke="none" 
	d="
M429.377625,402.950714 
	C428.397949,398.999542 427.891846,395.035492 427.927551,390.583435 
	C432.112579,390.065430 435.772644,390.225739 439.389923,389.904266 
	C440.692749,389.788452 441.892639,388.514374 443.139526,387.768860 
	C444.440826,392.909698 445.742157,398.050537 447.008423,403.595764 
	C441.265991,403.646027 435.558624,403.291962 429.377625,402.950714 
z"/>
<path fill="#C6D1EF" opacity="1.000000" stroke="none" 
	d="
M392.486694,304.936157 
	C393.628876,306.043701 395.101471,307.401154 394.851349,308.252594 
	C393.640015,312.376556 392.236206,316.497101 390.347687,320.347656 
	C389.331024,322.420471 387.202423,323.947937 385.247864,325.846497 
	C381.160645,325.537537 377.408569,324.870819 373.639008,324.749542 
	C371.034515,324.665771 369.922058,323.789948 368.467072,321.465790 
	C364.945831,315.840973 360.559448,310.757782 356.342957,305.182617 
	C356.164093,304.908966 356.578278,304.749084 357.108704,304.817261 
	C358.797272,304.637787 359.955444,304.390137 361.113586,304.142487 
	C371.416748,304.412628 381.719940,304.682739 392.486694,304.936157 
z"/>
<path fill="#C6D1EF" opacity="1.000000" stroke="none" 
	d="
M229.211197,324.856750 
	C222.616516,320.062714 219.353622,313.860260 219.995514,305.421997 
	C232.048508,304.970978 244.097061,304.968445 256.618225,305.013153 
	C252.731598,310.916473 248.449432,316.833038 243.944214,322.574585 
	C243.102264,323.647552 241.408691,324.499207 240.034882,324.619995 
	C236.607605,324.921326 233.138168,324.743286 229.211197,324.856750 
z"/>
<path fill="#EFAC94" opacity="1.000000" stroke="none" 
	d="
M375.161316,368.926514 
	C369.498871,360.902435 364.124115,352.790558 358.622864,344.334656 
	C363.113220,342.608521 367.730042,341.226440 372.622131,339.978516 
	C374.248413,344.543396 375.599396,348.974060 376.950378,353.404755 
	C377.033264,358.031494 377.116150,362.658203 377.107788,367.634460 
	C376.494080,368.268921 375.971527,368.553833 375.161316,368.926514 
z"/>
<path fill="#F1AB94" opacity="1.000000" stroke="none" 
	d="
M254.378204,344.342834 
	C249.975845,351.865051 245.163544,359.368530 240.134995,367.181519 
	C238.858429,365.865021 237.146484,364.335449 236.888351,362.590790 
	C236.486938,359.877808 237.074203,357.018524 237.400421,353.477234 
	C238.690857,348.746765 239.823257,344.760345 240.955658,340.773895 
	C245.293198,341.957275 249.630737,343.140656 254.378204,344.342834 
z"/>
<path fill="#F1F5F7" opacity="1.000000" stroke="none" 
	d="
M240.813507,340.454590 
	C239.823257,344.760345 238.690857,348.746765 237.366913,353.001068 
	C234.897171,353.268921 232.618988,353.268921 229.970230,353.268921 
	C228.776596,345.247650 231.893661,338.411469 234.541748,331.652496 
	C235.141769,330.120941 238.520081,329.677917 241.248474,328.451019 
	C241.017303,333.131134 240.844330,336.633209 240.813507,340.454590 
z"/>
<path fill="#F1F5F7" opacity="1.000000" stroke="none" 
	d="
M377.354980,353.372803 
	C375.599396,348.974060 374.248413,344.543396 372.871704,339.757874 
	C372.379242,336.495331 371.912598,333.587585 371.397095,330.375671 
	C375.871185,329.454041 378.575287,330.930420 379.915131,335.093903 
	C381.025970,338.545807 382.298676,341.945282 383.446381,345.385742 
	C385.577545,351.774139 384.451843,353.330231 377.354980,353.372803 
z"/>
<path fill="#133874" opacity="1.000000" stroke="none" 
	d="
M326.270966,295.564453 
	C328.529297,295.915527 330.787659,296.266602 333.345367,296.804016 
	C330.338837,297.862061 326.963806,298.532471 323.739075,299.640503 
	C310.160919,304.305939 296.983673,302.250946 283.895355,297.609741 
	C282.521637,297.122559 280.982605,297.101562 279.086670,296.832733 
	C281.434692,296.185699 284.216248,295.570221 287.590027,295.344788 
	C291.006561,296.614136 293.775970,297.931610 296.665070,298.293304 
	C306.699677,299.549530 316.764954,300.359497 326.270966,295.564453 
z"/>
<path fill="#E7E9F1" opacity="1.000000" stroke="none" 
	d="
M258.229004,304.589355 
	C258.121552,304.323547 258.302246,304.142029 258.761261,304.014435 
	C258.876984,304.269165 258.702850,304.470917 258.229004,304.589355 
z"/>
<path fill="#073474" opacity="1.000000" stroke="none" 
	d="
M238.863022,369.176147 
	C239.011719,369.435028 238.824646,369.696259 238.322586,369.987183 
	C238.270599,369.801788 238.443817,369.522308 238.863022,369.176147 
z"/>
<path fill="#60A0FB" opacity="1.000000" stroke="none" 
	d="
M292.009277,219.908295 
	C282.315155,224.888367 278.001740,232.854355 275.462708,243.039932 
	C272.358429,255.493179 276.267731,265.255096 283.767487,274.536652 
	C286.040466,277.349670 287.913910,280.485504 289.973328,283.844360 
	C232.555542,284.215240 175.134781,284.215240 117.382187,284.215240 
	C117.382187,250.094345 117.382187,216.534149 117.382187,182.426498 
	C119.182686,182.325943 120.947815,182.141724 122.712990,182.141235 
	C177.178848,182.126083 231.644821,182.177261 286.110352,182.040726 
	C290.658875,182.029327 292.183258,183.252609 292.036743,187.937042 
	C291.708923,198.419067 291.962006,208.919266 292.009277,219.908295 
M181.646378,233.144577 
	C186.861771,233.462448 192.077148,233.780319 197.292542,234.098190 
	C197.303329,233.560516 197.314133,233.022827 197.324936,232.485153 
	C191.859726,232.485153 186.394531,232.485153 180.025070,232.245468 
	C172.880753,232.245468 165.736435,232.245468 158.592133,232.245468 
	C158.621979,232.937759 158.651840,233.630051 158.681702,234.322342 
	C166.095642,233.765060 173.509598,233.207764 181.646378,233.144577 
M226.500031,225.890182 
	C218.866913,225.890182 211.233795,225.890182 203.600662,225.890182 
	C203.616760,226.339493 203.632858,226.788788 203.648941,227.238098 
	C228.526550,227.238098 253.404160,227.238098 278.281769,227.238098 
	C278.282593,226.788727 278.283417,226.339340 278.284271,225.889969 
	C261.356171,225.889969 244.428085,225.889969 226.500031,225.890182 
M235.492859,252.058594 
	C240.105179,252.058594 244.717499,252.058594 249.329819,252.058594 
	C249.307083,251.612717 249.284332,251.166840 249.261597,250.720963 
	C232.061096,250.720963 214.860596,250.720963 197.660095,250.720963 
	C197.661484,251.166885 197.662857,251.612808 197.664246,252.058731 
	C209.941086,252.058731 222.217911,252.058731 235.492859,252.058594 
M209.507324,237.955902 
	C204.904449,237.955902 200.301575,237.955902 195.698700,237.955902 
	C195.713364,238.454178 195.728012,238.952438 195.742676,239.450714 
	C208.620483,239.450714 221.498291,239.450714 234.376083,239.450714 
	C234.386810,238.952408 234.397537,238.454117 234.408264,237.955811 
	C226.440613,237.955811 218.472977,237.955811 209.507324,237.955902 
M216.562103,198.501007 
	C217.415878,198.252853 218.269653,198.004700 219.123444,197.756561 
	C219.081467,197.559662 219.039490,197.362762 218.997528,197.165863 
	C206.731873,197.165863 194.466217,197.165863 182.200562,197.165863 
	C182.193100,197.617859 182.185623,198.069855 182.178146,198.521851 
	C193.362595,198.521851 204.547028,198.521851 216.562103,198.501007 
M276.166077,221.139648 
	C277.503174,221.058014 278.840271,220.976379 280.177368,220.894745 
	C280.161774,220.687027 280.146149,220.479324 280.130554,220.271606 
	C259.066498,220.271606 238.002411,220.271606 216.938339,220.271606 
	C216.938187,220.561050 216.938034,220.850494 216.937881,221.139938 
	C236.372421,221.139938 255.806946,221.139938 276.166077,221.139648 
M196.657623,201.988770 
	C194.570526,202.141525 192.483429,202.294266 190.396332,202.447021 
	C190.446060,202.744156 190.495789,203.041275 190.545517,203.338409 
	C200.489716,203.338409 210.433914,203.338409 220.378113,203.338409 
	C220.375000,202.888489 220.371887,202.438568 220.368790,201.988647 
	C212.786667,201.988647 205.204559,201.988647 196.657623,201.988770 
M160.639847,209.405258 
	C170.549484,209.405258 180.459122,209.405258 190.368759,209.405258 
	C190.370102,209.135910 190.371445,208.866562 190.372787,208.597214 
	C180.468597,208.597214 170.564423,208.597214 160.639847,209.405258 
M168.563171,203.984344 
	C174.169296,203.984344 179.775421,203.984344 185.381561,203.984344 
	C185.363190,203.495865 185.344818,203.007370 185.326447,202.518890 
	C176.735886,202.518890 168.145325,202.518890 159.554764,202.518890 
	C159.542130,203.007370 159.529510,203.495834 159.516891,203.984314 
	C162.207550,203.984314 164.898224,203.984314 168.563171,203.984344 
M229.538879,256.083862 
	C226.195618,256.083862 222.852356,256.083862 219.509079,256.083862 
	C219.555450,256.608826 219.601807,257.133759 219.648163,257.658722 
	C228.212799,257.658722 236.777420,257.658722 245.342041,257.658722 
	C245.359818,257.133850 245.377594,256.608948 245.395386,256.084076 
	C240.438904,256.084076 235.482422,256.084076 229.538879,256.083862 
M243.321777,203.985947 
	C245.349060,203.814301 247.376343,203.642670 249.403641,203.471024 
	C249.354248,203.133041 249.304871,202.795044 249.255478,202.457062 
	C241.349701,202.457062 233.443909,202.457062 225.538132,202.457062 
	C225.527588,202.966690 225.517059,203.476303 225.506516,203.985931 
	C231.125732,203.985931 236.744934,203.985931 243.321777,203.985947 
M189.758423,256.095642 
	C183.042831,256.095642 176.327225,256.095642 169.611633,256.095642 
	C169.623611,256.710327 169.635605,257.325012 169.647583,257.939697 
	C176.610687,257.939697 183.573807,257.940704 190.536148,257.869019 
	C190.550354,257.868866 190.553513,256.795044 189.758423,256.095642 
M181.489105,225.950409 
	C174.083420,225.950409 166.677719,225.950409 159.272034,225.950409 
	C159.278473,226.388077 159.284912,226.825729 159.291351,227.263397 
	C167.139740,227.263397 174.988129,227.263397 182.836517,227.263397 
	C182.638214,226.831741 182.439926,226.400070 181.489105,225.950409 
M223.649216,214.008652 
	C210.140717,214.008652 196.632217,214.008652 183.123734,214.008652 
	C183.128983,214.180542 183.134216,214.352448 183.139465,214.524338 
	C196.850311,214.524338 210.561157,214.524338 223.649216,214.008652 
M211.154556,256.088562 
	C205.939529,256.088562 200.724487,256.088562 195.509460,256.088562 
	C195.543274,256.629028 195.577072,257.169464 195.610886,257.709930 
	C202.173630,257.709930 208.736374,257.709930 215.299103,257.709930 
	C215.340439,257.367249 215.381775,257.024567 215.423111,256.681885 
	C214.296936,256.484283 213.170761,256.286652 211.154556,256.088562 
M182.453217,237.967361 
	C179.201752,237.967361 175.950287,237.967361 172.698822,237.967361 
	C172.727600,238.442444 172.756378,238.917542 172.785156,239.392624 
	C178.660980,239.392624 184.536804,239.392624 190.412613,239.392624 
	C190.420990,238.919907 190.429367,238.447205 190.437744,237.974487 
	C188.092529,237.974487 185.747330,237.974487 182.453217,237.967361 
M177.545135,243.995850 
	C174.903000,243.995850 172.260864,243.995850 169.618729,243.995850 
	C169.638641,244.497711 169.658554,244.999573 169.678482,245.501434 
	C175.558243,245.501434 181.438019,245.501434 187.317795,245.501434 
	C187.340195,244.999390 187.362595,244.497330 187.384995,243.995285 
	C184.423340,243.995285 181.461670,243.995285 177.545135,243.995850 
M193.956451,243.995255 
	C192.851028,244.193008 191.745605,244.390762 190.640182,244.588501 
	C190.692810,244.849503 190.745438,245.110489 190.798065,245.371490 
	C196.687729,245.371490 202.577393,245.371490 208.467056,245.371490 
	C208.461731,244.912704 208.456406,244.453934 208.451080,243.995148 
	C203.916855,243.995148 199.382645,243.995148 193.956451,243.995255 
M152.114609,203.997086 
	C153.263489,203.811615 154.412354,203.626144 155.561234,203.440674 
	C155.512405,203.170502 155.463593,202.900330 155.414764,202.630157 
	C149.804138,202.630157 144.193497,202.630157 138.582855,202.630157 
	C138.585434,203.085434 138.587997,203.540710 138.590561,203.995987 
	C142.796707,203.995987 147.002838,203.995987 152.114609,203.997086 
M186.646622,219.883774 
	C184.387741,219.883774 182.128860,219.883774 179.869965,219.883774 
	C179.872864,220.198242 179.875748,220.512695 179.878632,220.827164 
	C190.633987,220.827164 201.389343,220.827164 212.144699,220.827164 
	C212.150650,220.512909 212.156601,220.198639 212.162552,219.884384 
	C203.977570,219.884384 195.792587,219.884384 186.646622,219.883774 
M152.332092,210.087509 
	C154.001846,209.972809 155.671616,209.858124 157.341370,209.743423 
	C157.303665,209.363861 157.265961,208.984299 157.228241,208.604736 
	C152.797455,208.604736 148.366669,208.604736 143.935883,208.604736 
	C143.923218,209.098663 143.910568,209.592575 143.897919,210.086502 
	C146.411438,210.086502 148.924957,210.086502 152.332092,210.087509 
M182.511627,270.088684 
	C191.015839,270.088684 199.520050,270.088684 208.024246,270.088684 
	C208.021088,269.773895 208.017929,269.459137 208.014771,269.144348 
	C199.272461,269.144348 190.530136,269.144348 181.787827,269.144348 
	C181.788116,269.398438 181.788406,269.652496 182.511627,270.088684 
M188.478592,252.072769 
	C190.470352,251.975296 192.462112,251.877808 194.453873,251.780334 
	C194.415741,251.416611 194.377609,251.052872 194.339478,250.689148 
	C190.159454,250.689148 185.979431,250.689148 181.799408,250.689148 
	C181.803894,251.150345 181.808365,251.611526 181.812851,252.072723 
	C183.731812,252.072723 185.650787,252.072723 188.478592,252.072769 
M212.510498,262.935242 
	C212.360168,263.149628 212.183304,263.352386 212.080444,263.587524 
	C212.058197,263.638336 212.302155,263.904999 212.423798,263.905212 
	C220.982117,263.920776 229.540466,263.919373 238.098801,263.919373 
	C238.098694,263.562866 238.098572,263.206390 238.098465,262.849884 
	C229.838364,262.849884 221.578278,262.849884 212.510498,262.935242 
z"/>
<path fill="#F7AE95" opacity="1.000000" stroke="none" 
	d="
M326.158569,295.242432 
	C316.764954,300.359497 306.699677,299.549530 296.665070,298.293304 
	C293.775970,297.931610 291.006561,296.614136 287.989746,295.403381 
	C288.918213,292.166382 290.039185,289.260925 291.208832,285.926758 
	C301.096954,288.631287 310.968140,288.520477 321.263916,285.757812 
	C323.123962,288.792023 324.585083,291.856201 326.158569,295.242432 
z"/>
<path fill="#6EA9FA" opacity="1.000000" stroke="none" 
	d="
M207.648590,291.347046 
	C209.718338,294.389465 209.279037,297.088898 206.365601,298.219910 
	C204.898285,298.789581 202.174744,297.801208 200.905197,296.589325 
	C200.110809,295.830994 200.402771,292.270264 201.196121,291.854675 
	C202.922241,290.950439 205.281403,291.254700 207.648590,291.347046 
z"/>
<path fill="#CAD3F0" opacity="1.000000" stroke="none" 
	d="
M300.030457,218.294342 
	C300.003876,218.553177 299.735291,218.725052 299.221008,218.835602 
	C299.246338,218.585312 299.517365,218.396332 300.030457,218.294342 
z"/>
<path fill="#60A1FC" opacity="1.000000" stroke="none" 
	d="
M323.493286,284.229675 
	C324.578979,280.834595 325.894562,277.313721 327.743561,274.099701 
	C330.858276,268.685608 335.897614,263.820435 337.182312,258.066772 
	C338.502716,252.153366 337.144897,245.200073 335.353333,239.179672 
	C334.025421,234.717422 333.395111,231.145157 334.708344,226.504456 
	C335.926849,222.198517 334.968201,217.276459 334.968201,212.661591 
	C330.071228,214.335190 326.403595,215.588623 322.356049,216.789124 
	C321.976105,205.440826 321.976105,194.145462 321.976105,182.484711 
	C380.465485,182.484711 438.347351,182.484711 496.590027,182.484711 
	C496.590027,216.150833 496.590027,249.716080 496.590027,284.241852 
	C439.075348,284.241852 381.519196,284.241852 323.493286,284.229675 
M430.590668,216.110580 
	C436.744019,216.103897 442.897339,216.094650 449.050690,216.091278 
	C455.123138,216.087936 461.195557,216.090546 467.268005,216.090546 
	C467.241974,215.615265 467.215942,215.139999 467.189941,214.664719 
	C452.345032,214.664719 437.500122,214.664719 422.655212,214.664719 
	C422.637848,215.147354 422.620514,215.629974 422.603149,216.112610 
	C424.945435,216.112610 427.287750,216.112610 430.590668,216.110580 
M453.532410,231.916412 
	C449.935974,231.916412 446.339539,231.916412 442.743073,231.916412 
	C442.764984,232.346909 442.786896,232.777390 442.808807,233.207886 
	C456.984406,233.207886 471.160004,233.207886 485.335602,233.207886 
	C485.331696,232.777313 485.327789,232.346756 485.323883,231.916183 
	C475.056061,231.916183 464.788269,231.916183 453.532410,231.916412 
M411.522278,209.065659 
	C407.334198,209.182739 403.146118,209.299820 398.958038,209.416901 
	C398.997223,209.798676 399.036407,210.180435 399.075592,210.562210 
	C409.742401,210.562210 420.409180,210.562210 431.075989,210.562210 
	C431.082581,210.063400 431.089203,209.564606 431.095795,209.065796 
	C424.902100,209.065796 418.708405,209.065796 411.522278,209.065659 
M392.641083,216.278351 
	C400.645782,216.278351 408.650482,216.278351 417.848907,216.278351 
	C416.423157,214.937592 416.103943,214.373871 415.779083,214.370605 
	C408.299561,214.295502 400.819031,214.250763 393.340088,214.329346 
	C392.874420,214.334244 392.419800,215.395660 392.641083,216.278351 
M447.506195,211.073486 
	C452.455963,211.073486 457.405731,211.073486 462.355530,211.073486 
	C462.336182,210.612961 462.316833,210.152420 462.297516,209.691895 
	C452.862244,209.691895 443.426941,209.691895 433.991669,209.691895 
	C433.989136,210.152466 433.986633,210.613052 433.984100,211.073624 
	C438.161224,211.073624 442.338379,211.073624 447.506195,211.073486 
M415.422852,233.917862 
	C418.639862,233.917862 421.856873,233.917862 425.073853,233.917862 
	C425.048096,233.428757 425.022308,232.939651 424.996521,232.450546 
	C415.756744,232.450546 406.516968,232.450546 397.277191,232.450546 
	C397.276611,232.939896 397.276062,233.429260 397.275513,233.918610 
	C402.999359,233.918610 408.723206,233.918610 415.422852,233.917862 
M437.548065,222.103851 
	C443.283417,222.103851 449.018768,222.103851 454.754120,222.103851 
	C454.746643,221.670563 454.739197,221.237274 454.731720,220.803986 
	C445.564880,220.803986 436.398010,220.803986 427.231171,220.803986 
	C427.230469,221.237305 427.229767,221.670609 427.229065,222.103928 
	C430.343597,222.103928 433.458099,222.103928 437.548065,222.103851 
M404.563293,222.057587 
	C410.819000,222.057587 417.074677,222.057587 423.330383,222.057587 
	C423.311646,221.580093 423.292938,221.102585 423.274231,220.625092 
	C414.052307,220.625092 404.830383,220.625092 395.608490,220.625092 
	C395.592346,221.102737 395.576202,221.580383 395.560059,222.058029 
	C398.236084,222.058029 400.912109,222.058029 404.563293,222.057587 
M478.068604,263.009094 
	C479.190094,262.812378 480.311584,262.615662 481.433075,262.418915 
	C481.385223,262.151642 481.337372,261.884338 481.289520,261.617065 
	C472.054108,261.617065 462.818695,261.617065 453.583252,261.617065 
	C453.580505,262.081299 453.577728,262.545563 453.574951,263.009796 
	C461.439117,263.009796 469.303253,263.009796 478.068604,263.009094 
M344.489197,205.161270 
	C346.488708,205.161240 348.489655,205.208496 350.487335,205.147781 
	C352.452087,205.088089 354.413483,204.918854 356.376373,204.797684 
	C356.330353,204.491852 356.284302,204.186020 356.238281,203.880188 
	C347.559021,203.880188 338.879761,203.880188 330.200500,203.880188 
	C330.204315,204.307297 330.208130,204.734421 330.211945,205.161530 
	C334.640869,205.161530 339.069763,205.161530 344.489197,205.161270 
M399.595032,200.099457 
	C405.228851,200.099457 410.862701,200.099457 416.496521,200.099457 
	C416.484894,199.610443 416.473267,199.121429 416.461639,198.632416 
	C408.229767,198.632416 399.997894,198.632416 391.766052,198.632416 
	C391.742065,199.121490 391.718079,199.610565 391.694122,200.099640 
	C394.008759,200.099640 396.323364,200.099640 399.595032,200.099457 
M467.570099,220.059677 
	C464.334869,220.059677 461.099640,220.059677 457.864410,220.059677 
	C457.891174,220.497772 457.917938,220.935883 457.944702,221.373978 
	C466.076202,221.373978 474.207733,221.373978 482.339233,221.373978 
	C482.330505,220.935898 482.321747,220.497818 482.313019,220.059738 
	C477.723755,220.059738 473.134491,220.059738 467.570099,220.059677 
M447.445099,257.077240 
	C450.470551,257.077240 453.496002,257.077240 456.521454,257.077240 
	C456.490387,256.640900 456.459320,256.204529 456.428253,255.768188 
	C448.495514,255.768188 440.562775,255.768188 432.630035,255.768188 
	C432.635925,256.205139 432.641785,256.642090 432.647644,257.079041 
	C437.254303,257.079041 441.860992,257.079041 447.445099,257.077240 
M433.605164,266.915039 
	C431.022217,266.915039 428.439301,266.915039 425.856354,266.915039 
	C425.891205,267.370056 425.926025,267.825073 425.960876,268.280090 
	C433.527649,268.280090 441.094391,268.280090 448.661163,268.280090 
	C448.664368,267.825470 448.667572,267.370880 448.670776,266.916260 
	C443.972168,266.916260 439.273590,266.916260 433.605164,266.915039 
M450.480957,251.052124 
	C453.806671,251.052124 457.132355,251.052124 460.458069,251.052124 
	C460.435516,250.661148 460.412994,250.270157 460.390472,249.879181 
	C453.160004,249.879181 445.929565,249.879181 438.699097,249.879181 
	C438.700867,250.269989 438.702667,250.660797 438.704437,251.051605 
	C442.303925,251.051605 445.903381,251.051605 450.480957,251.052124 
M341.244507,209.096176 
	C340.423065,209.385147 339.601654,209.674133 338.780212,209.963104 
	C338.832123,210.204956 338.884033,210.446793 338.935944,210.688644 
	C345.596802,210.688644 352.257629,210.688644 358.918488,210.688644 
	C358.938110,210.155624 358.957733,209.622620 358.977325,209.089600 
	C353.352112,209.089600 347.726898,209.089600 341.244507,209.096176 
M430.954163,239.142212 
	C424.681671,238.571930 418.409180,238.001633 412.136688,237.431351 
	C412.096649,238.151978 412.056641,238.872589 412.016632,239.593201 
	C418.118896,239.593201 424.221130,239.593201 430.954163,239.142212 
M406.527863,225.996887 
	C403.586639,225.996887 400.645386,225.996887 397.704163,225.996887 
	C397.732788,226.486603 397.761414,226.976318 397.790039,227.466034 
	C404.002869,227.466034 410.215698,227.466034 416.428528,227.466034 
	C416.446594,226.976349 416.464661,226.486649 416.482727,225.996964 
	C413.482544,225.996964 410.482361,225.996964 406.527863,225.996887 
M411.259003,255.047867 
	C410.448456,255.350708 409.637909,255.653564 408.827362,255.956406 
	C408.881714,256.173035 408.936035,256.389648 408.990356,256.606262 
	C415.121704,256.606262 421.253021,256.606262 427.384338,256.606262 
	C427.402527,256.083832 427.420685,255.561417 427.438873,255.039001 
	C422.329956,255.039001 417.221008,255.039001 411.259003,255.047867 
M424.088898,260.986572 
	C419.206665,260.986572 414.324402,260.986572 409.442169,260.986572 
	C409.482544,261.499847 409.522919,262.013153 409.563293,262.526428 
	C415.501984,262.526428 421.440674,262.526428 427.379364,262.526428 
	C427.414490,262.214203 427.449615,261.901947 427.484741,261.589722 
	C426.647186,261.388947 425.809601,261.188141 424.088898,260.986572 
M427.602783,225.988556 
	C425.272888,225.988556 422.942993,225.988556 420.613098,225.988556 
	C420.632172,226.489639 420.651215,226.990738 420.670288,227.491821 
	C426.578278,227.491821 432.486298,227.491821 438.394287,227.491821 
	C438.415161,226.991577 438.436005,226.491348 438.456848,225.991104 
	C435.154999,225.991104 431.853119,225.991104 427.602783,225.988556 
M442.355713,263.006989 
	C444.428467,262.846069 446.501221,262.685181 448.574005,262.524261 
	C448.521454,262.240662 448.468933,261.957062 448.416412,261.673462 
	C442.479004,261.673462 436.541595,261.673462 430.604218,261.673462 
	C430.615967,262.117981 430.627747,262.562500 430.639526,263.007019 
	C434.227753,263.007019 437.815948,263.007019 442.355713,263.006989 
M471.406891,267.076782 
	C465.788361,267.076782 460.169830,267.076782 454.551300,267.076782 
	C454.550476,267.706818 454.549652,268.336853 454.548828,268.966888 
	C459.169678,268.966888 463.794434,269.070496 468.408813,268.897858 
	C469.643494,268.851654 470.846588,267.961945 471.406891,267.076782 
M336.661530,198.097580 
	C334.410522,198.263336 332.159515,198.429092 329.908508,198.594849 
	C329.951538,198.948486 329.994568,199.302124 330.037567,199.655762 
	C335.711548,199.655762 341.385529,199.655762 347.059509,199.655762 
	C347.065338,199.140106 347.071167,198.624451 347.076996,198.108795 
	C343.912537,198.108795 340.748108,198.108795 336.661530,198.097580 
M475.735229,214.102280 
	C474.020172,214.276947 472.305115,214.451614 470.590027,214.626282 
	C470.642548,214.977005 470.695038,215.327713 470.747559,215.678436 
	C475.981323,215.678436 481.215088,215.678436 486.448883,215.678436 
	C486.468384,215.153122 486.487854,214.627823 486.507355,214.102509 
	C483.222717,214.102509 479.938080,214.102509 475.735229,214.102280 
M432.335388,203.810974 
	C431.886108,203.970245 431.436798,204.129517 429.867279,204.685883 
	C441.343140,204.685883 451.664032,204.685883 461.984894,204.685883 
	C461.986694,204.389099 461.988464,204.092316 461.990265,203.795532 
	C452.384003,203.795532 442.777740,203.795532 432.335388,203.810974 
M391.462494,211.249939 
	C393.091461,211.087250 394.720428,210.924545 396.349396,210.761856 
	C396.299683,210.423752 396.249939,210.085632 396.200226,209.747528 
	C391.456696,209.747528 386.713165,209.747528 381.969666,209.747528 
	C381.972382,210.218002 381.975128,210.688461 381.977875,211.158936 
	C384.870911,211.158936 387.763916,211.158936 391.462494,211.249939 
M480.145874,245.133652 
	C481.456146,245.043961 482.766388,244.954254 484.076660,244.864548 
	C484.056610,244.672363 484.036560,244.480179 484.016510,244.287994 
	C474.660889,244.287994 465.305267,244.287994 455.949646,244.287994 
	C455.950317,244.572357 455.950989,244.856735 455.951660,245.141098 
	C463.709991,245.141098 471.468323,245.141098 480.145874,245.133652 
M401.116272,203.820953 
	C400.355652,203.961960 399.595032,204.102951 398.834412,204.243958 
	C398.849670,204.407196 398.864929,204.570419 398.880188,204.733658 
	C407.621155,204.733658 416.362152,204.733658 425.103119,204.733658 
	C425.106506,204.423080 425.109894,204.112518 425.113251,203.801941 
	C417.404755,203.801941 409.696259,203.801941 401.116272,203.820953 
M349.714844,220.041916 
	C346.285065,220.041916 342.855255,220.041916 339.425476,220.041916 
	C339.443909,220.570602 339.462341,221.099289 339.480774,221.627975 
	C343.625977,221.627975 347.771179,221.627975 353.221771,221.627975 
	C351.548737,220.687897 351.025696,220.394012 349.714844,220.041916 
M354.141663,233.937881 
	C355.272766,233.721863 356.403870,233.505829 357.534973,233.289795 
	C357.491730,232.979996 357.448517,232.670212 357.405273,232.360428 
	C353.438995,232.360428 349.472717,232.360428 345.506409,232.360428 
	C345.481384,232.885468 345.456329,233.410522 345.431305,233.935562 
	C348.041840,233.935562 350.652405,233.935562 354.141663,233.937881 
M350.594177,225.969711 
	C348.849243,226.114731 347.104309,226.259750 345.359344,226.404755 
	C345.409851,226.759018 345.460358,227.113297 345.510864,227.467560 
	C349.488983,227.467560 353.467072,227.467560 357.445190,227.467560 
	C357.463470,226.968826 357.481720,226.470093 357.499969,225.971359 
	C355.497955,225.971359 353.495911,225.971359 350.594177,225.969711 
M414.515991,268.974426 
	C416.472595,268.849640 418.429169,268.724823 420.385773,268.600037 
	C420.339844,268.287323 420.293915,267.974579 420.247986,267.661865 
	C416.420990,267.661865 412.593994,267.661865 408.766998,267.661865 
	C408.781219,268.099335 408.795471,268.536835 408.809692,268.974304 
	C410.417511,268.974304 412.025299,268.974304 414.515991,268.974426 
z"/>
<path fill="#6EA9FA" opacity="1.000000" stroke="none" 
	d="
M411.335205,298.488403 
	C409.159180,297.888397 406.942566,297.505219 405.651886,296.203796 
	C404.964111,295.510284 405.367554,292.810852 406.211456,291.782104 
	C407.053711,290.755310 409.135315,290.118835 410.543060,290.303986 
	C414.241699,290.790344 414.670044,294.313110 411.335205,298.488403 
z"/>
<path fill="#E7E9F1" opacity="1.000000" stroke="none" 
	d="
M360.751923,304.097198 
	C359.955444,304.390137 358.797272,304.637787 357.329681,304.796143 
	C358.143585,304.488586 359.266907,304.270264 360.751923,304.097198 
z"/>
<path fill="#6EA9FA" opacity="1.000000" stroke="none" 
	d="
M305.670959,82.433640 
	C307.461121,85.545876 309.822083,86.171799 312.965210,86.063194 
	C320.352386,85.807915 327.754395,85.981430 335.150391,85.981430 
	C335.280121,86.477005 335.409851,86.972580 335.539581,87.468147 
	C334.599457,87.975906 333.667480,88.906731 332.717987,88.924980 
	C324.578308,89.081421 316.434753,89.134010 308.294342,89.042786 
	C307.162750,89.030098 305.573029,88.375298 304.989166,87.492668 
	C299.677002,79.462311 294.514160,71.332260 289.402344,63.172028 
	C288.971710,62.484600 289.228882,61.366325 289.846527,60.070324 
	C296.352539,66.539124 300.307068,74.767746 305.670959,82.433640 
z"/>
<path fill="#74ACF7" opacity="1.000000" stroke="none" 
	d="
M201.485992,68.591278 
	C200.319244,66.736374 199.134155,65.275276 198.457321,63.607868 
	C198.077820,62.672977 198.539597,61.396595 198.622314,60.274078 
	C199.523651,60.773212 200.776276,61.044697 201.270645,61.807560 
	C205.153107,67.798485 208.973434,73.833572 212.651718,79.951950 
	C217.417130,87.878632 217.393356,87.964378 210.433228,93.913918 
	C205.859299,97.823715 201.148239,101.573067 196.498581,105.394272 
	C196.021454,104.964973 195.544312,104.535675 195.067184,104.106377 
	C195.757004,102.917259 196.204910,101.456787 197.179916,100.587540 
	C200.773178,97.384003 204.396896,94.178139 208.284119,91.351234 
	C212.081345,88.589790 212.950470,86.039963 209.868744,81.987389 
	C206.766556,77.907913 204.380203,73.284103 201.485992,68.591278 
z"/>
<path fill="#75AAF7" opacity="1.000000" stroke="none" 
	d="
M386.761108,73.270569 
	C384.598022,70.088959 382.513458,67.276283 380.766510,64.267578 
	C380.181976,63.260826 380.459534,61.753536 380.342987,60.475044 
	C381.476044,61.154446 382.970428,61.572468 383.682251,62.556557 
	C387.669159,68.068512 391.860535,73.491516 395.234131,79.373856 
	C399.869751,87.456734 407.429840,92.359009 414.099640,98.268585 
	C416.247711,100.171791 418.299957,102.183182 420.789032,104.512947 
	C414.602966,106.015907 399.707581,91.855164 386.761108,73.270569 
z"/>
<path fill="#C5D2EF" opacity="1.000000" stroke="none" 
	d="
M416.615295,389.445251 
	C405.342926,389.924286 394.066315,389.979431 382.309937,390.048401 
	C380.915558,386.962524 380.000916,383.862793 379.060425,380.380493 
	C390.719452,379.936829 402.404388,379.875793 414.543427,379.946716 
	C415.535400,383.059570 416.073242,386.040466 416.615295,389.445251 
z"/>
<path fill="#C5D2EF" opacity="1.000000" stroke="none" 
	d="
M443.105835,387.342224 
	C441.892639,388.514374 440.692749,389.788452 439.389923,389.904266 
	C435.772644,390.225739 432.112579,390.065430 427.964966,390.139374 
	C427.046173,387.066193 426.631836,383.949097 426.196655,380.437744 
	C431.441589,379.976837 436.707336,379.910156 442.422455,379.940887 
	C442.938599,382.330719 443.005371,384.623169 443.105835,387.342224 
z"/>
<path fill="#C5D2EF" opacity="1.000000" stroke="none" 
	d="
M232.353638,389.762726 
	C220.098160,390.028473 208.079605,390.012726 195.601669,389.992920 
	C195.608200,387.007568 196.074112,384.026306 196.588516,380.628418 
	C209.111557,380.085297 221.586090,379.958862 234.522827,379.907379 
	C234.186859,383.148621 233.388718,386.314941 232.353638,389.762726 
z"/>
<path fill="#C4D2EF" opacity="1.000000" stroke="none" 
	d="
M184.325745,389.662964 
	C179.585220,390.018402 175.025558,390.158386 170.485046,389.925171 
	C168.932709,389.845490 167.428482,388.829498 165.733582,387.801666 
	C165.836960,385.243622 166.109039,383.125214 166.406677,380.592590 
	C172.425064,380.060608 178.417877,379.942902 184.900909,379.904938 
	C185.098770,383.090179 184.806427,386.195709 184.325745,389.662964 
z"/>
<path fill="#164BA8" opacity="1.000000" stroke="none" 
	d="
M362.755005,521.185791 
	C361.612732,522.795715 360.110809,525.593201 358.512268,525.649475 
	C356.800446,525.709900 354.997620,523.188721 353.163086,521.458740 
	C356.178680,521.137634 359.265717,521.152161 362.755005,521.185791 
z"/>
<path fill="#1D5EC2" opacity="1.000000" stroke="none" 
	d="
M227.000015,225.890076 
	C244.428085,225.889969 261.356171,225.889969 278.284271,225.889969 
	C278.283417,226.339340 278.282593,226.788727 278.281769,227.238098 
	C253.404160,227.238098 228.526550,227.238098 203.648941,227.238098 
	C203.632858,226.788788 203.616760,226.339493 203.600662,225.890182 
	C211.233795,225.890182 218.866913,225.890182 227.000015,225.890076 
z"/>
<path fill="#1A5BC6" opacity="1.000000" stroke="none" 
	d="
M234.993805,252.058655 
	C222.217911,252.058731 209.941086,252.058731 197.664246,252.058731 
	C197.662857,251.612808 197.661484,251.166885 197.660095,250.720963 
	C214.860596,250.720963 232.061096,250.720963 249.261597,250.720963 
	C249.284332,251.166840 249.307083,251.612717 249.329819,252.058594 
	C244.717499,252.058594 240.105179,252.058594 234.993805,252.058655 
z"/>
<path fill="#1D5EC2" opacity="1.000000" stroke="none" 
	d="
M210.006332,237.955856 
	C218.472977,237.955811 226.440613,237.955811 234.408264,237.955811 
	C234.397537,238.454117 234.386810,238.952408 234.376083,239.450714 
	C221.498291,239.450714 208.620483,239.450714 195.742676,239.450714 
	C195.728012,238.952438 195.713364,238.454178 195.698700,237.955902 
	C200.301575,237.955902 204.904449,237.955902 210.006332,237.955856 
z"/>
<path fill="#F25D6E" opacity="1.000000" stroke="none" 
	d="
M216.146790,198.511429 
	C204.547028,198.521851 193.362595,198.521851 182.178146,198.521851 
	C182.185623,198.069855 182.193100,197.617859 182.200562,197.165863 
	C194.466217,197.165863 206.731873,197.165863 218.997528,197.165863 
	C219.039490,197.362762 219.081467,197.559662 219.123444,197.756561 
	C218.269653,198.004700 217.415878,198.252853 216.146790,198.511429 
z"/>
<path fill="#0748AE" opacity="1.000000" stroke="none" 
	d="
M275.703796,221.139801 
	C255.806946,221.139938 236.372421,221.139938 216.937881,221.139938 
	C216.938034,220.850494 216.938187,220.561050 216.938339,220.271606 
	C238.002411,220.271606 259.066498,220.271606 280.130554,220.271606 
	C280.146149,220.479324 280.161774,220.687027 280.177368,220.894745 
	C278.840271,220.976379 277.503174,221.058014 275.703796,221.139801 
z"/>
<path fill="#195ABF" opacity="1.000000" stroke="none" 
	d="
M197.140030,201.988708 
	C205.204559,201.988647 212.786667,201.988647 220.368790,201.988647 
	C220.371887,202.438568 220.375000,202.888489 220.378113,203.338409 
	C210.433914,203.338409 200.489716,203.338409 190.545517,203.338409 
	C190.495789,203.041275 190.446060,202.744156 190.396332,202.447021 
	C192.483429,202.294266 194.570526,202.141525 197.140030,201.988708 
z"/>
<path fill="#1559C0" opacity="1.000000" stroke="none" 
	d="
M160.650040,209.001236 
	C170.564423,208.597214 180.468597,208.597214 190.372787,208.597214 
	C190.371445,208.866562 190.370102,209.135910 190.368759,209.405258 
	C180.459122,209.405258 170.549484,209.405258 160.650040,209.001236 
z"/>
<path fill="#1559C0" opacity="1.000000" stroke="none" 
	d="
M168.076019,203.984329 
	C164.898224,203.984314 162.207550,203.984314 159.516891,203.984314 
	C159.529510,203.495834 159.542130,203.007370 159.554764,202.518890 
	C168.145325,202.518890 176.735886,202.518890 185.326447,202.518890 
	C185.344818,203.007370 185.363190,203.495865 185.381561,203.984344 
	C179.775421,203.984344 174.169296,203.984344 168.076019,203.984329 
z"/>
<path fill="#1D5DC8" opacity="1.000000" stroke="none" 
	d="
M230.032410,256.083984 
	C235.482422,256.084076 240.438904,256.084076 245.395386,256.084076 
	C245.377594,256.608948 245.359818,257.133850 245.342041,257.658722 
	C236.777420,257.658722 228.212799,257.658722 219.648163,257.658722 
	C219.601807,257.133759 219.555450,256.608826 219.509079,256.083862 
	C222.852356,256.083862 226.195618,256.083862 230.032410,256.083984 
z"/>
<path fill="#195ABF" opacity="1.000000" stroke="none" 
	d="
M242.842957,203.985931 
	C236.744934,203.985931 231.125732,203.985931 225.506516,203.985931 
	C225.517059,203.476303 225.527588,202.966690 225.538132,202.457062 
	C233.443909,202.457062 241.349701,202.457062 249.255478,202.457062 
	C249.304871,202.795044 249.354248,203.133041 249.403641,203.471024 
	C247.376343,203.642670 245.349060,203.814301 242.842957,203.985931 
z"/>
<path fill="#1D5DC8" opacity="1.000000" stroke="none" 
	d="
M190.160126,256.159180 
	C190.553513,256.795044 190.550354,257.868866 190.536148,257.869019 
	C183.573807,257.940704 176.610687,257.939697 169.647583,257.939697 
	C169.635605,257.325012 169.623611,256.710327 169.611633,256.095642 
	C176.327225,256.095642 183.042831,256.095642 190.160126,256.159180 
z"/>
<path fill="#D26A84" opacity="1.000000" stroke="none" 
	d="
M180.923538,232.650467 
	C173.509598,233.207764 166.095642,233.765060 158.681702,234.322342 
	C158.651840,233.630051 158.621979,232.937759 158.592133,232.245468 
	C165.736435,232.245468 172.880753,232.245468 180.457596,232.404480 
	C180.890121,232.563477 180.923538,232.650467 180.923538,232.650467 
z"/>
<path fill="#0B47B2" opacity="1.000000" stroke="none" 
	d="
M181.865372,225.959412 
	C182.439926,226.400070 182.638214,226.831741 182.836517,227.263397 
	C174.988129,227.263397 167.139740,227.263397 159.291351,227.263397 
	C159.284912,226.825729 159.278473,226.388077 159.272034,225.950409 
	C166.677719,225.950409 174.083420,225.950409 181.865372,225.959412 
z"/>
<path fill="#0242B2" opacity="1.000000" stroke="none" 
	d="
M223.960602,214.266495 
	C210.561157,214.524338 196.850311,214.524338 183.139465,214.524338 
	C183.134216,214.352448 183.128983,214.180542 183.123734,214.008652 
	C196.632217,214.008652 210.140717,214.008652 223.960602,214.266495 
z"/>
<path fill="#1D5DC8" opacity="1.000000" stroke="none" 
	d="
M211.599579,256.088806 
	C213.170761,256.286652 214.296936,256.484283 215.423111,256.681885 
	C215.381775,257.024567 215.340439,257.367249 215.299103,257.709930 
	C208.736374,257.709930 202.173630,257.709930 195.610886,257.709930 
	C195.577072,257.169464 195.543274,256.629028 195.509460,256.088562 
	C200.724487,256.088562 205.939529,256.088562 211.599579,256.088806 
z"/>
<path fill="#D86886" opacity="1.000000" stroke="none" 
	d="
M182.927673,237.970917 
	C185.747330,237.974487 188.092529,237.974487 190.437744,237.974487 
	C190.429367,238.447205 190.420990,238.919907 190.412613,239.392624 
	C184.536804,239.392624 178.660980,239.392624 172.785156,239.392624 
	C172.756378,238.917542 172.727600,238.442444 172.698822,237.967361 
	C175.950287,237.967361 179.201752,237.967361 182.927673,237.970917 
z"/>
<path fill="#1C5DC3" opacity="1.000000" stroke="none" 
	d="
M178.022568,243.995575 
	C181.461670,243.995285 184.423340,243.995285 187.384995,243.995285 
	C187.362595,244.497330 187.340195,244.999390 187.317795,245.501434 
	C181.438019,245.501434 175.558243,245.501434 169.678482,245.501434 
	C169.658554,244.999573 169.638641,244.497711 169.618729,243.995850 
	C172.260864,243.995850 174.903000,243.995850 178.022568,243.995575 
z"/>
<path fill="#1C5DC3" opacity="1.000000" stroke="none" 
	d="
M194.402435,243.995209 
	C199.382645,243.995148 203.916855,243.995148 208.451080,243.995148 
	C208.456406,244.453934 208.461731,244.912704 208.467056,245.371490 
	C202.577393,245.371490 196.687729,245.371490 190.798065,245.371490 
	C190.745438,245.110489 190.692810,244.849503 190.640182,244.588501 
	C191.745605,244.390762 192.851028,244.193008 194.402435,243.995209 
z"/>
<path fill="#D1E5FB" opacity="1.000000" stroke="none" 
	d="
M151.661789,203.996536 
	C147.002838,203.995987 142.796707,203.995987 138.590561,203.995987 
	C138.587997,203.540710 138.585434,203.085434 138.582855,202.630157 
	C144.193497,202.630157 149.804138,202.630157 155.414764,202.630157 
	C155.463593,202.900330 155.512405,203.170502 155.561234,203.440674 
	C154.412354,203.626144 153.263489,203.811615 151.661789,203.996536 
z"/>
<path fill="#0748AE" opacity="1.000000" stroke="none" 
	d="
M187.127106,219.884079 
	C195.792587,219.884384 203.977570,219.884384 212.162552,219.884384 
	C212.156601,220.198639 212.150650,220.512909 212.144699,220.827164 
	C201.389343,220.827164 190.633987,220.827164 179.878632,220.827164 
	C179.875748,220.512695 179.872864,220.198242 179.869965,219.883774 
	C182.128860,219.883774 184.387741,219.883774 187.127106,219.884079 
z"/>
<path fill="#1A5BC6" opacity="1.000000" stroke="none" 
	d="
M181.284958,232.897522 
	C180.923538,232.650467 180.890121,232.563477 180.909729,232.524323 
	C186.394531,232.485153 191.859726,232.485153 197.324936,232.485153 
	C197.314133,233.022827 197.303329,233.560516 197.292542,234.098190 
	C192.077148,233.780319 186.861771,233.462448 181.284958,232.897522 
z"/>
<path fill="#D1E5FB" opacity="1.000000" stroke="none" 
	d="
M151.885284,210.087006 
	C148.924957,210.086502 146.411438,210.086502 143.897919,210.086502 
	C143.910568,209.592575 143.923218,209.098663 143.935883,208.604736 
	C148.366669,208.604736 152.797455,208.604736 157.228241,208.604736 
	C157.265961,208.984299 157.303665,209.363861 157.341370,209.743423 
	C155.671616,209.858124 154.001846,209.972809 151.885284,210.087006 
z"/>
<path fill="#F25D6E" opacity="1.000000" stroke="none" 
	d="
M182.150162,269.997620 
	C181.788406,269.652496 181.788116,269.398438 181.787827,269.144348 
	C190.530136,269.144348 199.272461,269.144348 208.014771,269.144348 
	C208.017929,269.459137 208.021088,269.773895 208.024246,270.088684 
	C199.520050,270.088684 191.015839,270.088684 182.150162,269.997620 
z"/>
<path fill="#1D5DC8" opacity="1.000000" stroke="none" 
	d="
M188.024170,252.072754 
	C185.650787,252.072723 183.731812,252.072723 181.812851,252.072723 
	C181.808365,251.611526 181.803894,251.150345 181.799408,250.689148 
	C185.979431,250.689148 190.159454,250.689148 194.339478,250.689148 
	C194.377609,251.052872 194.415741,251.416611 194.453873,251.780334 
	C192.462112,251.877808 190.470352,251.975296 188.024170,252.072754 
z"/>
<path fill="#0748AE" opacity="1.000000" stroke="none" 
	d="
M212.914337,262.892578 
	C221.578278,262.849884 229.838364,262.849884 238.098465,262.849884 
	C238.098572,263.206390 238.098694,263.562866 238.098801,263.919373 
	C229.540466,263.919373 220.982117,263.920776 212.423798,263.905212 
	C212.302155,263.904999 212.058197,263.638336 212.080444,263.587524 
	C212.183304,263.352386 212.360168,263.149628 212.914337,262.892578 
z"/>
<path fill="#1557BB" opacity="1.000000" stroke="none" 
	d="
M430.110352,216.111603 
	C427.287750,216.112610 424.945435,216.112610 422.603149,216.112610 
	C422.620514,215.629974 422.637848,215.147354 422.655212,214.664719 
	C437.500122,214.664719 452.345032,214.664719 467.189941,214.664719 
	C467.215942,215.139999 467.241974,215.615265 467.268005,216.090546 
	C461.195557,216.090546 455.123138,216.087936 449.050690,216.091278 
	C442.897339,216.094650 436.744019,216.103897 430.110352,216.111603 
z"/>
<path fill="#1C5DC3" opacity="1.000000" stroke="none" 
	d="
M454.026428,231.916290 
	C464.788269,231.916183 475.056061,231.916183 485.323883,231.916183 
	C485.327789,232.346756 485.331696,232.777313 485.335602,233.207886 
	C471.160004,233.207886 456.984406,233.207886 442.808807,233.207886 
	C442.786896,232.777390 442.764984,232.346909 442.743073,231.916412 
	C446.339539,231.916412 449.935974,231.916412 454.026428,231.916290 
z"/>
<path fill="#1D5DC8" opacity="1.000000" stroke="none" 
	d="
M412.018494,209.065735 
	C418.708405,209.065796 424.902100,209.065796 431.095795,209.065796 
	C431.089203,209.564606 431.082581,210.063400 431.075989,210.562210 
	C420.409180,210.562210 409.742401,210.562210 399.075592,210.562210 
	C399.036407,210.180435 398.997223,209.798676 398.958038,209.416901 
	C403.146118,209.299820 407.334198,209.182739 412.018494,209.065735 
z"/>
<path fill="#CE6D87" opacity="1.000000" stroke="none" 
	d="
M392.300537,216.121948 
	C392.419800,215.395660 392.874420,214.334244 393.340088,214.329346 
	C400.819031,214.250763 408.299561,214.295502 415.779083,214.370605 
	C416.103943,214.373871 416.423157,214.937592 417.848907,216.278351 
	C408.650482,216.278351 400.645782,216.278351 392.300537,216.121948 
z"/>
<path fill="#1C5DC3" opacity="1.000000" stroke="none" 
	d="
M447.010864,211.073547 
	C442.338379,211.073624 438.161224,211.073624 433.984100,211.073624 
	C433.986633,210.613052 433.989136,210.152466 433.991669,209.691895 
	C443.426941,209.691895 452.862244,209.691895 462.297516,209.691895 
	C462.316833,210.152420 462.336182,210.612961 462.355530,211.073486 
	C457.405731,211.073486 452.455963,211.073486 447.010864,211.073547 
z"/>
<path fill="#CE6D87" opacity="1.000000" stroke="none" 
	d="
M414.934937,233.918243 
	C408.723206,233.918610 402.999359,233.918610 397.275513,233.918610 
	C397.276062,233.429260 397.276611,232.939896 397.277191,232.450546 
	C406.516968,232.450546 415.756744,232.450546 424.996521,232.450546 
	C425.022308,232.939651 425.048096,233.428757 425.073853,233.917862 
	C421.856873,233.917862 418.639862,233.917862 414.934937,233.918243 
z"/>
<path fill="#D46C8C" opacity="1.000000" stroke="none" 
	d="
M437.060364,222.103882 
	C433.458099,222.103928 430.343597,222.103928 427.229065,222.103928 
	C427.229767,221.670609 427.230469,221.237305 427.231171,220.803986 
	C436.398010,220.803986 445.564880,220.803986 454.731720,220.803986 
	C454.739197,221.237274 454.746643,221.670563 454.754120,222.103851 
	C449.018768,222.103851 443.283417,222.103851 437.060364,222.103882 
z"/>
<path fill="#1C5DC3" opacity="1.000000" stroke="none" 
	d="
M404.075714,222.057800 
	C400.912109,222.058029 398.236084,222.058029 395.560059,222.058029 
	C395.576202,221.580383 395.592346,221.102737 395.608490,220.625092 
	C404.830383,220.625092 414.052307,220.625092 423.274231,220.625092 
	C423.292938,221.102585 423.311646,221.580093 423.330383,222.057587 
	C417.074677,222.057587 410.819000,222.057587 404.075714,222.057800 
z"/>
<path fill="#1A5BC6" opacity="1.000000" stroke="none" 
	d="
M477.618011,263.009460 
	C469.303253,263.009796 461.439117,263.009796 453.574951,263.009796 
	C453.577728,262.545563 453.580505,262.081299 453.583252,261.617065 
	C462.818695,261.617065 472.054108,261.617065 481.289520,261.617065 
	C481.337372,261.884338 481.385223,262.151642 481.433075,262.418915 
	C480.311584,262.615662 479.190094,262.812378 477.618011,263.009460 
z"/>
<path fill="#E7E9F1" opacity="1.000000" stroke="none" 
	d="
M343.993958,205.161407 
	C339.069763,205.161530 334.640869,205.161530 330.211945,205.161530 
	C330.208130,204.734421 330.204315,204.307297 330.200500,203.880188 
	C338.879761,203.880188 347.559021,203.880188 356.238281,203.880188 
	C356.284302,204.186020 356.330353,204.491852 356.376373,204.797684 
	C354.413483,204.918854 352.452087,205.088089 350.487335,205.147781 
	C348.489655,205.208496 346.488708,205.161240 343.993958,205.161407 
z"/>
<path fill="#1C5DC3" opacity="1.000000" stroke="none" 
	d="
M399.116516,200.099548 
	C396.323364,200.099640 394.008759,200.099640 391.694122,200.099640 
	C391.718079,199.610565 391.742065,199.121490 391.766052,198.632416 
	C399.997894,198.632416 408.229767,198.632416 416.461639,198.632416 
	C416.473267,199.121429 416.484894,199.610443 416.496521,200.099457 
	C410.862701,200.099457 405.228851,200.099457 399.116516,200.099548 
z"/>
<path fill="#1C5DC3" opacity="1.000000" stroke="none" 
	d="
M468.057678,220.059708 
	C473.134491,220.059738 477.723755,220.059738 482.313019,220.059738 
	C482.321747,220.497818 482.330505,220.935898 482.339233,221.373978 
	C474.207733,221.373978 466.076202,221.373978 457.944702,221.373978 
	C457.917938,220.935883 457.891174,220.497772 457.864410,220.059677 
	C461.099640,220.059677 464.334869,220.059677 468.057678,220.059708 
z"/>
<path fill="#155BC7" opacity="1.000000" stroke="none" 
	d="
M446.956360,257.078125 
	C441.860992,257.079041 437.254303,257.079041 432.647644,257.079041 
	C432.641785,256.642090 432.635925,256.205139 432.630035,255.768188 
	C440.562775,255.768188 448.495514,255.768188 456.428253,255.768188 
	C456.459320,256.204529 456.490387,256.640900 456.521454,257.077240 
	C453.496002,257.077240 450.470551,257.077240 446.956360,257.078125 
z"/>
<path fill="#D86886" opacity="1.000000" stroke="none" 
	d="
M434.090088,266.915649 
	C439.273590,266.916260 443.972168,266.916260 448.670776,266.916260 
	C448.667572,267.370880 448.664368,267.825470 448.661163,268.280090 
	C441.094391,268.280090 433.527649,268.280090 425.960876,268.280090 
	C425.926025,267.825073 425.891205,267.370056 425.856354,266.915039 
	C428.439301,266.915039 431.022217,266.915039 434.090088,266.915649 
z"/>
<path fill="#0748AE" opacity="1.000000" stroke="none" 
	d="
M449.991913,251.051865 
	C445.903381,251.051605 442.303925,251.051605 438.704437,251.051605 
	C438.702667,250.660797 438.700867,250.269989 438.699097,249.879181 
	C445.929565,249.879181 453.160004,249.879181 460.390472,249.879181 
	C460.412994,250.270157 460.435516,250.661148 460.458069,251.052124 
	C457.132355,251.052124 453.806671,251.052124 449.991913,251.051865 
z"/>
<path fill="#D1E5FB" opacity="1.000000" stroke="none" 
	d="
M341.673096,209.092896 
	C347.726898,209.089600 353.352112,209.089600 358.977325,209.089600 
	C358.957733,209.622620 358.938110,210.155624 358.918488,210.688644 
	C352.257629,210.688644 345.596802,210.688644 338.935944,210.688644 
	C338.884033,210.446793 338.832123,210.204956 338.780212,209.963104 
	C339.601654,209.674133 340.423065,209.385147 341.673096,209.092896 
z"/>
<path fill="#1557BB" opacity="1.000000" stroke="none" 
	d="
M430.638794,239.367706 
	C424.221130,239.593201 418.118896,239.593201 412.016632,239.593201 
	C412.056641,238.872589 412.096649,238.151978 412.136688,237.431351 
	C418.409180,238.001633 424.681671,238.571930 430.638794,239.367706 
z"/>
<path fill="#1261BD" opacity="1.000000" stroke="none" 
	d="
M407.005005,225.996918 
	C410.482361,225.996964 413.482544,225.996964 416.482727,225.996964 
	C416.464661,226.486649 416.446594,226.976349 416.428528,227.466034 
	C410.215698,227.466034 404.002869,227.466034 397.790039,227.466034 
	C397.761414,226.976318 397.732788,226.486603 397.704163,225.996887 
	C400.645386,225.996887 403.586639,225.996887 407.005005,225.996918 
z"/>
<path fill="#155BC7" opacity="1.000000" stroke="none" 
	d="
M411.685547,255.043427 
	C417.221008,255.039001 422.329956,255.039001 427.438873,255.039001 
	C427.420685,255.561417 427.402527,256.083832 427.384338,256.606262 
	C421.253021,256.606262 415.121704,256.606262 408.990356,256.606262 
	C408.936035,256.389648 408.881714,256.173035 408.827362,255.956406 
	C409.637909,255.653564 410.448456,255.350708 411.685547,255.043427 
z"/>
<path fill="#1A5BC6" opacity="1.000000" stroke="none" 
	d="
M424.530457,260.986969 
	C425.809601,261.188141 426.647186,261.388947 427.484741,261.589722 
	C427.449615,261.901947 427.414490,262.214203 427.379364,262.526428 
	C421.440674,262.526428 415.501984,262.526428 409.563293,262.526428 
	C409.522919,262.013153 409.482544,261.499847 409.442169,260.986572 
	C414.324402,260.986572 419.206665,260.986572 424.530457,260.986969 
z"/>
<path fill="#1559C0" opacity="1.000000" stroke="none" 
	d="
M428.077026,225.989838 
	C431.853119,225.991104 435.154999,225.991104 438.456848,225.991104 
	C438.436005,226.491348 438.415161,226.991577 438.394287,227.491821 
	C432.486298,227.491821 426.578278,227.491821 420.670288,227.491821 
	C420.651215,226.990738 420.632172,226.489639 420.613098,225.988556 
	C422.942993,225.988556 425.272888,225.988556 428.077026,225.989838 
z"/>
<path fill="#1A5BC6" opacity="1.000000" stroke="none" 
	d="
M441.879944,263.007019 
	C437.815948,263.007019 434.227753,263.007019 430.639526,263.007019 
	C430.627747,262.562500 430.615967,262.117981 430.604218,261.673462 
	C436.541595,261.673462 442.479004,261.673462 448.416412,261.673462 
	C448.468933,261.957062 448.521454,262.240662 448.574005,262.524261 
	C446.501221,262.685181 444.428467,262.846069 441.879944,263.007019 
z"/>
<path fill="#1A5BC6" opacity="1.000000" stroke="none" 
	d="
M471.735535,267.268127 
	C470.846588,267.961945 469.643494,268.851654 468.408813,268.897858 
	C463.794434,269.070496 459.169678,268.966888 454.548828,268.966888 
	C454.549652,268.336853 454.550476,267.706818 454.551300,267.076782 
	C460.169830,267.076782 465.788361,267.076782 471.735535,267.268127 
z"/>
<path fill="#D1E5FB" opacity="1.000000" stroke="none" 
	d="
M337.122589,198.103180 
	C340.748108,198.108795 343.912537,198.108795 347.076996,198.108795 
	C347.071167,198.624451 347.065338,199.140106 347.059509,199.655762 
	C341.385529,199.655762 335.711548,199.655762 330.037567,199.655762 
	C329.994568,199.302124 329.951538,198.948486 329.908508,198.594849 
	C332.159515,198.429092 334.410522,198.263336 337.122589,198.103180 
z"/>
<path fill="#1D5EC2" opacity="1.000000" stroke="none" 
	d="
M476.194336,214.102386 
	C479.938080,214.102509 483.222717,214.102509 486.507355,214.102509 
	C486.487854,214.627823 486.468384,215.153122 486.448883,215.678436 
	C481.215088,215.678436 475.981323,215.678436 470.747559,215.678436 
	C470.695038,215.327713 470.642548,214.977005 470.590027,214.626282 
	C472.305115,214.451614 474.020172,214.276947 476.194336,214.102386 
z"/>
<path fill="#0D48B0" opacity="1.000000" stroke="none" 
	d="
M432.753418,203.803253 
	C442.777740,203.795532 452.384003,203.795532 461.990265,203.795532 
	C461.988464,204.092316 461.986694,204.389099 461.984894,204.685883 
	C451.664032,204.685883 441.343140,204.685883 429.867279,204.685883 
	C431.436798,204.129517 431.886108,203.970245 432.753418,203.803253 
z"/>
<path fill="#D1E5FB" opacity="1.000000" stroke="none" 
	d="
M391.059723,211.204437 
	C387.763916,211.158936 384.870911,211.158936 381.977875,211.158936 
	C381.975128,210.688461 381.972382,210.218002 381.969666,209.747528 
	C386.713165,209.747528 391.456696,209.747528 396.200226,209.747528 
	C396.249939,210.085632 396.299683,210.423752 396.349396,210.761856 
	C394.720428,210.924545 393.091461,211.087250 391.059723,211.204437 
z"/>
<path fill="#0748AE" opacity="1.000000" stroke="none" 
	d="
M479.686279,245.137375 
	C471.468323,245.141098 463.709991,245.141098 455.951660,245.141098 
	C455.950989,244.856735 455.950317,244.572357 455.949646,244.287994 
	C465.305267,244.287994 474.660889,244.287994 484.016510,244.287994 
	C484.036560,244.480179 484.056610,244.672363 484.076660,244.864548 
	C482.766388,244.954254 481.456146,245.043961 479.686279,245.137375 
z"/>
<path fill="#0B47B2" opacity="1.000000" stroke="none" 
	d="
M401.552002,203.811447 
	C409.696259,203.801941 417.404755,203.801941 425.113251,203.801941 
	C425.109894,204.112518 425.106506,204.423080 425.103119,204.733658 
	C416.362152,204.733658 407.621155,204.733658 398.880188,204.733658 
	C398.864929,204.570419 398.849670,204.407196 398.834412,204.243958 
	C399.595032,204.102951 400.355652,203.961960 401.552002,203.811447 
z"/>
<path fill="#D1E5FB" opacity="1.000000" stroke="none" 
	d="
M350.108765,220.071014 
	C351.025696,220.394012 351.548737,220.687897 353.221771,221.627975 
	C347.771179,221.627975 343.625977,221.627975 339.480774,221.627975 
	C339.462341,221.099289 339.443909,220.570602 339.425476,220.041916 
	C342.855255,220.041916 346.285065,220.041916 350.108765,220.071014 
z"/>
<path fill="#D1E5FB" opacity="1.000000" stroke="none" 
	d="
M353.702301,233.936722 
	C350.652405,233.935562 348.041840,233.935562 345.431305,233.935562 
	C345.456329,233.410522 345.481384,232.885468 345.506409,232.360428 
	C349.472717,232.360428 353.438995,232.360428 357.405273,232.360428 
	C357.448517,232.670212 357.491730,232.979996 357.534973,233.289795 
	C356.403870,233.505829 355.272766,233.721863 353.702301,233.936722 
z"/>
<path fill="#D1E5FB" opacity="1.000000" stroke="none" 
	d="
M351.044037,225.970535 
	C353.495911,225.971359 355.497955,225.971359 357.499969,225.971359 
	C357.481720,226.470093 357.463470,226.968826 357.445190,227.467560 
	C353.467072,227.467560 349.488983,227.467560 345.510864,227.467560 
	C345.460358,227.113297 345.409851,226.759018 345.359344,226.404755 
	C347.104309,226.259750 348.849243,226.114731 351.044037,225.970535 
z"/>
<path fill="#1D5DC8" opacity="1.000000" stroke="none" 
	d="
M414.074554,268.974365 
	C412.025299,268.974304 410.417511,268.974304 408.809692,268.974304 
	C408.795471,268.536835 408.781219,268.099335 408.766998,267.661865 
	C412.593994,267.661865 416.420990,267.661865 420.247986,267.661865 
	C420.293915,267.974579 420.339844,268.287323 420.385773,268.600037 
	C418.429169,268.724823 416.472595,268.849640 414.074554,268.974365 
z"/>
</svg>