<?xml version="1.0" standalone="no"?>
<!DOCTYPE svg PUBLIC "-//W3C//DTD SVG 20010904//EN"
 "http://www.w3.org/TR/2001/REC-SVG-20010904/DTD/svg10.dtd">
<svg version="1.0" xmlns="http://www.w3.org/2000/svg"
 width="414.000000pt" height="309.000000pt" viewBox="0 0 414.000000 309.000000"
 preserveAspectRatio="xMidYMid meet">

<g transform="translate(0.000000,309.000000) scale(0.100000,-0.100000)"
fill="#000000" stroke="none">
<path d="M1690 2718 c-19 -5 -37 -13 -40 -16 -3 -4 -26 -17 -52 -30 -38 -18
-49 -31 -62 -65 -24 -67 -27 -85 -18 -91 5 -3 15 -26 22 -51 16 -57 28 -58 32
-2 3 41 4 42 36 39 23 -2 34 2 39 13 5 14 15 16 61 10 79 -10 81 -11 89 -68 4
-29 9 -43 11 -32 3 11 9 31 14 45 7 19 11 21 18 10 16 -26 25 20 10 54 -8 17
-14 56 -15 86 -2 78 -2 78 -35 95 -33 17 -59 18 -110 3z"/>
<path d="M1625 2470 c-3 -5 -1 -10 4 -10 6 0 11 5 11 10 0 6 -2 10 -4 10 -3 0
-8 -4 -11 -10z"/>
<path d="M1737 2469 c7 -7 15 -10 18 -7 3 3 -2 9 -12 12 -14 6 -15 5 -6 -5z"/>
<path d="M1631 2424 c0 -11 3 -14 6 -6 3 7 2 16 -1 19 -3 4 -6 -2 -5 -13z"/>
<path d="M1735 2431 c-3 -5 -1 -12 5 -16 5 -3 10 1 10 9 0 18 -6 21 -15 7z"/>
<path d="M1847 2421 c-3 -12 -15 -25 -26 -28 -12 -3 -29 -21 -37 -40 -9 -18
-30 -41 -45 -49 -32 -16 -39 -43 -11 -45 9 -1 34 -3 54 -5 27 -2 41 2 50 15 7
10 18 19 23 20 13 1 18 100 7 131 l-9 24 -6 -23z"/>
<path d="M1682 2400 c0 -14 2 -19 5 -12 2 6 2 18 0 25 -3 6 -5 1 -5 -13z"/>
<path d="M1503 2394 c-4 -10 -7 -39 -8 -64 0 -43 1 -45 27 -45 19 1 30 -5 34
-18 4 -13 12 -17 25 -14 10 3 21 1 24 -3 6 -10 55 12 55 25 -1 6 -15 19 -32
30 -17 11 -39 35 -47 52 -9 18 -23 33 -31 33 -9 0 -21 5 -28 12 -9 9 -13 7
-19 -8z"/>
<path d="M1540 2215 c-61 -19 -70 -35 -70 -124 0 -42 -6 -116 -12 -166 -6 -49
-12 -119 -13 -155 -1 -36 -7 -82 -12 -102 -21 -70 14 -148 66 -148 46 0 100
20 119 45 17 22 19 42 18 249 -1 159 -5 229 -13 237 -9 9 -8 19 4 42 18 35 13
115 -8 128 -18 11 -25 11 -79 -6z"/>
<path d="M1765 2214 c-13 -14 -16 -28 -11 -73 3 -31 6 -65 6 -76 -8 -400 -7
-475 9 -475 9 -1 33 -16 55 -35 l38 -34 -32 -41 c-25 -32 -38 -40 -64 -40 -17
0 -42 7 -54 16 -23 16 -31 7 -11 -13 12 -12 4 -33 -11 -33 -5 0 -7 20 -5 45 2
25 0 43 -5 40 -5 -3 -11 -1 -15 5 -4 6 -12 5 -21 -5 -9 -8 -20 -13 -25 -10 -5
4 -9 1 -9 -5 0 -6 -5 -8 -11 -4 -9 5 -10 -3 -5 -29 5 -26 2 -44 -10 -61 -9
-14 -14 -31 -11 -38 3 -11 -109 -95 -132 -99 -3 -1 -19 -2 -36 -4 -16 -1 -30
-3 -30 -5 0 -1 -26 -4 -58 -6 -36 -3 -56 -1 -52 5 3 6 45 33 93 62 48 29 89
54 91 55 5 5 -48 134 -70 170 -19 31 -66 55 -136 69 -17 3 -34 13 -37 21 -3 8
-12 14 -21 14 -32 0 -13 29 40 59 43 24 55 36 55 55 0 14 5 28 10 31 15 9 12
48 -6 83 -11 24 -26 34 -57 43 -59 16 -153 6 -212 -22 l-50 -24 0 -57 c1 -73
25 -109 84 -122 44 -9 48 -17 29 -58 -9 -19 -25 -30 -55 -37 -79 -20 -285
-172 -345 -255 -44 -62 -41 -77 56 -223 29 -45 47 -63 63 -63 19 0 21 -5 21
-45 -2 -114 128 -173 214 -96 39 34 51 115 24 156 -35 54 -117 81 -165 55 -15
-7 -22 -2 -39 29 l-21 37 57 -12 c31 -7 84 -20 117 -28 33 -9 74 -18 90 -20
17 -3 66 -14 110 -25 44 -12 88 -21 98 -21 21 0 22 -19 3 -64 -16 -39 -63 -77
-122 -101 -34 -13 -48 -27 -73 -75 -17 -32 -45 -70 -62 -84 -71 -60 -224 -72
-310 -25 -48 27 -111 104 -134 164 -12 31 -14 33 -10 10 11 -58 65 -153 110
-193 49 -43 100 -62 168 -62 l46 0 -33 -55 c-38 -63 -66 -162 -66 -234 0 -41
4 -53 23 -65 17 -12 123 -36 160 -36 4 0 7 -7 7 -15 0 -22 162 -22 180 0 9 11
32 15 80 15 48 0 71 -4 80 -15 13 -16 84 -20 153 -9 30 5 37 11 37 29 0 22 5
24 71 27 50 2 73 -1 76 -9 4 -10 111 -13 469 -12 403 0 465 2 479 15 20 21 19
36 -5 67 -38 47 -159 59 -218 20 -22 -14 -26 -13 -48 8 l-24 23 20 21 c11 11
23 36 26 54 l7 34 -36 -7 c-78 -15 -103 43 -47 107 29 33 31 51 6 41 -7 -3
-24 0 -39 5 -17 7 -28 7 -32 1 -4 -6 -11 -10 -16 -10 -6 0 -8 4 -4 9 3 6 -6 7
-23 2 -16 -5 -36 -5 -45 1 -11 5 -17 5 -17 0 0 -6 -14 -7 -34 -2 -25 5 -41 3
-55 -7 -12 -8 -21 -10 -21 -4 0 6 -13 11 -30 11 -23 0 -33 -7 -46 -32 -25 -49
-29 -136 -7 -178 16 -30 30 -41 101 -77 2 -1 -2 -11 -8 -23 l-12 -22 -15 21
c-18 27 -77 57 -128 65 -51 9 -129 -14 -165 -49 -25 -24 -27 -25 -43 -8 -13
15 -15 31 -8 97 8 89 0 101 -50 72 -16 -9 -34 -14 -41 -10 -6 4 -22 7 -36 8
-14 1 -27 7 -30 14 -3 9 21 12 97 12 l101 0 -7 33 c-3 17 -10 37 -14 43 -10
12 13 279 32 376 9 44 14 56 19 42 8 -20 41 -198 60 -322 l12 -73 30 48 c17
26 41 61 54 76 33 39 32 96 -1 135 -28 34 -19 52 27 52 23 0 28 4 28 24 0 13
3 44 6 70 6 38 4 46 -9 46 -27 0 -31 39 -7 72 22 29 22 36 15 157 -4 69 -8
128 -10 130 -3 2 -22 -4 -45 -13 -22 -9 -73 -18 -113 -20 -39 -3 -61 -3 -47 0
14 2 35 7 47 9 12 3 31 20 42 38 14 23 33 38 60 45 55 17 65 34 64 106 -2 124
-10 233 -19 247 -5 8 -11 84 -14 169 l-5 155 -35 17 c-58 27 -95 31 -115 12z
m-615 -454 c0 -5 -2 -10 -4 -10 -3 0 -8 5 -11 10 -3 6 -1 10 4 10 6 0 11 -4
11 -10z m-215 -476 c-7 -64 -6 -65 14 -55 11 6 23 16 26 21 14 22 86 50 130
50 55 0 115 -23 115 -44 0 -18 -15 -21 -25 -6 -3 5 -22 14 -42 19 -54 15 -119
-3 -165 -45 -37 -33 -42 -35 -105 -32 -84 4 -101 27 -21 30 l53 1 -60 6 c-38
4 -60 11 -60 18 0 12 121 101 139 102 4 1 5 -29 1 -65z m475 -213 c16 -33 45
-71 64 -86 l34 -26 7 -175 c5 -125 4 -179 -4 -187 -6 -6 -11 -20 -11 -31 -1
-21 -1 -21 -12 -1 -12 19 -12 19 -19 -5 -4 -14 -7 -62 -8 -107 -1 -73 -3 -84
-23 -97 -12 -9 -37 -16 -55 -16 -43 0 -46 7 -78 205 -15 88 -29 163 -31 167
-3 5 -20 8 -38 8 l-33 0 -7 -61 c-3 -34 -6 -118 -6 -186 0 -122 0 -124 -24
-133 -38 -14 -96 -1 -106 24 -5 12 -16 83 -26 160 l-17 138 32 25 c17 14 45
50 61 82 45 89 48 91 120 97 36 3 85 15 110 27 l45 22 -2 85 c-2 47 -5 95 -8
108 -9 38 3 25 35 -37z"/>
<path d="M3025 1981 c-76 -19 -133 -70 -155 -138 -7 -21 -17 -43 -22 -50 -5
-6 -8 -24 -6 -40 2 -23 14 -33 65 -58 l62 -30 -2 -75 c-2 -70 -4 -76 -35 -105
-32 -29 -33 -31 -18 -60 8 -16 18 -42 21 -58 7 -25 4 -29 -34 -45 -41 -17 -42
-19 -75 -122 -19 -58 -39 -123 -45 -145 -6 -22 -20 -55 -31 -73 -21 -34 -21
-34 -47 -17 -25 17 -27 17 -40 -1 -32 -44 -15 -107 90 -325 50 -102 79 -173
73 -179 -5 -5 -1 -25 12 -50 l20 -42 -31 -12 c-18 -7 -53 -21 -79 -30 -94 -35
-48 -57 120 -59 98 0 135 3 159 15 25 13 33 13 37 3 11 -29 111 -37 354 -30
130 4 247 11 259 16 12 4 26 23 33 44 11 32 9 42 -14 89 -25 52 -127 167 -175
199 l-24 16 26 31 c27 31 47 87 47 128 0 13 -3 22 -7 20 -113 -57 -129 -62
-210 -63 -45 0 -84 3 -87 6 -3 3 -7 21 -8 40 -3 32 -1 34 32 36 79 6 136 14
148 22 10 6 9 16 -3 50 -18 51 -19 65 -5 56 16 -10 11 1 -7 16 -14 12 -16 12
-8 0 5 -10 4 -12 -4 -7 -6 4 -9 12 -6 17 4 5 3 15 -2 22 -4 6 -8 14 -9 17 -10
58 -18 87 -26 97 -6 7 -8 19 -5 28 4 8 -1 18 -10 23 -12 7 -13 11 -3 17 9 6 6
11 -11 21 -21 11 -22 13 -7 19 15 6 16 9 3 22 -17 17 -20 33 -5 33 19 0 10 28
-10 33 -18 5 -25 27 -21 64 1 6 -4 15 -10 19 -8 5 -9 3 -4 -6 5 -8 4 -11 -3
-6 -6 3 -9 16 -7 27 2 11 -2 22 -10 26 -8 3 -12 9 -9 14 3 5 11 6 17 3 7 -4 2
3 -11 15 -18 18 -21 26 -11 37 9 11 8 14 -4 14 -9 0 -19 5 -23 12 -4 6 -3 8 4
4 6 -3 13 -2 17 4 3 5 -1 10 -9 10 -24 0 -19 16 5 17 12 1 23 4 26 7 8 7 -26
64 -47 79 -18 12 -21 27 -23 103 -2 84 -1 90 21 99 29 13 28 18 -15 66 -56 62
-116 85 -178 70z m15 -794 c0 -43 12 -71 46 -108 20 -20 25 -39 28 -90 2 -35
11 -81 19 -102 20 -47 9 -49 -73 -7 -33 17 -60 28 -60 25 0 -3 -15 2 -32 12
l-33 18 33 3 c25 3 32 8 32 25 0 12 3 32 6 45 6 20 3 22 -39 22 -62 0 -109 11
-105 24 2 6 17 34 33 63 26 45 33 51 54 46 23 -6 24 -5 19 49 l-4 54 38 -20
c34 -19 38 -25 38 -59z m-64 -561 c3 -8 4 -25 2 -38 -2 -19 -5 -17 -15 15 -10
35 1 55 13 23z m278 -79 c1 -1 -33 -35 -75 -75 l-76 -73 3 46 c2 25 8 63 14
84 l10 38 62 -9 c34 -4 62 -9 62 -11z m-184 -197 c-6 -11 -13 -20 -15 -20 -3
0 -5 9 -5 20 0 11 7 20 15 20 13 0 14 -4 5 -20z"/>
<path d="M2459 1819 c-14 -28 -17 -45 -11 -51 7 -7 17 3 31 30 23 45 26 62 11
62 -5 0 -19 -19 -31 -41z"/>
<path d="M2355 1620 c-17 -33 -17 -33 -78 -27 -56 5 -64 3 -79 -17 -16 -23
-16 -24 27 -66 l44 -43 -20 -38 c-34 -69 -18 -84 19 -18 16 27 28 39 38 35 15
-6 64 35 64 53 0 5 5 11 11 13 6 2 3 13 -9 28 l-20 25 20 33 c14 23 17 37 10
44 -7 7 -15 0 -27 -22z"/>
<path d="M1460 1427 c0 -54 11 -60 55 -30 27 18 35 28 25 31 -8 3 -30 11 -47
18 l-33 13 0 -32z"/>
<path d="M3415 1100 c-3 -5 -5 -10 -3 -11 36 -8 48 -7 48 6 0 17 -35 21 -45 5z"/>
<path d="M705 950 c-8 -12 64 -131 82 -138 28 -9 22 29 -14 87 -37 59 -55 72
-68 51z"/>
</g>
</svg>
