<?xml version="1.0" standalone="no"?>
<!DOCTYPE svg PUBLIC "-//W3C//DTD SVG 20010904//EN"
 "http://www.w3.org/TR/2001/REC-SVG-20010904/DTD/svg10.dtd">
<svg version="1.0" xmlns="http://www.w3.org/2000/svg"
 width="414.000000pt" height="309.000000pt" viewBox="0 0 414.000000 309.000000"
 preserveAspectRatio="xMidYMid meet">
<metadata>
Created by potrace 1.16, written by Peter Selinger 2001-2019
</metadata>
<g transform="translate(0.000000,309.000000) scale(0.100000,-0.100000)"
fill="#000000" stroke="none">
<path d="M1686 2728 c5 -8 -95 -58 -119 -58 -10 0 -16 -4 -13 -9 3 -5 0 -11
-8 -14 -24 -9 -49 -147 -26 -147 5 0 15 -18 21 -40 16 -52 27 -51 31 3 3 41 4
42 36 39 23 -2 34 2 39 13 5 14 15 16 61 10 79 -10 81 -11 89 -68 4 -29 9 -43
11 -32 3 11 9 31 14 44 8 23 9 23 23 5 13 -18 14 -18 21 10 5 20 1 41 -13 70
-15 32 -18 47 -11 69 23 66 -29 119 -113 115 -26 -2 -45 -6 -43 -10z"/>
<path d="M1847 2419 c-3 -11 -15 -23 -26 -26 -12 -3 -29 -21 -37 -40 -9 -18
-30 -41 -45 -49 -32 -16 -39 -44 -11 -44 10 0 22 -3 25 -6 16 -16 69 -11 80 7
7 11 17 19 24 19 19 0 26 43 18 105 -7 57 -19 71 -28 34z"/>
<path d="M1491 2366 c-15 -67 -3 -101 34 -94 17 4 25 0 28 -13 4 -14 12 -18
34 -15 78 10 91 29 41 61 -17 11 -39 35 -47 52 -9 18 -22 33 -30 33 -8 0 -22
7 -31 15 -15 14 -18 11 -29 -39z"/>
<path d="M1514 2216 c-18 -8 -35 -19 -38 -25 -4 -6 -9 -75 -11 -153 -1 -79 -9
-165 -15 -191 -7 -26 -10 -65 -7 -87 3 -22 -1 -60 -8 -84 -23 -77 9 -156 64
-156 46 0 100 20 119 45 17 22 19 42 18 248 -1 154 -5 229 -13 238 -9 11 -8
20 2 39 17 30 19 79 5 114 -8 22 -16 26 -47 26 -21 -1 -52 -7 -69 -14z"/>
<path d="M1759 2209 c-6 -13 -8 -42 -5 -73 3 -28 6 -60 6 -71 -1 -11 -2 -122
-4 -247 -3 -205 -2 -228 13 -228 9 -1 33 -16 55 -35 l38 -34 -32 -41 c-25 -32
-38 -40 -64 -40 -17 0 -42 7 -54 16 -23 16 -31 7 -11 -13 12 -12 4 -33 -11
-33 -5 0 -7 20 -5 45 2 25 0 43 -5 40 -5 -3 -11 -1 -15 5 -4 6 -12 5 -21 -5
-9 -8 -20 -13 -25 -10 -5 4 -9 1 -9 -5 0 -6 -5 -8 -11 -4 -9 5 -10 -3 -5 -29
5 -26 2 -44 -10 -61 -9 -14 -14 -31 -11 -38 3 -11 -109 -95 -132 -99 -3 -1
-19 -2 -36 -4 -16 -1 -30 -3 -30 -5 0 -1 -27 -4 -59 -6 -74 -6 -68 3 48 71 57
33 86 56 86 68 0 10 -17 54 -37 99 -35 76 -40 82 -88 104 -27 13 -65 24 -82
24 -23 0 -33 5 -33 15 0 8 -9 15 -20 15 -34 0 -22 24 20 43 22 9 40 21 40 27
0 5 6 10 14 10 8 0 21 22 31 54 32 101 -9 141 -145 141 -82 0 -183 -33 -195
-63 -9 -24 6 -104 25 -132 11 -15 37 -31 64 -39 26 -7 46 -19 46 -27 0 -8 -4
-14 -9 -14 -5 0 -11 -8 -13 -18 -4 -13 -18 -21 -42 -25 -38 -6 -179 -93 -260
-160 -66 -55 -126 -133 -126 -163 0 -21 22 -67 40 -84 3 -3 25 -35 50 -72 32
-49 51 -68 67 -68 19 0 21 -5 21 -45 -2 -114 128 -173 214 -96 39 34 51 115
24 156 -35 54 -117 81 -165 55 -15 -7 -22 -2 -39 29 l-21 37 57 -12 c31 -7 84
-20 117 -28 33 -9 74 -18 90 -20 17 -3 66 -14 110 -25 44 -12 88 -21 98 -21
21 0 22 -19 3 -64 -16 -39 -63 -77 -122 -101 -34 -13 -48 -27 -73 -75 -17 -32
-45 -70 -62 -84 -71 -60 -224 -72 -310 -25 -48 27 -111 104 -134 164 -12 31
-14 33 -10 10 11 -58 65 -153 110 -193 43 -38 99 -62 146 -62 48 0 51 -12 19
-75 -35 -73 -65 -201 -55 -244 8 -39 45 -59 124 -67 48 -6 60 -10 65 -27 5
-19 10 -20 98 -13 51 4 95 11 96 16 5 13 135 13 148 0 7 -7 49 -10 105 -8 l94
3 0 28 c-1 27 0 27 63 27 41 0 68 -5 77 -14 12 -12 92 -14 467 -14 249 0 463
4 476 9 19 8 23 15 20 46 -2 30 -10 42 -38 61 -31 21 -43 23 -102 19 -40 -2
-78 -11 -94 -21 -25 -17 -27 -17 -50 5 l-24 23 20 21 c11 11 23 36 26 54 l7
34 -36 -7 c-78 -15 -103 43 -47 107 29 33 31 51 6 41 -7 -3 -24 0 -39 5 -17 7
-28 7 -32 1 -4 -6 -11 -10 -16 -10 -6 0 -8 4 -4 9 3 6 -6 7 -23 2 -16 -5 -36
-5 -45 1 -11 5 -17 5 -17 0 0 -6 -14 -7 -34 -2 -25 5 -41 3 -55 -7 -12 -8 -21
-10 -21 -4 0 6 -13 11 -30 11 -23 0 -33 -7 -46 -32 -25 -49 -29 -136 -7 -178
16 -30 30 -41 101 -77 2 -1 -2 -11 -8 -23 l-12 -22 -15 21 c-19 28 -77 57
-130 66 -63 10 -120 -3 -158 -36 -48 -42 -59 -24 -50 81 7 77 6 80 -14 80 -12
0 -33 -7 -46 -16 -13 -9 -29 -12 -36 -8 -7 4 -23 7 -37 8 -14 1 -27 7 -30 14
-3 9 22 12 102 12 l106 0 -7 33 c-3 17 -10 38 -16 45 -11 13 6 231 27 357 l12
70 22 -120 c12 -66 27 -157 34 -202 7 -46 15 -83 18 -83 4 0 11 10 17 22 6 13
29 48 52 78 50 66 55 112 16 158 -28 34 -21 48 30 54 24 2 30 8 32 28 1 14 5
46 8 72 7 44 6 46 -13 41 -14 -3 -22 1 -27 17 -8 24 20 74 36 64 10 -6 5 174
-7 253 l-5 32 -43 -19 c-24 -11 -76 -22 -117 -24 -41 -3 -63 -3 -49 0 14 2 35
7 46 9 12 3 31 19 42 37 13 20 36 37 64 48 69 25 95 99 63 177 -9 22 -13 49
-9 66 3 15 -2 63 -11 105 -13 58 -16 106 -13 192 3 63 3 121 0 128 -6 20 -78
52 -116 52 -26 0 -38 -6 -47 -21z m-294 -1225 c32 -24 34 -29 39 -107 14 -202
13 -263 -1 -283 -11 -15 -16 -16 -22 -6 -10 17 -21 -58 -21 -149 0 -59 -3 -70
-22 -83 -31 -22 -85 -21 -96 2 -5 9 -22 95 -37 190 l-28 172 -37 0 -37 0 -7
-61 c-3 -34 -6 -118 -6 -186 0 -122 0 -124 -24 -133 -38 -14 -96 -1 -106 24
-5 12 -16 83 -26 160 l-17 138 32 25 c17 14 45 50 61 82 45 89 48 91 120 97
36 3 85 15 110 27 l45 22 -1 97 -1 97 24 -50 c14 -27 40 -61 58 -75z"/>
<path d="M2970 1968 c-55 -28 -99 -85 -124 -162 -25 -72 -19 -82 63 -116 l63
-25 -7 -70 c-6 -62 -10 -74 -41 -106 -29 -30 -33 -38 -21 -47 8 -7 19 -31 26
-54 12 -38 11 -43 -6 -55 -10 -8 -28 -16 -41 -20 -19 -4 -28 -26 -63 -137 -68
-219 -80 -239 -121 -206 -31 24 -46 12 -55 -43 -8 -49 16 -115 108 -299 43
-86 75 -160 70 -163 -11 -6 2 -60 19 -80 9 -10 6 -15 -12 -20 -91 -29 -128
-48 -128 -66 0 -32 44 -41 191 -37 96 2 141 7 152 17 10 7 17 9 17 3 0 -24 70
-32 289 -31 243 1 334 8 354 28 6 6 12 36 12 64 0 46 -5 60 -47 118 -44 61
-119 139 -136 139 -4 0 -13 4 -21 9 -12 8 -10 15 12 40 28 34 47 88 47 135 0
27 -1 28 -18 13 -42 -38 -115 -61 -199 -61 -45 -1 -84 2 -87 5 -3 3 -7 21 -8
40 -3 32 -1 34 32 36 79 6 136 14 148 22 10 6 9 16 -3 50 -18 51 -19 65 -5 56
16 -10 11 1 -7 16 -14 12 -16 12 -8 0 5 -10 4 -12 -4 -7 -6 4 -9 12 -6 17 4 5
3 15 -2 22 -4 6 -8 14 -9 17 -10 58 -18 87 -26 97 -5 7 -6 18 -2 24 4 7 0 17
-10 25 -13 9 -14 14 -5 19 8 6 4 12 -12 21 -21 11 -22 13 -7 19 15 6 16 9 3
22 -17 17 -20 33 -5 33 19 0 10 28 -10 33 -18 5 -25 27 -21 64 1 6 -4 15 -10
19 -8 5 -9 3 -4 -6 5 -8 4 -11 -3 -7 -5 4 -8 16 -5 27 3 12 -1 22 -11 26 -9 3
-13 10 -10 15 3 5 11 6 17 3 7 -4 2 3 -11 15 -18 18 -21 26 -11 37 9 11 8 14
-4 14 -9 0 -19 5 -23 12 -4 6 -3 8 4 4 6 -3 13 -2 17 4 3 5 -1 10 -9 10 -9 0
-16 5 -16 10 0 6 3 9 8 9 51 -8 56 29 10 74 -23 23 -33 42 -34 67 -1 19 -5 54
-9 77 -7 40 -6 43 24 60 17 10 31 21 31 26 0 14 -83 98 -111 113 -42 21 -118
18 -169 -8z m70 -781 c0 -43 12 -71 46 -108 20 -20 25 -39 28 -90 2 -35 11
-81 19 -102 21 -48 13 -48 -94 3 -50 23 -75 40 -61 40 17 0 22 6 22 28 0 15 3
37 6 49 6 20 2 22 -54 29 -85 9 -88 13 -55 69 33 56 46 61 54 20 4 -24 7 -17
13 36 5 37 5 76 2 87 -7 21 -7 21 33 -1 37 -20 41 -26 41 -60z"/>
<path d="M2350 1624 c-13 -23 -19 -25 -68 -22 -45 3 -57 -1 -81 -22 l-28 -25
45 -47 45 -46 -23 -36 c-21 -35 -22 -66 -1 -66 6 0 20 18 32 41 15 30 25 40
38 36 21 -5 40 8 69 49 22 31 22 32 3 55 -19 23 -19 25 0 60 16 33 17 38 3 43
-21 8 -19 9 -34 -20z"/>
</g>
</svg>
