<?xml version="1.0" encoding="UTF-8"?>
<!DOCTYPE svg PUBLIC "-//W3C//DTD SVG 1.1//EN" "http://www.w3.org/Graphics/SVG/1.1/DTD/svg11.dtd">
<svg xmlns="http://www.w3.org/2000/svg" version="1.1" width="540px" height="330px" style="shape-rendering:geometricPrecision; text-rendering:geometricPrecision; image-rendering:optimizeQuality; fill-rule:evenodd; clip-rule:evenodd" xmlns:xlink="http://www.w3.org/1999/xlink">
<g><path style="opacity:1" fill="#fa4da1" d="M 208.5,36.5 C 209.028,37.7206 209.695,38.8873 210.5,40C 209.892,40.8699 209.059,41.3699 208,41.5C 206.491,39.7935 204.991,38.1268 203.5,36.5C 202.847,35.1932 202.18,33.8599 201.5,32.5C 202.833,31.5 204.167,30.5 205.5,29.5C 206.783,31.7301 207.783,34.0634 208.5,36.5 Z"/></g>
<g><path style="opacity:1" fill="#f7d6b0" d="M 357.5,102.5 C 357.5,103.167 357.5,103.833 357.5,104.5C 343.163,104.333 328.829,104.5 314.5,105C 311.814,107.546 310.814,110.713 311.5,114.5C 311.99,134.176 312.657,153.843 313.5,173.5C 311.204,172.267 309.87,170.267 309.5,167.5C 308.658,161.603 307.324,155.936 305.5,150.5C 305.5,150.167 305.5,149.833 305.5,149.5C 304.909,146.386 303.242,143.886 300.5,142C 296.929,139.579 293.262,137.413 289.5,135.5C 289.158,134.662 288.492,134.328 287.5,134.5C 282.575,132.368 277.908,129.702 273.5,126.5C 273.912,124.027 272.912,122.694 270.5,122.5C 270.5,122.167 270.5,121.833 270.5,121.5C 273.279,121.721 275.946,121.388 278.5,120.5C 284.699,114.609 288.033,107.275 288.5,98.5C 288.97,94.095 287.97,90.095 285.5,86.5C 286.354,84.965 286.354,83.6316 285.5,82.5C 286.369,80.283 286.702,77.9496 286.5,75.5C 288.534,71.0711 290.201,66.4044 291.5,61.5C 288.725,57.3356 286.725,52.8356 285.5,48C 281.552,47.2549 277.885,47.7549 274.5,49.5C 273.624,49.6309 272.957,49.2975 272.5,48.5C 273.645,47.109 273.645,45.7757 272.5,44.5C 268.63,46.6329 264.63,48.4662 260.5,50C 259.29,51.0391 258.29,52.2058 257.5,53.5C 255.809,54.8637 254.142,56.197 252.5,57.5C 249.657,58.1717 247.157,59.505 245,61.5C 245.582,67.1123 246.082,72.779 246.5,78.5C 242.836,75.4673 239.836,75.9673 237.5,80C 237.57,80.7648 237.903,81.2648 238.5,81.5C 238.5,82.5 238.5,83.5 238.5,84.5C 238.865,87.6249 239.698,90.6249 241,93.5C 242.356,94.3802 243.856,94.7135 245.5,94.5C 245.5,96.8333 245.5,99.1667 245.5,101.5C 244.566,102.568 244.232,103.901 244.5,105.5C 243.447,108.608 242.114,111.608 240.5,114.5C 238.318,115.3 236.651,116.8 235.5,119C 227.988,122.401 220.655,125.901 213.5,129.5C 209.211,130.392 205.044,131.725 201,133.5C 199.97,133.836 199.47,134.503 199.5,135.5C 196.84,138.113 195.507,141.446 195.5,145.5C 192.669,146.998 191.002,149.331 190.5,152.5C 188.883,153.038 187.216,153.371 185.5,153.5C 185.5,150.5 185.5,147.5 185.5,144.5C 185.672,143.508 185.338,142.842 184.5,142.5C 184.557,141.391 184.89,140.391 185.5,139.5C 188.568,135.765 191.235,131.765 193.5,127.5C 191.999,123.165 189.999,119.165 187.5,115.5C 187.5,108.833 187.5,102.167 187.5,95.5C 190.833,95.5 194.167,95.5 197.5,95.5C 197.812,88.5778 197.479,81.7445 196.5,75C 188.472,74.3017 180.472,74.4683 172.5,75.5C 172.5,82.1667 172.5,88.8333 172.5,95.5C 175.5,95.5 178.5,95.5 181.5,95.5C 182.174,103.151 182.508,110.818 182.5,118.5C 182.167,119.167 181.833,119.833 181.5,120.5C 179.599,118.994 177.932,117.327 176.5,115.5C 175.054,114.387 173.387,114.22 171.5,115C 167.139,118.644 163.805,122.644 161.5,127C 162.714,129.674 164.048,132.174 165.5,134.5C 165.5,134.833 165.5,135.167 165.5,135.5C 164.137,141.084 166.137,144.751 171.5,146.5C 171.5,147.5 171.5,148.5 171.5,149.5C 168.094,149.994 167.094,151.661 168.5,154.5C 169.234,155.708 169.567,157.041 169.5,158.5C 167.516,158.484 166.516,159.484 166.5,161.5C 166.804,163.441 167.637,165.107 169,166.5C 169.49,175.18 170.156,183.847 171,192.5C 172.823,199.648 176.323,205.814 181.5,211C 183.167,211.667 184.833,211.667 186.5,211C 192.292,207.375 197.292,202.875 201.5,197.5C 205.662,191.182 209.329,184.515 212.5,177.5C 213.257,176.227 213.923,176.227 214.5,177.5C 215.162,181.466 215.495,185.466 215.5,189.5C 216.775,196.802 217.942,204.136 219,211.5C 219.233,213.78 220.066,215.78 221.5,217.5C 219.066,219.921 217.066,222.588 215.5,225.5C 197.167,225.5 178.833,225.5 160.5,225.5C 160.5,221.5 160.5,217.5 160.5,213.5C 160.5,209.833 160.5,206.167 160.5,202.5C 166.034,199.682 166.867,195.682 163,190.5C 161.846,189.257 160.512,188.257 159,187.5C 156.575,182.022 154.075,176.688 151.5,171.5C 150.035,170.594 149.035,169.261 148.5,167.5C 149.794,163.103 150.294,158.437 150,153.5C 147.703,150.02 144.536,148.02 140.5,147.5C 140.604,149.703 141.27,151.703 142.5,153.5C 142.084,158.187 139.751,159.521 135.5,157.5C 134.509,155.518 133.509,153.518 132.5,151.5C 127.237,160.001 129.571,165.667 139.5,168.5C 143.18,175.86 146.847,183.193 150.5,190.5C 150.5,191.5 150.5,192.5 150.5,193.5C 139.833,193.5 129.167,193.5 118.5,193.5C 118.5,192.5 118.5,191.5 118.5,190.5C 113.104,166.618 114.104,142.952 121.5,119.5C 124.145,113.254 126.811,106.921 129.5,100.5C 131.153,97.8695 132.819,95.2028 134.5,92.5C 151.145,67.3054 173.812,49.472 202.5,39C 203.252,38.3292 203.586,37.4959 203.5,36.5C 204.991,38.1268 206.491,39.7935 208,41.5C 209.059,41.3699 209.892,40.8699 210.5,40C 209.695,38.8873 209.028,37.7206 208.5,36.5C 264.827,24.2164 310.994,40.2164 347,84.5C 351.154,90.1454 354.654,96.1454 357.5,102.5 Z"/></g>
<g><path style="opacity:1" fill="#41b1db" d="M 350.5,69.5 C 361.705,69.1586 372.705,68.1586 383.5,66.5C 383.665,63.4816 383.498,60.4816 383,57.5C 382.51,58.7932 382.343,60.1266 382.5,61.5C 381.5,61.5 380.5,61.5 379.5,61.5C 379.664,58.8127 379.497,56.146 379,53.5C 378.817,56.3647 378.317,59.0314 377.5,61.5C 377.223,56.7668 377.557,52.1001 378.5,47.5C 376.5,46.1667 374.5,46.1667 372.5,47.5C 373.325,48.3857 374.325,48.719 375.5,48.5C 375.5,52.8333 375.5,57.1667 375.5,61.5C 374.71,60.3915 374.21,59.0581 374,57.5C 373.125,59.5127 371.791,59.5127 370,57.5C 369.026,59.8776 368.359,59.5443 368,56.5C 367.692,57.3081 367.192,57.9747 366.5,58.5C 364.664,57.2038 362.664,56.3704 360.5,56C 359.565,53.6194 359.232,51.1194 359.5,48.5C 360.833,47.8333 360.833,47.1667 359.5,46.5C 358.167,46.5 356.833,46.5 355.5,46.5C 356.074,52.4836 356.407,58.4836 356.5,64.5C 355.422,59.0142 354.589,53.3476 354,47.5C 352.808,49.6502 351.308,50.3168 349.5,49.5C 349.59,46.8478 348.924,44.5145 347.5,42.5C 347.611,41.8826 347.944,41.3826 348.5,41C 360.829,40.5001 373.162,40.3335 385.5,40.5C 385.291,50.172 384.958,59.8386 384.5,69.5C 373.167,69.5 361.833,69.5 350.5,69.5 Z M 359.5,46.5 C 357.621,51.8701 356.955,57.5368 357.5,63.5C 361.172,64.0447 360.838,64.3781 356.5,64.5C 356.407,58.4836 356.074,52.4836 355.5,46.5C 356.833,46.5 358.167,46.5 359.5,46.5 Z"/></g>
<g><path style="opacity:1" fill="#eaf5fb" d="M 377.5,61.5 C 377.5,62.8333 377.5,64.1667 377.5,65.5C 375.833,65.5 374.167,65.5 372.5,65.5C 372.5,64.5 372.5,63.5 372.5,62.5C 373.791,62.7373 374.791,62.404 375.5,61.5C 375.5,57.1667 375.5,52.8333 375.5,48.5C 374.325,48.719 373.325,48.3857 372.5,47.5C 374.5,46.1667 376.5,46.1667 378.5,47.5C 377.557,52.1001 377.223,56.7668 377.5,61.5 Z"/></g>
<g><path style="opacity:1" fill="#0c314a" d="M 274.5,49.5 C 276.924,49.1924 279.257,49.5258 281.5,50.5C 282.668,54.8456 283.834,59.1789 285,63.5C 286.527,61.779 287.527,59.779 288,57.5C 288.49,58.7932 288.657,60.1266 288.5,61.5C 289.5,61.5 290.5,61.5 291.5,61.5C 290.201,66.4044 288.534,71.0711 286.5,75.5C 285.045,75.0698 283.712,75.0698 282.5,75.5C 283.871,73.1433 285.205,70.81 286.5,68.5C 286.455,65.8105 285.121,64.4772 282.5,64.5C 282.489,62.9826 281.823,61.8159 280.5,61C 276.975,60.8213 273.641,60.3213 270.5,59.5C 272.199,59.6602 273.866,59.4935 275.5,59C 272.289,57.8468 268.956,57.1802 265.5,57C 267.74,56.023 270.073,55.523 272.5,55.5C 272.5,53.8333 272.5,52.1667 272.5,50.5C 267.249,50.674 262.249,51.674 257.5,53.5C 258.29,52.2058 259.29,51.0391 260.5,50C 264.63,48.4662 268.63,46.6329 272.5,44.5C 273.645,45.7757 273.645,47.109 272.5,48.5C 272.957,49.2975 273.624,49.6309 274.5,49.5 Z"/></g>
<g><path style="opacity:0.984" fill="#c1aed3" d="M 398.5,47.5 C 400.028,47.5173 400.528,48.184 400,49.5C 397.688,52.9795 394.854,55.9795 391.5,58.5C 390.479,57.9984 390.312,57.3317 391,56.5C 394.088,53.9186 396.588,50.9186 398.5,47.5 Z"/></g>
<g><path style="opacity:1" fill="#08819c" d="M 270.5,59.5 C 269.5,59.5 268.5,59.5 267.5,59.5C 266.737,58.7321 265.737,58.2321 264.5,58C 260.514,57.5012 256.514,57.3345 252.5,57.5C 254.142,56.197 255.809,54.8637 257.5,53.5C 262.249,51.674 267.249,50.674 272.5,50.5C 272.5,52.1667 272.5,53.8333 272.5,55.5C 270.073,55.523 267.74,56.023 265.5,57C 268.956,57.1802 272.289,57.8468 275.5,59C 273.866,59.4935 272.199,59.6602 270.5,59.5 Z"/></g>
<g><path style="opacity:1" fill="#125f7a" d="M 291.5,61.5 C 290.5,61.5 289.5,61.5 288.5,61.5C 288.657,60.1266 288.49,58.7932 288,57.5C 287.527,59.779 286.527,61.779 285,63.5C 283.834,59.1789 282.668,54.8456 281.5,50.5C 279.257,49.5258 276.924,49.1924 274.5,49.5C 277.885,47.7549 281.552,47.2549 285.5,48C 286.725,52.8356 288.725,57.3356 291.5,61.5 Z"/></g>
<g><path style="opacity:1" fill="#bb97a9" d="M 302.5,55.5 C 307.966,56.0931 313.3,57.2598 318.5,59C 317.696,60.7713 316.529,62.2713 315,63.5C 314.493,62.0039 314.993,60.8373 316.5,60C 312.623,58.6311 308.623,57.7978 304.5,57.5C 305.702,61.578 307.202,65.578 309,69.5C 309.811,68.0403 310.645,67.707 311.5,68.5C 310.833,69.8333 309.833,70.8333 308.5,71.5C 305.517,66.5524 303.517,61.219 302.5,55.5 Z"/></g>
<g><path style="opacity:0.463" fill="#9dc3e1" d="M 359.5,46.5 C 360.833,47.1667 360.833,47.8333 359.5,48.5C 358.514,52.97 358.181,57.6367 358.5,62.5C 359.5,62.5 360.5,62.5 361.5,62.5C 361.5,63.5 361.5,64.5 361.5,65.5C 359.585,65.7845 357.919,65.4511 356.5,64.5C 360.838,64.3781 361.172,64.0447 357.5,63.5C 356.955,57.5368 357.621,51.8701 359.5,46.5 Z"/></g>
<g><path style="opacity:1" fill="#1098cb" d="M 356.5,64.5 C 357.919,65.4511 359.585,65.7845 361.5,65.5C 361.5,64.5 361.5,63.5 361.5,62.5C 360.5,62.5 359.5,62.5 358.5,62.5C 358.181,57.6367 358.514,52.97 359.5,48.5C 359.232,51.1194 359.565,53.6194 360.5,56C 362.664,56.3704 364.664,57.2038 366.5,58.5C 367.192,57.9747 367.692,57.3081 368,56.5C 368.359,59.5443 369.026,59.8776 370,57.5C 371.791,59.5127 373.125,59.5127 374,57.5C 374.21,59.0581 374.71,60.3915 375.5,61.5C 374.791,62.404 373.791,62.7373 372.5,62.5C 372.5,63.5 372.5,64.5 372.5,65.5C 374.167,65.5 375.833,65.5 377.5,65.5C 377.5,64.1667 377.5,62.8333 377.5,61.5C 378.317,59.0314 378.817,56.3647 379,53.5C 379.497,56.146 379.664,58.8127 379.5,61.5C 380.5,61.5 381.5,61.5 382.5,61.5C 382.343,60.1266 382.51,58.7932 383,57.5C 383.498,60.4816 383.665,63.4816 383.5,66.5C 372.581,67.4766 361.581,67.8099 350.5,67.5C 349.835,61.523 349.502,55.523 349.5,49.5C 351.308,50.3168 352.808,49.6502 354,47.5C 354.589,53.3476 355.422,59.0142 356.5,64.5 Z"/></g>
<g><path style="opacity:1" fill="#f59691" d="M 282.5,64.5 C 285.121,64.4772 286.455,65.8105 286.5,68.5C 285.205,70.81 283.871,73.1433 282.5,75.5C 283.712,75.0698 285.045,75.0698 286.5,75.5C 286.702,77.9496 286.369,80.283 285.5,82.5C 283.708,82.366 282.042,82.6993 280.5,83.5C 280.66,81.8008 280.494,80.1341 280,78.5C 279.29,79.9733 278.124,80.6399 276.5,80.5C 276.784,78.5853 276.451,76.9187 275.5,75.5C 275.784,73.5853 275.451,71.9187 274.5,70.5C 275.141,69.5178 275.807,68.5178 276.5,67.5C 275.833,67.1667 275.167,66.8333 274.5,66.5C 270.957,67.969 267.291,68.969 263.5,69.5C 268.557,63.586 274.89,61.9194 282.5,64.5 Z"/></g>
<g><path style="opacity:1" fill="#4286c3" d="M 347.5,42.5 C 348.924,44.5145 349.59,46.8478 349.5,49.5C 349.502,55.523 349.835,61.523 350.5,67.5C 361.581,67.8099 372.581,67.4766 383.5,66.5C 372.705,68.1586 361.705,69.1586 350.5,69.5C 348.803,67.6948 347.97,65.3615 348,62.5C 347.5,55.8417 347.334,49.175 347.5,42.5 Z"/></g>
<g><path style="opacity:1" fill="#2d5165" d="M 274.5,70.5 C 269.838,71.0271 265.171,72.0271 260.5,73.5C 260.167,73.3333 259.833,73.1667 259.5,73C 260.731,71.5952 262.064,70.4286 263.5,69.5C 267.291,68.969 270.957,67.969 274.5,66.5C 275.167,66.8333 275.833,67.1667 276.5,67.5C 275.807,68.5178 275.141,69.5178 274.5,70.5 Z"/></g>
<g><path style="opacity:1" fill="#e87d83" d="M 267.5,59.5 C 268.5,59.5 269.5,59.5 270.5,59.5C 273.641,60.3213 276.975,60.8213 280.5,61C 281.823,61.8159 282.489,62.9826 282.5,64.5C 274.89,61.9194 268.557,63.586 263.5,69.5C 262.064,70.4286 260.731,71.5952 259.5,73C 259.833,73.1667 260.167,73.3333 260.5,73.5C 265.171,72.0271 269.838,71.0271 274.5,70.5C 275.451,71.9187 275.784,73.5853 275.5,75.5C 274.745,86.7838 269.412,89.4505 259.5,83.5C 258.354,84.1449 257.354,84.9783 256.5,86C 259.257,88.7636 260.257,91.9303 259.5,95.5C 257.736,93.7224 255.736,92.3891 253.5,91.5C 249.249,83.6522 249.916,76.1522 255.5,69C 253.885,65.7071 254.219,62.7071 256.5,60C 260.152,59.5014 263.818,59.3347 267.5,59.5 Z"/></g>
<g><path style="opacity:1" fill="#fd8c19" d="M 187.5,95.5 C 185.5,95.5 183.5,95.5 181.5,95.5C 178.5,95.5 175.5,95.5 172.5,95.5C 172.5,88.8333 172.5,82.1667 172.5,75.5C 180.472,74.4683 188.472,74.3017 196.5,75C 197.479,81.7445 197.812,88.5778 197.5,95.5C 194.167,95.5 190.833,95.5 187.5,95.5 Z"/></g>
<g><path style="opacity:1" fill="#f8a99e" d="M 275.5,75.5 C 276.451,76.9187 276.784,78.5853 276.5,80.5C 278.124,80.6399 279.29,79.9733 280,78.5C 280.494,80.1341 280.66,81.8008 280.5,83.5C 281.398,84.1577 282.398,84.8243 283.5,85.5C 282.544,87.6996 283.21,88.0329 285.5,86.5C 287.97,90.095 288.97,94.095 288.5,98.5C 287.85,98.8039 287.183,99.1373 286.5,99.5C 282.325,96.0914 277.492,94.7581 272,95.5C 267.65,95.3295 263.483,95.9962 259.5,97.5C 257.167,95.8333 255.167,93.8333 253.5,91.5C 255.736,92.3891 257.736,93.7224 259.5,95.5C 260.257,91.9303 259.257,88.7636 256.5,86C 257.354,84.9783 258.354,84.1449 259.5,83.5C 269.412,89.4505 274.745,86.7838 275.5,75.5 Z"/></g>
<g><path style="opacity:1" fill="#fef9f3" d="M 178.5,79.5 C 180.436,80.259 182.269,81.259 184,82.5C 185.7,81.0734 187.533,80.24 189.5,80C 189.957,80.414 190.291,80.914 190.5,81.5C 189.5,82.8333 188.5,84.1667 187.5,85.5C 188.313,86.8139 189.313,87.9805 190.5,89C 188.089,90.5892 185.922,90.0892 184,87.5C 182.29,88.9448 180.456,89.7782 178.5,90C 178.043,89.586 177.709,89.086 177.5,88.5C 178.737,87.7193 179.737,86.7193 180.5,85.5C 179.5,84.1667 178.5,82.8333 177.5,81.5C 177.863,80.8165 178.196,80.1499 178.5,79.5 Z"/></g>
<g><path style="opacity:1" fill="#514a84" d="M 267.5,84.5 C 267.5,83.5 267.5,82.5 267.5,81.5C 266.5,81.5 265.5,81.5 264.5,81.5C 264.611,80.8826 264.944,80.3826 265.5,80C 267.473,79.5045 269.473,79.3379 271.5,79.5C 271.643,81.2624 271.309,82.9291 270.5,84.5C 269.386,85.7759 268.386,85.7759 267.5,84.5 Z"/></g>
<g><path style="opacity:1" fill="#ececf2" d="M 264.5,81.5 C 265.5,81.5 266.5,81.5 267.5,81.5C 267.5,82.5 267.5,83.5 267.5,84.5C 265.319,84.7163 263.653,83.883 262.5,82C 263.094,81.5357 263.761,81.369 264.5,81.5 Z"/></g>
<g><path style="opacity:1" fill="#c1617f" d="M 238.5,84.5 C 238.5,83.5 238.5,82.5 238.5,81.5C 242.203,78.4698 244.869,79.4698 246.5,84.5C 245.5,85.8333 244.5,87.1667 243.5,88.5C 242.637,86.2287 242.637,83.8954 243.5,81.5C 242.5,81.5 241.5,81.5 240.5,81.5C 240.657,82.8734 240.49,84.2068 240,85.5C 239.617,84.944 239.117,84.6107 238.5,84.5 Z"/></g>
<g><path style="opacity:1" fill="#4b4578" d="M 285.5,82.5 C 286.354,83.6316 286.354,84.965 285.5,86.5C 283.21,88.0329 282.544,87.6996 283.5,85.5C 282.398,84.8243 281.398,84.1577 280.5,83.5C 282.042,82.6993 283.708,82.366 285.5,82.5 Z"/></g>
<g><path style="opacity:0.992" fill="#afaae5" d="M 440.5,91.5 C 440.985,86.8415 439.152,85.5081 435,87.5C 434.51,88.7932 434.343,90.1266 434.5,91.5C 432.783,85.6719 434.95,84.0052 441,86.5C 441.78,88.3869 441.613,90.0536 440.5,91.5 Z"/></g>
<g><path style="opacity:1" fill="#7789fb" d="M 440.5,91.5 C 438.5,94.1667 436.5,94.1667 434.5,91.5C 434.343,90.1266 434.51,88.7932 435,87.5C 439.152,85.5081 440.985,86.8415 440.5,91.5 Z"/></g>
<g><path style="opacity:1" fill="#0c293f" d="M 252.5,57.5 C 256.514,57.3345 260.514,57.5012 264.5,58C 265.737,58.2321 266.737,58.7321 267.5,59.5C 263.818,59.3347 260.152,59.5014 256.5,60C 254.219,62.7071 253.885,65.7071 255.5,69C 249.916,76.1522 249.249,83.6522 253.5,91.5C 255.167,93.8333 257.167,95.8333 259.5,97.5C 259.375,104.087 260.542,110.42 263,116.5C 267.414,117.303 271.914,117.803 276.5,118C 277.756,118.417 278.423,119.25 278.5,120.5C 275.946,121.388 273.279,121.721 270.5,121.5C 258.053,120.061 249.72,113.394 245.5,101.5C 245.5,99.1667 245.5,96.8333 245.5,94.5C 247.927,92.4924 248.927,89.8257 248.5,86.5C 248.615,83.5912 247.949,80.9246 246.5,78.5C 246.082,72.779 245.582,67.1123 245,61.5C 247.157,59.505 249.657,58.1717 252.5,57.5 Z"/></g>
<g><path style="opacity:1" fill="#d64c92" d="M 445.5,85.5 C 452.004,85.1377 453.671,87.6377 450.5,93C 444.785,93.401 443.119,90.901 445.5,85.5 Z"/></g>
<g><path style="opacity:0.067" fill="#ddc9db" d="M 134.5,92.5 C 133.833,91.1667 133.833,91.1667 134.5,92.5 Z"/></g>
<g><path style="opacity:1" fill="#fbafa0" d="M 246.5,78.5 C 247.949,80.9246 248.615,83.5912 248.5,86.5C 248.927,89.8257 247.927,92.4924 245.5,94.5C 243.856,94.7135 242.356,94.3802 241,93.5C 239.698,90.6249 238.865,87.6249 238.5,84.5C 239.117,84.6107 239.617,84.944 240,85.5C 240.49,84.2068 240.657,82.8734 240.5,81.5C 241.5,81.5 242.5,81.5 243.5,81.5C 242.637,83.8954 242.637,86.2287 243.5,88.5C 244.5,87.1667 245.5,85.8333 246.5,84.5C 244.869,79.4698 242.203,78.4698 238.5,81.5C 237.903,81.2648 237.57,80.7648 237.5,80C 239.836,75.9673 242.836,75.4673 246.5,78.5 Z"/></g>
<g><path style="opacity:1" fill="#4d33e1" d="M 331.5,91.5 C 332.5,91.5 333.5,91.5 334.5,91.5C 335.167,94.8332 333.833,96.8332 330.5,97.5C 327.77,94.9669 328.103,92.9669 331.5,91.5 Z"/></g>
<g><path style="opacity:1" fill="#144f67" d="M 288.5,98.5 C 288.033,107.275 284.699,114.609 278.5,120.5C 278.423,119.25 277.756,118.417 276.5,118C 271.914,117.803 267.414,117.303 263,116.5C 260.542,110.42 259.375,104.087 259.5,97.5C 263.483,95.9962 267.65,95.3295 272,95.5C 277.492,94.7581 282.325,96.0914 286.5,99.5C 287.183,99.1373 287.85,98.8039 288.5,98.5 Z"/></g>
<g><path style="opacity:0.067" fill="#ddc9db" d="M 129.5,100.5 C 128.833,99.1667 128.833,99.1667 129.5,100.5 Z"/></g>
<g><path style="opacity:1" fill="#f6b1a1" d="M 268.5,97.5 C 273.651,98.9393 278.984,99.9393 284.5,100.5C 285.871,103.656 285.538,106.656 283.5,109.5C 282.5,110.833 281.5,110.833 280.5,109.5C 279.902,108.205 279.402,106.872 279,105.5C 278.275,104.941 277.442,104.608 276.5,104.5C 274.215,105.614 272.048,106.947 270,108.5C 262.071,105.598 261.571,101.931 268.5,97.5 Z"/></g>
<g><path style="opacity:0.184" fill="#dbd0e2" d="M 357.5,102.5 C 372.118,103.467 386.785,103.8 401.5,103.5C 401.5,103.833 401.5,104.167 401.5,104.5C 386.833,104.5 372.167,104.5 357.5,104.5C 357.5,103.833 357.5,103.167 357.5,102.5 Z"/></g>
<g><path style="opacity:0.843" fill="#a3a2d3" d="M 455.5,104.5 C 446.833,104.5 438.167,104.5 429.5,104.5C 420.167,104.5 410.833,104.5 401.5,104.5C 401.5,104.167 401.5,103.833 401.5,103.5C 418.411,103.825 435.244,103.492 452,102.5C 453.302,103.085 454.469,103.751 455.5,104.5 Z"/></g>
<g><path style="opacity:0.992" fill="#617cc8" d="M 357.5,104.5 C 372.167,104.5 386.833,104.5 401.5,104.5C 410.833,104.5 420.167,104.5 429.5,104.5C 406.006,105.498 382.339,105.831 358.5,105.5C 344.458,105.535 330.624,105.535 317,105.5C 315.488,106.257 314.154,107.257 313,108.5C 312.939,110.686 312.772,112.686 312.5,114.5C 312.167,114.5 311.833,114.5 311.5,114.5C 310.814,110.713 311.814,107.546 314.5,105C 328.829,104.5 343.163,104.333 357.5,104.5 Z"/></g>
<g><path style="opacity:1" fill="#6991c1" d="M 358.5,105.5 C 358.833,106.167 359.167,106.833 359.5,107.5C 356.5,109.167 354.167,111.5 352.5,114.5C 339.167,114.5 325.833,114.5 312.5,114.5C 312.772,112.686 312.939,110.686 313,108.5C 314.154,107.257 315.488,106.257 317,105.5C 330.624,105.535 344.458,105.535 358.5,105.5 Z"/></g>
<g><path style="opacity:1" fill="#69b2ef" d="M 429.5,104.5 C 438.167,104.5 446.833,104.5 455.5,104.5C 456.833,104.5 457.5,105.167 457.5,106.5C 457.825,113.687 457.491,120.687 456.5,127.5C 456.5,123.167 456.5,118.833 456.5,114.5C 429.498,114.667 402.498,114.5 375.5,114C 371.65,108.243 366.316,106.076 359.5,107.5C 359.167,106.833 358.833,106.167 358.5,105.5C 382.339,105.831 406.006,105.498 429.5,104.5 Z"/></g>
<g><path style="opacity:1" fill="#bc5b73" d="M 244.5,105.5 C 247.856,114.378 252.856,122.211 259.5,129C 262.221,129.602 264.887,129.435 267.5,128.5C 263.954,134.989 258.954,136.156 252.5,132C 246.874,127.237 242.874,121.404 240.5,114.5C 242.114,111.608 243.447,108.608 244.5,105.5 Z"/></g>
<g><path style="opacity:1" fill="#98306b" d="M 245.5,101.5 C 249.72,113.394 258.053,120.061 270.5,121.5C 270.5,121.833 270.5,122.167 270.5,122.5C 270.107,124.284 269.441,125.95 268.5,127.5C 267.833,127.5 267.5,127.833 267.5,128.5C 264.887,129.435 262.221,129.602 259.5,129C 252.856,122.211 247.856,114.378 244.5,105.5C 244.232,103.901 244.566,102.568 245.5,101.5 Z"/></g>
<g><path style="opacity:1" fill="#e7f5fc" d="M 409.5,107.5 C 424.5,107.5 439.5,107.5 454.5,107.5C 454.5,108.5 454.5,109.5 454.5,110.5C 439.5,110.5 424.5,110.5 409.5,110.5C 409.5,109.5 409.5,108.5 409.5,107.5 Z"/></g>
<g><path style="opacity:1" fill="#3fafda" d="M 100.5,124.5 C 100.663,122.143 100.497,119.81 100,117.5C 99.5814,118.672 98.9147,119.672 98,120.5C 96.317,119.113 95.1504,117.447 94.5,115.5C 93.2618,114.588 91.9285,114.421 90.5,115C 92.0368,116.11 92.7035,117.61 92.5,119.5C 90.8267,120.343 89.66,121.676 89,123.5C 88.3333,122.833 87.6667,122.167 87,121.5C 85.4361,121.912 83.9361,122.245 82.5,122.5C 82.0423,119.606 82.709,117.106 84.5,115C 83.0715,114.421 81.7382,114.588 80.5,115.5C 80.5654,115.062 80.3988,114.728 80,114.5C 79.4177,117.668 78.4177,118.001 77,115.5C 76.5026,118.146 76.3359,120.813 76.5,123.5C 76.1667,123.5 75.8333,123.5 75.5,123.5C 75.4135,119.143 75.0802,114.81 74.5,110.5C 83.1731,110.334 91.8397,110.5 100.5,111C 101.823,115.6 101.823,120.1 100.5,124.5 Z"/></g>
<g><path style="opacity:1" fill="#df3d7f" d="M 209.5,111.5 C 212.966,112.109 213.966,113.942 212.5,117C 207.541,117.232 206.541,115.399 209.5,111.5 Z"/></g>
<g><path style="opacity:1" fill="#fafbfd" d="M 367.5,114.5 C 371.62,118.894 371.286,122.894 366.5,126.5C 365.5,126.5 364.5,126.5 363.5,126.5C 360.288,126.288 358.288,124.621 357.5,121.5C 357.166,118.509 358.166,116.176 360.5,114.5C 362.833,113.167 365.167,113.167 367.5,114.5 Z"/></g>
<g><path style="opacity:1" fill="#83cdd5" d="M 312.5,114.5 C 325.833,114.5 339.167,114.5 352.5,114.5C 353.396,115.506 354.062,115.506 354.5,114.5C 356.5,114.5 358.5,114.5 360.5,114.5C 358.166,116.176 357.166,118.509 357.5,121.5C 355.958,120.699 354.292,120.366 352.5,120.5C 353.211,127.211 356.878,130.878 363.5,131.5C 363.5,129.833 363.5,128.167 363.5,126.5C 364.5,126.5 365.5,126.5 366.5,126.5C 367.234,127.708 367.567,129.041 367.5,130.5C 368.552,130.351 369.552,130.517 370.5,131C 369.484,131.519 368.818,132.353 368.5,133.5C 369.074,137.616 370.074,141.616 371.5,145.5C 371.015,148.112 371.849,148.112 374,145.5C 376.054,148.62 375.554,151.287 372.5,153.5C 369.848,153.009 368.348,151.342 368,148.5C 365.976,150.884 363.809,151.051 361.5,149C 364.274,146.936 366.107,144.436 367,141.5C 366,142.5 365,143.5 364,144.5C 363.501,140.848 363.335,137.182 363.5,133.5C 362.041,133.567 360.708,133.234 359.5,132.5C 357.589,131.925 355.922,130.925 354.5,129.5C 352.653,127.139 351.32,124.472 350.5,121.5C 340.188,120.501 329.855,120.168 319.5,120.5C 319.334,126.176 319.501,131.843 320,137.5C 325.32,129.172 332.153,127.672 340.5,133C 344.551,137.89 345.551,143.39 343.5,149.5C 342.5,150.167 341.5,150.833 340.5,151.5C 337.513,156.591 338.179,161.257 342.5,165.5C 341.5,166.333 340.5,167.167 339.5,168C 341.147,172.971 342.814,177.971 344.5,183C 342.902,188.569 341.069,188.736 339,183.5C 337.97,179.227 337.303,174.894 337,170.5C 335.266,168.549 333.099,167.549 330.5,167.5C 329.047,175.271 329.381,182.938 331.5,190.5C 326.821,190.666 322.155,190.499 317.5,190C 316.004,187.286 315.004,184.453 314.5,181.5C 314.5,179.5 314.5,177.5 314.5,175.5C 314.046,155.159 313.38,134.826 312.5,114.5 Z"/></g>
<g><path style="opacity:1" fill="#84dffa" d="M 359.5,107.5 C 366.316,106.076 371.65,108.243 375.5,114C 402.498,114.5 429.498,114.667 456.5,114.5C 456.5,118.833 456.5,123.167 456.5,127.5C 456.595,146.51 456.262,165.51 455.5,184.5C 454.776,186.218 454.109,188.052 453.5,190C 425.169,190.5 396.835,190.667 368.5,190.5C 370.526,179.264 371.526,167.931 371.5,156.5C 372.11,155.609 372.443,154.609 372.5,153.5C 375.554,151.287 376.054,148.62 374,145.5C 371.849,148.112 371.015,148.112 371.5,145.5C 370.074,141.616 369.074,137.616 368.5,133.5C 368.818,132.353 369.484,131.519 370.5,131C 369.552,130.517 368.552,130.351 367.5,130.5C 367.567,129.041 367.234,127.708 366.5,126.5C 371.286,122.894 371.62,118.894 367.5,114.5C 373.193,115.384 374.193,114.218 370.5,111C 363.884,107.163 358.551,108.33 354.5,114.5C 354.062,115.506 353.396,115.506 352.5,114.5C 354.167,111.5 356.5,109.167 359.5,107.5 Z"/></g>
<g><path style="opacity:1" fill="#6899ce" d="M 367.5,114.5 C 365.167,113.167 362.833,113.167 360.5,114.5C 358.5,114.5 356.5,114.5 354.5,114.5C 358.551,108.33 363.884,107.163 370.5,111C 374.193,114.218 373.193,115.384 367.5,114.5 Z"/></g>
<g><path style="opacity:1" fill="#e0f1fa" d="M 94.5,115.5 C 94.613,119.06 94.2796,122.727 93.5,126.5C 92.448,126.649 91.448,126.483 90.5,126C 92.25,124.246 92.9167,122.079 92.5,119.5C 92.7035,117.61 92.0368,116.11 90.5,115C 91.9285,114.421 93.2618,114.588 94.5,115.5 Z"/></g>
<g><path style="opacity:1" fill="#e3f2fa" d="M 82.5,122.5 C 82.3601,124.124 83.0267,125.29 84.5,126C 83.552,126.483 82.552,126.649 81.5,126.5C 80.6821,122.686 80.3487,119.019 80.5,115.5C 81.7382,114.588 83.0715,114.421 84.5,115C 82.709,117.106 82.0423,119.606 82.5,122.5 Z"/></g>
<g><path style="opacity:0.067" fill="#ddc9db" d="M 121.5,119.5 C 120.833,118.167 120.833,118.167 121.5,119.5 Z"/></g>
<g><path style="opacity:1" fill="#af6d64" d="M 240.5,114.5 C 242.874,121.404 246.874,127.237 252.5,132C 258.954,136.156 263.954,134.989 267.5,128.5C 267.5,127.833 267.833,127.5 268.5,127.5C 268.38,134.242 265.046,138.409 258.5,140C 261.619,141.405 264.952,141.905 268.5,141.5C 268.5,142.167 268.167,142.5 267.5,142.5C 262.405,142.221 257.405,142.555 252.5,143.5C 245.833,141.167 239.167,138.833 232.5,136.5C 231.167,136.167 229.833,135.833 228.5,135.5C 223.878,132.751 218.878,130.751 213.5,129.5C 220.655,125.901 227.988,122.401 235.5,119C 236.651,116.8 238.318,115.3 240.5,114.5 Z"/></g>
<g><path style="opacity:1" fill="#feb1a2" d="M 187.5,115.5 C 189.999,119.165 191.999,123.165 193.5,127.5C 191.235,131.765 188.568,135.765 185.5,139.5C 182.732,141.087 180.065,142.92 177.5,145C 175.655,146.128 173.655,146.628 171.5,146.5C 166.137,144.751 164.137,141.084 165.5,135.5C 172.621,133.568 178.621,129.735 183.5,124C 184.448,123.517 185.448,123.351 186.5,123.5C 186.279,120.721 186.612,118.054 187.5,115.5 Z"/></g>
<g><path style="opacity:1" fill="#86555c" d="M 270.5,122.5 C 272.912,122.694 273.912,124.027 273.5,126.5C 272.773,131.346 271.44,136.013 269.5,140.5C 269.5,141.167 269.167,141.5 268.5,141.5C 264.952,141.905 261.619,141.405 258.5,140C 265.046,138.409 268.38,134.242 268.5,127.5C 269.441,125.95 270.107,124.284 270.5,122.5 Z"/></g>
<g><path style="opacity:1" fill="#1b98cb" d="M 80.5,115.5 C 80.3487,119.019 80.6821,122.686 81.5,126.5C 82.552,126.649 83.552,126.483 84.5,126C 83.0267,125.29 82.3601,124.124 82.5,122.5C 83.9361,122.245 85.4361,121.912 87,121.5C 87.6667,122.167 88.3333,122.833 89,123.5C 89.66,121.676 90.8267,120.343 92.5,119.5C 92.9167,122.079 92.25,124.246 90.5,126C 91.448,126.483 92.448,126.649 93.5,126.5C 94.2796,122.727 94.613,119.06 94.5,115.5C 95.1504,117.447 96.317,119.113 98,120.5C 98.9147,119.672 99.5814,118.672 100,117.5C 100.497,119.81 100.663,122.143 100.5,124.5C 100.5,126.167 100.5,127.833 100.5,129.5C 92.5,129.5 84.5,129.5 76.5,129.5C 76.5,127.5 76.5,125.5 76.5,123.5C 76.3359,120.813 76.5026,118.146 77,115.5C 78.4177,118.001 79.4177,117.668 80,114.5C 80.3988,114.728 80.5654,115.062 80.5,115.5 Z"/></g>
<g><path style="opacity:1" fill="#fdad9f" d="M 176.5,115.5 C 175.761,115.369 175.094,115.536 174.5,116C 175.513,120.116 176.013,124.283 176,128.5C 174.013,129.218 172.179,130.218 170.5,131.5C 169.914,131.291 169.414,130.957 169,130.5C 167.373,131.532 166.207,132.866 165.5,134.5C 164.048,132.174 162.714,129.674 161.5,127C 163.805,122.644 167.139,118.644 171.5,115C 173.387,114.22 175.054,114.387 176.5,115.5 Z"/></g>
<g><path style="opacity:1" fill="#76b4ce" d="M 354.5,129.5 C 353.127,133.943 351.294,138.276 349,142.5C 347.629,145.266 345.796,147.599 343.5,149.5C 345.551,143.39 344.551,137.89 340.5,133C 332.153,127.672 325.32,129.172 320,137.5C 319.501,131.843 319.334,126.176 319.5,120.5C 329.855,120.168 340.188,120.501 350.5,121.5C 351.32,124.472 352.653,127.139 354.5,129.5 Z"/></g>
<g><path style="opacity:1" fill="#74a6c9" d="M 357.5,121.5 C 358.288,124.621 360.288,126.288 363.5,126.5C 363.5,128.167 363.5,129.833 363.5,131.5C 356.878,130.878 353.211,127.211 352.5,120.5C 354.292,120.366 355.958,120.699 357.5,121.5 Z"/></g>
<g><path style="opacity:0.988" fill="#b8b5db" d="M 457.5,106.5 C 458.324,117.36 458.658,128.027 458.5,138.5C 457.991,155.323 456.991,171.99 455.5,188.5C 455.5,187.167 455.5,185.833 455.5,184.5C 456.262,165.51 456.595,146.51 456.5,127.5C 457.491,120.687 457.825,113.687 457.5,106.5 Z"/></g>
<g><path style="opacity:1" fill="#b67065" d="M 273.5,126.5 C 277.908,129.702 282.575,132.368 287.5,134.5C 281.709,136.79 275.709,138.79 269.5,140.5C 271.44,136.013 272.773,131.346 273.5,126.5 Z"/></g>
<g><path style="opacity:1" fill="#7acaf0" d="M 406.5,123.5 C 413.167,123.5 419.833,123.5 426.5,123.5C 426.839,128.93 426.339,134.264 425,139.5C 423,138.833 421,138.167 419,137.5C 416.568,138.293 414.234,138.626 412,138.5C 411.019,135.345 409.685,135.012 408,137.5C 406.621,132.964 406.121,128.297 406.5,123.5 Z"/></g>
<g><path style="opacity:0.463" fill="#aac4e2" d="M 75.5,123.5 C 75.8333,123.5 76.1667,123.5 76.5,123.5C 76.5,125.5 76.5,127.5 76.5,129.5C 84.5,129.5 92.5,129.5 100.5,129.5C 92.3501,130.493 84.0168,130.826 75.5,130.5C 75.5,128.167 75.5,125.833 75.5,123.5 Z"/></g>
<g><path style="opacity:1" fill="#ee8285" d="M 181.5,95.5 C 183.5,95.5 185.5,95.5 187.5,95.5C 187.5,102.167 187.5,108.833 187.5,115.5C 186.612,118.054 186.279,120.721 186.5,123.5C 185.448,123.351 184.448,123.517 183.5,124C 178.621,129.735 172.621,133.568 165.5,135.5C 165.5,135.167 165.5,134.833 165.5,134.5C 166.207,132.866 167.373,131.532 169,130.5C 169.414,130.957 169.914,131.291 170.5,131.5C 172.179,130.218 174.013,129.218 176,128.5C 176.013,124.283 175.513,120.116 174.5,116C 175.094,115.536 175.761,115.369 176.5,115.5C 177.932,117.327 179.599,118.994 181.5,120.5C 181.833,119.833 182.167,119.167 182.5,118.5C 182.508,110.818 182.174,103.151 181.5,95.5 Z"/></g>
<g><path style="opacity:1" fill="#f8b176" d="M 213.5,129.5 C 218.878,130.751 223.878,132.751 228.5,135.5C 228.97,141.27 231.637,145.77 236.5,149C 241.034,151.934 245.7,154.267 250.5,156C 244.407,151.911 238.907,147.078 234,141.5C 232.991,139.975 232.491,138.308 232.5,136.5C 239.167,138.833 245.833,141.167 252.5,143.5C 258.008,150.464 263.008,150.13 267.5,142.5C 268.167,142.5 268.5,142.167 268.5,141.5C 269.167,141.5 269.5,141.167 269.5,140.5C 275.709,138.79 281.709,136.79 287.5,134.5C 288.492,134.328 289.158,134.662 289.5,135.5C 293.397,139.46 297.731,142.96 302.5,146C 303.305,147.113 303.972,148.279 304.5,149.5C 302.692,152.436 300.859,155.436 299,158.5C 297.693,160.192 296.193,161.525 294.5,162.5C 293.619,167.698 292.285,174.031 290.5,181.5C 284.999,179.625 279.332,179.125 273.5,180C 278.236,182.239 282.569,185.072 286.5,188.5C 286.57,192.425 285.903,196.091 284.5,199.5C 284.631,198.761 284.464,198.094 284,197.5C 282.797,204.367 281.297,211.033 279.5,217.5C 271.72,223.221 263.053,227.055 253.5,229C 263.274,230.79 271.94,228.623 279.5,222.5C 279.5,223.5 279.5,224.5 279.5,225.5C 258.8,236.298 240.633,232.965 225,215.5C 222.502,209.525 222.002,203.525 223.5,197.5C 223.833,198.167 224.167,198.833 224.5,199.5C 232.58,211.203 243.58,218.37 257.5,221C 247.573,216.895 239.239,210.728 232.5,202.5C 228.46,197.374 226.46,191.707 226.5,185.5C 227.167,185.5 227.5,185.167 227.5,184.5C 229.63,183.968 231.63,183.135 233.5,182C 242.151,180.89 250.818,179.89 259.5,179C 249.839,178.5 240.172,178.334 230.5,178.5C 226.529,177.383 222.862,175.55 219.5,173C 215.924,168.918 211.924,165.418 207.5,162.5C 205.71,160.728 204.377,158.728 203.5,156.5C 202.642,153.093 201.475,149.76 200,146.5C 199.501,142.848 199.335,139.182 199.5,135.5C 199.47,134.503 199.97,133.836 201,133.5C 205.044,131.725 209.211,130.392 213.5,129.5 Z"/></g>
<g><path style="opacity:1" fill="#7acaf0" d="M 383.5,123.5 C 390.167,123.5 396.833,123.5 403.5,123.5C 403.477,128.874 402.977,134.207 402,139.5C 398.221,137.293 394.555,137.293 391,139.5C 390.333,138.833 389.667,138.167 389,137.5C 387.301,138.406 385.467,138.739 383.5,138.5C 383.5,133.5 383.5,128.5 383.5,123.5 Z"/></g>
<g><path style="opacity:1" fill="#7acaf0" d="M 429.5,123.5 C 436.167,123.5 442.833,123.5 449.5,123.5C 449.771,128.913 449.271,134.246 448,139.5C 447.667,138.833 447.333,138.167 447,137.5C 443.667,138.833 440.333,138.833 437,137.5C 435,138.167 433,138.833 431,139.5C 429.603,134.292 429.103,128.959 429.5,123.5 Z"/></g>
<g><path style="opacity:1" fill="#79b9d1" d="M 340.5,151.5 C 332.736,156.267 326.236,154.934 321,147.5C 318.806,138.04 322.473,132.707 332,131.5C 338.79,132.289 342.623,136.123 343.5,143C 342.633,145.896 341.633,148.729 340.5,151.5 Z"/></g>
<g><path style="opacity:1" fill="#6f9dc5" d="M 354.5,129.5 C 355.922,130.925 357.589,131.925 359.5,132.5C 358.374,136.086 356.707,139.419 354.5,142.5C 355.002,143.521 355.668,143.688 356.5,143C 357.667,141.833 358.833,140.667 360,139.5C 360.667,140.167 360.667,140.833 360,141.5C 356.495,143.26 355.995,145.427 358.5,148C 355.52,146.211 352.186,145.544 348.5,146C 346.568,147.972 346.068,150.138 347,152.5C 345.855,151.364 344.688,150.364 343.5,149.5C 345.796,147.599 347.629,145.266 349,142.5C 351.294,138.276 353.127,133.943 354.5,129.5 Z"/></g>
<g><path style="opacity:1" fill="#fafcfe" d="M 327.5,136.5 C 337.239,135.386 340.239,139.22 336.5,148C 328.901,151.05 325.067,148.55 325,140.5C 325.662,139.016 326.496,137.683 327.5,136.5 Z"/></g>
<g><path style="opacity:1" fill="#fe8f1d" d="M 289.5,135.5 C 293.262,137.413 296.929,139.579 300.5,142C 303.242,143.886 304.909,146.386 305.5,149.5C 305.167,149.5 304.833,149.5 304.5,149.5C 303.972,148.279 303.305,147.113 302.5,146C 297.731,142.96 293.397,139.46 289.5,135.5 Z"/></g>
<g><path style="opacity:1" fill="#949eba" d="M 311.5,114.5 C 311.833,114.5 312.167,114.5 312.5,114.5C 313.38,134.826 314.046,155.159 314.5,175.5C 313.662,175.158 313.328,174.492 313.5,173.5C 312.657,153.843 311.99,134.176 311.5,114.5 Z"/></g>
<g><path style="opacity:1" fill="#d1926e" d="M 267.5,142.5 C 263.008,150.13 258.008,150.464 252.5,143.5C 257.405,142.555 262.405,142.221 267.5,142.5 Z"/></g>
<g><path style="opacity:0.996" fill="#cf778a" d="M 185.5,139.5 C 184.89,140.391 184.557,141.391 184.5,142.5C 182.387,148.443 178.22,152.11 172,153.5C 171.51,152.207 171.343,150.873 171.5,149.5C 171.5,148.5 171.5,147.5 171.5,146.5C 173.655,146.628 175.655,146.128 177.5,145C 180.065,142.92 182.732,141.087 185.5,139.5 Z"/></g>
<g><path style="opacity:1" fill="#d2946f" d="M 228.5,135.5 C 229.833,135.833 231.167,136.167 232.5,136.5C 232.491,138.308 232.991,139.975 234,141.5C 238.907,147.078 244.407,151.911 250.5,156C 245.7,154.267 241.034,151.934 236.5,149C 231.637,145.77 228.97,141.27 228.5,135.5 Z"/></g>
<g><path style="opacity:1" fill="#ab7467" d="M 199.5,135.5 C 199.335,139.182 199.501,142.848 200,146.5C 201.475,149.76 202.642,153.093 203.5,156.5C 198.933,154.847 196.267,151.18 195.5,145.5C 195.507,141.446 196.84,138.113 199.5,135.5 Z"/></g>
<g><path style="opacity:1" fill="#79b9ce" d="M 359.5,132.5 C 360.708,133.234 362.041,133.567 363.5,133.5C 363.335,137.182 363.501,140.848 364,144.5C 365,143.5 366,142.5 367,141.5C 366.107,144.436 364.274,146.936 361.5,149C 363.809,151.051 365.976,150.884 368,148.5C 368.348,151.342 369.848,153.009 372.5,153.5C 372.443,154.609 372.11,155.609 371.5,156.5C 367.444,162.389 362.277,167.056 356,170.5C 355.667,170.167 355.333,169.833 355,169.5C 352.93,171.849 350.763,174.016 348.5,176C 350.35,180.767 349.184,184.601 345,187.5C 344.517,188.448 344.351,189.448 344.5,190.5C 340.167,190.5 335.833,190.5 331.5,190.5C 329.381,182.938 329.047,175.271 330.5,167.5C 333.099,167.549 335.266,168.549 337,170.5C 337.303,174.894 337.97,179.227 339,183.5C 341.069,188.736 342.902,188.569 344.5,183C 342.814,177.971 341.147,172.971 339.5,168C 340.5,167.167 341.5,166.333 342.5,165.5C 338.179,161.257 337.513,156.591 340.5,151.5C 341.5,150.833 342.5,150.167 343.5,149.5C 344.688,150.364 345.855,151.364 347,152.5C 346.068,150.138 346.568,147.972 348.5,146C 352.186,145.544 355.52,146.211 358.5,148C 355.995,145.427 356.495,143.26 360,141.5C 360.667,140.833 360.667,140.167 360,139.5C 358.833,140.667 357.667,141.833 356.5,143C 355.668,143.688 355.002,143.521 354.5,142.5C 356.707,139.419 358.374,136.086 359.5,132.5 Z"/></g>
<g><path style="opacity:1" fill="#ce916f" d="M 274.5,159.5 C 273.833,159.5 273.167,159.5 272.5,159.5C 278.488,153.863 282.154,146.863 283.5,138.5C 285.043,143.402 284.543,148.069 282,152.5C 279.521,154.966 277.021,157.299 274.5,159.5 Z"/></g>
<g><path style="opacity:1" fill="#8771c9" d="M 151.5,171.5 C 152.594,176.802 153.927,182.136 155.5,187.5C 151.864,189.207 151.864,190.374 155.5,191C 153.443,193.081 151.777,192.914 150.5,190.5C 146.847,183.193 143.18,175.86 139.5,168.5C 129.571,165.667 127.237,160.001 132.5,151.5C 133.509,153.518 134.509,155.518 135.5,157.5C 136.625,160.128 138.625,160.961 141.5,160C 143.608,157.984 143.942,155.817 142.5,153.5C 141.27,151.703 140.604,149.703 140.5,147.5C 144.536,148.02 147.703,150.02 150,153.5C 150.294,158.437 149.794,163.103 148.5,167.5C 149.035,169.261 150.035,170.594 151.5,171.5 Z"/></g>
<g><path style="opacity:1" fill="#f4b075" d="M 184.5,142.5 C 185.338,142.842 185.672,143.508 185.5,144.5C 183.114,148.397 180.114,151.897 176.5,155C 173.86,155.839 171.527,155.339 169.5,153.5C 168.893,153.624 168.56,153.957 168.5,154.5C 167.094,151.661 168.094,149.994 171.5,149.5C 171.343,150.873 171.51,152.207 172,153.5C 178.22,152.11 182.387,148.443 184.5,142.5 Z"/></g>
<g><path style="opacity:1" fill="#f8b075" d="M 190.5,152.5 C 193.922,167.015 190.255,179.349 179.5,189.5C 180.171,183.984 181.338,178.318 183,172.5C 184.549,166.591 185.382,160.591 185.5,154.5C 185.5,154.167 185.5,153.833 185.5,153.5C 187.216,153.371 188.883,153.038 190.5,152.5 Z"/></g>
<g><path style="opacity:0.706" fill="#c9bad7" d="M 98.5,153.5 C 101.63,154.436 104.63,155.77 107.5,157.5C 103.493,158.496 100.493,157.162 98.5,153.5 Z"/></g>
<g><path style="opacity:1" fill="#6cbbf5" d="M 399.5,154.5 C 416.167,154.5 432.833,154.5 449.5,154.5C 449.5,155.833 449.5,157.167 449.5,158.5C 432.833,158.5 416.167,158.5 399.5,158.5C 399.5,157.167 399.5,155.833 399.5,154.5 Z"/></g>
<g><path style="opacity:1" fill="#cccbec" d="M 142.5,153.5 C 143.942,155.817 143.608,157.984 141.5,160C 138.625,160.961 136.625,160.128 135.5,157.5C 139.751,159.521 142.084,158.187 142.5,153.5 Z"/></g>
<g><path style="opacity:1" fill="#b9846d" d="M 185.5,144.5 C 185.5,147.5 185.5,150.5 185.5,153.5C 185.5,153.833 185.5,154.167 185.5,154.5C 183.689,156.385 182.522,158.719 182,161.5C 180.035,165.088 177.201,166.088 173.5,164.5C 172.143,162.435 170.81,160.435 169.5,158.5C 169.567,157.041 169.234,155.708 168.5,154.5C 168.56,153.957 168.893,153.624 169.5,153.5C 171.527,155.339 173.86,155.839 176.5,155C 180.114,151.897 183.114,148.397 185.5,144.5 Z"/></g>
<g><path style="opacity:1" fill="#d28034" d="M 305.5,150.5 C 307.324,155.936 308.658,161.603 309.5,167.5C 307.933,166.319 307.099,164.653 307,162.5C 305.985,158.56 305.485,154.56 305.5,150.5 Z"/></g>
<g><path style="opacity:1" fill="#83d3da" d="M 371.5,156.5 C 371.526,167.931 370.526,179.264 368.5,190.5C 360.5,190.5 352.5,190.5 344.5,190.5C 344.351,189.448 344.517,188.448 345,187.5C 349.184,184.601 350.35,180.767 348.5,176C 350.763,174.016 352.93,171.849 355,169.5C 355.333,169.833 355.667,170.167 356,170.5C 362.277,167.056 367.444,162.389 371.5,156.5 Z"/></g>
<g><path style="opacity:1" fill="#774b59" d="M 294.5,162.5 C 295.819,173.931 295.819,185.265 294.5,196.5C 292.967,192.567 291.633,188.567 290.5,184.5C 290.5,183.5 290.5,182.5 290.5,181.5C 292.285,174.031 293.619,167.698 294.5,162.5 Z"/></g>
<g><path style="opacity:1" fill="#9a6563" d="M 304.5,149.5 C 304.833,149.5 305.167,149.5 305.5,149.5C 305.5,149.833 305.5,150.167 305.5,150.5C 305.485,154.56 305.985,158.56 307,162.5C 307.099,164.653 307.933,166.319 309.5,167.5C 309.87,170.267 311.204,172.267 313.5,173.5C 313.328,174.492 313.662,175.158 314.5,175.5C 314.5,177.5 314.5,179.5 314.5,181.5C 314.5,183.5 314.5,185.5 314.5,187.5C 313.677,184.023 313.177,180.356 313,176.5C 310.98,178.551 309.48,180.884 308.5,183.5C 307.637,184.463 306.97,184.463 306.5,183.5C 309.669,178.475 308.836,177.475 304,180.5C 303.333,177.833 302.667,177.833 302,180.5C 301.16,177.536 300.16,177.203 299,179.5C 298.085,178.672 297.419,177.672 297,176.5C 296.829,184.344 296.329,192.011 295.5,199.5C 295.443,198.391 295.11,197.391 294.5,196.5C 295.819,185.265 295.819,173.931 294.5,162.5C 296.193,161.525 297.693,160.192 299,158.5C 300.859,155.436 302.692,152.436 304.5,149.5 Z"/></g>
<g><path style="opacity:1" fill="#7f505a" d="M 197.5,161.5 C 200.806,163.489 204.139,165.489 207.5,167.5C 207.685,165.684 207.685,164.017 207.5,162.5C 211.924,165.418 215.924,168.918 219.5,173C 222.862,175.55 226.529,177.383 230.5,178.5C 229.5,180.5 228.5,182.5 227.5,184.5C 227.5,185.167 227.167,185.5 226.5,185.5C 221.951,183.61 217.951,180.944 214.5,177.5C 213.923,176.227 213.257,176.227 212.5,177.5C 209.329,184.515 205.662,191.182 201.5,197.5C 201.529,192.407 201.362,187.074 201,181.5C 200.299,177.244 199.132,173.244 197.5,169.5C 197.5,166.833 197.5,164.167 197.5,161.5 Z"/></g>
<g><path style="opacity:1" fill="#fe9220" d="M 272.5,159.5 C 273.167,159.5 273.833,159.5 274.5,159.5C 279.062,160.628 283.728,161.295 288.5,161.5C 288.5,165.167 288.5,168.833 288.5,172.5C 268.842,171.62 249.175,170.954 229.5,170.5C 229.5,166.5 229.5,162.5 229.5,158.5C 243.846,158.425 258.179,158.758 272.5,159.5 Z"/></g>
<g><path style="opacity:1" fill="#ffebd5" d="M 262.5,161.5 C 263.833,161.5 265.167,161.5 266.5,161.5C 266.477,163.927 265.977,166.26 265,168.5C 263.989,169.337 262.822,169.67 261.5,169.5C 261.401,166.763 261.735,164.096 262.5,161.5 Z"/></g>
<g><path style="opacity:1" fill="#fef4e9" d="M 247.5,161.5 C 250.337,161.729 253.337,161.896 256.5,162C 255.417,163.529 254.417,165.029 253.5,166.5C 254.025,167.192 254.692,167.692 255.5,168C 254.207,168.49 252.873,168.657 251.5,168.5C 252.014,166.488 252.18,164.488 252,162.5C 248.797,170.744 247.297,170.411 247.5,161.5 Z"/></g>
<g><path style="opacity:1" fill="#fff1e0" d="M 278.5,162.5 C 279.833,162.5 281.167,162.5 282.5,162.5C 282.61,165.059 281.944,167.392 280.5,169.5C 279.575,168.359 278.741,168.359 278,169.5C 277.444,167.115 277.61,164.782 278.5,162.5 Z"/></g>
<g><path style="opacity:1" fill="#fff5eb" d="M 273.5,162.5 C 274.873,162.343 276.207,162.51 277.5,163C 275.192,164.588 274.525,166.588 275.5,169C 274.552,169.483 273.552,169.649 272.5,169.5C 272.993,167.194 273.326,164.861 273.5,162.5 Z"/></g>
<g><path style="opacity:1" fill="#ffebd4" d="M 268.5,161.5 C 270.635,161.147 271.968,161.98 272.5,164C 266.581,171.591 265.247,170.758 268.5,161.5 Z"/></g>
<g><path style="opacity:1" fill="#fef7ed" d="M 257.5,161.5 C 258.497,161.47 259.164,161.97 259.5,163C 258.351,164.73 258.351,166.396 259.5,168C 258.552,168.483 257.552,168.649 256.5,168.5C 256.993,166.194 257.326,163.861 257.5,161.5 Z"/></g>
<g><path style="opacity:1" fill="#ffe5c7" d="M 237.5,160.5 C 238.833,160.5 240.167,160.5 241.5,160.5C 241.344,166.313 242.011,166.646 243.5,161.5C 244.5,160.167 245.5,160.167 246.5,161.5C 245.975,162.192 245.308,162.692 244.5,163C 244.944,164.533 245.277,166.033 245.5,167.5C 242.527,167.287 239.527,167.621 236.5,168.5C 236.575,165.794 236.908,163.127 237.5,160.5 Z"/></g>
<g><path style="opacity:1" fill="#72c5f7" d="M 383.5,163.5 C 405.488,164.586 427.488,165.586 449.5,166.5C 428.833,167.833 408.167,167.833 387.5,166.5C 385.668,165.943 384.335,164.943 383.5,163.5 Z"/></g>
<g><path style="opacity:1" fill="#f6af75" d="M 197.5,161.5 C 197.5,164.167 197.5,166.833 197.5,169.5C 198.126,178.763 196.293,187.43 192,195.5C 192.846,183.216 193.679,170.882 194.5,158.5C 195.855,159.188 196.855,160.188 197.5,161.5 Z"/></g>
<g><path style="opacity:1" fill="#74c8f7" d="M 383.5,170.5 C 405.177,170.167 426.844,170.5 448.5,171.5C 445.952,173.219 446.285,174.552 449.5,175.5C 427.407,177.077 405.407,176.743 383.5,174.5C 383.5,173.167 383.5,171.833 383.5,170.5 Z"/></g>
<g><path style="opacity:1" fill="#8992f7" d="M 89.5,169.5 C 94.9398,169.739 96.9398,172.406 95.5,177.5C 91.2752,181.254 87.9419,180.421 85.5,175C 86.0074,172.455 87.3407,170.621 89.5,169.5 Z"/></g>
<g><path style="opacity:1" fill="#b17867" d="M 230.5,178.5 C 240.172,178.334 249.839,178.5 259.5,179C 250.818,179.89 242.151,180.89 233.5,182C 231.63,183.135 229.63,183.968 227.5,184.5C 228.5,182.5 229.5,180.5 230.5,178.5 Z"/></g>
<g><path style="opacity:1" fill="#d59671" d="M 195.5,145.5 C 196.267,151.18 198.933,154.847 203.5,156.5C 204.377,158.728 205.71,160.728 207.5,162.5C 207.685,164.017 207.685,165.684 207.5,167.5C 204.139,165.489 200.806,163.489 197.5,161.5C 196.855,160.188 195.855,159.188 194.5,158.5C 193.679,170.882 192.846,183.216 192,195.5C 196.293,187.43 198.126,178.763 197.5,169.5C 199.132,173.244 200.299,177.244 201,181.5C 201.362,187.074 201.529,192.407 201.5,197.5C 197.292,202.875 192.292,207.375 186.5,211C 184.833,211.667 183.167,211.667 181.5,211C 176.323,205.814 172.823,199.648 171,192.5C 170.156,183.847 169.49,175.18 169,166.5C 167.637,165.107 166.804,163.441 166.5,161.5C 166.516,159.484 167.516,158.484 169.5,158.5C 170.81,160.435 172.143,162.435 173.5,164.5C 177.201,166.088 180.035,165.088 182,161.5C 182.522,158.719 183.689,156.385 185.5,154.5C 185.382,160.591 184.549,166.591 183,172.5C 181.338,178.318 180.171,183.984 179.5,189.5C 190.255,179.349 193.922,167.015 190.5,152.5C 191.002,149.331 192.669,146.998 195.5,145.5 Z"/></g>
<g><path style="opacity:1" fill="#c3866b" d="M 290.5,181.5 C 290.5,182.5 290.5,183.5 290.5,184.5C 288.806,185.527 287.473,186.861 286.5,188.5C 282.569,185.072 278.236,182.239 273.5,180C 279.332,179.125 284.999,179.625 290.5,181.5 Z"/></g>
<g><path style="opacity:1" fill="#77cbf7" d="M 383.5,177.5 C 405.592,176.83 427.592,177.83 449.5,180.5C 449.167,181.167 448.833,181.833 448.5,182.5C 426.833,183.833 405.167,183.833 383.5,182.5C 384.5,181.833 385.5,181.167 386.5,180.5C 385.007,179.859 384.007,178.859 383.5,177.5 Z"/></g>
<g><path style="opacity:1" fill="#ae7868" d="M 308.5,183.5 C 306.719,187.338 305.219,191.338 304,195.5C 303.628,201.407 303.462,207.074 303.5,212.5C 300.57,208.301 297.903,203.968 295.5,199.5C 296.329,192.011 296.829,184.344 297,176.5C 297.419,177.672 298.085,178.672 299,179.5C 300.16,177.203 301.16,177.536 302,180.5C 302.667,177.833 303.333,177.833 304,180.5C 308.836,177.475 309.669,178.475 306.5,183.5C 306.97,184.463 307.637,184.463 308.5,183.5 Z"/></g>
<g><path style="opacity:1" fill="#a57065" d="M 214.5,177.5 C 217.951,180.944 221.951,183.61 226.5,185.5C 226.46,191.707 228.46,197.374 232.5,202.5C 232.565,202.938 232.399,203.272 232,203.5C 229.843,201.505 227.343,200.172 224.5,199.5C 224.167,198.833 223.833,198.167 223.5,197.5C 220.5,195.167 217.833,192.5 215.5,189.5C 215.495,185.466 215.162,181.466 214.5,177.5 Z"/></g>
<g><path style="opacity:0.992" fill="#b1a0de" d="M 151.5,171.5 C 154.075,176.688 156.575,182.022 159,187.5C 160.512,188.257 161.846,189.257 163,190.5C 166.867,195.682 166.034,199.682 160.5,202.5C 160.6,199.892 159.933,197.558 158.5,195.5C 160.663,196.281 160.996,195.447 159.5,193C 158.002,192.415 157.002,192.915 156.5,194.5C 154.5,194.5 152.5,194.5 150.5,194.5C 150.5,194.167 150.5,193.833 150.5,193.5C 150.5,192.5 150.5,191.5 150.5,190.5C 151.777,192.914 153.443,193.081 155.5,191C 151.864,190.374 151.864,189.207 155.5,187.5C 153.927,182.136 152.594,176.802 151.5,171.5 Z"/></g>
<g><path style="opacity:1" fill="#f7d6b0" d="M 290.5,184.5 C 291.633,188.567 292.967,192.567 294.5,196.5C 295.11,197.391 295.443,198.391 295.5,199.5C 297.903,203.968 300.57,208.301 303.5,212.5C 305.513,214.497 307.846,216.164 310.5,217.5C 322.962,211.031 333.962,202.698 343.5,192.5C 351.903,191.866 359.903,192.533 367.5,194.5C 364.754,203.407 361.421,212.073 357.5,220.5C 354.703,224.48 352.703,228.48 351.5,232.5C 349.043,231.265 347.71,229.265 347.5,226.5C 345.5,226.167 343.5,225.833 341.5,225.5C 339.519,223.065 337.519,223.065 335.5,225.5C 332.568,224.219 330.068,224.886 328,227.5C 329.19,230.273 328.524,232.606 326,234.5C 325.586,234.043 325.086,233.709 324.5,233.5C 321.633,236.608 321.299,239.775 323.5,243C 322.597,245.079 321.931,247.246 321.5,249.5C 321.52,250.726 321.853,251.726 322.5,252.5C 323.609,253.29 324.942,253.79 326.5,254C 326.043,254.414 325.709,254.914 325.5,255.5C 326.34,256.735 327.34,257.735 328.5,258.5C 320.891,263.646 313.224,268.813 305.5,274C 300.831,274.647 297.831,277.147 296.5,281.5C 294.774,277.047 292.774,272.714 290.5,268.5C 289.529,266.517 288.529,264.517 287.5,262.5C 288.138,259.144 286.804,257.144 283.5,256.5C 283.34,254.801 283.506,253.134 284,251.5C 285.94,249.955 287.106,247.955 287.5,245.5C 285.544,241.925 283.878,238.258 282.5,234.5C 282.5,234.167 282.5,233.833 282.5,233.5C 284.806,232.625 285.473,231.292 284.5,229.5C 282.14,227.01 281.14,224.01 281.5,220.5C 282.78,213.539 283.78,206.539 284.5,199.5C 285.903,196.091 286.57,192.425 286.5,188.5C 287.473,186.861 288.806,185.527 290.5,184.5 Z"/></g>
<g><path style="opacity:1" fill="#6fb4da" d="M 314.5,181.5 C 315.004,184.453 316.004,187.286 317.5,190C 322.155,190.499 326.821,190.666 331.5,190.5C 335.833,190.5 340.167,190.5 344.5,190.5C 352.5,190.5 360.5,190.5 368.5,190.5C 396.835,190.667 425.169,190.5 453.5,190C 454.109,188.052 454.776,186.218 455.5,184.5C 455.5,185.833 455.5,187.167 455.5,188.5C 454.871,190.997 453.204,192.33 450.5,192.5C 406.67,191.501 362.67,191.168 318.5,191.5C 316.167,191.167 314.833,189.833 314.5,187.5C 314.5,185.5 314.5,183.5 314.5,181.5 Z"/></g>
<g><path style="opacity:1" fill="#74c6f7" d="M 383.5,184.5 C 405.177,184.167 426.844,184.5 448.5,185.5C 437.667,185.833 426.833,186.167 416,186.5C 404.812,186.499 393.979,185.832 383.5,184.5 Z"/></g>
<g><path style="opacity:0.706" fill="#bda8c7" d="M 318.5,191.5 C 362.67,191.168 406.67,191.501 450.5,192.5C 423.498,192.333 396.498,192.5 369.5,193C 368.956,193.717 368.289,194.217 367.5,194.5C 359.903,192.533 351.903,191.866 343.5,192.5C 334.983,192.826 326.65,192.493 318.5,191.5 Z"/></g>
<g><path style="opacity:1" fill="#cdadb5" d="M 118.5,190.5 C 118.5,191.5 118.5,192.5 118.5,193.5C 129.167,193.5 139.833,193.5 150.5,193.5C 150.5,193.833 150.5,194.167 150.5,194.5C 137.167,194.5 123.833,194.5 110.5,194.5C 112.292,193.691 114.292,193.191 116.5,193C 117.066,192.005 117.733,191.172 118.5,190.5 Z"/></g>
<g><path style="opacity:1" fill="#ebccb1" d="M 158.5,195.5 C 157.508,195.672 156.842,195.338 156.5,194.5C 157.002,192.915 158.002,192.415 159.5,193C 160.996,195.447 160.663,196.281 158.5,195.5 Z"/></g>
<g><path style="opacity:1" fill="#fd9e2d" d="M 120.5,195.5 C 130.839,195.334 141.172,195.5 151.5,196C 151.152,201.147 153.819,203.647 159.5,203.5C 159.5,206.833 159.5,210.167 159.5,213.5C 159.5,217.833 159.5,222.167 159.5,226.5C 153.824,226.334 148.157,226.501 142.5,227C 140.978,229.305 138.978,230.805 136.5,231.5C 134.954,228.368 132.954,225.702 130.5,223.5C 132.962,217.243 135.962,211.243 139.5,205.5C 137.994,204.253 136.494,204.253 135,205.5C 132.881,209.402 131.048,213.402 129.5,217.5C 127.271,214.81 125.604,211.81 124.5,208.5C 124.768,206.901 124.434,205.568 123.5,204.5C 121.928,201.785 120.928,198.785 120.5,195.5 Z"/></g>
<g><path style="opacity:0.988" fill="#ea8c3c" d="M 110.5,195.5 C 110.5,195.167 110.5,194.833 110.5,194.5C 123.833,194.5 137.167,194.5 150.5,194.5C 152.5,194.5 154.5,194.5 156.5,194.5C 156.842,195.338 157.508,195.672 158.5,195.5C 159.933,197.558 160.6,199.892 160.5,202.5C 160.5,206.167 160.5,209.833 160.5,213.5C 160.167,213.5 159.833,213.5 159.5,213.5C 159.5,210.167 159.5,206.833 159.5,203.5C 153.819,203.647 151.152,201.147 151.5,196C 141.172,195.5 130.839,195.334 120.5,195.5C 117.167,195.5 113.833,195.5 110.5,195.5 Z"/></g>
<g><path style="opacity:1" fill="#fea943" d="M 110.5,195.5 C 113.833,195.5 117.167,195.5 120.5,195.5C 120.928,198.785 121.928,201.785 123.5,204.5C 120.269,207.952 117.269,211.619 114.5,215.5C 117.52,218.355 120.687,221.021 124,223.5C 124.798,221.741 124.631,220.074 123.5,218.5C 118.554,214.976 118.888,211.642 124.5,208.5C 125.604,211.81 127.271,214.81 129.5,217.5C 128.513,219.473 127.513,221.473 126.5,223.5C 127.808,224.626 129.142,224.626 130.5,223.5C 132.954,225.702 134.954,228.368 136.5,231.5C 127.5,231.5 118.5,231.5 109.5,231.5C 107.542,220.264 107.042,208.931 108,197.5C 108.708,196.619 109.542,195.953 110.5,195.5 Z"/></g>
<g><path style="opacity:1" fill="#db9a71" d="M 314.5,187.5 C 314.833,189.833 316.167,191.167 318.5,191.5C 326.65,192.493 334.983,192.826 343.5,192.5C 333.962,202.698 322.962,211.031 310.5,217.5C 307.846,216.164 305.513,214.497 303.5,212.5C 303.462,207.074 303.628,201.407 304,195.5C 305.219,191.338 306.719,187.338 308.5,183.5C 309.48,180.884 310.98,178.551 313,176.5C 313.177,180.356 313.677,184.023 314.5,187.5 Z"/></g>
<g><path style="opacity:1" fill="#fef7ef" d="M 123.5,204.5 C 124.434,205.568 124.768,206.901 124.5,208.5C 118.888,211.642 118.554,214.976 123.5,218.5C 124.631,220.074 124.798,221.741 124,223.5C 120.687,221.021 117.52,218.355 114.5,215.5C 117.269,211.619 120.269,207.952 123.5,204.5 Z"/></g>
<g><path style="opacity:1" fill="#fff2e5" d="M 130.5,223.5 C 129.142,224.626 127.808,224.626 126.5,223.5C 127.513,221.473 128.513,219.473 129.5,217.5C 131.048,213.402 132.881,209.402 135,205.5C 136.494,204.253 137.994,204.253 139.5,205.5C 135.962,211.243 132.962,217.243 130.5,223.5 Z"/></g>
<g><path style="opacity:1" fill="#fef7ee" d="M 141.5,204.5 C 144.783,208.121 148.116,211.787 151.5,215.5C 148.662,218.838 145.495,221.838 142,224.5C 141.333,222.833 141.333,221.167 142,219.5C 143.925,218.12 145.759,216.62 147.5,215C 143.496,212.529 141.496,209.029 141.5,204.5 Z"/></g>
<g><path style="opacity:1" fill="#fc972d" d="M 284.5,199.5 C 283.78,206.539 282.78,213.539 281.5,220.5C 281.14,224.01 282.14,227.01 284.5,229.5C 282.871,229.628 281.538,228.628 280.5,226.5C 280.5,225.833 280.167,225.5 279.5,225.5C 279.5,224.5 279.5,223.5 279.5,222.5C 279.5,220.833 279.5,219.167 279.5,217.5C 281.297,211.033 282.797,204.367 284,197.5C 284.464,198.094 284.631,198.761 284.5,199.5 Z"/></g>
<g><path style="opacity:1" fill="#cb8d6d" d="M 215.5,189.5 C 217.833,192.5 220.5,195.167 223.5,197.5C 222.002,203.525 222.502,209.525 225,215.5C 240.633,232.965 258.8,236.298 279.5,225.5C 280.167,225.5 280.5,225.833 280.5,226.5C 266.754,234.615 252.254,236.281 237,231.5C 236.176,234.882 236.343,238.216 237.5,241.5C 248.29,245.955 247.624,247.622 235.5,246.5C 235.666,240.824 235.499,235.157 235,229.5C 233.871,227.859 232.371,226.859 230.5,226.5C 225.695,225.513 220.695,225.179 215.5,225.5C 217.066,222.588 219.066,219.921 221.5,217.5C 220.066,215.78 219.233,213.78 219,211.5C 217.942,204.136 216.775,196.802 215.5,189.5 Z"/></g>
<g><path style="opacity:0.067" fill="#d4adbb" d="M 110.5,194.5 C 110.5,194.833 110.5,195.167 110.5,195.5C 109.542,195.953 108.708,196.619 108,197.5C 107.042,208.931 107.542,220.264 109.5,231.5C 108.883,231.389 108.383,231.056 108,230.5C 106.848,226.909 106.015,223.242 105.5,219.5C 105.592,213.49 105.592,207.49 105.5,201.5C 105.567,197.87 107.234,195.537 110.5,194.5 Z"/></g>
<g><path style="opacity:1" fill="#c3856a" d="M 224.5,199.5 C 227.343,200.172 229.843,201.505 232,203.5C 232.399,203.272 232.565,202.938 232.5,202.5C 239.239,210.728 247.573,216.895 257.5,221C 243.58,218.37 232.58,211.203 224.5,199.5 Z"/></g>
<g><path style="opacity:0.067" fill="#ddc9db" d="M 357.5,220.5 C 358.833,221.167 358.833,221.167 357.5,220.5 Z"/></g>
<g><path style="opacity:1" fill="#c8999e" d="M 159.5,213.5 C 159.833,213.5 160.167,213.5 160.5,213.5C 160.5,217.5 160.5,221.5 160.5,225.5C 178.833,225.5 197.167,225.5 215.5,225.5C 220.695,225.179 225.695,225.513 230.5,226.5C 207.5,226.5 184.5,226.5 161.5,226.5C 160.833,226.5 160.167,226.5 159.5,226.5C 159.5,222.167 159.5,217.833 159.5,213.5 Z"/></g>
<g><path style="opacity:1" fill="#d77e2e" d="M 159.5,226.5 C 159.607,228.903 158.607,230.736 156.5,232C 141.504,232.5 126.504,232.667 111.5,232.5C 110.508,232.672 109.842,232.338 109.5,231.5C 118.5,231.5 127.5,231.5 136.5,231.5C 138.978,230.805 140.978,229.305 142.5,227C 148.157,226.501 153.824,226.334 159.5,226.5 Z"/></g>
<g><path style="opacity:1" fill="#c98b6d" d="M 279.5,217.5 C 279.5,219.167 279.5,220.833 279.5,222.5C 271.94,228.623 263.274,230.79 253.5,229C 263.053,227.055 271.72,223.221 279.5,217.5 Z"/></g>
<g><path style="opacity:1" fill="#564c9f" d="M 161.5,226.5 C 184.5,226.5 207.5,226.5 230.5,226.5C 232.371,226.859 233.871,227.859 235,229.5C 235.499,235.157 235.666,240.824 235.5,246.5C 235.5,250.5 235.5,254.5 235.5,258.5C 235.5,259.5 235.5,260.5 235.5,261.5C 235.167,261.5 234.833,261.5 234.5,261.5C 234.5,256.5 234.5,251.5 234.5,246.5C 229.492,245.4 224.659,244.4 220,243.5C 219,245.5 218,247.5 217,249.5C 215.812,248.437 215.312,247.103 215.5,245.5C 220.766,239.708 220.766,233.875 215.5,228C 197.329,227.832 179.329,227.332 161.5,226.5 Z"/></g>
<g><path style="opacity:1" fill="#1ba9d6" d="M 341.5,225.5 C 341.461,226.583 341.127,227.583 340.5,228.5C 341.651,229.731 342.817,229.731 344,228.5C 345.023,229.6 345.523,230.933 345.5,232.5C 344.767,235.08 343.767,237.58 342.5,240C 343.624,240.249 344.624,240.749 345.5,241.5C 344.833,243.167 344.167,244.833 343.5,246.5C 341.456,247.065 339.79,248.065 338.5,249.5C 336.601,250.045 334.934,249.378 333.5,247.5C 334.338,247.158 334.672,246.492 334.5,245.5C 337.892,244.01 339.226,241.343 338.5,237.5C 336.959,234.817 334.626,233.984 331.5,235C 328.819,238.563 328.152,242.396 329.5,246.5C 326.753,247.968 324.419,249.968 322.5,252.5C 321.853,251.726 321.52,250.726 321.5,249.5C 321.931,247.246 322.597,245.079 323.5,243C 321.299,239.775 321.633,236.608 324.5,233.5C 325.086,233.709 325.586,234.043 326,234.5C 328.524,232.606 329.19,230.273 328,227.5C 330.068,224.886 332.568,224.219 335.5,225.5C 337.519,223.065 339.519,223.065 341.5,225.5 Z"/></g>
<g><path style="opacity:1" fill="#f8b073" d="M 280.5,226.5 C 281.538,228.628 282.871,229.628 284.5,229.5C 285.473,231.292 284.806,232.625 282.5,233.5C 282.565,233.062 282.399,232.728 282,232.5C 272.414,237.153 262.247,239.653 251.5,240C 254.597,241.61 257.931,242.61 261.5,243C 269.246,243.896 276.913,243.563 284.5,242C 283.36,240.027 282.027,238.193 280.5,236.5C 280.855,235.478 281.522,234.811 282.5,234.5C 283.878,238.258 285.544,241.925 287.5,245.5C 287.106,247.955 285.94,249.955 284,251.5C 283.506,253.134 283.34,254.801 283.5,256.5C 282.833,256.5 282.167,256.5 281.5,256.5C 266.268,259.563 250.934,260.23 235.5,258.5C 235.5,254.5 235.5,250.5 235.5,246.5C 247.624,247.622 248.29,245.955 237.5,241.5C 236.343,238.216 236.176,234.882 237,231.5C 252.254,236.281 266.754,234.615 280.5,226.5 Z"/></g>
<g><path style="opacity:0.184" fill="#e1d8e4" d="M 386.5,227.5 C 382.716,227.525 381.716,229.192 383.5,232.5C 380.756,231.928 379.923,230.262 381,227.5C 382.943,226.193 384.777,226.193 386.5,227.5 Z"/></g>
<g><path style="opacity:0.992" fill="#7a5fb3" d="M 386.5,227.5 C 389.508,231.075 388.508,232.742 383.5,232.5C 381.716,229.192 382.716,227.525 386.5,227.5 Z"/></g>
<g><path style="opacity:1" fill="#6564b1" d="M 159.5,226.5 C 160.167,226.5 160.833,226.5 161.5,226.5C 179.329,227.332 197.329,227.832 215.5,228C 220.766,233.875 220.766,239.708 215.5,245.5C 215.423,244.25 214.756,243.417 213.5,243C 195.662,242.832 177.995,242.332 160.5,241.5C 174.873,242.149 188.873,241.482 202.5,239.5C 191.674,238.67 180.674,238.17 169.5,238C 168.584,237.626 167.75,237.126 167,236.5C 165.602,237.051 164.268,237.384 163,237.5C 160.582,235.32 157.916,234.987 155,236.5C 152.595,235.726 150.095,235.226 147.5,235C 150.167,234.667 152.833,234.333 155.5,234C 150.177,233.501 144.844,233.334 139.5,233.5C 139.5,240.167 139.5,246.833 139.5,253.5C 138.509,247.021 138.176,240.354 138.5,233.5C 129.318,233.827 120.318,233.493 111.5,232.5C 126.504,232.667 141.504,232.5 156.5,232C 158.607,230.736 159.607,228.903 159.5,226.5 Z"/></g>
<g><path style="opacity:1" fill="#1a5eaa" d="M 338.5,237.5 C 335.988,239.465 334.655,242.132 334.5,245.5C 334.672,246.492 334.338,247.158 333.5,247.5C 332.041,247.567 330.708,247.234 329.5,246.5C 328.152,242.396 328.819,238.563 331.5,235C 334.626,233.984 336.959,234.817 338.5,237.5 Z"/></g>
<g><path style="opacity:0.067" fill="#dec6d8" d="M 370.5,239.5 C 389.662,238.338 408.996,238.171 428.5,239C 429.942,239.377 430.942,240.21 431.5,241.5C 430.078,241.291 428.745,240.791 427.5,240C 408.503,239.5 389.503,239.333 370.5,239.5 Z"/></g>
<g><path style="opacity:1" fill="#dfddf3" d="M 202.5,239.5 C 188.873,241.482 174.873,242.149 160.5,241.5C 174.127,239.518 188.127,238.851 202.5,239.5 Z"/></g>
<g><path style="opacity:1" fill="#e9d7b2" d="M 338.5,237.5 C 339.226,241.343 337.892,244.01 334.5,245.5C 334.655,242.132 335.988,239.465 338.5,237.5 Z"/></g>
<g><path style="opacity:1" fill="#c3886c" d="M 282.5,233.5 C 282.5,233.833 282.5,234.167 282.5,234.5C 281.522,234.811 280.855,235.478 280.5,236.5C 282.027,238.193 283.36,240.027 284.5,242C 276.913,243.563 269.246,243.896 261.5,243C 257.931,242.61 254.597,241.61 251.5,240C 262.247,239.653 272.414,237.153 282,232.5C 282.399,232.728 282.565,233.062 282.5,233.5 Z"/></g>
<g><path style="opacity:1" fill="#fda843" d="M 370.5,239.5 C 389.503,239.333 408.503,239.5 427.5,240C 428.745,240.791 430.078,241.291 431.5,241.5C 432.338,241.842 432.672,242.508 432.5,243.5C 432.389,256.84 432.055,270.173 431.5,283.5C 430.373,284.122 429.373,284.955 428.5,286C 409.17,286.5 389.836,286.667 370.5,286.5C 368.103,283.304 366.936,279.638 367,275.5C 366.5,264.839 366.333,254.172 366.5,243.5C 366.833,241.167 368.167,239.833 370.5,239.5 Z"/></g>
<g><path style="opacity:1" fill="#d18c43" d="M 375.5,244.5 C 391.167,244.5 406.833,244.5 422.5,244.5C 422.5,253.833 422.5,263.167 422.5,272.5C 406.833,272.5 391.167,272.5 375.5,272.5C 375.5,263.167 375.5,253.833 375.5,244.5 Z"/></g>
<g><path style="opacity:1" fill="#2f66b3" d="M 341.5,225.5 C 343.5,225.833 345.5,226.167 347.5,226.5C 347.71,229.265 349.043,231.265 351.5,232.5C 351.678,233.695 352.011,234.862 352.5,236C 351.217,237.136 350.217,238.469 349.5,240C 352.109,243.109 352.109,246.275 349.5,249.5C 347.456,250.065 345.79,251.065 344.5,252.5C 342.181,252.008 340.181,251.008 338.5,249.5C 339.79,248.065 341.456,247.065 343.5,246.5C 344.167,244.833 344.833,243.167 345.5,241.5C 344.624,240.749 343.624,240.249 342.5,240C 343.767,237.58 344.767,235.08 345.5,232.5C 345.523,230.933 345.023,229.6 344,228.5C 342.817,229.731 341.651,229.731 340.5,228.5C 341.127,227.583 341.461,226.583 341.5,225.5 Z"/></g>
<g><path style="opacity:1" fill="#4f62b7" d="M 202.5,239.5 C 188.127,238.851 174.127,239.518 160.5,241.5C 177.995,242.332 195.662,242.832 213.5,243C 214.756,243.417 215.423,244.25 215.5,245.5C 215.312,247.103 215.812,248.437 217,249.5C 218,247.5 219,245.5 220,243.5C 224.659,244.4 229.492,245.4 234.5,246.5C 233.514,250.97 233.181,255.637 233.5,260.5C 228.026,259.788 222.692,258.454 217.5,256.5C 216.558,256.608 215.725,256.941 215,257.5C 214.155,259.611 213.322,261.611 212.5,263.5C 210.334,262.741 208.834,263.741 208,266.5C 207.626,265.584 207.126,264.75 206.5,264C 204.899,263.727 203.399,263.227 202,262.5C 198.194,262.423 194.361,262.756 190.5,263.5C 190.5,263.167 190.5,262.833 190.5,262.5C 193.167,261.833 195.833,261.167 198.5,260.5C 186.211,258.52 173.544,257.853 160.5,258.5C 160.5,258.167 160.5,257.833 160.5,257.5C 152.827,251.993 146.327,245.326 141,237.5C 140.827,243.016 140.327,248.349 139.5,253.5C 139.5,246.833 139.5,240.167 139.5,233.5C 144.844,233.334 150.177,233.501 155.5,234C 152.833,234.333 150.167,234.667 147.5,235C 150.095,235.226 152.595,235.726 155,236.5C 157.916,234.987 160.582,235.32 163,237.5C 164.268,237.384 165.602,237.051 167,236.5C 167.75,237.126 168.584,237.626 169.5,238C 180.674,238.17 191.674,238.67 202.5,239.5 Z"/></g>
<g><path style="opacity:1" fill="#b7c1e3" d="M 160.5,243.5 C 167.833,243.5 175.167,243.5 182.5,243.5C 182.5,244.5 182.5,245.5 182.5,246.5C 175.167,246.5 167.833,246.5 160.5,246.5C 160.5,245.5 160.5,244.5 160.5,243.5 Z"/></g>
<g><path style="opacity:1" fill="#2790c5" d="M 329.5,246.5 C 330.708,247.234 332.041,247.567 333.5,247.5C 334.934,249.378 336.601,250.045 338.5,249.5C 340.181,251.008 342.181,252.008 344.5,252.5C 345.338,252.842 345.672,253.508 345.5,254.5C 341.781,252.642 338.281,253.308 335,256.5C 332.885,253.682 331.052,253.849 329.5,257C 330.056,257.383 330.389,257.883 330.5,258.5C 329.833,258.5 329.167,258.5 328.5,258.5C 327.34,257.735 326.34,256.735 325.5,255.5C 325.709,254.914 326.043,254.414 326.5,254C 324.942,253.79 323.609,253.29 322.5,252.5C 324.419,249.968 326.753,247.968 329.5,246.5 Z"/></g>
<g><path style="opacity:1" fill="#ebecf8" d="M 160.5,247.5 C 167.863,247.169 175.197,247.503 182.5,248.5C 178.833,248.833 175.167,249.167 171.5,249.5C 167.435,249.489 163.768,248.822 160.5,247.5 Z"/></g>
<g><path style="opacity:1" fill="#ececf8" d="M 184.5,247.5 C 190.352,247.051 196.019,247.551 201.5,249C 198.667,249.167 195.833,249.333 193,249.5C 189.748,249.481 186.915,248.814 184.5,247.5 Z"/></g>
<g><path style="opacity:1" fill="#f1f6fc" d="M 160.5,251.5 C 171.853,251.168 183.186,251.501 194.5,252.5C 188.833,252.833 183.167,253.167 177.5,253.5C 171.458,253.496 165.792,252.829 160.5,251.5 Z"/></g>
<g><path style="opacity:1" fill="#fbf4ee" d="M 394.5,251.5 C 398.717,253.047 402.717,255.047 406.5,257.5C 402.729,260.38 398.729,262.713 394.5,264.5C 394.5,260.167 394.5,255.833 394.5,251.5 Z"/></g>
<g><path style="opacity:1" fill="#c2856a" d="M 271.5,253.5 C 273.527,253.338 275.527,253.505 277.5,254C 274.623,255.127 271.623,255.794 268.5,256C 257.735,256.952 247.068,256.619 236.5,255C 248.341,254.831 260.007,254.331 271.5,253.5 Z"/></g>
<g><path style="opacity:1" fill="#8270bc" d="M 113.5,252.5 C 118.505,254.163 118.672,256.163 114,258.5C 110.911,256.796 110.745,254.796 113.5,252.5 Z"/></g>
<g><path style="opacity:1" fill="#c2cbe9" d="M 160.5,257.5 C 162.223,256.2 164.39,255.533 167,255.5C 169.167,255.833 171.333,256.167 173.5,256.5C 169.217,257.492 164.884,257.826 160.5,257.5 Z"/></g>
<g><path style="opacity:1" fill="#3b62ac" d="M 345.5,254.5 C 344.501,256.943 342.668,258.609 340,259.5C 338.049,258.085 336.382,258.419 335,260.5C 333.272,260.101 331.772,259.434 330.5,258.5C 330.389,257.883 330.056,257.383 329.5,257C 331.052,253.849 332.885,253.682 335,256.5C 338.281,253.308 341.781,252.642 345.5,254.5 Z"/></g>
<g><path style="opacity:1" fill="#f2f4fb" d="M 160.5,258.5 C 173.544,257.853 186.211,258.52 198.5,260.5C 185.456,261.147 172.789,260.48 160.5,258.5 Z"/></g>
<g><path style="opacity:1" fill="#bd8169" d="M 281.5,256.5 C 280.653,257.966 279.32,258.8 277.5,259C 263.65,262.494 249.65,263.327 235.5,261.5C 235.5,260.5 235.5,259.5 235.5,258.5C 250.934,260.23 266.268,259.563 281.5,256.5 Z"/></g>
<g><path style="opacity:1" fill="#093155" d="M 281.5,256.5 C 282.167,256.5 282.833,256.5 283.5,256.5C 286.804,257.144 288.138,259.144 287.5,262.5C 277.804,265.344 269.804,270.677 263.5,278.5C 270.931,295.501 277.264,312.501 282.5,329.5C 279.833,329.5 277.167,329.5 274.5,329.5C 271.689,312.234 266.189,295.901 258,280.5C 261.825,290.97 265.491,301.637 269,312.5C 270.647,318.084 271.813,323.751 272.5,329.5C 270.833,329.5 269.167,329.5 267.5,329.5C 264.278,312.61 260.111,295.944 255,279.5C 253.951,277.893 252.451,277.227 250.5,277.5C 247.351,277.211 244.351,277.711 241.5,279C 242.737,279.232 243.737,279.732 244.5,280.5C 236.769,296.028 231.435,312.361 228.5,329.5C 227.167,329.5 225.833,329.5 224.5,329.5C 223.737,328.732 222.737,328.232 221.5,328C 222.793,327.51 224.127,327.343 225.5,327.5C 226.515,320.106 227.849,312.773 229.5,305.5C 233.175,301.665 234.509,296.999 233.5,291.5C 234.494,281.681 234.827,271.681 234.5,261.5C 234.833,261.5 235.167,261.5 235.5,261.5C 249.65,263.327 263.65,262.494 277.5,259C 279.32,258.8 280.653,257.966 281.5,256.5 Z"/></g>
<g><path style="opacity:1" fill="#547bd3" d="M 160.5,257.5 C 160.5,257.833 160.5,258.167 160.5,258.5C 172.789,260.48 185.456,261.147 198.5,260.5C 195.833,261.167 193.167,261.833 190.5,262.5C 180.478,262.168 170.478,262.501 160.5,263.5C 170.659,264.823 180.659,264.823 190.5,263.5C 194.361,262.756 198.194,262.423 202,262.5C 203.399,263.227 204.899,263.727 206.5,264C 207.126,264.75 207.626,265.584 208,266.5C 208.834,263.741 210.334,262.741 212.5,263.5C 210.554,268.396 208.887,273.396 207.5,278.5C 206.5,280.5 205.5,282.5 204.5,284.5C 203.659,283.991 203.159,284.657 203,286.5C 201.84,284.203 200.84,284.536 200,287.5C 199.167,286.667 198.333,285.833 197.5,285C 195.314,284.939 193.314,284.772 191.5,284.5C 184.167,284.5 176.833,284.5 169.5,284.5C 176.655,283.671 183.989,283.171 191.5,283C 188.774,282.818 186.107,282.318 183.5,281.5C 187.796,280.672 192.129,280.172 196.5,280C 189.321,279.829 182.321,279.329 175.5,278.5C 182.913,279.128 189.913,278.461 196.5,276.5C 195.081,275.549 193.415,275.216 191.5,275.5C 184.576,273.537 177.243,272.87 169.5,273.5C 173.833,272.833 178.167,272.167 182.5,271.5C 175.576,269.537 168.243,268.87 160.5,269.5C 160.5,269.167 160.5,268.833 160.5,268.5C 158.657,269.043 156.99,268.376 155.5,266.5C 154.402,270.361 153.569,270.361 153,266.5C 151.605,265.185 150.605,265.519 150,267.5C 149.667,266.5 149.333,265.5 149,264.5C 148.131,267.763 146.797,268.096 145,265.5C 144.667,266.167 144.333,266.833 144,267.5C 143.71,265.956 143.044,264.623 142,263.5C 141.5,270.826 141.334,278.159 141.5,285.5C 140.756,289.119 140.423,292.785 140.5,296.5C 139.504,282.343 139.171,268.01 139.5,253.5C 140.327,248.349 140.827,243.016 141,237.5C 146.327,245.326 152.827,251.993 160.5,257.5 Z"/></g>
<g><path style="opacity:0.996" fill="#e1e7f7" d="M 190.5,262.5 C 190.5,262.833 190.5,263.167 190.5,263.5C 180.659,264.823 170.659,264.823 160.5,263.5C 170.478,262.501 180.478,262.168 190.5,262.5 Z"/></g>
<g><path style="opacity:1" fill="#bdccef" d="M 160.5,268.5 C 166.128,267.171 172.128,266.504 178.5,266.5C 184.5,266.833 190.5,267.167 196.5,267.5C 184.518,268.499 172.518,268.832 160.5,268.5 Z"/></g>
<g><path style="opacity:1" fill="#f1f6fc" d="M 160.5,269.5 C 168.243,268.87 175.576,269.537 182.5,271.5C 174.757,272.13 167.424,271.463 160.5,269.5 Z"/></g>
<g><path style="opacity:1" fill="#1e55bb" d="M 234.5,246.5 C 234.5,251.5 234.5,256.5 234.5,261.5C 234.827,271.681 234.494,281.681 233.5,291.5C 233.666,286.489 233.499,281.489 233,276.5C 232.784,278.384 232.117,280.051 231,281.5C 230.667,280.833 230.333,280.167 230,279.5C 226.571,279.729 223.238,279.729 220,279.5C 219.309,277.109 218.309,277.109 217,279.5C 214.809,278.786 212.476,278.453 210,278.5C 209.085,279.328 208.419,280.328 208,281.5C 207.517,280.552 207.351,279.552 207.5,278.5C 208.887,273.396 210.554,268.396 212.5,263.5C 213.322,261.611 214.155,259.611 215,257.5C 215.725,256.941 216.558,256.608 217.5,256.5C 222.692,258.454 228.026,259.788 233.5,260.5C 233.181,255.637 233.514,250.97 234.5,246.5 Z"/></g>
<g><path style="opacity:0.11" fill="#dcc1d7" d="M 366.5,243.5 C 366.333,254.172 366.5,264.839 367,275.5C 366.936,279.638 368.103,283.304 370.5,286.5C 367.832,285.543 366.332,283.543 366,280.5C 365.173,267.993 365.34,255.66 366.5,243.5 Z"/></g>
<g><path style="opacity:0.937" fill="#dc9f9b" d="M 432.5,243.5 C 433.66,255.993 433.827,268.66 433,281.5C 432.722,282.416 432.222,283.082 431.5,283.5C 432.055,270.173 432.389,256.84 432.5,243.5 Z"/></g>
<g><path style="opacity:1" fill="#0d5169" d="M 287.5,262.5 C 288.529,264.517 289.529,266.517 290.5,268.5C 293.872,279.118 297.372,289.785 301,300.5C 303.266,310.097 305.099,319.764 306.5,329.5C 298.5,329.5 290.5,329.5 282.5,329.5C 277.264,312.501 270.931,295.501 263.5,278.5C 269.804,270.677 277.804,265.344 287.5,262.5 Z"/></g>
<g><path style="opacity:0.996" fill="#e4e9f8" d="M 169.5,273.5 C 177.243,272.87 184.576,273.537 191.5,275.5C 183.757,276.13 176.424,275.463 169.5,273.5 Z"/></g>
<g><path style="opacity:0.992" fill="#9389eb" d="M 87.5,274.5 C 89.4169,275.909 91.2502,277.576 93,279.5C 93.6123,281.237 92.9457,282.237 91,282.5C 89.3371,280.672 87.5038,279.005 85.5,277.5C 86.1925,276.482 86.8592,275.482 87.5,274.5 Z"/></g>
<g><path style="opacity:0.996" fill="#c9b7d7" d="M 122.5,269.5 C 123.376,269.369 124.043,269.702 124.5,270.5C 123.248,272.001 122.248,273.668 121.5,275.5C 123.316,276.815 124.983,278.315 126.5,280C 126,280.5 125.5,281 125,281.5C 123.649,279.981 122.149,278.648 120.5,277.5C 118.605,278.973 116.939,280.64 115.5,282.5C 115.167,282 114.833,281.5 114.5,281C 115.289,279.374 116.289,277.874 117.5,276.5C 116.653,275.155 115.487,274.155 114,273.5C 113.333,272.5 113.333,271.5 114,270.5C 115.955,271.453 117.622,272.787 119,274.5C 119.997,272.677 121.164,271.01 122.5,269.5 Z"/></g>
<g><path style="opacity:1" fill="#cbd9f7" d="M 196.5,276.5 C 189.913,278.461 182.913,279.128 175.5,278.5C 170.456,278.827 165.456,278.494 160.5,277.5C 172.482,276.501 184.482,276.168 196.5,276.5 Z"/></g>
<g><path style="opacity:1" fill="#4084e8" d="M 160.5,268.5 C 160.5,268.833 160.5,269.167 160.5,269.5C 167.424,271.463 174.757,272.13 182.5,271.5C 178.167,272.167 173.833,272.833 169.5,273.5C 176.424,275.463 183.757,276.13 191.5,275.5C 193.415,275.216 195.081,275.549 196.5,276.5C 184.482,276.168 172.482,276.501 160.5,277.5C 165.456,278.494 170.456,278.827 175.5,278.5C 182.321,279.329 189.321,279.829 196.5,280C 192.129,280.172 187.796,280.672 183.5,281.5C 186.107,282.318 188.774,282.818 191.5,283C 183.989,283.171 176.655,283.671 169.5,284.5C 172.768,285.822 176.435,286.489 180.5,286.5C 184.565,286.489 188.232,285.822 191.5,284.5C 193.314,284.772 195.314,284.939 197.5,285C 198.333,285.833 199.167,286.667 200,287.5C 200.84,284.536 201.84,284.203 203,286.5C 203.159,284.657 203.659,283.991 204.5,284.5C 204.279,287.067 203.612,289.401 202.5,291.5C 200.122,294.687 197.122,295.02 193.5,292.5C 192.353,292.818 191.519,293.484 191,294.5C 188.635,293.932 186.301,292.599 184,290.5C 183.333,293.167 182.667,293.167 182,290.5C 181.333,293.167 180.667,293.167 180,290.5C 179.667,291.167 179.333,291.833 179,292.5C 177.47,291.364 176.137,290.364 175,289.5C 174.333,292.167 173.667,292.167 173,289.5C 172.333,290.167 171.667,290.833 171,291.5C 170,290.167 169,290.167 168,291.5C 166.267,289.398 164.267,289.065 162,290.5C 160.982,288.436 159.649,288.102 158,289.5C 156.346,287.737 154.513,287.404 152.5,288.5C 148.772,287.623 145.105,286.623 141.5,285.5C 141.334,278.159 141.5,270.826 142,263.5C 143.044,264.623 143.71,265.956 144,267.5C 144.333,266.833 144.667,266.167 145,265.5C 146.797,268.096 148.131,267.763 149,264.5C 149.333,265.5 149.667,266.5 150,267.5C 150.605,265.519 151.605,265.185 153,266.5C 153.569,270.361 154.402,270.361 155.5,266.5C 156.99,268.376 158.657,269.043 160.5,268.5 Z"/></g>
<g><path style="opacity:0.996" fill="#d7e0f6" d="M 160.5,273.5 C 162.924,273.192 165.257,273.526 167.5,274.5C 166.333,274.833 165.167,275.167 164,275.5C 162.319,275.392 161.152,274.725 160.5,273.5 Z"/></g>
<g><path style="opacity:1" fill="#fef1e2" d="M 388.5,276.5 C 388.5,277.5 388.5,278.5 388.5,279.5C 384.167,279.5 379.833,279.5 375.5,279.5C 375.5,278.5 375.5,277.5 375.5,276.5C 379.833,276.5 384.167,276.5 388.5,276.5 Z"/></g>
<g><path style="opacity:1" fill="#d68f43" d="M 388.5,276.5 C 399.833,276.5 411.167,276.5 422.5,276.5C 422.5,277.5 422.5,278.5 422.5,279.5C 411.167,279.5 399.833,279.5 388.5,279.5C 388.5,278.5 388.5,277.5 388.5,276.5 Z"/></g>
<g><path style="opacity:1" fill="#fcfdfe" d="M 160.5,280.5 C 167.532,280.17 174.532,280.503 181.5,281.5C 178,281.833 174.5,282.167 171,282.5C 167.098,282.488 163.598,281.821 160.5,280.5 Z"/></g>
<g><path style="opacity:1" fill="#2168d1" d="M 233.5,291.5 C 234.509,296.999 233.175,301.665 229.5,305.5C 219.5,305.5 209.5,305.5 199.5,305.5C 180.992,305.83 162.659,305.497 144.5,304.5C 162.993,303.503 181.659,303.17 200.5,303.5C 201.038,299.476 201.705,295.476 202.5,291.5C 203.612,289.401 204.279,287.067 204.5,284.5C 205.5,282.5 206.5,280.5 207.5,278.5C 207.351,279.552 207.517,280.552 208,281.5C 208.419,280.328 209.085,279.328 210,278.5C 212.476,278.453 214.809,278.786 217,279.5C 218.309,277.109 219.309,277.109 220,279.5C 223.238,279.729 226.571,279.729 230,279.5C 230.333,280.167 230.667,280.833 231,281.5C 232.117,280.051 232.784,278.384 233,276.5C 233.499,281.489 233.666,286.489 233.5,291.5 Z"/></g>
<g><path style="opacity:1" fill="#c5d7f6" d="M 160.5,284.5 C 162.604,284.201 164.604,284.534 166.5,285.5C 165.5,285.833 164.5,286.167 163.5,286.5C 161.97,286.36 160.97,285.693 160.5,284.5 Z"/></g>
<g><path style="opacity:1" fill="#c8d7f6" d="M 169.5,284.5 C 176.833,284.5 184.167,284.5 191.5,284.5C 188.232,285.822 184.565,286.489 180.5,286.5C 176.435,286.489 172.768,285.822 169.5,284.5 Z"/></g>
<g><path style="opacity:1" fill="#3c8df4" d="M 141.5,285.5 C 145.105,286.623 148.772,287.623 152.5,288.5C 154.513,287.404 156.346,287.737 158,289.5C 159.649,288.102 160.982,288.436 162,290.5C 164.267,289.065 166.267,289.398 168,291.5C 169,290.167 170,290.167 171,291.5C 171.667,290.833 172.333,290.167 173,289.5C 173.667,292.167 174.333,292.167 175,289.5C 176.137,290.364 177.47,291.364 179,292.5C 179.333,291.833 179.667,291.167 180,290.5C 180.667,293.167 181.333,293.167 182,290.5C 182.667,293.167 183.333,293.167 184,290.5C 186.301,292.599 188.635,293.932 191,294.5C 191.519,293.484 192.353,292.818 193.5,292.5C 197.122,295.02 200.122,294.687 202.5,291.5C 201.705,295.476 201.038,299.476 200.5,303.5C 181.659,303.17 162.993,303.503 144.5,304.5C 141.11,303.056 139.777,300.39 140.5,296.5C 140.423,292.785 140.756,289.119 141.5,285.5 Z"/></g>
<g><path style="opacity:0.992" fill="#775be6" d="M 355.5,281.5 C 357.635,281.147 358.968,281.98 359.5,284C 357.617,286.381 355.284,288.214 352.5,289.5C 351.026,288.564 350.026,287.23 349.5,285.5C 351.565,284.143 353.565,282.81 355.5,281.5 Z"/></g>
<g><path style="opacity:0.937" fill="#dc9c98" d="M 431.5,283.5 C 430.976,286.188 429.309,287.688 426.5,288C 408.5,288.667 390.5,288.667 372.5,288C 371.584,287.722 370.918,287.222 370.5,286.5C 389.836,286.667 409.17,286.5 428.5,286C 429.373,284.955 430.373,284.122 431.5,283.5 Z"/></g>
<g><path style="opacity:0.984" fill="#c4b3d2" d="M 356.5,288.5 C 357.573,289.251 357.74,290.251 357,291.5C 355.692,293.641 354.192,295.641 352.5,297.5C 351.417,296.635 351.251,295.635 352,294.5C 354.102,292.905 355.602,290.905 356.5,288.5 Z"/></g>
<g><path style="opacity:0.153" fill="#6ac0e6" d="M 290.5,268.5 C 292.774,272.714 294.774,277.047 296.5,281.5C 302.684,296.903 306.35,312.903 307.5,329.5C 307.167,329.5 306.833,329.5 306.5,329.5C 305.099,319.764 303.266,310.097 301,300.5C 297.372,289.785 293.872,279.118 290.5,268.5 Z"/></g>
<g><path style="opacity:1" fill="#354a90" d="M 244.5,280.5 C 245.043,280.56 245.376,280.893 245.5,281.5C 238.079,296.763 233.079,312.763 230.5,329.5C 229.833,329.5 229.167,329.5 228.5,329.5C 231.435,312.361 236.769,296.028 244.5,280.5 Z"/></g>
<g><path style="opacity:1" fill="#274466" d="M 250.5,277.5 C 250.082,278.222 249.416,278.722 248.5,279C 243.989,295.507 239.322,312.341 234.5,329.5C 233.167,329.5 231.833,329.5 230.5,329.5C 233.079,312.763 238.079,296.763 245.5,281.5C 245.376,280.893 245.043,280.56 244.5,280.5C 243.737,279.732 242.737,279.232 241.5,279C 244.351,277.711 247.351,277.211 250.5,277.5 Z"/></g>
<g><path style="opacity:1" fill="#33488f" d="M 274.5,329.5 C 273.833,329.5 273.167,329.5 272.5,329.5C 271.813,323.751 270.647,318.084 269,312.5C 265.491,301.637 261.825,290.97 258,280.5C 266.189,295.901 271.689,312.234 274.5,329.5 Z"/></g>
<g><path style="opacity:1" fill="#15526a" d="M 199.5,305.5 C 209.5,305.5 219.5,305.5 229.5,305.5C 227.849,312.773 226.515,320.106 225.5,327.5C 224.127,327.343 222.793,327.51 221.5,328C 222.737,328.232 223.737,328.732 224.5,329.5C 215.5,329.5 206.5,329.5 197.5,329.5C 197.639,321.445 198.306,313.445 199.5,305.5 Z"/></g>
</svg>
