<svg width="327" height="374" viewBox="0 0 327 374" fill="none" xmlns="http://www.w3.org/2000/svg">
<g clip-path="url(#clip0_1_4415)">
<path d="M296.574 53.7681C302.173 54.5121 318.969 80.1814 318.223 82.7856C317.476 85.3897 215.575 19.9143 193.179 7.26569C193.179 7.26569 206.243 10.2418 216.322 15.0781C226.4 19.9143 220.427 10.9859 229.946 9.68381C239.464 8.38175 242.077 18.4263 242.077 18.4263C242.077 18.4263 244.316 13.776 248.049 14.148C251.782 14.5201 252.342 19.9143 252.342 19.9143C252.342 19.9143 256.935 -2.73095 274.924 0.569345C312.437 7.4517 296.574 53.7681 296.574 53.7681Z" fill="#EFE6D9"/>
<path d="M316.264 159.563C316.264 159.563 319.716 161.283 319.223 165.707C319.223 165.707 327.36 170.623 326.867 172.835C326.374 175.047 274.342 138.672 271.137 136.215C267.931 133.757 287.905 141.376 287.905 141.376C287.905 141.376 282.973 133.02 295.796 130.07C308.619 127.121 322.675 142.85 316.264 159.563Z" fill="#EFE6D9"/>
<path d="M11.7045 328.413C21.7448 337.448 144.519 376.192 201.858 373.291C259.196 370.383 302.922 335.193 293.209 328.087C283.489 320.988 257.894 318.725 281.546 311.946C305.192 305.166 333.377 293.223 312.969 279.663C292.561 266.096 247.854 251.246 247.854 251.246C247.854 251.246 249.476 245.111 248.501 241.239C247.533 237.367 226.232 228.114 170.107 229.296C124.111 230.261 69.3632 241.565 71.3058 246.728C73.2484 251.891 92.6884 255.77 84.2635 258.997C75.8454 262.224 9.10751 280.954 12.9996 286.762C16.0533 291.327 40.5236 300.682 50.8571 304.479C48.2805 302.931 44.6338 300.485 46.038 299.84C48.0828 298.895 51.5114 302.679 51.7023 302.897C51.5114 302.537 45.9357 291.945 49.2825 293.06C52.6838 294.187 55.4376 306.137 55.4376 306.137C55.4376 306.137 1.65735 319.371 11.7045 328.413Z" fill="#FDA758"/>
<path opacity="0.3" d="M269.884 276.35C291.725 277.496 301.468 283.13 290.292 284.341C279.116 285.552 300.01 289.668 273.771 291.605C247.532 293.542 244.13 288.942 252.634 287.973C261.137 287.004 222.264 287.731 216.919 282.404C211.574 277.077 256.035 275.624 269.884 276.35Z" fill="black"/>
<path opacity="0.3" d="M171.08 275.14C230.984 277.735 239.353 282.89 242.269 287.088C245.184 291.285 234.897 301.291 234.897 301.291C234.897 301.291 265.995 314.851 270.53 322.277C275.065 329.703 231.009 352.626 212.545 355.531C194.08 358.437 136.743 354.886 125.405 348.429C114.067 341.971 141.602 334.546 141.602 334.546C141.602 334.546 83.9402 318.08 78.1092 310.008C72.2783 301.937 134.799 289.668 134.799 289.668C134.799 289.668 122.813 282.242 121.841 279.66C120.869 277.077 156.179 274.494 171.08 275.14Z" fill="black"/>
<path d="M130.674 299.803C130.674 299.803 128.268 294.607 125.595 294.208C122.922 293.808 125.327 299.669 125.327 299.669C125.327 299.669 122.654 297.272 120.382 298.87C118.11 300.469 121.451 302.733 121.451 302.733C121.451 302.733 117.976 302.2 116.372 304.732C114.768 307.263 117.976 309.527 117.976 309.527C117.976 309.527 110.759 309.794 110.625 312.858C110.491 315.921 137.758 314.589 137.758 314.589L130.674 299.803Z" fill="#363E4F"/>
<path opacity="0.3" d="M131.076 248.019C140.471 248.019 142.252 252.862 128.97 252.701C115.689 252.539 115.365 248.019 131.076 248.019Z" fill="black"/>
<path opacity="0.3" d="M112.075 262.142C115.962 262.306 115.051 265.763 107.795 265.06C100.539 264.358 102.036 261.717 112.075 262.142Z" fill="black"/>
<path opacity="0.3" d="M78.2727 284.179C85.2439 284.055 93.012 286.117 94.3078 287.247C95.6036 288.377 87.829 291.605 77.7868 291.121C67.7447 290.637 57.7025 289.184 56.8927 287.731C56.0828 286.278 69.2024 284.341 78.2727 284.179Z" fill="black"/>
<path d="M71.0647 264.647C71.0647 264.647 74.3041 259.884 73.9802 257.382C73.6562 254.88 70.9027 259.642 71.0647 264.647Z" fill="#FDA758"/>
<path d="M65.9619 265.373C65.9619 265.131 62.8035 254.154 58.5923 249.876C54.381 245.598 64.5852 264.566 64.2612 264.243C63.9373 263.92 59.807 259.804 57.2965 260.288C54.786 260.772 61.6697 265.292 61.6697 265.292C61.6697 265.292 51.7895 262.306 49.117 264.485C46.4445 266.664 60.8599 267.31 60.8599 267.31L65.9619 265.373Z" fill="#FDA758"/>
<path d="M105.199 236.114C105.199 236.114 107.993 233.329 107.143 230.302C106.292 227.275 103.498 237.082 103.498 237.082C103.498 237.082 100.826 231.634 97.7889 231.876C94.7519 232.118 102.405 238.293 102.405 238.293L105.321 237.445L105.199 236.114Z" fill="#FDA758"/>
<path d="M77.0166 243.499C76.4092 242.652 71.1857 236.114 68.0272 237.93C64.8688 239.746 77.0166 243.499 77.0166 243.499Z" fill="#FDA758"/>
<path d="M306.792 278.187C306.792 278.187 312.744 275.462 312.744 273.162C312.744 270.862 306.792 275.947 306.792 275.947C306.792 275.947 310.8 268.38 308.614 266.14C306.427 263.9 304.97 277.157 304.97 277.157L306.792 278.187Z" fill="#FDA758"/>
<path d="M19.9641 302.26C31.464 302.26 32.5978 306.134 19.8021 306.78C7.00646 307.425 10.2458 302.26 19.9641 302.26Z" fill="#FDA758"/>
<path d="M17.1879 297.783C19.5747 298.236 17.1703 299.906 11.8684 299.212C6.56648 298.518 11.2983 296.667 17.1879 297.783Z" fill="#FDA758"/>
<path d="M10.0831 307.748C12.371 307.637 14.9422 308.878 15.4281 309.201C15.914 309.524 12.9985 310.493 8.78731 310.493C4.57608 310.493 3.44231 308.071 10.0831 307.748Z" fill="#FDA758"/>
<path d="M35.9981 306.457C39.7354 307.03 34.8643 308.717 31.6249 308.233C28.3855 307.748 29.6813 305.488 35.9981 306.457Z" fill="#FDA758"/>
<path d="M289.805 314.205C301.305 314.205 302.439 318.08 289.643 318.725C276.848 319.371 280.087 314.205 289.805 314.205Z" fill="#FDA758"/>
<path d="M313.768 310.442C316.146 310.943 313.708 312.565 308.421 311.764C303.134 310.963 307.903 309.208 313.768 310.442Z" fill="#FDA758"/>
<path d="M308.756 321.47C311.044 321.359 313.616 322.6 314.101 322.923C314.587 323.246 311.672 324.214 307.461 324.214C303.249 324.214 302.116 321.793 308.756 321.47Z" fill="#FDA758"/>
<path d="M324.953 317.273C328.69 317.846 323.819 319.533 320.58 319.048C317.341 318.564 318.636 316.304 324.953 317.273Z" fill="#FDA758"/>
<path d="M162.692 223.179C165.229 224.055 167.815 224.732 170.412 225.359C173.014 225.967 175.627 226.524 178.289 226.88L178.447 226.218C175.91 225.34 173.325 224.664 170.727 224.038C168.125 223.432 165.512 222.875 162.85 222.517L162.692 223.179Z" fill="#F7BC4B"/>
<path d="M114.263 211.687C117.677 212.641 121.109 213.523 124.544 214.394C127.978 215.266 131.426 216.079 134.867 216.925C138.32 217.717 141.767 218.537 145.227 219.303L150.42 220.437C152.156 220.792 153.888 221.168 155.629 221.502L155.787 220.841C154.081 220.357 152.365 219.916 150.655 219.452L145.506 218.133C142.071 217.263 138.624 216.447 135.183 215.604C131.729 214.813 128.283 213.99 124.823 213.227C121.363 212.462 117.9 211.707 114.421 211.026L114.263 211.687Z" fill="#F7BC4B"/>
<path d="M37.267 193.418C42.7484 194.862 48.247 196.235 53.7483 197.596L70.2716 201.598L86.8314 205.447L95.1243 207.317L103.434 209.118L103.592 208.456L95.3596 206.332L87.1108 204.277L70.5872 200.277L54.0271 196.429C48.5006 195.173 42.9714 193.929 37.425 192.756L37.267 193.418Z" fill="#F7BC4B"/>
<path d="M0.0409184 184.585C2.19721 185.241 4.3708 185.824 6.54702 186.396C8.72141 186.976 10.9082 187.504 13.0951 188.031C15.2857 188.543 17.4766 189.054 19.6797 189.513L22.985 190.2C24.0925 190.405 25.1946 190.633 26.3069 190.818L26.4648 190.156C25.3883 189.822 24.3016 189.53 23.2203 189.215L19.959 188.344C17.7845 187.765 15.5978 187.237 13.4107 186.71C11.2199 186.199 9.02902 185.688 6.8258 185.229C4.62433 184.763 2.42028 184.307 0.198927 183.924L0.0409184 184.585Z" fill="#F7BC4B"/>
<path d="M179.905 112.021C179.727 114.284 179.624 116.548 179.533 118.813C179.433 121.078 179.388 123.343 179.342 125.608C179.312 127.874 179.284 130.14 179.309 132.407L179.348 135.806C179.386 136.94 179.401 138.073 179.459 139.208L180.141 139.219C180.237 138.087 180.289 136.955 180.364 135.823L180.515 132.426C180.614 130.162 180.66 127.896 180.705 125.631C180.733 123.365 180.762 121.099 180.736 118.833C180.719 116.566 180.69 114.299 180.587 112.032L179.905 112.021Z" fill="#F7BC4B"/>
<path d="M126.273 166.048C122.454 161.436 118.577 156.873 114.692 152.317L102.974 138.704L91.1365 125.194L85.1756 118.475L79.1602 111.804L78.6444 112.249L84.4073 119.138L90.2247 125.981L101.944 139.593L113.782 153.102C117.75 157.587 121.725 162.064 125.758 166.493L126.273 166.048Z" fill="#F7BC4B"/>
<path d="M160.478 205.43C159.035 203.555 157.536 201.729 156.028 199.91C154.527 198.087 152.985 196.298 151.442 194.509C149.888 192.731 148.332 190.953 146.737 189.211L144.342 186.598C143.525 185.743 142.725 184.873 141.893 184.032L141.377 184.477C142.093 185.419 142.842 186.332 143.574 187.261L145.825 189.997C147.327 191.821 148.869 193.61 150.412 195.398C151.967 197.175 153.523 198.953 155.118 200.695C156.708 202.443 158.307 204.183 159.962 205.875L160.478 205.43Z" fill="#F7BC4B"/>
<path d="M178.463 199.989C178.287 202.199 178.184 204.411 178.094 206.623C177.995 208.835 177.95 211.048 177.905 213.261C177.877 215.474 177.849 217.687 177.875 219.901L177.915 223.222C177.954 224.329 177.969 225.436 178.028 226.544L178.71 226.555C178.805 225.449 178.857 224.344 178.931 223.238L179.081 219.92C179.179 217.708 179.224 215.496 179.268 213.283C179.296 211.07 179.323 208.857 179.297 206.643C179.279 204.429 179.249 202.215 179.145 200L178.463 199.989Z" fill="#F7BC4B"/>
<path d="M238.661 123.355L240.848 126.14L244.735 135.826C244.735 135.826 247.938 146.515 240.119 146.359C234.045 146.238 236.718 125.656 236.718 125.656L238.661 123.355Z" fill="#FFB68D"/>
<path d="M227.121 112.257C228.281 112.257 237.931 127.305 239.916 131.79C240.149 132.315 239.073 134.059 239.106 134.211C239.43 135.664 213.839 144.704 212.219 144.704C210.6 144.704 199.424 121.458 199.424 120.651C199.424 120.564 199.683 118.459 200.234 118.23C204.753 116.348 225.677 112.257 227.121 112.257Z" fill="#363E4F"/>
<path d="M227.93 109.835C229.226 109.835 239.592 130.337 239.916 131.79C240.24 133.243 214.649 142.283 213.029 142.283C211.409 142.283 200.233 119.037 200.233 118.23C200.233 117.423 226.31 109.835 227.93 109.835Z" fill="#ED4A2F"/>
<path d="M204.621 118.622C206.775 117.896 209.754 116.965 212.869 116.034C215.173 115.341 217.558 114.648 219.733 114.023C223.011 113.093 225.827 112.332 227.244 112.019C227.762 112.746 228.526 114.016 229.412 115.579C232.159 120.416 236.065 128.059 237.462 131.156C235.308 132.298 230.182 134.322 225.145 136.17C222.78 137.046 220.428 137.875 218.417 138.561C216.359 139.261 214.655 139.805 213.646 140.076C212.985 139.173 211.949 137.393 210.763 135.212C208.956 131.89 206.809 127.637 205.119 124.146C204.158 122.175 203.347 120.443 202.822 119.247C203.319 119.064 203.926 118.853 204.621 118.622Z" fill="#65A9DF"/>
<path opacity="0.2" d="M218.417 138.561C220.427 137.875 222.779 137.046 225.144 136.17C226.555 130.525 228.668 121.53 229.411 115.579C228.525 114.016 227.762 112.746 227.244 112.019C225.826 112.332 223.011 113.093 219.732 114.023C219.309 121.408 218.676 132.59 218.417 138.561Z" fill="white"/>
<path opacity="0.2" d="M204.622 118.622L205.12 124.145C206.81 127.637 208.957 131.89 210.763 135.212C210.579 130.572 210.375 124.777 210.518 124.444C210.763 123.88 213.033 123.962 213.033 123.962L212.87 116.034C209.755 116.965 206.776 117.895 204.622 118.622Z" fill="white"/>
<path d="M230.523 121.418C230.823 120.745 234.045 120.813 235.625 120.813C237.204 120.813 239.026 123.477 239.147 124.082C239.269 124.687 239.512 126.867 237.568 126.988C235.625 127.109 234.288 123.719 234.288 123.719C234.288 123.719 229.551 123.598 230.523 121.418Z" fill="#FFB68D"/>
<path d="M253.2 200.396C253.656 210.872 259.696 231.055 262.436 239.465C263.84 243.779 266.928 245.559 269.961 245.552C274.337 245.546 278.611 241.823 277.615 236.626C277.281 235.206 277.05 234.065 277.009 233.331C276.845 230.423 279.96 211.211 279.115 198.297C278.283 185.722 264.665 186.666 257.514 192.414C254.836 194.554 253.063 197.366 253.2 200.396Z" fill="#363E4F"/>
<path opacity="0.3" d="M257.514 192.414C257.589 192.543 257.657 192.672 257.732 192.808C259.028 195.233 261.134 196.843 261.134 196.843C264.862 201.205 264.535 226.714 264.699 227.842C264.862 228.97 267.125 227.196 267.289 229.778C267.418 231.789 268.332 238.222 269.961 245.552C274.337 245.546 278.611 241.823 277.615 236.626C277.281 235.206 277.05 234.065 277.009 233.331C276.845 230.423 279.96 211.211 279.115 198.297C278.283 185.722 264.665 186.666 257.514 192.414Z" fill="black"/>
<path d="M263.161 278.365C263.563 279.982 267.046 283.854 268.423 284.099C269.8 284.343 272.799 283.698 272.799 283.698C272.799 283.698 273.364 286.843 274.012 287.244C274.203 287.366 274.544 287.523 274.939 287.624C275.873 287.869 277.148 287.808 277.659 286.279C278.388 284.099 278.708 281.272 278.224 279.819C277.938 278.963 276.2 278.317 274.237 277.787C272.867 277.421 271.381 277.108 270.209 276.836C265.43 275.702 262.758 276.755 263.161 278.365Z" fill="#363E4F"/>
<path opacity="0.3" d="M274.939 287.624C275.873 287.869 277.148 287.808 277.659 286.279C278.388 284.099 278.708 281.272 278.224 279.819C277.938 278.963 276.2 278.317 274.237 277.787C274.673 280.681 275.859 283.698 274.939 287.624Z" fill="black"/>
<path d="M262.998 239.383C263.169 239.912 263.422 240.562 263.565 240.997C264.342 243.313 264.837 247.25 266.037 251.741C268.606 261.333 271.421 273.106 271.421 275.138C271.421 278.127 267.134 278.201 267.938 279.091C268.709 279.934 272.219 280.987 274.721 280.287C274.864 280.246 275.007 280.199 275.143 280.144C277.406 279.268 277.897 279.9 277.897 279.9C277.897 279.9 277.011 276.591 277.011 274.818C277.011 273.038 280.412 260.124 280.412 252.862C280.412 251.428 280.283 249.913 280.078 248.378C279.512 244.105 278.217 240.294 277.495 237.203C276.097 232.917 271.715 231.146 267.857 232.199C264.776 233.028 262.528 235.035 262.998 239.383Z" fill="#FFB68D"/>
<path d="M262.438 239.465C262.608 239.995 262.772 240.484 262.915 240.919C263.692 243.236 264.837 247.251 266.037 251.741C274.632 254.479 278.667 250.416 280.078 248.378C279.512 244.105 278.34 239.717 277.617 236.626C275.102 228.929 261.381 229.655 262.438 239.465Z" fill="#363E4F"/>
<path opacity="0.3" d="M271.503 251.891C274.093 261.578 274.257 271.429 274.093 275.627C274.032 277.162 274.387 278.671 274.721 280.287C274.864 280.247 275.007 280.199 275.143 280.145C277.406 279.268 277.897 279.9 277.897 279.9C277.897 279.9 277.011 276.592 277.011 274.819C277.011 273.039 280.412 260.124 280.412 252.862C280.412 251.429 280.283 249.914 280.078 248.378C279.512 244.105 278.34 239.717 277.617 236.626C276.22 232.339 271.346 230.668 267.488 231.721C267.993 235.749 269.356 243.874 271.503 251.891Z" fill="black"/>
<path d="M229.288 208.351C229.493 220.851 230.883 238.059 232.104 245.756C232.26 246.755 232.444 247.964 232.656 249.336C234.033 257.142 238.913 258.908 243.064 257.352C246.029 256.245 248.619 253.453 249.308 249.954C249.955 246.727 257.085 221.381 259.512 216.055C261.945 210.729 265.619 192.06 252.225 187.97C244.168 185.504 229.67 189.581 229.309 201.687C229.248 203.657 229.241 205.912 229.288 208.351Z" fill="#363E4F"/>
<path opacity="0.3" d="M229.288 208.351C233.624 215.749 240.74 220.756 242.185 223.161C244.127 226.388 238.136 244.628 238.783 245.6C239.431 246.564 241.21 245.6 242.348 246.89C242.941 247.57 243.132 252.053 243.064 257.352C246.029 256.245 248.619 253.453 249.308 249.954C249.955 246.727 257.085 221.381 259.512 216.055C261.945 210.729 265.619 192.06 252.225 187.97C244.168 185.504 229.67 189.581 229.309 201.687C229.248 203.657 229.241 205.912 229.288 208.351Z" fill="black"/>
<path d="M234.328 293.059C235.95 293.379 237.647 292.652 237.647 292.652C237.647 292.652 237.654 292.713 237.668 292.821C237.729 293.392 237.954 295.288 238.295 295.967C238.704 296.768 239.917 297.095 241.049 296.612C242.187 296.123 243.646 292.414 243.646 290.96C243.646 289.506 243.237 288.379 242.269 287.088C242.269 287.088 240.98 285.559 239.678 284.995L239.672 284.989C238.377 284.425 230.442 279.737 230.115 282.808C229.795 285.872 232.712 292.733 234.328 293.059Z" fill="#363E4F"/>
<path opacity="0.3" d="M237.668 292.821C237.729 293.392 237.954 295.287 238.295 295.967C238.704 296.768 239.917 297.094 241.049 296.612C242.187 296.123 243.646 292.414 243.646 290.96C243.646 289.506 243.237 288.378 242.269 287.087C242.269 287.087 240.98 285.559 239.678 284.995C239.058 287.529 238.37 290.179 237.668 292.821Z" fill="black"/>
<path d="M234.171 284.343C234.491 285.715 236.196 288.861 237.491 288.861C238.097 288.861 238.438 288.738 238.772 288.575C239.147 288.405 239.515 288.181 240.244 288.052C241.58 287.821 242.753 288.378 242.835 288.46C242.8 288.351 242.603 287.094 242.916 285.552C243.237 283.942 247.695 275.783 248.99 269.975C249.569 267.393 249.63 264.322 249.555 261.347C249.44 256.537 248.343 252.115 248.745 250.118C248.636 245.26 243.878 242.474 239.27 242.773C235.773 242.997 233.142 244.9 233.115 249.472C233.715 253.406 234.035 258.521 234.785 263.745C236.202 273.589 237.511 283.324 237.327 283.935C236.271 283.208 233.844 282.971 234.171 284.343Z" fill="#FFB68D"/>
<path d="M232.658 249.336C233.258 253.27 234.035 258.521 234.785 263.745C236.019 264.941 237.607 265.776 239.638 265.98C245.636 266.585 248.356 263.636 249.556 261.347C249.44 256.537 248.908 251.952 249.31 249.954C249.113 241.401 232.713 238.738 232.658 249.336Z" fill="#363E4F"/>
<path opacity="0.3" d="M242.351 271.585C241.976 275.45 240.517 281.816 238.772 288.575C239.147 288.405 239.515 288.181 240.244 288.052C241.58 287.821 242.753 288.378 242.835 288.46C242.8 288.351 242.603 287.094 242.916 285.552C243.237 283.942 247.695 275.783 248.99 269.974C249.569 267.393 249.63 264.322 249.555 261.347C249.44 256.537 248.908 251.951 249.31 249.954C249.201 245.097 243.857 242.135 239.249 242.434C238.854 244.173 238.636 245.368 238.786 245.599C239.433 246.564 241.212 245.599 242.351 246.89C243.482 248.181 243.155 263.358 242.351 271.585Z" fill="black"/>
<path d="M222.137 204.35C222.137 204.35 229.308 216.096 253.601 215.974C265.168 215.919 273.013 211.531 278.064 206.938C283.626 201.891 285.794 196.606 285.794 196.606C285.794 196.606 281.057 182.679 277.287 176.144C273.525 169.608 266.845 157.135 266.845 157.135C266.845 157.135 268.733 150.172 270.307 143.786C270.607 142.556 270.9 141.347 271.166 140.213C271.609 138.283 271.977 136.571 272.189 135.342C273.157 129.649 270.355 122.937 260.042 122.387C255.932 122.169 250.315 124.207 246.137 126.089C243.397 127.325 241.277 128.494 240.602 128.922C239.034 129.927 231.393 136.374 230.378 140.6C230.296 140.967 230.255 141.313 230.276 141.639C230.521 145.756 235.865 162.461 235.865 162.461C235.865 162.461 235.831 162.59 235.769 162.835C235.415 164.221 234.099 169.241 232.341 174.085C230.276 179.778 222.137 204.35 222.137 204.35Z" fill="#F7BC4B"/>
<path opacity="0.1" d="M264.861 178.12C270.43 182.645 275.283 197.067 278.064 206.938C283.626 201.891 285.794 196.605 285.794 196.605C285.794 196.605 281.057 182.679 277.287 176.143C273.525 169.608 266.845 157.135 266.845 157.135C266.845 157.135 268.733 150.172 270.307 143.786C263.178 149.574 249.45 157.033 247.527 158.263C245.258 159.717 254.003 161.333 256.436 161.497C258.863 161.653 245.258 168.433 244.61 169.567C243.963 170.695 256.109 171.021 264.861 178.12Z" fill="black"/>
<path opacity="0.3" d="M235.865 162.461C235.865 162.461 235.831 162.59 235.77 162.835C239.621 156 247.882 140.09 244.61 134.696C244.61 134.696 237.644 135.341 236.513 135.504C235.94 135.586 233.363 137.712 230.378 140.6C230.296 140.966 230.255 141.313 230.276 141.639C230.521 145.756 235.865 162.461 235.865 162.461Z" fill="black"/>
<path opacity="0.1" d="M246.138 126.089C248.34 135.063 259.212 143.847 271.168 140.213C271.611 138.283 271.979 136.571 272.19 135.342C273.158 129.649 270.356 122.937 260.043 122.386C255.933 122.169 250.317 124.207 246.138 126.089Z" fill="black"/>
<path d="M238.218 115.802C238.381 116.203 238.565 116.576 238.783 116.936C241.858 122.263 249.86 123.268 254.979 119.07C257.589 116.93 254.045 112.575 249.628 108.614C244.802 104.287 238.947 100.428 238.947 100.428C238.947 100.428 235.668 109.504 238.218 115.802Z" fill="#FFB68D"/>
<path opacity="0.3" d="M238.783 116.936C241.858 122.262 249.86 123.268 254.979 119.069C257.589 116.929 254.045 112.575 249.628 108.614C247.951 117.799 241.939 120.747 238.783 116.936Z" fill="black"/>
<path d="M239.069 102.847C239.192 113.017 246.233 115.924 246.233 115.924C242.225 133.112 253.036 142.072 264.698 142.072C268.222 142.072 271.528 141.244 274.295 139.763C280.696 136.352 284.268 129.484 281.221 121.373C276.845 109.749 267.37 110.958 267.37 110.958C269.579 107.657 270.451 99.9527 267.057 94.5383C265.973 92.8059 264.446 91.3046 262.387 90.2584C255.708 86.8684 250.241 89.647 250.241 89.647C250.241 89.647 253.663 84.45 252.545 82.378C252.538 82.378 252.538 82.378 252.538 82.378C252.265 81.8548 251.7 81.5355 250.732 81.5355C245.872 81.5355 245.381 87.2285 245.381 87.2285C245.258 86.6035 245.047 86.0464 244.781 85.5641C244.781 85.5573 244.774 85.5505 244.767 85.5437C242.648 81.7937 236.67 82.3168 235.061 90.1361C233.234 98.9745 239.069 102.847 239.069 102.847Z" fill="#363E4F"/>
<path opacity="0.3" d="M240.637 98.5669C240.541 102.113 240.841 108.873 244.168 111.726C248.782 115.68 256.396 114.633 256.396 114.633C256.396 114.633 250.888 119.552 253.806 127.867C253.806 127.867 252.265 127.303 251.134 125.286C251.134 125.286 250.766 144.899 274.295 139.763C280.696 136.352 284.268 129.484 281.221 121.373C276.845 109.749 267.37 110.958 267.37 110.958C269.579 107.657 270.451 99.9528 267.057 94.5383C266.641 104.28 253.056 108.703 246.274 104.219C242.573 101.767 241.128 99.8848 240.637 98.5669Z" fill="black"/>
<path opacity="0.3" d="M240.432 97.6632C240.445 97.9281 240.507 98.227 240.636 98.5667C240.65 98.0844 240.67 97.6632 240.691 97.3167C240.725 96.685 240.766 96.3113 240.766 96.3113C240.766 96.3113 240.357 96.7597 240.432 97.6632Z" fill="black"/>
<path opacity="0.3" d="M240.037 98.1865L240.433 97.6635L240.692 97.317L244.229 92.6158L250.241 89.6471C250.241 89.6471 253.663 84.4501 252.545 82.3781C252.538 82.3781 252.538 82.3781 252.538 82.3781C252.057 81.8522 251.455 81.9796 251.002 81.998C248.386 82.1039 246.356 90.9243 246.356 90.9243L245.811 91.2844C245.811 91.2844 245.265 89.5316 245.381 87.2286C245.259 86.6036 245.047 86.0466 244.781 85.5642C244.781 85.5574 244.775 85.5506 244.768 85.5438C243.507 83.9677 240.589 83.3903 238.701 88.3767C236.213 94.98 240.037 98.1865 240.037 98.1865Z" fill="black"/>
<path d="M248.705 90.578C248.705 90.578 239.189 94.1295 239.675 108.295C239.675 108.295 236.024 102.624 239.068 96.6316C242.388 90.0937 248.705 90.578 248.705 90.578Z" fill="#F7BC4B"/>
<path d="M244.899 109.99C248.051 110.186 247.814 116.285 244.413 117.496C241.012 118.707 240.404 115.075 241.133 113.259C241.862 111.443 242.955 109.869 244.899 109.99Z" fill="#FFB68D"/>
<path d="M209.788 137.441C209.952 138.004 212.665 143.697 212.665 143.697C212.665 143.697 212.058 146.843 211.813 151.442C211.676 154.119 212.351 155.973 213.537 157.081C214.396 157.882 215.521 158.297 216.795 158.344C219.836 158.466 221.533 155.681 221.172 152.291C220.803 148.901 220.681 143.453 220.681 143.453C220.681 143.453 223.073 140.667 223.557 139.703C224.041 138.731 224.327 136.795 224.934 134.981C225.541 133.161 224.573 132.196 223.237 133.405C221.901 134.614 221.41 136.795 221.41 136.795C221.41 136.795 221.989 124.329 220.401 123.555C218.902 122.828 218.213 129.608 218.213 129.608C218.213 129.608 216.673 129.044 216.025 129.044C215.378 129.044 214.164 130.498 214.164 130.498C214.164 130.498 213.19 130.661 212.624 130.824C212.058 130.98 211.656 132.114 211.656 132.114C211.656 132.114 210.6 132.114 210.197 132.434C209.788 132.76 209.632 136.877 209.788 137.441Z" fill="#FFB68D"/>
<path opacity="0.3" d="M213.537 157.081C214.396 157.882 215.521 158.297 216.795 158.344C219.836 158.467 221.533 155.681 221.172 152.291C220.803 148.901 220.681 143.453 220.681 143.453C220.681 143.453 223.073 140.668 223.557 139.703C224.041 138.731 224.327 136.795 224.934 134.981C225.541 133.161 224.573 132.196 223.237 133.405C221.901 134.615 221.41 136.795 221.41 136.795C221.41 136.795 221.989 124.329 220.401 123.555C220.967 124.927 219.59 135.668 219.345 137.359C219.106 139.058 215.378 151.401 215.378 151.401C215.378 151.401 214.144 154.173 213.537 157.081Z" fill="black"/>
<path d="M213.368 155.219C213.545 156.001 213.899 156.775 214.486 157.495C217.158 160.77 223.115 158.344 227.368 155.559C229.536 154.139 228.254 151.048 226.482 148.365C224.785 145.783 222.624 143.575 222.624 143.575C222.018 144.058 217.158 147.93 215.583 148.902C214.349 149.656 212.747 152.468 213.368 155.219Z" fill="#FFB68D"/>
<path opacity="0.3" d="M213.368 155.22C213.545 156.001 213.899 156.775 214.486 157.495C217.158 160.77 223.115 158.345 227.368 155.559C229.536 154.139 228.254 151.048 226.482 148.365C225.214 148.182 224.369 148.093 224.369 148.093C222.508 150.933 217.26 154.051 213.368 155.22Z" fill="black"/>
<path d="M220.075 151.565C220.245 152.02 220.429 152.448 220.634 152.842C223.947 159.357 231.492 158.711 231.492 158.711C231.492 158.711 244.375 143.936 246.44 139.941C247.579 137.733 247.456 134.54 246.093 132.264C244.988 130.417 243.073 129.167 240.36 129.533C235.868 130.138 221.411 139.941 221.411 139.941C221.411 139.941 217.158 143.698 220.075 151.565Z" fill="#65A9DF"/>
<path opacity="0.3" d="M220.634 152.842C223.947 159.357 231.492 158.711 231.492 158.711C231.492 158.711 244.375 143.936 246.44 139.941C247.579 137.733 247.456 134.54 246.093 132.264C244.443 140.219 230.211 148.181 220.634 152.842Z" fill="black"/>
<path d="M238.865 272.801C238.865 272.801 243.611 267.363 245.327 267.828C247.042 268.293 240.981 275.27 240.981 275.27C240.981 275.27 243.925 272.203 245.12 272.944C246.316 273.685 242.503 276.457 242.503 276.457C242.503 276.457 249.637 270.242 250.466 271.796C251.295 273.351 241.755 280.974 241.755 280.974C241.755 280.974 246.958 279.725 247.256 281.118C247.554 282.511 242.881 283.169 242.881 283.169L246.77 283.458C246.77 283.458 247.312 277.721 248.188 276.947C249.065 276.172 249.384 277.687 249.384 277.687C249.384 277.687 250.306 273.831 251.836 273.198C253.365 272.565 251.729 276.666 251.729 276.666C251.729 276.666 252.736 274.803 253.584 274.975C254.431 275.147 251.697 282.443 251.697 282.443C251.697 282.443 255.058 277.739 256.598 277.543C258.139 277.348 256.348 280.91 256.348 280.91C256.348 280.91 259.661 278.535 260.643 279.876C261.625 281.217 254.837 286.497 254.837 286.497C254.837 286.497 258.866 285.382 259.551 286.082C260.236 286.783 253.71 289.885 253.71 289.885C253.71 289.885 256.199 289.719 256.497 291.112C256.796 292.505 252.615 294.586 252.615 294.586C252.615 294.586 257.117 295.525 256.895 297.193C256.673 298.862 250.936 297.691 250.936 297.691C250.936 297.691 253.665 300.056 252.717 300.78C251.769 301.504 242.779 295.985 242.779 295.985L226.322 285.382L238.865 272.801Z" fill="#363E4F"/>
<path d="M128.483 317.916C128.483 317.916 135.769 325.912 138.196 328.086C138.864 328.684 141.106 329.356 144.003 330.015C151.672 331.754 163.955 333.412 163.955 333.412C163.955 333.412 164.193 340.437 164.922 342.617C165.652 344.798 186.06 355.933 190.92 356.422C195.78 356.904 214.245 351.816 214.245 351.816L216.433 344.553C216.433 344.553 218.226 343.881 220.979 342.835C220.979 342.835 220.979 342.835 220.986 342.835C229.922 339.438 248.912 332.108 249.471 330.994C250.201 329.54 248.503 291.768 248.503 291.768L238.293 276.51L238.054 245.756L233.678 245.036L137.957 247.209L137.228 279.417C137.228 279.417 129.212 293.949 128.721 295.885C128.237 297.821 128.483 317.916 128.483 317.916Z" fill="#ED4A2F"/>
<path opacity="0.3" d="M144.031 328.086L144.004 330.015C151.672 331.755 163.955 333.412 163.955 333.412C163.955 332.448 162.374 303.025 162.374 303.025L157.03 323.365L154.719 290.674L143.302 301.693L144.031 328.086Z" fill="black"/>
<path opacity="0.3" d="M182.904 315.498L192.133 325.185L190.92 356.422C195.78 356.904 214.245 351.816 214.245 351.816L216.433 344.554C216.433 344.554 218.226 343.881 220.972 342.835H220.979C220.979 342.835 220.979 342.835 220.986 342.835C229.922 339.438 248.912 332.108 249.471 330.994C250.201 329.54 248.503 291.768 248.503 291.768L238.293 276.51L238.054 245.756L186.305 270.457L183.142 283.052L173.429 294.913L173.184 309.445L171.48 323.005L182.904 315.498Z" fill="black"/>
<path opacity="0.3" d="M216.917 312.916L218.614 323.487L220.979 342.835C220.979 342.835 220.979 342.835 220.986 342.835C229.922 339.438 248.912 332.108 249.471 330.994C250.201 329.54 248.503 291.768 248.503 291.768L235.546 297.413C235.546 297.413 234.735 318.242 234.735 316.143C234.735 314.044 233.596 298.222 233.596 298.222L225.498 300.158L216.917 312.916Z" fill="black"/>
<path d="M248.845 308.204C251.266 308.385 251.409 309.774 248.442 309.701C245.476 309.628 245.915 307.985 248.845 308.204Z" fill="#F7BC4B"/>
<path d="M248.124 311.562C250.45 311.871 251.53 313.314 248.454 313.351C245.378 313.387 245.378 311.197 248.124 311.562Z" fill="#F7BC4B"/>
<path d="M249.86 314.525C252.832 314.955 252.753 316.825 249.823 316.277C246.893 315.73 247.589 314.197 249.86 314.525Z" fill="#F7BC4B"/>
<path d="M250.478 317.772C251.639 318.476 251.101 318.611 249.233 318.173C247.365 317.735 248.794 316.75 250.478 317.772Z" fill="#F7BC4B"/>
<path d="M249.373 320.225C251.807 319.633 252.852 320.262 250.215 321.211C247.579 322.159 247.872 320.59 249.373 320.225Z" fill="#F7BC4B"/>
<path d="M234.72 313.117C237.154 313.452 237.027 316.329 234.977 315.416C232.926 314.504 231.278 312.642 234.72 313.117Z" fill="#F7BC4B"/>
<path d="M247.308 327.014C250.188 326.737 250.384 328.255 247.967 328.255C245.55 328.255 244.268 327.306 247.308 327.014Z" fill="#F7BC4B"/>
<path d="M236.212 310.629C239.092 310.352 239.288 311.87 236.871 311.87C234.454 311.87 233.173 310.921 236.212 310.629Z" fill="#F7BC4B"/>
<path d="M249.627 323.173C251.781 324.354 252.191 326.823 250.836 326.276C249.481 325.728 247.43 321.969 249.627 323.173Z" fill="#F7BC4B"/>
<path d="M249.431 329.861C251.351 330.244 251.226 331.102 248.992 330.664C246.758 330.226 247.6 329.496 249.431 329.861Z" fill="#F7BC4B"/>
<path d="M247.161 331.357C248.973 331.414 249.798 333.255 247.747 333C245.696 332.744 244.817 331.284 247.161 331.357Z" fill="#F7BC4B"/>
<path opacity="0.3" d="M233.194 263.432L229.548 288.378L235.866 278.691L238.293 276.51L238.054 245.756C238.054 245.756 226.876 249.873 225.662 253.025C224.449 256.17 233.194 263.432 233.194 263.432Z" fill="black"/>
<path d="M210.353 310.898C210.353 310.898 216.188 322.76 216.188 323.731C216.188 324.696 214.245 351.816 214.245 351.816L216.433 344.553C216.433 344.553 218.226 343.881 220.973 342.835C220.311 337.121 218.805 324.241 218.614 323.487C218.376 322.522 211.812 313.317 212.057 311.381C212.302 309.445 216.188 279.479 216.188 279.479L216.917 274.329L215.458 276.999L210.598 308.956L202.582 307.264L210.353 310.898Z" fill="#363E4F"/>
<path d="M212.978 279.127C214.797 278.918 215.835 281.354 214.956 281.317C214.077 281.281 212.026 279.237 212.978 279.127Z" fill="#F7BC4B"/>
<path d="M213.555 284.516C215.213 284.791 216.082 286.706 212.896 286.049C209.71 285.392 210.04 283.932 213.555 284.516Z" fill="#F7BC4B"/>
<path d="M212.675 289.932C215.096 290.113 215.239 291.502 212.272 291.429C209.306 291.356 209.746 289.713 212.675 289.932Z" fill="#F7BC4B"/>
<path d="M212.359 294.258C214.685 294.567 215.764 296.01 212.688 296.047C209.612 296.083 209.612 293.893 212.359 294.258Z" fill="#F7BC4B"/>
<path d="M213.366 297.383C216.338 297.813 216.259 299.682 213.329 299.135C210.399 298.587 211.095 297.054 213.366 297.383Z" fill="#F7BC4B"/>
<path d="M212.285 301.275C213.446 301.98 212.907 302.115 211.04 301.677C209.172 301.239 210.6 300.253 212.285 301.275Z" fill="#F7BC4B"/>
<path d="M210.532 303.647C212.966 303.056 214.011 303.684 211.374 304.633C208.738 305.582 209.031 304.012 210.532 303.647Z" fill="#F7BC4B"/>
<path d="M204.462 307.597C206.896 307.933 206.769 310.809 204.719 309.897C202.668 308.984 201.02 307.123 204.462 307.597Z" fill="#F7BC4B"/>
<path d="M209.113 310.517C211.993 310.24 212.19 311.758 209.773 311.758C207.356 311.758 206.074 310.809 209.113 310.517Z" fill="#F7BC4B"/>
<path d="M213.178 309.094C215.332 310.274 215.741 312.744 214.387 312.196C213.032 311.649 210.981 307.889 213.178 309.094Z" fill="#F7BC4B"/>
<path d="M211.237 313.364C213.156 313.747 213.032 314.605 210.798 314.167C208.564 313.729 209.406 312.999 211.237 313.364Z" fill="#F7BC4B"/>
<path d="M208.967 314.861C210.779 314.917 211.604 316.758 209.553 316.503C207.503 316.248 206.624 314.788 208.967 314.861Z" fill="#F7BC4B"/>
<path d="M183.631 279.417C183.631 279.417 183.874 283.776 183.145 284.745C182.416 285.713 174.885 294.672 174.885 295.399C174.885 296.125 171.726 325.183 171.726 325.183C171.726 325.183 173.184 296.61 173.427 294.915C173.67 293.22 181.201 283.776 181.201 283.776L183.631 279.417Z" fill="#363E4F"/>
<path d="M182.903 315.497C184.604 317.192 193.107 324.94 193.107 324.94L190.921 355.693L191.164 325.909L182.903 315.497Z" fill="#363E4F"/>
<path d="M148.888 267.552C148.888 268.278 147.187 280.87 147.187 280.87L156.176 290.314L156.905 325.909L154.233 290.556L145 280.87L148.888 267.552Z" fill="#363E4F"/>
<path d="M143.3 301.695C144.029 305.085 144.029 328.088 144.029 328.088L142.572 313.318L143.3 301.695Z" fill="#363E4F"/>
<path d="M155.694 268.765C160.581 269.757 167.997 271.109 175.331 272.189C181.793 273.14 188.187 273.881 192.733 273.99C194.328 274.024 195.692 273.983 196.748 273.847C204.28 272.882 220.803 270.702 224.688 268.765C228.58 266.823 232.711 264.649 233.195 263.433C233.678 262.223 228.089 256.897 228.089 256.897C228.089 256.897 228.859 256.109 229.977 254.948C231.313 253.555 233.154 251.619 234.735 249.866C236.453 247.971 237.877 246.293 238.054 245.756C238.538 244.309 216.917 228.324 215.459 227.597C214 226.87 214 222.271 214 222.271C212.787 221.544 196.748 219.125 185.576 219.608C174.398 220.09 159.334 227.597 156.178 229.051C153.022 230.505 139.655 245.036 137.958 247.21C136.254 249.39 144.999 266.585 155.694 268.765Z" fill="#ED4A2F"/>
<path opacity="0.2" d="M145.163 256.415C147.112 259.689 155.387 266.354 159.572 269.526C164.098 270.382 169.742 271.367 175.331 272.189C181.793 273.141 188.187 273.881 192.733 273.99C194.328 274.024 195.692 273.983 196.748 273.847C204.28 272.882 220.803 270.702 224.688 268.766C228.58 266.823 232.711 264.649 233.195 263.433C233.678 262.223 228.089 256.897 228.089 256.897C228.089 256.897 228.859 256.109 229.977 254.948C231.313 253.555 233.154 251.619 234.735 249.866C236.453 247.971 237.877 246.293 238.054 245.756C238.538 244.309 216.917 228.324 215.459 227.597C214 226.87 214 222.271 214 222.271C214 222.271 177.717 222.352 165.898 226.714C154.071 231.068 143.056 246.408 143.056 246.408C143.056 246.408 142.572 252.054 145.163 256.415Z" fill="white"/>
<path opacity="0.3" d="M156.015 242.531C156.015 242.531 165.727 261.857 175.331 272.189C181.793 273.141 188.186 273.881 192.733 273.99C204.129 269.071 221.34 260.416 229.977 254.948C231.313 253.555 233.153 251.619 234.734 249.866C230.283 247.264 212.684 240.871 209.63 239.465L156.015 242.531Z" fill="black"/>
<path d="M184.685 249.795L183.065 251.571L181.445 267.229C181.445 267.229 155.854 243.661 155.368 242.692C154.882 241.723 155.206 231.069 155.611 229.293C156.016 227.518 184.685 249.795 184.685 249.795Z" fill="#363E4F"/>
<path d="M218.779 235.347C219.508 237.526 217.888 250.925 217.888 250.925C217.888 250.925 196.346 264.324 181.445 267.229C181.445 267.229 182.255 255.768 183.065 251.571C183.875 247.373 218.779 235.347 218.779 235.347Z" fill="#363E4F"/>
<path opacity="0.3" d="M218.779 235.347C219.508 237.526 217.888 250.925 217.888 250.925C217.888 250.925 196.346 264.324 181.445 267.229C181.445 267.229 182.255 255.768 183.065 251.571C183.875 247.373 218.779 235.347 218.779 235.347Z" fill="black"/>
<path d="M155.612 229.295C155.612 229.295 180.389 251.326 183.068 251.571C185.74 251.816 219.991 237.04 218.778 235.348C217.565 233.65 193.892 214.139 193.026 214.282C174.132 217.379 156.184 228.928 155.626 229.288C155.619 229.295 155.612 229.295 155.612 229.295Z" fill="#F7BC4B"/>
<path opacity="0.2" d="M155.626 229.288C156.451 229.166 188.753 224.207 190.314 224.207C191.895 224.207 218.778 235.348 218.778 235.348C217.565 233.65 193.892 214.139 193.026 214.282C174.132 217.379 156.185 228.928 155.626 229.288Z" fill="white"/>
<path d="M193.755 242.854L172.051 223.159C172.051 223.159 183.389 230.504 193.755 242.854Z" fill="#363E4F"/>
<path d="M193.431 220.334C193.431 220.334 181.607 223.886 180.635 224.773C179.663 225.661 181.448 225.641 186.628 224.047C192.135 222.352 195.536 220.818 193.431 220.334Z" fill="#363E4F"/>
<path d="M199.181 225.419C199.181 225.419 187.357 228.971 186.385 229.858C185.413 230.746 187.198 230.726 192.378 229.132C197.885 227.437 201.286 225.903 199.181 225.419Z" fill="#363E4F"/>
<path d="M204.931 230.504C204.931 230.504 193.107 234.055 192.135 234.943C191.163 235.831 192.948 235.811 198.128 234.217C203.635 232.522 207.036 230.988 204.931 230.504Z" fill="#363E4F"/>
<path d="M161.868 324.033C161.301 321.934 159.034 328.23 159.034 328.23C159.034 328.23 159.439 320.32 158.305 320.078C157.171 319.836 156.685 325.728 156.685 325.728C156.685 325.728 156.28 322.903 154.984 322.741C153.689 322.58 155.227 331.701 155.227 331.701C155.227 331.701 153.446 327.665 152.312 328.553C151.178 329.441 156.635 335.474 156.635 335.474C156.635 335.474 162.435 326.131 161.868 324.033Z" fill="#363E4F"/>
<path d="M137.37 329.147C137.37 329.147 138.883 325.811 138.31 324.888C137.738 323.964 137.021 326.541 137.021 326.541C137.021 326.541 135.601 323.495 134.847 324.015C134.094 324.535 137.37 329.147 137.37 329.147Z" fill="#363E4F"/>
<path d="M186.75 358.034C186.75 358.034 188.512 355.229 188.35 354.583C188.188 353.938 187.378 355.471 187.378 355.471C187.378 355.471 188.188 349.902 187.216 349.014C186.244 348.126 185.92 351.274 185.92 351.274C185.92 351.274 185.839 348.853 185.191 348.53C184.544 348.207 184.544 351.032 184.544 351.032C184.544 351.032 183.005 348.611 182.033 348.53C181.061 348.449 185.272 355.552 185.272 355.552C185.272 355.552 183.329 354.341 182.843 354.583C182.357 354.826 186.75 358.034 186.75 358.034Z" fill="#363E4F"/>
<path d="M137.003 327.426C136.856 315.672 140.612 312.121 140.612 312.121" stroke="#363E4F" stroke-width="0.682763" stroke-miterlimit="10" stroke-linecap="round" stroke-linejoin="round"/>
<path d="M133.687 315.45C133.687 315.45 136.391 318.386 136.998 325.893" stroke="#363E4F" stroke-width="0.682763" stroke-miterlimit="10" stroke-linecap="round" stroke-linejoin="round"/>
<path d="M128.586 308.307C128.586 308.307 136.664 310.547 136.968 322.593" stroke="#363E4F" stroke-width="0.682763" stroke-miterlimit="10" stroke-linecap="round" stroke-linejoin="round"/>
<path d="M130.309 305.643C135.085 305.643 136.261 312.06 126.665 311.939C117.068 311.818 124.114 305.643 130.309 305.643Z" fill="#F7BC4B"/>
<path d="M135.289 312.666C137.821 312.976 138.083 317.751 132.859 319.567C127.635 321.383 128.364 311.818 135.289 312.666Z" fill="#F7BC4B"/>
<path d="M141.12 307.944C145.881 308.649 146.83 314.724 143.064 315.813C139.298 316.903 132.131 306.612 141.12 307.944Z" fill="#F7BC4B"/>
<path d="M140.634 310.123C142.213 309.997 142.821 312.544 141.606 312.605C140.391 312.665 139.116 310.244 140.634 310.123Z" fill="#ED4A2F"/>
<path d="M134.743 314.179C135.667 314.506 134.5 316.903 132.799 316.782C131.098 316.661 132.86 313.513 134.743 314.179Z" fill="#ED4A2F"/>
<path d="M130.613 307.399C132.177 308.227 128.305 310.244 126.422 309.457C124.539 308.67 128.669 306.37 130.613 307.399Z" fill="#ED4A2F"/>
<path d="M236.629 333.993C236.238 332.97 234.671 336.037 234.671 336.037C234.671 336.037 234.951 332.184 234.167 332.066C233.384 331.948 233.048 334.818 233.048 334.818C233.048 334.818 232.768 333.442 231.873 333.364C230.978 333.285 232.041 337.728 232.041 337.728C232.041 337.728 230.81 335.762 230.027 336.195C229.243 336.627 233.013 339.566 233.013 339.566C233.013 339.566 237.021 335.015 236.629 333.993Z" fill="#363E4F"/>
<path d="M233.21 337.23C233.357 325.476 227.573 324.254 227.573 324.254" stroke="#363E4F" stroke-width="0.682763" stroke-miterlimit="10" stroke-linecap="round" stroke-linejoin="round"/>
<path d="M239.521 325.836C239.521 325.836 233.822 328.19 233.214 335.696" stroke="#363E4F" stroke-width="0.682763" stroke-miterlimit="10" stroke-linecap="round" stroke-linejoin="round"/>
<path d="M237.92 323.051C235.388 323.361 235.126 328.136 240.35 329.952C245.573 331.768 244.845 322.204 237.92 323.051Z" fill="#F7BC4B"/>
<path d="M227.066 320.077C222.305 320.782 221.356 326.857 225.122 327.947C228.888 329.036 236.055 318.745 227.066 320.077Z" fill="#F7BC4B"/>
<path d="M227.551 322.256C225.972 322.131 225.364 324.678 226.579 324.738C227.794 324.799 229.069 322.378 227.551 322.256Z" fill="#ED4A2F"/>
<path d="M238.467 324.565C237.542 324.892 238.71 327.289 240.411 327.168C242.112 327.047 240.35 323.899 238.467 324.565Z" fill="#ED4A2F"/>
</g>
<defs>
<clipPath id="clip0_1_4415">
<rect width="327" height="373.642" fill="white" transform="matrix(-1 0 0 1 327 0)"/>
</clipPath>
</defs>
</svg>
