<svg width="404" height="454" viewBox="0 0 404 454" fill="none" xmlns="http://www.w3.org/2000/svg">
<path d="M304.051 327.573C304.051 327.573 254.488 343.534 212.906 340.174C171.324 336.814 136.462 331.353 130.162 317.493C123.861 303.632 142.762 310.772 142.762 310.772C142.762 310.772 118.25 295.588 119.241 268.77C119.661 257.429 133.522 259.109 133.522 259.109C133.522 259.109 94.4596 222.147 117.981 190.646C141.502 159.144 170.064 177.205 170.064 177.205C170.064 177.205 158.723 161.664 182.665 135.203C206.606 108.741 231.807 133.102 231.807 133.102C231.807 133.102 247.768 102.861 282.21 97.4005C316.652 91.9402 335.973 103.701 332.613 123.442C329.253 143.183 318.752 146.123 318.752 146.123C318.752 146.123 334.293 153.264 332.193 165.864C330.093 178.465 308.251 187.285 308.251 187.285C308.251 187.285 327.993 206.607 324.632 226.348C321.272 246.089 306.991 258.689 292.711 262.89C292.711 262.89 306.151 288.091 291.451 300.692C276.75 313.292 262.469 320.013 251.128 318.753C251.128 318.753 277.17 330.933 304.051 327.573Z" fill="#F3E7D9"/>
<path d="M272.189 385.65C272.189 385.65 246.5 383.079 234.303 383.461C222.105 383.848 205.846 385.481 193.674 384.868C181.502 384.255 116.554 390.446 123.61 392.609C130.671 394.772 150.739 396.037 165.188 395.234C179.637 394.428 185.542 393.37 185.542 393.37L205.636 393.844C205.636 393.844 187.945 404.311 223.584 404.311C279.913 404.311 251.973 397.234 251.973 397.234C251.973 397.234 266.229 395.562 277.486 391.82C288.742 388.077 272.189 385.65 272.189 385.65Z" fill="#573353"/>
<path d="M241.526 413.782C254.894 413.782 265.732 411.215 265.732 408.049C265.732 404.883 254.894 402.316 241.526 402.316C228.157 402.316 217.32 404.883 217.32 408.049C217.32 411.215 228.157 413.782 241.526 413.782Z" fill="#573353"/>
<path d="M280.022 414.782C287.394 414.782 293.37 413.366 293.37 411.619C293.37 409.873 287.394 408.457 280.022 408.457C272.65 408.457 266.674 409.873 266.674 411.619C266.674 413.366 272.65 414.782 280.022 414.782Z" fill="#573353"/>
<path d="M185.311 398.33C191.857 398.33 197.164 397.074 197.164 395.524C197.164 393.975 191.857 392.718 185.311 392.718C178.765 392.718 173.458 393.975 173.458 395.524C173.458 397.074 178.765 398.33 185.311 398.33Z" fill="#573353"/>
<path d="M113.416 391.017C106.771 390.022 87.496 392.512 79.8516 393.844C72.2071 395.175 46.2329 409.124 75.5295 412.787C91.482 414.782 109.925 413.95 125.878 414.282C141.83 414.614 157.283 410.46 157.283 410.46C132.69 407.138 102.781 406.474 89.4869 401.82C76.1932 397.166 120.065 392.017 113.416 391.017Z" fill="#573353"/>
<path d="M260.469 378.891C260.469 378.891 327.266 373.906 336.737 380.387C346.209 386.867 330.756 387.863 330.756 387.863C330.756 387.863 374.623 393.344 355.18 398.83C335.737 404.311 317.462 402.816 301.842 401.321C286.221 399.825 325.27 394.84 312.808 387.863C300.35 380.882 260.469 378.891 260.469 378.891Z" fill="#573353"/>
<path d="M139.7 406.491C119.535 410.519 138.94 415.702 151.763 412.72C164.587 409.738 159.865 402.463 139.7 406.491Z" fill="#573353"/>
<path d="M168.405 399.863C165.347 400.224 162.08 406.411 173.067 403.463C184.051 400.514 171.463 399.506 168.405 399.863Z" fill="#573353"/>
<path d="M151.86 418.239C148.529 420.751 157.74 421.511 161.054 418.079C164.368 414.648 155.186 415.727 151.86 418.239Z" fill="#573353"/>
<path d="M89.6423 411.998C89.6423 411.998 54.2176 419.663 84.5432 423.107C114.869 426.552 107.565 417.034 113.642 417.588C119.72 418.143 121.01 411.452 106.83 410.158C92.6497 408.869 89.6423 411.998 89.6423 411.998Z" fill="#573353"/>
<path d="M220.926 300.045C224.975 302.569 220.926 304.447 213.449 303.783C205.969 303.119 205.637 290.519 220.926 300.045Z" fill="#992C29"/>
<path d="M221.757 302.124C221.757 302.124 220.871 303.51 219.014 303.619C217.158 303.729 213.865 303.619 212.117 303.288C210.37 302.956 211.202 304.119 211.202 304.119C211.202 304.119 213.613 305.115 216.683 305.115C219.758 305.115 222.664 303.951 222.916 303.12C223.168 302.288 222.668 301.792 221.757 302.124Z" fill="#F3E7D9"/>
<path d="M199.466 302.808C209.411 302.808 217.473 298.209 217.473 292.535C217.473 286.86 209.411 282.261 199.466 282.261C189.522 282.261 181.46 286.86 181.46 292.535C181.46 298.209 189.522 302.808 199.466 302.808Z" fill="#1D2538"/>
<path d="M206.655 340.455C206.114 335.562 206.114 343.538 204.119 330.845C202.123 318.156 194.874 300.569 199.225 294.227C203.577 287.885 216.085 287.7 218.08 300.754C220.075 313.809 222.793 335.923 220.798 340.094C218.803 344.264 207.197 345.348 206.655 340.455Z" fill="#1D2538"/>
<path d="M207.476 334.045C207.081 330.479 205.623 331.706 205.627 327.048C205.627 322.386 214.343 295.617 215.796 305.127C217.249 314.636 219.228 330.744 217.779 333.785C216.33 336.826 207.87 337.611 207.476 334.045Z" fill="#273252"/>
<path d="M209.374 332.839C206.657 333.747 204.842 337.918 204.296 343.172C203.75 348.427 205.203 355.5 204.838 357.129C204.472 358.759 203.569 358.398 203.569 364.018C203.569 369.638 204.657 376.887 204.657 380.151C204.657 383.414 207.375 385.59 207.375 385.59C207.375 385.59 210.638 382.327 215.897 382.146C221.156 381.965 224.234 385.048 223.873 379.97C223.512 374.892 222.966 362.023 222.424 359.12C221.882 356.218 223.331 353.862 223.331 350.963C223.331 348.061 222.063 331.928 218.799 331.201C215.54 330.483 212.096 331.936 209.374 332.839Z" fill="#1D2538"/>
<path d="M206.837 333.264C206.492 336.612 210.281 345.533 210.281 345.533C210.281 345.533 206.786 350.674 206.656 352.06C206.295 355.866 206.232 355.143 207.32 358.042C207.593 358.768 214.086 356.227 214.086 356.227C214.086 356.227 218.677 349.944 218.677 347.768C218.677 344.865 220.248 331.089 216.984 330.366C213.721 329.644 207.378 328.006 206.837 333.264Z" fill="#273252"/>
<path d="M205.388 383.94C205.388 383.94 204.375 386.637 205.749 388.014C207.127 389.392 213.612 391.072 216.023 391.761C218.434 392.45 227.666 390.119 229.56 389.947C231.454 389.774 232.068 383.94 227.762 381.357C223.461 378.774 217.606 379.118 213.994 381.013C210.378 382.907 211.239 383.079 209.521 384.457C207.794 385.83 207.45 382.39 205.388 383.94Z" fill="#EE5D4F"/>
<path d="M205.387 383.965C205.143 384.873 204.601 385.96 206.353 387.288C207.903 388.464 214.724 390.249 217.231 390.43C219.739 390.61 228.328 388.304 230.223 388.132C232.117 387.96 231.008 379.068 224.725 378.946C213.321 378.728 210.099 381.966 210.099 381.966C210.099 381.966 205.626 383.058 205.387 383.965Z" fill="#121721"/>
<path d="M206.656 339.367C206.656 339.367 208.286 344.08 212.637 345.529C212.637 345.529 209.193 347.343 207.198 344.802C205.203 342.269 206.656 339.367 206.656 339.367Z" fill="#1D2538"/>
<path d="M181.214 291.691C179.039 303.535 177.346 318.761 177.829 322.39C178.312 326.015 182.663 326.741 187.498 326.498C192.332 326.254 193.059 320.697 193.781 316.59C194.504 312.482 199.704 298.642 197.772 293.324C195.835 288.003 183.39 279.846 181.214 291.691Z" fill="#1D2538"/>
<path d="M190.282 340.275C188.107 344.143 187.746 345.471 187.746 350.183C187.746 354.896 185.931 358.159 188.59 359.73C191.249 361.301 193.181 360.335 194.634 359.247C196.083 358.159 198.381 357.193 199.225 351.149C200.069 345.105 200.313 340.997 197.293 340.031C194.268 339.065 192.458 336.406 190.282 340.275Z" fill="#EE5D4F"/>
<path d="M189.314 339.187C188.104 340.758 187.016 344.627 187.016 349.339C187.016 354.052 184.962 357.076 187.621 358.647C190.28 360.218 191.851 359.374 193.665 358.164C195.48 356.954 197.412 356.11 198.256 350.066C199.1 344.022 199.344 339.914 196.324 338.948C193.3 337.978 190.519 337.616 189.314 339.187Z" fill="#121721"/>
<path d="M178.797 320.697C178.797 320.697 177.831 326.258 178.314 329.64C178.797 333.025 179.763 333.264 180.973 334.718C182.182 336.171 182.422 335.927 184.598 339.069C186.773 342.211 187.739 342.455 187.739 342.455C187.739 342.455 186.53 343.181 187.496 344.63C188.827 348.738 196.316 342.576 196.316 342.576C198.492 340.161 195.711 336.415 195.711 336.415C195.711 336.415 196.677 335.449 196.677 334.722C196.677 333.995 193.536 324.57 193.536 324.57C193.536 324.57 193.536 318.286 189.184 318.286C184.833 318.286 180.973 316.102 178.797 320.697Z" fill="#1D2538"/>
<path d="M179.826 320.332C176.924 331.753 181.456 332.387 182.665 333.836C183.875 335.285 185.627 341.539 189.432 341.72C193.237 341.9 194.237 340.724 194.691 338.183C195.144 335.642 196.774 335.554 196.052 333.378C195.329 331.202 194.33 327.032 191.427 323.407C188.529 319.79 180.666 317.018 179.826 320.332Z" fill="#273252"/>
<path d="M192.818 323.961C192.818 323.961 191.852 328.313 191.73 330.123C191.73 330.123 192.818 327.586 193.18 325.771C193.545 323.961 192.818 323.961 192.818 323.961Z" fill="#1D2538"/>
<path d="M180.368 332.903C180.368 332.903 182.183 334.957 184.476 334.235C184.476 334.235 185.686 334.356 184.232 334.961C182.788 335.562 181.456 336.045 180.368 332.903Z" fill="#1D2538"/>
<path d="M195.719 336.406C195.719 336.406 192.817 338.704 191.246 340.758C191.246 340.758 194.631 338.582 195.354 337.977C196.081 337.372 195.719 336.406 195.719 336.406Z" fill="#1D2538"/>
<path d="M233.609 306.665C233.609 306.665 233.719 311.205 233.719 311.982C233.719 312.759 233.278 317.3 234.605 316.413C235.932 315.527 236.155 315.086 236.268 312.427C236.377 309.764 233.609 306.665 233.609 306.665Z" fill="#F5894E"/>
<path d="M234.159 308.878C234.159 308.878 231.946 313.864 231.832 314.636C231.723 315.413 233.051 316.186 234.046 314.636C235.046 313.091 235.382 308.991 234.159 308.878Z" fill="#F5894E"/>
<path d="M229.728 302.565C229.728 302.565 230.614 302.897 229.505 304.56C228.396 306.223 228.619 306.996 228.841 309.323C229.064 311.65 228.064 313.2 228.841 313.423C229.618 313.645 230.06 314.75 231.055 312.314C232.05 309.878 231.278 309.323 232.605 308.328C233.932 307.332 235.705 310.877 235.705 310.877C235.705 310.877 235.705 314.754 235.595 315.531C235.486 316.308 236.259 318.744 237.477 316.527C238.695 314.309 238.141 313.759 238.141 311.318C238.141 308.878 238.25 307.773 238.141 305.56C238.032 303.346 236.259 301.129 234.818 298.915C233.386 296.693 229.728 302.565 229.728 302.565Z" fill="#CC6D3D"/>
<path d="M222.861 280.19C222.861 280.19 216.712 265.901 215.608 258.588C214.499 251.276 213.171 248.231 216.271 248.453C219.371 248.676 225.965 251.83 228.07 260.915C229.909 268.85 233.887 273.655 233.387 276.645C232.887 279.636 225.079 285.285 222.861 280.19Z" fill="#1D2538"/>
<path d="M222.626 279.649C222.626 279.649 218.808 271.509 218.304 266.439C217.804 261.369 218.417 256.447 219.816 256.602C221.219 256.758 224.193 258.946 225.146 265.242C225.978 270.744 227.771 274.075 227.549 276.146C227.326 278.221 223.63 283.181 222.626 279.649Z" fill="#273252"/>
<path d="M235.714 300.793C235.714 300.793 230.951 301.347 229.401 300.902C225.331 299.738 226.41 298.352 225.747 293.703C225.083 289.049 220.429 283.29 222.865 278.859C223.68 277.376 225.129 278.061 226.851 277.532C230.279 276.473 232.816 275.696 233.496 278.418C234.605 282.849 237.373 290.603 238.482 293.925C239.591 297.248 239.368 300.461 235.714 300.793Z" fill="#992C29"/>
<path d="M235.714 300.792C235.714 300.792 230.951 301.347 229.401 300.902C225.331 299.738 226.41 298.352 225.747 293.702C225.083 289.048 220.429 283.29 222.865 278.859C223.68 277.376 225.129 278.061 226.851 277.531C228.846 276.914 223.752 282.517 224.747 285.671C225.742 288.83 229.615 295.336 229.897 296.47C231.005 300.902 237.373 290.598 238.482 293.921C239.591 297.247 239.368 300.46 235.714 300.792Z" fill="#EE5D4F"/>
<path d="M229.287 300.461C228.292 300.238 228.178 302.675 229.51 303.342C230.837 304.006 234.382 304.006 236.155 303.12C237.927 302.233 237.595 302.679 237.373 300.461C237.15 298.243 230.283 300.684 229.287 300.461Z" fill="#FFFCF3"/>
<path d="M180.378 249.558C177.219 249.226 177.551 250.222 173.397 252.717C169.243 255.207 168.08 258.257 167.58 259.752C167.08 261.247 168.244 259.252 166.416 259.584C164.589 259.916 164.258 260.579 161.267 264.238C157.52 268.816 158.276 269.942 158.276 271.437C158.276 272.932 161.074 278.191 167.248 274.982C170.016 273.541 171.57 271.214 174.115 269.333C176.665 267.451 184.196 261.193 184.86 256.871C185.523 252.549 183.537 249.89 180.378 249.558Z" fill="#273252"/>
<path d="M180.378 249.558C181.256 246.509 177.551 250.222 173.397 252.717C169.243 255.208 168.08 258.257 167.58 259.752C167.08 261.247 168.244 259.252 166.416 259.584C164.589 259.916 164.258 260.58 161.267 264.238C157.52 268.816 158.276 269.942 158.276 271.437C158.276 272.932 162.153 271.992 162.153 271.992L161.267 269.333C161.271 269.333 166.807 262.243 180.378 249.558Z" fill="#3E4C6F"/>
<path d="M156.118 289.826C156.118 289.826 151.363 286.348 150.968 283.4C150.573 280.451 151.3 280.186 151.3 280.186C151.3 280.186 150.485 279.456 151.17 277.83C151.854 276.2 152.127 275.583 153.627 272.546C153.816 272.164 155.265 271.647 155.265 271.647C155.265 271.647 156.575 270.253 156.895 269.875C158.15 268.396 158.831 269.514 159.385 269.665C160.078 269.854 162.267 272.588 162.267 272.588C162.267 272.588 162.809 272.244 164.594 273.764C166.379 275.285 165.438 279.943 163.254 282.417C161.07 284.886 156.118 289.826 156.118 289.826Z" fill="#C94039"/>
<path d="M164.263 274.847C164.263 274.847 163.637 271.714 160.92 270.252C158.202 268.791 159.038 271.088 160.504 271.924C161.97 272.76 162.385 274.642 162.385 274.642C162.385 274.642 160.298 271.088 152.985 274.642C152.985 274.642 158.416 272.76 160.714 274.852C163.011 276.939 162.175 276.103 162.175 276.103C162.175 276.103 159.252 275.267 156.325 276.103C153.401 276.939 153.191 279.027 153.191 279.027C153.191 279.027 156.535 275.893 161.13 277.145C161.13 277.145 165.725 278.397 161.13 277.145C161.13 277.145 156.95 277.145 155.699 280.278C154.447 283.412 156.535 280.904 158.622 279.653C160.71 278.397 164.053 281.114 164.263 274.847Z" fill="#992C29"/>
<path d="M210.344 298.302C209.697 298.327 209.151 299.079 209.903 300.242C210.655 301.406 211.289 300.465 214.028 300.549C216.77 300.633 219.593 301.464 220.84 302.376C222.088 303.292 222.835 303.703 223.251 301.544C223.667 299.381 213.003 298.188 210.344 298.302Z" fill="#F3E7D9"/>
<path d="M187.303 299.297C187.744 299.52 187.857 301.292 186.639 301.292C185.421 301.292 177.277 303.896 177.113 301.956C176.945 300.02 186.862 299.075 187.303 299.297Z" fill="#F3E7D9"/>
<path d="M190.212 246.097C190.212 246.097 199.516 245.172 207.059 246.13C210.776 246.601 216.804 252.846 218.261 261.495C219.719 270.143 220.504 295.76 220.504 295.76L179.892 297.247C179.888 297.247 181.429 248.747 190.212 246.097Z" fill="#F7BC4B"/>
<path d="M203.276 284.709L209.782 268.173L207.06 246.13C210.778 246.6 216.805 252.846 218.262 261.495C219.72 270.143 220.505 295.76 220.505 295.76L191.352 296.634C191.352 296.634 201.13 290.749 205.359 287.654C208.379 285.444 207.615 282.239 207.615 282.239L203.276 284.709Z" fill="#CE9436"/>
<path d="M205.868 247.639C205.91 250.234 202.802 255.749 199.795 255.527C196.787 255.304 193.876 250.898 193.834 248.302C193.792 245.706 196.817 245.442 199.824 245.66C202.827 245.883 205.83 245.606 205.868 247.639Z" fill="#F5894E"/>
<path d="M192.481 246.059C191.372 244.287 181.212 246.017 179.439 249.34C178.599 250.915 178.272 254.09 178.221 257.589C178.167 261.47 178.456 265.75 178.776 268.669C179.217 272.714 179.217 275.537 177.049 283.525C174.559 292.694 175.966 302.506 177.671 301.788C181.888 300.011 185.572 299.709 186.89 299.776C187.407 299.801 187.831 299.369 187.802 298.852C187.802 298.852 189.856 297.802 188.86 290.989C187.865 284.176 186.823 276.431 187.642 269.665C188.457 262.902 192.905 246.736 192.481 246.059Z" fill="#992C29"/>
<path d="M195.917 245.294C191.965 249.142 196.568 265.913 199.05 265.686C201.533 265.459 208.199 247.222 203.893 245.269" stroke="#992C29" stroke-width="0.420023" stroke-miterlimit="10"/>
<path d="M198.919 268.95C199.404 268.95 199.797 268.168 199.797 267.203C199.797 266.238 199.404 265.455 198.919 265.455C198.435 265.455 198.042 266.238 198.042 267.203C198.042 268.168 198.435 268.95 198.919 268.95Z" fill="#29ABE2"/>
<path d="M194.607 245.316C192.444 244.942 190.94 245.106 189.684 245.904C188.428 246.702 186.946 248.575 185.648 252.801C184.346 257.03 186.912 265.708 188.189 265.788C188.508 265.809 189.436 261.995 190.432 256.841C192.158 247.941 196.216 245.593 194.607 245.316Z" fill="#F3E7D9"/>
<path d="M206.577 245.849C204.901 247.731 211.016 252.074 212.306 265.527C212.969 272.457 208.74 282.576 208.433 288.528C208.127 294.479 208.122 297.89 209.126 298.688C209.571 299.041 213.616 298.591 216.855 299.465C222.613 301.015 223.088 302.346 223.088 302.346C223.088 302.346 227.191 292.337 221.08 282.429C217.304 276.305 222.147 252.166 218.77 249.176C215.385 246.181 208.257 243.967 206.577 245.849Z" fill="#C94039"/>
<path d="M212.285 266.065C213.2 264.893 214.166 261.281 213.671 255.485C213.339 251.608 211.869 249.159 210.21 246.538C208.63 244.047 204.863 245.013 205.224 245.622C206.224 247.311 207.664 254.632 209.626 260.08C211.806 266.141 211.369 267.241 212.285 266.065Z" fill="#F3E7D9"/>
<path d="M214.347 287.742L213.36 288.452C213.36 288.452 215.843 292.413 219.669 292.064L219.694 291.148C219.694 291.148 216.792 291.22 214.347 287.742Z" fill="#F3E7D9"/>
<path d="M187.426 276.469C192.353 288.658 186.061 293.412 179.248 296.924C172.746 300.276 163.111 295.534 160.973 288.607C159.209 282.891 160.217 277.687 163.506 273.73C164.913 272.038 167.756 269.799 170.953 268.703C175.997 266.976 183.284 269.702 187.426 276.469Z" fill="#EE5D4F"/>
<path d="M160.973 288.607C159.209 282.891 160.217 277.687 163.506 273.73C164.913 272.038 167.756 269.799 170.953 268.703C175.997 266.976 163.111 295.534 160.973 288.607Z" fill="#C94039"/>
<path d="M179.411 276.313C183.406 282.127 174.207 290.712 171.007 292.438C167.806 294.164 162.707 291.913 161.115 285.781C160.489 283.361 160.825 281.45 161.792 279.854C162.846 278.111 165.4 279.22 167.516 277.989C169.566 276.801 171.07 273.386 173.208 273.243C175.535 273.083 177.731 273.873 179.411 276.313Z" fill="#1D2538"/>
<path d="M178.013 276.195C181.944 281.618 175.266 290.417 171.007 292.438C166.748 294.458 163.068 291.677 161.64 286.116C160.905 283.252 161.082 281.278 162.564 279.715C163.463 278.77 165.979 279.505 167.407 278.61C169.625 277.22 170.683 274.057 173.094 273.814C175.115 273.612 176.589 274.234 178.013 276.195Z" fill="#FEED7F"/>
<path d="M164.726 291.564L179.687 281.055C179.687 281.055 176.028 273.747 173.248 274.352C170.467 274.957 163.155 290.372 164.726 291.564Z" fill="#F7BC4B"/>
<path d="M161.318 289.737C161.318 289.737 164.602 290.174 166.795 288.695C168.983 287.217 167.576 284.025 169.13 282.975C170.012 282.378 172.003 284.646 173.499 284.487C175.926 284.231 179.337 280.068 180.064 278.779C180.79 277.489 186.225 283.563 186.414 287.897C186.595 292.005 181.794 296.882 175.569 297.579C169.345 298.28 166.14 297.898 161.318 289.737Z" fill="#C94039"/>
<path d="M162.684 289.237C162.684 289.237 165.057 290.233 167.115 288.843C169.177 287.452 168.262 284.172 169.013 283.508C169.765 282.845 171.777 285.172 173.201 285.046C175.511 284.836 179.665 280.194 180.35 278.972C181.043 277.746 188.578 285.831 184.6 291.459C182.282 294.74 179.044 296.462 175.818 296.768C169.904 297.335 164.687 294.429 162.684 289.237Z" fill="#1D2538"/>
<path d="M161.361 283.336C163.533 284.533 164.196 287.486 162.848 289.939C161.5 292.392 158.644 293.408 156.472 292.216C154.301 291.019 153.881 289.103 155.288 285.672C156.695 282.24 159.19 282.143 161.361 283.336Z" fill="#FFFCF3"/>
<path d="M161.433 285.206C162.878 286.004 163.323 287.973 162.424 289.607C161.525 291.241 160.391 292.506 158.946 291.707C157.502 290.909 156.867 289.133 157.619 287.108C158.363 285.092 159.988 284.407 161.433 285.206Z" fill="#992C29"/>
<path d="M164.318 286.281C164.318 286.281 167.653 284.681 167.842 284.038C168.031 283.399 168.43 281.9 165.83 283.047C165.146 283.349 164.171 282.916 163.381 283.231C161.155 284.113 159.211 285.878 160.223 287.608C161.596 289.96 164.318 286.281 164.318 286.281Z" fill="#CC6D3D"/>
<path d="M163.058 294.185C163.058 294.185 166.863 295.328 167.792 295.198C168.615 295.08 169.413 294.311 169.413 294.311L170.656 292.963C170.656 292.963 171.904 289.737 171.74 289.162C171.576 288.586 171.076 286.503 171.076 286.503C171.307 285.965 169.652 285.499 169.035 285.243C168.417 284.987 166.754 287.499 165.481 287.553C164.209 287.608 161.827 285.949 161.05 286.39C159.114 286.999 157.879 292.102 163.058 294.185Z" fill="#CC6D3D"/>
<path d="M162.878 288.444C162.878 290.187 162.63 292.652 161.16 292.652C159.69 292.652 157.561 290.187 157.561 288.444C157.561 286.701 158.749 285.285 160.219 285.285C161.689 285.285 162.878 286.696 162.878 288.444Z" fill="#CC6D3D"/>
<path d="M194.5 236.378L195.731 247.088C195.731 247.088 196.672 249.163 200.12 248.932C203.569 248.701 204.69 246.958 204.69 246.958L202.943 234.181L194.5 236.378Z" fill="#F5894E"/>
<path d="M194.5 236.378C194.5 236.378 198.1 243.393 199.713 244.682C201.326 245.972 204.514 245.568 204.514 245.568L203.359 234.173L194.5 236.378Z" fill="#CC6D3D"/>
<path d="M209.785 234.303C206.563 241.889 203.758 241.662 203.758 241.662C191.858 242.892 185.634 236.462 186.209 228.952C186.511 221.169 188.091 218.317 196.6 218.086C208.449 217.758 212.654 227.545 209.785 234.303Z" fill="#1D2538"/>
<path d="M209.785 234.303C206.563 241.889 203.758 241.662 203.758 241.662C191.858 242.892 185.634 236.462 186.209 228.952C186.511 221.169 186.994 217.384 196.865 216.565C210.57 215.427 212.654 227.545 209.785 234.303Z" fill="#1D2538"/>
<path d="M210.582 234.383C207.835 240.855 198.842 236.151 198.842 236.151C197.02 235.038 196.314 228.524 195.902 224.214C195.549 220.497 193.416 216.998 203.66 218.027C212.766 218.939 213.027 228.624 210.582 234.383Z" fill="#3E4C6F"/>
<path d="M196.654 218.993C196.654 218.993 190.959 220.829 189.883 222.021C188.808 223.214 187.3 235.672 189.342 239.717C191.353 243.707 204.429 243.119 207.361 240.2C209.763 237.81 209.171 237.298 209.675 233.354C210.204 229.2 207.739 223.626 207.424 222.021C206.886 219.266 196.654 218.993 196.654 218.993Z" fill="#CC6D3D"/>
<path d="M211.208 231.779C210.687 234.122 209.494 235.933 208.532 235.823C207.566 235.714 207.196 233.715 207.713 231.35C208.234 228.977 209.439 227.154 210.41 227.284C211.376 227.41 211.729 229.426 211.208 231.779Z" fill="#CC6D3D"/>
<path d="M190.723 227.25C188.136 228.943 187.296 238.2 191.799 240.582C196.301 242.968 200.325 242.224 203.442 239.448C206.172 237.016 204.614 233.047 200.829 230.384C196.205 227.129 193.311 225.558 190.723 227.25Z" fill="#F5894E"/>
<path d="M185.557 231.732C185.922 233.732 186.993 235.277 187.955 235.189C188.921 235.101 189.417 233.404 189.055 231.388C188.694 229.368 187.61 227.805 186.64 227.91C185.674 228.011 185.191 229.725 185.557 231.732Z" fill="#F5894E"/>
<path d="M207.506 222.323C207.506 222.323 206.876 228.426 207.598 230.232L209.207 232.908L209.749 224.247L207.506 222.323Z" fill="#3E4C6F"/>
<path d="M188.46 232.896C188.46 232.896 188.346 226.818 188.699 224.991L189.455 222.278L189.468 230.913L188.46 232.896Z" fill="#1D2538"/>
<path d="M207.37 218.165C207.37 218.165 205.169 219.434 197.819 219.476C194.169 219.497 191.069 220.198 189.297 220.018C184.941 219.568 192.249 215.301 199.738 215.124C207.316 214.944 207.37 218.165 207.37 218.165Z" fill="#1D2538"/>
<path d="M199.782 215.074C193.776 215.343 187.522 218.233 191.033 218.59C192.029 218.691 193.616 218.829 195.54 218.934C198.921 218.657 202.437 217.754 202.437 217.754C202.214 218.603 200.332 218.943 198.295 219.06C200.022 219.119 201.891 219.14 203.785 219.098C206.893 219.027 207.221 219.111 207.435 218.577C207.859 217.49 206.276 214.785 199.782 215.074Z" fill="#3E4C6F"/>
<path d="M202.858 223.979C202.912 224.861 202.517 225.268 202.076 225.293C201.635 225.319 201.316 224.953 201.262 224.071C201.207 223.189 201.522 222.458 201.963 222.429C202.404 222.408 202.803 223.101 202.858 223.979Z" fill="#34283A"/>
<path d="M195.495 224.503C195.55 225.385 195.155 225.793 194.714 225.818C194.273 225.843 193.954 225.478 193.899 224.596C193.845 223.714 194.16 222.983 194.601 222.953C195.042 222.924 195.441 223.626 195.495 224.503Z" fill="#34283A"/>
<path d="M204.034 221.072C204.034 221.072 203.173 219.518 201.77 219.942" stroke="#34283A" stroke-width="0.420023" stroke-miterlimit="10" stroke-linecap="round" stroke-linejoin="round"/>
<path d="M194.045 220.492C194.045 220.492 192.382 220.375 191.996 221.689" stroke="#34283A" stroke-width="0.420023" stroke-miterlimit="10" stroke-linecap="round" stroke-linejoin="round"/>
<path d="M57.5981 229.741L75.8859 235.361L94.619 229.376L76.5832 218.497L57.5981 229.741Z" fill="#FEED7F"/>
<path d="M94.7702 227.674L94.619 229.376L76.684 219.618L76.5034 217.245L94.7702 227.674Z" fill="#CC6D3D"/>
<path d="M57.599 229.741L57.4688 228.061L76.5042 217.245L76.6848 219.618L57.599 229.741Z" fill="#F7BC4B"/>
<path d="M55.4072 245.399L77.5256 231.749L98.2328 243.568L76.5596 246.567L55.4072 245.399Z" fill="#FEED7F"/>
<path d="M98.2328 243.568L94.6584 231.959L76.7864 222.118L57.3603 232.459L55.4072 245.4L77.366 235.13L98.2328 243.568Z" fill="#CC6D3D"/>
<path d="M55.4072 245.4L57.3603 232.459L76.7864 222.118L77.366 235.13L55.4072 245.4Z" fill="#F7BC4B"/>
<path d="M62.3369 237.145C62.4498 236.444 62.2257 235.825 61.8363 235.762C61.447 235.7 61.0399 236.217 60.927 236.918C60.8142 237.619 61.0383 238.238 61.4276 238.3C61.817 238.363 62.2241 237.846 62.3369 237.145Z" fill="#665070"/>
<path d="M69.7823 234.428C69.8951 233.728 69.671 233.109 69.2817 233.046C68.8923 232.983 68.4852 233.501 68.3723 234.201C68.2595 234.902 68.4836 235.521 68.8729 235.584C69.2623 235.647 69.6694 235.129 69.7823 234.428Z" fill="#665070"/>
<path d="M76.6562 277.2L90.2188 272.785L97.46 246.467L77.4627 238.381L76.6562 277.2Z" fill="#CC6D3D"/>
<path d="M90.2188 272.785L77.5929 267.438L65.3198 272.176L76.6562 277.2L90.2188 272.785Z" fill="#FEED7F"/>
<path d="M77.5926 267.438L77.4624 238.381L55.9194 248.617L58.5698 255.258L59.3468 255.48L58.7798 255.783L61.9594 263.751L62.6818 263.956L62.1736 264.204L65.3196 272.176L77.5926 267.438Z" fill="#F7BC4B"/>
<path d="M80.8994 246.996L79.3579 246.353L79.5595 242.174L81.122 242.796L80.8994 246.996Z" fill="#F7BC4B"/>
<path d="M83.2328 247.941L81.6577 247.285L81.8887 243.072L83.4848 243.707L83.2328 247.941Z" fill="#F7BC4B"/>
<path d="M90.819 249.541C90.6384 249.382 90.5292 249.092 90.5544 248.836L90.6006 248.336C90.6342 247.987 90.8946 247.861 91.1424 248.075C91.323 248.235 91.4322 248.529 91.407 248.785L91.3608 249.285C91.3272 249.634 91.0626 249.755 90.819 249.541Z" fill="#FEED7F"/>
<path d="M92.1808 250.062C92.0002 249.902 91.891 249.608 91.9162 249.352L91.9666 248.852C92.0002 248.504 92.2648 248.378 92.5126 248.592C92.6932 248.751 92.8066 249.045 92.7814 249.306L92.731 249.81C92.6932 250.154 92.4286 250.28 92.1808 250.062Z" fill="#FEED7F"/>
<path d="M93.6712 250.709C93.4906 250.549 93.3772 250.251 93.4024 249.995L93.4528 249.491C93.4864 249.138 93.7594 249.012 94.0072 249.23C94.1921 249.39 94.3013 249.688 94.2761 249.949L94.2257 250.453C94.1921 250.805 93.919 250.927 93.6712 250.709Z" fill="#F5894E"/>
<path d="M89.1049 249.709L84.2368 247.609L84.2536 247.164L89.1259 249.252L89.1049 249.709Z" fill="#665070"/>
<path d="M89.1183 248.269L84.3091 246.152V245.69L89.1226 247.798L89.1183 248.269Z" fill="#FEED7F"/>
<path d="M89.2431 246.828L84.3372 244.774L84.333 244.237L89.2389 246.291L89.2431 246.828Z" fill="#FEED7F"/>
<path d="M80.7473 255.266L79.168 254.699L79.105 250.482L80.8103 251.138L80.7473 255.266Z" fill="#F7BC4B"/>
<path d="M83.0417 256.065L81.5044 255.514L81.6262 251.428L83.2727 252.062L83.0417 256.065Z" fill="#F7BC4B"/>
<path d="M89.8873 257.215C89.7445 257.089 89.6731 256.85 89.7151 256.64L89.7991 256.215C89.8579 255.917 90.1057 255.804 90.3031 255.98C90.4459 256.11 90.5173 256.358 90.4711 256.572L90.3829 256.988C90.3199 257.274 90.0805 257.383 89.8873 257.215Z" fill="#FEED7F"/>
<path d="M91.0144 257.593C90.8758 257.471 90.8086 257.236 90.859 257.026L90.9514 256.61C91.0186 256.316 91.2622 256.203 91.4554 256.379C91.594 256.509 91.657 256.749 91.6066 256.963L91.51 257.374C91.4428 257.652 91.2034 257.761 91.0144 257.593Z" fill="#FEED7F"/>
<path d="M92.2002 258.064C92.0658 257.942 92.007 257.711 92.0574 257.505L92.1582 257.097C92.2296 256.808 92.4775 256.698 92.6623 256.871C92.7967 256.997 92.8555 257.236 92.8009 257.442L92.6959 257.845C92.6245 258.122 92.3809 258.227 92.2002 258.064Z" fill="#F5894E"/>
<path d="M88.3695 257.404L83.9971 255.741L84.0139 255.337L88.4199 257.026L88.3695 257.404Z" fill="#665070"/>
<path d="M88.4839 256.195L84.082 254.414L84.0862 253.977L88.5217 255.787L88.4839 256.195Z" fill="#665070"/>
<path d="M88.6967 254.93L84.1143 253.107L84.1185 252.578L88.7345 254.443L88.6967 254.93Z" fill="#FEED7F"/>
<path d="M80.5212 264.023L79.0805 263.528L79.0259 259.29L80.5884 259.878L80.5212 264.023Z" fill="#F7BC4B"/>
<path d="M82.6042 264.725L81.2056 264.242L81.3316 260.134L82.8437 260.706L82.6042 264.725Z" fill="#F7BC4B"/>
<path d="M88.8226 265.581C88.6966 265.464 88.6336 265.229 88.6756 265.014L88.7596 264.59C88.8184 264.292 89.0452 264.166 89.2216 264.334C89.3518 264.456 89.4064 264.699 89.3602 264.918L89.272 265.338C89.2174 265.623 88.9948 265.741 88.8226 265.581Z" fill="#FEED7F"/>
<path d="M89.8416 265.913C89.7198 265.795 89.661 265.564 89.7114 265.354L89.8038 264.939C89.871 264.645 90.0978 264.519 90.2701 264.687C90.3961 264.808 90.4465 265.048 90.3961 265.258L90.2995 265.669C90.2323 265.955 90.0096 266.069 89.8416 265.913Z" fill="#F5894E"/>
<path d="M90.9165 266.329C90.7947 266.216 90.7485 265.989 90.7989 265.783L90.8997 265.371C90.9711 265.082 91.1979 264.96 91.366 265.124C91.4878 265.241 91.534 265.476 91.4794 265.686L91.3744 266.09C91.2988 266.367 91.0761 266.48 90.9165 266.329Z" fill="#F5894E"/>
<path d="M87.444 265.83L83.479 264.364L83.5 263.96L87.4944 265.456L87.444 265.83Z" fill="#665070"/>
<path d="M87.5598 264.628L83.5654 263.036L83.5696 262.599L87.6018 264.22L87.5598 264.628Z" fill="#FEED7F"/>
<path d="M87.7778 263.356L83.6069 261.722L83.6111 261.193L87.8198 262.873L87.7778 263.356Z" fill="#FEED7F"/>
<path d="M58.5786 255.266L77.5217 247.289L77.5007 248.079L59.3473 255.472L58.5786 255.266Z" fill="#FEED7F"/>
<path d="M61.9639 263.755L77.5425 257.475L77.5509 258.202L62.6779 263.961L61.9639 263.755Z" fill="#FEED7F"/>
<path d="M286.562 200.836L268.573 206.489L249.227 200.785L268.224 187.718L286.562 200.836Z" fill="#F5894E"/>
<path d="M249.04 198.899L249.225 200.785L268.222 188.974V186.324L249.04 198.899Z" fill="#F7BC4B"/>
<path d="M286.56 200.836L286.67 198.962L268.222 186.324V188.974L286.56 200.836Z" fill="#CC6D3D"/>
<path d="M252.557 209.546L266.93 216.267L282.399 209.126L267.871 196.946L252.557 209.546Z" fill="#F5894E"/>
<path d="M250.805 202.406L268.156 191.066L284.025 201.566L282.399 209.127L268.707 201.356L252.557 209.547L250.805 202.406Z" fill="#F7BC4B"/>
<path d="M268.483 201.566L268.155 191.066L284.024 201.566L282.398 209.127L268.483 201.566Z" fill="#CC6D3D"/>
<path d="M252.895 211.226L257.969 236.428L268.507 238.948L279.012 235.588L282.318 210.806L268.402 203.246L252.895 211.226Z" fill="#F7BC4B"/>
<path d="M257.968 236.427L269.275 231.807L279.011 235.587L268.506 238.948L257.968 236.427Z" fill="#F5894E"/>
<path d="M269.277 231.807L268.404 203.246L282.319 210.806L279.014 235.588L269.277 231.807Z" fill="#CC6D3D"/>
<path d="M273.749 202.54L272.959 202.066V199.961L273.749 200.436V202.54Z" fill="#4B3355"/>
<path d="M279.878 205.825L279.114 205.351L279.231 203.263L279.996 203.738L279.878 205.825Z" fill="#4B3355"/>
<path d="M270.81 208.522L270.856 211.424L275.182 213.612L275.321 210.899L270.81 208.522Z" fill="#665070"/>
<path d="M277.114 214.629C276.954 214.444 276.849 214.192 276.849 213.974L276.836 211.962C276.832 211.496 277.252 211.42 277.592 211.823C277.752 212.012 277.853 212.264 277.853 212.483L277.861 214.474C277.861 214.931 277.45 215.02 277.114 214.629Z" fill="#F7BC4B"/>
<path d="M278.559 215.528C278.403 215.347 278.307 215.099 278.307 214.885L278.298 212.907C278.298 212.449 278.702 212.373 279.029 212.764C279.185 212.949 279.277 213.196 279.281 213.411L279.285 215.364C279.285 215.817 278.886 215.91 278.559 215.528Z" fill="#F5894E"/>
<path d="M279.894 216.376C279.743 216.199 279.651 215.96 279.651 215.746L279.646 213.801C279.646 213.352 280.041 213.272 280.356 213.654C280.508 213.835 280.596 214.078 280.596 214.288V216.208C280.6 216.653 280.214 216.745 279.894 216.376Z" fill="#F5894E"/>
<path d="M270.569 216.973L270.527 219.619L274.417 221.413L274.593 219.119L270.569 216.973Z" fill="#665070"/>
<path d="M276.135 222.458C275.971 222.269 275.87 222.013 275.874 221.786L275.891 219.736C275.895 219.266 276.324 219.19 276.668 219.598C276.828 219.791 276.928 220.047 276.924 220.266L276.907 222.294C276.903 222.761 276.479 222.853 276.135 222.458Z" fill="#F7BC4B"/>
<path d="M277.617 223.374C277.457 223.189 277.36 222.937 277.36 222.715L277.377 220.694C277.381 220.228 277.797 220.148 278.129 220.547C278.284 220.736 278.381 220.984 278.381 221.202L278.368 223.202C278.364 223.668 277.948 223.765 277.617 223.374Z" fill="#F7BC4B"/>
<path d="M278.936 224.126C278.781 223.946 278.688 223.698 278.688 223.479L278.701 221.488C278.705 221.031 279.109 220.947 279.432 221.337C279.583 221.522 279.676 221.766 279.676 221.984L279.667 223.958C279.659 224.408 279.26 224.504 278.936 224.126Z" fill="#F5894E"/>
<path d="M270.622 226.141L270.555 228.64L273.814 230.035L273.932 227.75L270.622 226.141Z" fill="#665070"/>
<path d="M275.051 230.741C274.925 230.573 274.853 230.346 274.87 230.153L275.034 228.342C275.072 227.918 275.458 227.851 275.731 228.22C275.861 228.393 275.929 228.624 275.908 228.825L275.735 230.623C275.698 231.026 275.32 231.093 275.051 230.741Z" fill="#F7BC4B"/>
<path d="M276.276 231.585C276.15 231.417 276.083 231.194 276.104 231.001L276.28 229.216C276.322 228.8 276.705 228.729 276.969 229.094C277.095 229.266 277.158 229.493 277.141 229.691L276.957 231.463C276.915 231.866 276.541 231.934 276.276 231.585Z" fill="#F7BC4B"/>
<path d="M277.54 232.295C277.418 232.131 277.355 231.913 277.372 231.72L277.561 229.956C277.603 229.544 277.981 229.477 278.245 229.834C278.367 230.002 278.43 230.229 278.409 230.422L278.216 232.173C278.17 232.576 277.8 232.644 277.54 232.295Z" fill="#F7BC4B"/>
<path d="M256.95 213.02C257.3 213.02 257.584 212.676 257.584 212.251C257.584 211.827 257.3 211.483 256.95 211.483C256.599 211.483 256.315 211.827 256.315 212.251C256.315 212.676 256.599 213.02 256.95 213.02Z" fill="#F5894E"/>
<path d="M259.388 211.886C259.738 211.886 260.022 211.542 260.022 211.117C260.022 210.693 259.738 210.348 259.388 210.348C259.038 210.348 258.754 210.693 258.754 211.117C258.754 211.542 259.038 211.886 259.388 211.886Z" fill="#F5894E"/>
<path d="M261.921 210.621C262.272 210.621 262.556 210.277 262.556 209.853C262.556 209.428 262.272 209.084 261.921 209.084C261.571 209.084 261.287 209.428 261.287 209.853C261.287 210.277 261.571 210.621 261.921 210.621Z" fill="#F5894E"/>
<path d="M264.274 209.446C264.624 209.446 264.908 209.102 264.908 208.677C264.908 208.253 264.624 207.908 264.274 207.908C263.924 207.908 263.64 208.253 263.64 208.677C263.64 209.102 263.924 209.446 264.274 209.446Z" fill="#F5894E"/>
<path d="M256.95 215.553C257.3 215.553 257.584 215.208 257.584 214.784C257.584 214.359 257.3 214.015 256.95 214.015C256.599 214.015 256.315 214.359 256.315 214.784C256.315 215.208 256.599 215.553 256.95 215.553Z" fill="#F5894E"/>
<path d="M259.388 214.419C259.738 214.419 260.022 214.074 260.022 213.65C260.022 213.225 259.738 212.881 259.388 212.881C259.038 212.881 258.754 213.225 258.754 213.65C258.754 214.074 259.038 214.419 259.388 214.419Z" fill="#F5894E"/>
<path d="M261.921 213.154C262.272 213.154 262.556 212.81 262.556 212.385C262.556 211.961 262.272 211.617 261.921 211.617C261.571 211.617 261.287 211.961 261.287 212.385C261.287 212.81 261.571 213.154 261.921 213.154Z" fill="#F5894E"/>
<path d="M264.274 211.978C264.624 211.978 264.908 211.634 264.908 211.209C264.908 210.785 264.624 210.441 264.274 210.441C263.924 210.441 263.64 210.785 263.64 211.209C263.64 211.634 263.924 211.978 264.274 211.978Z" fill="#F5894E"/>
<path d="M258.394 221.45C258.714 221.45 258.974 221.134 258.974 220.745C258.974 220.355 258.714 220.039 258.394 220.039C258.074 220.039 257.814 220.355 257.814 220.745C257.814 221.134 258.074 221.45 258.394 221.45Z" fill="#F5894E"/>
<path d="M260.637 220.413C260.957 220.413 261.216 220.097 261.216 219.707C261.216 219.318 260.957 219.002 260.637 219.002C260.317 219.002 260.057 219.318 260.057 219.707C260.057 220.097 260.317 220.413 260.637 220.413Z" fill="#F5894E"/>
<path d="M262.963 219.249C263.284 219.249 263.543 218.934 263.543 218.544C263.543 218.154 263.284 217.838 262.963 217.838C262.643 217.838 262.384 218.154 262.384 218.544C262.384 218.934 262.643 219.249 262.963 219.249Z" fill="#F5894E"/>
<path d="M265.122 218.17C265.442 218.17 265.701 217.854 265.701 217.464C265.701 217.075 265.442 216.759 265.122 216.759C264.802 216.759 264.542 217.075 264.542 217.464C264.542 217.854 264.802 218.17 265.122 218.17Z" fill="#F5894E"/>
<path d="M258.394 223.777C258.714 223.777 258.974 223.461 258.974 223.071C258.974 222.682 258.714 222.366 258.394 222.366C258.074 222.366 257.814 222.682 257.814 223.071C257.814 223.461 258.074 223.777 258.394 223.777Z" fill="#F5894E"/>
<path d="M260.637 222.74C260.957 222.74 261.216 222.424 261.216 222.034C261.216 221.644 260.957 221.328 260.637 221.328C260.317 221.328 260.057 221.644 260.057 222.034C260.057 222.424 260.317 222.74 260.637 222.74Z" fill="#F5894E"/>
<path d="M262.963 221.577C263.284 221.577 263.543 221.261 263.543 220.871C263.543 220.481 263.284 220.165 262.963 220.165C262.643 220.165 262.384 220.481 262.384 220.871C262.384 221.261 262.643 221.577 262.963 221.577Z" fill="#F5894E"/>
<path d="M265.122 220.493C265.442 220.493 265.701 220.177 265.701 219.787C265.701 219.397 265.442 219.082 265.122 219.082C264.802 219.082 264.542 219.397 264.542 219.787C264.542 220.177 264.802 220.493 265.122 220.493Z" fill="#F5894E"/>
<path d="M259.698 230.046C260.015 230.019 260.246 229.683 260.213 229.295C260.181 228.906 259.898 228.613 259.581 228.639C259.265 228.665 259.034 229.002 259.066 229.39C259.099 229.778 259.382 230.072 259.698 230.046Z" fill="#F5894E"/>
<path d="M261.916 229.1C262.232 229.074 262.463 228.738 262.431 228.349C262.398 227.961 262.115 227.667 261.799 227.694C261.482 227.72 261.251 228.056 261.284 228.445C261.316 228.833 261.599 229.127 261.916 229.1Z" fill="#F5894E"/>
<path d="M264.218 228.038C264.535 228.011 264.766 227.675 264.733 227.287C264.701 226.898 264.418 226.605 264.101 226.631C263.785 226.657 263.554 226.994 263.586 227.382C263.619 227.77 263.902 228.064 264.218 228.038Z" fill="#F5894E"/>
<path d="M266.356 227.047C266.673 227.02 266.904 226.684 266.871 226.296C266.839 225.907 266.556 225.614 266.239 225.64C265.923 225.667 265.692 226.003 265.725 226.391C265.757 226.78 266.04 227.073 266.356 227.047Z" fill="#F5894E"/>
<path d="M259.698 232.373C260.015 232.346 260.246 232.01 260.213 231.622C260.181 231.233 259.898 230.94 259.581 230.966C259.265 230.993 259.034 231.329 259.066 231.717C259.099 232.106 259.382 232.399 259.698 232.373Z" fill="#F5894E"/>
<path d="M261.916 231.428C262.232 231.401 262.463 231.065 262.431 230.677C262.398 230.288 262.115 229.995 261.799 230.021C261.482 230.048 261.251 230.384 261.284 230.772C261.316 231.161 261.599 231.454 261.916 231.428Z" fill="#F5894E"/>
<path d="M264.218 230.365C264.535 230.339 264.766 230.002 264.733 229.614C264.701 229.226 264.418 228.932 264.101 228.958C263.785 228.985 263.554 229.321 263.586 229.709C263.619 230.098 263.902 230.391 264.218 230.365Z" fill="#F5894E"/>
<path d="M266.356 229.374C266.673 229.347 266.904 229.011 266.871 228.623C266.839 228.234 266.556 227.941 266.239 227.967C265.923 227.993 265.692 228.33 265.725 228.718C265.757 229.106 266.04 229.4 266.356 229.374Z" fill="#F5894E"/>
<path d="M354.086 115.44L331.317 122.979L306.833 117.183L329.901 101.453L354.086 115.44Z" fill="#FEED7F"/>
<path d="M306.472 115.032L306.833 117.183L329.88 102.894V99.8443L306.472 115.032Z" fill="#F7BC4B"/>
<path d="M354.085 115.44V113.285L329.879 99.8443V102.894L354.085 115.44Z" fill="#F5894E"/>
<path d="M302.998 132.606L330.535 134.631L358.605 132.031L328.918 115.65L302.998 132.606Z" fill="#FEED7F"/>
<path d="M302.998 132.606L304.976 119.43L330.178 103.889L357.059 118.17L358.605 132.03L330.178 119.01L302.998 132.606Z" fill="#F5894E"/>
<path d="M302.998 132.606L304.976 119.43L330.178 103.889V119.01L302.998 132.606Z" fill="#F7BC4B"/>
<path d="M314.392 122.832C314.989 122.832 315.472 122.386 315.472 121.837C315.472 121.287 314.989 120.841 314.392 120.841C313.796 120.841 313.313 121.287 313.313 121.837C313.313 122.386 313.796 122.832 314.392 122.832Z" fill="#4B3355"/>
<path d="M319.542 120.337C320.139 120.337 320.622 119.892 320.622 119.342C320.622 118.792 320.139 118.346 319.542 118.346C318.946 118.346 318.463 118.792 318.463 119.342C318.463 119.892 318.946 120.337 319.542 120.337Z" fill="#4B3355"/>
<path d="M330.176 122.79L358.603 134.551L352.58 144.93L347.397 176.553L331.016 182.434L330.176 122.79Z" fill="#F5894E"/>
<path d="M312.955 176.973L311.585 167.115L312.064 166.905L311.485 166.364L310.111 156.459L310.493 156.241L310.006 155.649L308.725 146.328L309.309 146.081L308.557 145.589L303.836 135.126L330.176 122.79L331.016 171.513L312.955 176.973Z" fill="#F7BC4B"/>
<path d="M312.956 176.973L331.017 171.513L347.398 176.553L331.017 182.434L312.956 176.973Z" fill="#FEED7F"/>
<path d="M313.559 141.825C313.118 141.855 312.735 141.519 312.706 141.074L312.58 139.137C312.551 138.696 312.887 138.314 313.332 138.285C313.773 138.255 314.155 138.591 314.184 139.036L314.31 140.973C314.34 141.414 314.004 141.796 313.559 141.825Z" fill="#BB83C3"/>
<path d="M316.071 140.318C315.63 140.376 315.226 140.07 315.163 139.633L314.899 137.713C314.84 137.272 315.147 136.869 315.583 136.806C316.024 136.747 316.428 137.054 316.491 137.491L316.755 139.41C316.818 139.851 316.512 140.259 316.071 140.318Z" fill="#BB83C3"/>
<path d="M318.771 139.045C318.33 139.104 317.927 138.793 317.872 138.352L317.62 136.428C317.561 135.987 317.872 135.584 318.313 135.529C318.754 135.471 319.157 135.781 319.212 136.222L319.464 138.146C319.523 138.583 319.212 138.986 318.771 139.045Z" fill="#BB83C3"/>
<path d="M321.462 137.718C321.021 137.768 320.622 137.453 320.572 137.016L320.345 135.093C320.295 134.652 320.61 134.253 321.047 134.202C321.488 134.152 321.887 134.467 321.937 134.904L322.164 136.827C322.218 137.268 321.903 137.667 321.462 137.718Z" fill="#665070"/>
<path d="M324.043 136.34C323.602 136.374 323.215 136.038 323.186 135.597L323.047 133.664C323.014 133.223 323.35 132.837 323.791 132.808C324.232 132.774 324.618 133.11 324.648 133.551L324.786 135.483C324.816 135.924 324.484 136.311 324.043 136.34Z" fill="#665070"/>
<path d="M314.977 151.259C314.595 151.259 314.263 150.948 314.238 150.562L314.129 148.873C314.104 148.487 314.394 148.172 314.776 148.172C315.158 148.172 315.49 148.483 315.515 148.869L315.624 150.558C315.649 150.948 315.36 151.259 314.977 151.259Z" fill="#BB83C3"/>
<path d="M317.148 150.088C316.77 150.117 316.417 149.827 316.367 149.441L316.136 147.756C316.081 147.37 316.35 147.034 316.728 147.005C317.106 146.975 317.459 147.265 317.509 147.651L317.74 149.336C317.795 149.722 317.53 150.058 317.148 150.088Z" fill="#BB83C3"/>
<path d="M319.488 149.125C319.106 149.151 318.757 148.861 318.711 148.474L318.493 146.79C318.442 146.404 318.711 146.072 319.094 146.047C319.476 146.021 319.824 146.311 319.871 146.698L320.089 148.382C320.135 148.768 319.866 149.1 319.488 149.125Z" fill="#665070"/>
<path d="M321.815 148.122C321.433 148.143 321.089 147.849 321.042 147.463L320.845 145.774C320.799 145.388 321.072 145.06 321.454 145.035C321.836 145.014 322.181 145.308 322.227 145.694L322.424 147.383C322.47 147.769 322.197 148.097 321.815 148.122Z" fill="#665070"/>
<path d="M324.046 147.063C323.664 147.067 323.332 146.757 323.303 146.37L323.185 144.682C323.156 144.295 323.446 143.98 323.828 143.976C324.21 143.972 324.542 144.283 324.571 144.669L324.689 146.358C324.714 146.744 324.428 147.059 324.046 147.063Z" fill="#665070"/>
<path d="M316.281 161.773C315.899 161.752 315.567 161.424 315.542 161.034L315.433 159.341C315.407 158.955 315.697 158.656 316.08 158.673C316.462 158.694 316.794 159.022 316.819 159.412L316.928 161.105C316.953 161.496 316.663 161.794 316.281 161.773Z" fill="#BB83C3"/>
<path d="M318.451 160.714C318.073 160.723 317.721 160.416 317.67 160.03L317.439 158.333C317.385 157.946 317.653 157.623 318.031 157.615C318.409 157.606 318.762 157.913 318.813 158.299L319.044 159.996C319.098 160.383 318.834 160.706 318.451 160.714Z" fill="#BB83C3"/>
<path d="M320.789 159.874C320.407 159.879 320.058 159.572 320.012 159.181L319.794 157.484C319.743 157.098 320.012 156.775 320.394 156.77C320.777 156.766 321.125 157.073 321.171 157.463L321.39 159.16C321.44 159.551 321.171 159.87 320.789 159.874Z" fill="#665070"/>
<path d="M323.119 158.992C322.737 158.992 322.392 158.681 322.346 158.291L322.149 156.594C322.102 156.207 322.375 155.888 322.758 155.888C323.14 155.888 323.484 156.199 323.531 156.59L323.728 158.286C323.77 158.673 323.501 158.992 323.119 158.992Z" fill="#665070"/>
<path d="M325.348 158.051C324.966 158.035 324.634 157.707 324.605 157.321L324.487 155.624C324.458 155.237 324.748 154.935 325.13 154.952C325.512 154.968 325.844 155.296 325.874 155.682L325.991 157.379C326.016 157.766 325.731 158.068 325.348 158.051Z" fill="#665070"/>
<path d="M317.655 170.664C317.302 170.635 317 170.324 316.975 169.971L316.874 168.426C316.853 168.073 317.117 167.808 317.47 167.838C317.823 167.867 318.125 168.178 318.151 168.531L318.251 170.076C318.272 170.429 318.008 170.694 317.655 170.664Z" fill="#BB83C3"/>
<path d="M319.654 169.766C319.305 169.762 318.982 169.472 318.931 169.115L318.721 167.565C318.671 167.212 318.919 166.926 319.267 166.931C319.616 166.935 319.939 167.225 319.99 167.582L320.2 169.131C320.246 169.484 320.002 169.77 319.654 169.766Z" fill="#665070"/>
<path d="M321.805 169.077C321.457 169.068 321.133 168.778 321.087 168.421L320.885 166.872C320.839 166.519 321.087 166.233 321.436 166.242C321.784 166.25 322.108 166.54 322.154 166.897L322.356 168.447C322.402 168.804 322.154 169.085 321.805 169.077Z" fill="#665070"/>
<path d="M323.948 168.346C323.599 168.333 323.28 168.039 323.238 167.682L323.057 166.132C323.015 165.78 323.267 165.498 323.616 165.511C323.965 165.523 324.284 165.817 324.326 166.174L324.506 167.724C324.548 168.077 324.301 168.359 323.948 168.346Z" fill="#665070"/>
<path d="M325.998 167.56C325.645 167.535 325.338 167.224 325.313 166.872L325.204 165.326C325.179 164.973 325.443 164.709 325.796 164.734C326.149 164.759 326.455 165.07 326.481 165.423L326.59 166.968C326.615 167.325 326.35 167.59 325.998 167.56Z" fill="#665070"/>
<path d="M330.415 136.265L352.369 145.467L352.453 144.93L330.39 135.58L330.415 136.265Z" fill="#FEED7F"/>
<path d="M330.415 136.265L330.39 135.58L308.574 145.598L309.279 146.093L330.415 136.265Z" fill="#FEED7F"/>
<path d="M330.752 148.117L350.64 156.287L350.724 155.749L330.722 147.433L330.752 148.117Z" fill="#FEED7F"/>
<path d="M330.752 148.117L330.722 147.433L310.028 155.648L310.486 156.232L330.752 148.117Z" fill="#FEED7F"/>
<path d="M330.914 159.58L349.101 165.952L349.185 165.414L330.889 158.895L330.914 159.58Z" fill="#FEED7F"/>
<path d="M330.914 159.58L330.889 158.895L311.479 166.351L312.063 166.905L330.914 159.58Z" fill="#FEED7F"/>
<path d="M116.623 107.489L93.8489 116.453L69.3657 110.656L92.4376 94.9264L116.623 107.489Z" fill="#FEED7F"/>
<path d="M69.0088 108.506L69.3658 110.656L92.4167 96.3711V93.3217L69.0088 108.506Z" fill="#F7BC4B"/>
<path d="M116.623 107.489V105.338L92.417 93.3214V96.3708L116.623 107.489Z" fill="#F5894E"/>
<path d="M73.8804 123.861L93.6215 127.642L111.682 122.601L91.1013 113.781L73.8804 123.861Z" fill="#FEED7F"/>
<path d="M73.8798 123.862L72.1997 112.101L91.5208 99.0803L113.362 108.741L111.682 122.602L91.5208 114.201L73.8798 123.862Z" fill="#F5894E"/>
<path d="M73.8798 123.862L72.1997 112.101L91.5208 99.0803V114.201L73.8798 123.862Z" fill="#F7BC4B"/>
<path d="M99.0019 110.357C98.4601 110.244 98.019 109.58 98.019 108.875V107.766C98.019 107.06 98.4601 106.586 99.0019 106.699C99.5437 106.812 99.9847 107.476 99.9847 108.182V109.291C99.9847 109.992 99.5479 110.471 99.0019 110.357Z" fill="#665070"/>
<path d="M107.091 114.18C106.549 114.066 106.108 113.403 106.108 112.697V111.588C106.108 110.883 106.549 110.408 107.091 110.521C107.633 110.635 108.074 111.298 108.074 112.004V113.113C108.074 113.814 107.633 114.293 107.091 114.18Z" fill="#665070"/>
<path d="M91.9409 116.721L111.262 125.541L110.737 132.64L110.384 133.051L110.712 133.16L110.12 141.246L109.746 141.662L110.09 141.788L109.485 150.121L109.195 150.583L109.456 150.692L108.742 160.403L94.4905 166.283L91.9409 116.721Z" fill="#F5894E"/>
<path d="M78.5006 161.663L77.1734 151.331L77.5892 151.184L77.0599 150.659L75.9259 141.88L76.4257 141.649L75.8083 141.107L74.8548 133.874L75.4765 133.627L74.7582 133.135L73.8804 126.381L91.9414 116.721L94.4909 166.283L78.5006 161.663Z" fill="#F7BC4B"/>
<path d="M78.5225 161.651L94.0339 155.01L108.743 160.404L94.4917 166.284L78.5225 161.651Z" fill="#FEED7F"/>
<path d="M102.781 127.927C102.461 127.86 102.205 127.473 102.205 127.062V126.415C102.205 126.003 102.461 125.726 102.781 125.793C103.1 125.86 103.356 126.247 103.356 126.658V127.305C103.356 127.717 103.1 127.994 102.781 127.927Z" fill="#C94039"/>
<path d="M104.528 128.674C104.209 128.607 103.953 128.221 103.953 127.809V127.162C103.953 126.751 104.209 126.473 104.528 126.541C104.847 126.608 105.103 126.994 105.103 127.406V128.053C105.103 128.464 104.843 128.741 104.528 128.674Z" fill="#665070"/>
<path d="M106.187 129.422C105.868 129.355 105.611 128.969 105.611 128.557V127.91C105.611 127.499 105.868 127.221 106.187 127.289C106.506 127.356 106.762 127.742 106.762 128.154V128.801C106.762 129.212 106.506 129.49 106.187 129.422Z" fill="#665070"/>
<path d="M107.768 130.086C107.449 130.018 107.192 129.632 107.192 129.22V128.574C107.192 128.162 107.449 127.885 107.768 127.952C108.087 128.019 108.343 128.405 108.343 128.817V129.464C108.343 129.876 108.087 130.153 107.768 130.086Z" fill="#665070"/>
<path d="M102.578 135.408C102.259 135.341 102.002 134.954 102.002 134.543V133.896C102.002 133.484 102.259 133.207 102.578 133.274C102.897 133.342 103.153 133.728 103.153 134.14V134.782C103.153 135.194 102.893 135.475 102.578 135.408Z" fill="#C94039"/>
<path d="M104.32 136.155C104 136.088 103.744 135.702 103.744 135.29V134.643C103.744 134.232 104 133.955 104.32 134.022C104.639 134.089 104.895 134.475 104.895 134.887V135.534C104.895 135.941 104.639 136.223 104.32 136.155Z" fill="#665070"/>
<path d="M105.984 136.904C105.665 136.836 105.409 136.45 105.409 136.038V135.391C105.409 134.98 105.665 134.703 105.984 134.77C106.303 134.837 106.56 135.223 106.56 135.635V136.282C106.56 136.689 106.299 136.971 105.984 136.904Z" fill="#665070"/>
<path d="M107.565 137.567C107.246 137.5 106.99 137.113 106.99 136.702V136.055C106.99 135.643 107.246 135.366 107.565 135.433C107.884 135.5 108.141 135.887 108.141 136.298V136.945C108.136 137.357 107.88 137.634 107.565 137.567Z" fill="#665070"/>
<path d="M102.449 143.631C102.13 143.564 101.874 143.178 101.874 142.766V142.119C101.874 141.708 102.13 141.431 102.449 141.498C102.769 141.565 103.025 141.951 103.025 142.363V143.01C103.025 143.421 102.769 143.699 102.449 143.631Z" fill="#C94039"/>
<path d="M104.197 144.379C103.878 144.312 103.622 143.925 103.622 143.514V142.867C103.622 142.455 103.878 142.178 104.197 142.245C104.516 142.312 104.772 142.699 104.772 143.11V143.757C104.768 144.169 104.512 144.446 104.197 144.379Z" fill="#C94039"/>
<path d="M105.855 145.127C105.536 145.06 105.279 144.673 105.279 144.261V143.615C105.279 143.203 105.536 142.926 105.855 142.993C106.174 143.06 106.43 143.447 106.43 143.858V144.505C106.43 144.917 106.174 145.194 105.855 145.127Z" fill="#C94039"/>
<path d="M107.437 145.79C107.118 145.723 106.861 145.337 106.861 144.925V144.278C106.861 143.866 107.118 143.589 107.437 143.656C107.756 143.724 108.012 144.11 108.012 144.522V145.169C108.012 145.58 107.756 145.857 107.437 145.79Z" fill="#665070"/>
<path d="M102.329 152.57C102.01 152.507 101.754 152.12 101.754 151.709V151.062C101.754 150.65 102.01 150.369 102.329 150.432C102.649 150.495 102.905 150.881 102.905 151.293V151.94C102.901 152.351 102.644 152.633 102.329 152.57Z" fill="#C94039"/>
<path d="M104.073 153.297C103.754 153.234 103.498 152.847 103.498 152.435V151.789C103.498 151.377 103.754 151.096 104.073 151.159C104.392 151.222 104.648 151.608 104.648 152.02V152.666C104.648 153.078 104.388 153.36 104.073 153.297Z" fill="#C94039"/>
<path d="M105.735 154.027C105.415 153.964 105.159 153.578 105.159 153.166V152.519C105.159 152.108 105.415 151.826 105.735 151.889C106.054 151.952 106.31 152.339 106.31 152.75V153.397C106.306 153.809 106.05 154.09 105.735 154.027Z" fill="#665070"/>
<path d="M107.312 154.674C106.993 154.611 106.736 154.225 106.736 153.813V153.166C106.736 152.755 106.993 152.473 107.312 152.536C107.631 152.599 107.887 152.986 107.887 153.397V154.044C107.887 154.456 107.631 154.737 107.312 154.674Z" fill="#665070"/>
<path d="M100.793 142.821C100.725 142.821 100.654 142.809 100.587 142.788L95.4499 141.032C95.1055 140.914 94.8787 140.536 94.9417 140.188C95.0047 139.839 95.3407 139.654 95.6851 139.772L100.822 141.528C101.166 141.645 101.393 142.023 101.33 142.372C101.276 142.645 101.053 142.821 100.793 142.821Z" fill="#665070"/>
<path d="M100.376 134.345C100.309 134.345 100.237 134.332 100.17 134.311L95.0334 132.556C94.689 132.438 94.4621 132.06 94.5252 131.711C94.5882 131.363 94.9242 131.178 95.2686 131.295L100.405 133.051C100.75 133.169 100.977 133.547 100.914 133.895C100.859 134.173 100.636 134.345 100.376 134.345Z" fill="#665070"/>
<path d="M100.871 126.784C100.812 126.784 100.753 126.772 100.69 126.751L95.4317 124.697C95.0117 124.533 94.7093 124.058 94.7681 123.638C94.8227 123.218 95.2175 123.025 95.6375 123.21L100.892 125.491C101.19 125.621 101.383 125.999 101.329 126.343C101.283 126.612 101.098 126.784 100.871 126.784Z" fill="#665070"/>
<path d="M100.749 151.851C100.686 151.851 100.623 151.839 100.56 151.818L95.8221 150.083C95.5029 149.965 95.2929 149.592 95.3517 149.243C95.4105 148.894 95.7171 148.705 96.0363 148.823L100.774 150.558C101.093 150.675 101.303 151.049 101.245 151.398C101.194 151.671 100.993 151.847 100.749 151.851Z" fill="#665070"/>
<path d="M92.442 125.688L110.385 133.051L110.738 132.64L92.4126 125.004L92.442 125.688Z" fill="#CC6D3D"/>
<path d="M92.4429 125.688L92.4135 125.004L74.7642 133.135L75.474 133.631L92.4429 125.688Z" fill="#CC6D3D"/>
<path d="M92.774 134.773L109.751 141.662L110.117 141.25L92.7446 134.084L92.774 134.773Z" fill="#CC6D3D"/>
<path d="M92.7745 134.773L92.7451 134.084L75.814 141.103L76.4314 141.641L92.7745 134.773Z" fill="#CC6D3D"/>
<path d="M92.9378 145.018L109.18 150.583L109.474 150.109L92.9126 144.333L92.9378 145.018Z" fill="#CC6D3D"/>
<path d="M92.9378 145.018L92.9126 144.333L77.0273 150.638L77.6112 151.192L92.9378 145.018Z" fill="#CC6D3D"/>
<path d="M252.938 53.9947L201.305 70.6066L146.559 53.9989L200.036 22.3669L252.938 53.9947Z" fill="#F5894E"/>
<path d="M145.947 49.1603L146.56 53.9989L199.865 25.5886L200.134 18.7758L145.947 49.1603Z" fill="#FEED7F"/>
<path d="M252.939 53.9946L253.187 47.6859L200.134 18.7757L199.865 25.5885L252.939 53.9946Z" fill="#F7BC4B"/>
<path d="M200.47 65.9612L150.697 91.7422L199.806 104.183L250.512 86.8447L200.47 65.9612Z" fill="#F5894E"/>
<path d="M150.698 91.7423L143.591 58.6781L199.374 29.7679L255.817 58.8881L250.512 86.8449L200.391 68.0572L150.698 91.7423Z" fill="#F7BC4B"/>
<path d="M150.698 91.7423L143.591 58.6781L199.374 29.7679L200.391 68.0572L150.698 91.7423Z" fill="#FEED7F"/>
<path d="M217.053 54.7507C217.196 52.8377 216.468 51.2238 215.427 51.146C214.386 51.0683 213.426 52.5561 213.283 54.4691C213.14 56.3821 213.868 57.996 214.909 58.0738C215.95 58.1516 216.91 56.6638 217.053 54.7507Z" fill="#4B3355"/>
<path d="M242.835 66.064C242.965 64.3175 242.3 62.8441 241.35 62.7731C240.399 62.702 239.522 64.0603 239.392 65.8068C239.262 67.5532 239.926 69.0267 240.877 69.0977C241.828 69.1687 242.704 67.8105 242.835 66.064Z" fill="#4B3355"/>
<path d="M236.102 90.2515C236.069 90.7513 235.586 91.0789 235.027 90.9781C234.464 90.8773 234.036 90.3859 234.074 89.8819C234.107 89.3778 234.594 89.0502 235.153 89.1552C235.712 89.2602 236.136 89.7475 236.102 90.2515Z" fill="#BB83C3"/>
<path d="M235.821 94.2799C235.788 94.7797 235.304 95.1115 234.746 95.0191C234.183 94.9267 233.759 94.4437 233.792 93.9397C233.826 93.4356 234.313 93.108 234.872 93.2046C235.43 93.297 235.855 93.7801 235.821 94.2799Z" fill="#BB83C3"/>
<path d="M240.484 92.3894C240.45 92.885 239.98 93.2084 239.438 93.1118C238.892 93.0152 238.476 92.5364 238.514 92.0408C238.547 91.5451 239.022 91.2217 239.568 91.3183C240.106 91.4149 240.517 91.8938 240.484 92.3894Z" fill="#BB83C3"/>
<path d="M240.198 96.3544C240.165 96.8459 239.694 97.1735 239.153 97.0853C238.606 96.9971 238.191 96.5225 238.228 96.0268C238.262 95.5312 238.737 95.2036 239.283 95.296C239.825 95.3884 240.236 95.863 240.198 96.3544Z" fill="#BB83C3"/>
<path d="M244.419 94.3048C244.382 94.7921 243.928 95.1155 243.394 95.0231C242.861 94.9307 242.458 94.4602 242.496 93.973C242.529 93.4816 242.991 93.1624 243.525 93.2548C244.054 93.343 244.453 93.8176 244.419 94.3048Z" fill="#BB83C3"/>
<path d="M244.129 98.2151C244.091 98.7023 243.638 99.0258 243.104 98.9417C242.571 98.8577 242.168 98.3915 242.206 97.9043C242.239 97.4171 242.701 97.0894 243.235 97.1777C243.768 97.2659 244.167 97.7279 244.129 98.2151Z" fill="#BB83C3"/>
<path d="M207.921 164.638L165.024 154.939L205.3 135.509L240.448 150.34L207.921 164.638Z" fill="#F5894E"/>
<path d="M249.893 91.8643L240.867 150.357L204.862 135.912L201.464 72.7239L249.893 91.8643Z" fill="#F7BC4B"/>
<path d="M152.247 96.0981L154.629 107.204L155.763 107.565L154.826 108.086L158.19 123.295L159.156 123.71L158.434 124.109L162 140.805L162.84 141.196L162.164 141.561L165.024 154.939L204.863 135.912L201.465 72.7238L152.247 96.0981Z" fill="#FEED7F"/>
<path d="M154.599 107.186L201.743 83.9381L201.797 85.3368L155.716 107.531L154.599 107.186Z" fill="#F5894E"/>
<path d="M205.001 136.282L201.464 72.7239L200.372 73.2111L203.837 137.37L205.001 136.282Z" fill="#F5894E"/>
<path d="M158.161 123.286L202.477 102.231L202.339 103.554L159.114 123.723L158.161 123.286Z" fill="#F5894E"/>
<path d="M161.994 140.806L204.009 119.586L203.875 120.909L162.834 141.192L161.994 140.806Z" fill="#F5894E"/>
<path d="M208.133 78.8399L208.196 85.6611L226.601 92.646L226.849 86.3373L208.133 78.8399Z" fill="#856792"/>
<path d="M208.442 91.9567L208.497 99.3071L226.629 105.452L226.877 99.1475L208.442 91.9567Z" fill="#856792"/>
<path d="M208.764 106.469V114.117L225.518 120.22L225.8 113.038L208.764 106.469Z" fill="#856792"/>
<path d="M208.589 124.194L208.601 130.41L225.335 136.391L225.562 130.641L208.589 124.194Z" fill="#856792"/>
<path d="M234.137 103.046C234.487 102.723 234.48 102.148 234.123 101.761C233.766 101.375 233.193 101.323 232.843 101.645C232.494 101.968 232.501 102.543 232.858 102.93C233.215 103.317 233.788 103.369 234.137 103.046Z" fill="#BB83C3"/>
<path d="M234.149 107.074C234.499 106.751 234.492 106.176 234.135 105.789C233.778 105.402 233.205 105.35 232.856 105.673C232.506 105.996 232.513 106.571 232.87 106.958C233.227 107.344 233.8 107.397 234.149 107.074Z" fill="#BB83C3"/>
<path d="M238.211 104.792C238.56 104.469 238.554 103.894 238.197 103.508C237.839 103.121 237.267 103.069 236.917 103.391C236.568 103.714 236.574 104.289 236.932 104.676C237.289 105.063 237.862 105.115 238.211 104.792Z" fill="#BB83C3"/>
<path d="M238.225 108.82C238.574 108.498 238.568 107.923 238.21 107.536C237.853 107.149 237.28 107.097 236.931 107.42C236.582 107.742 236.588 108.317 236.945 108.704C237.303 109.091 237.875 109.143 238.225 108.82Z" fill="#BB83C3"/>
<path d="M241.97 106.4C242.32 106.078 242.313 105.503 241.956 105.116C241.599 104.729 241.026 104.677 240.676 105C240.327 105.322 240.334 105.897 240.691 106.284C241.048 106.671 241.621 106.723 241.97 106.4Z" fill="#BB83C3"/>
<path d="M241.984 110.429C242.334 110.106 242.327 109.531 241.97 109.144C241.613 108.758 241.04 108.706 240.691 109.028C240.341 109.351 240.348 109.926 240.705 110.313C241.062 110.7 241.635 110.752 241.984 110.429Z" fill="#BB83C3"/>
<path d="M232.668 116.709C232.676 117.33 232.189 117.788 231.567 117.738C230.941 117.687 230.404 117.141 230.374 116.503C230.345 115.856 230.849 115.373 231.5 115.44C232.138 115.507 232.659 116.078 232.668 116.709Z" fill="#BB83C3"/>
<path d="M232.74 121.417C232.748 121.959 232.29 122.379 231.711 122.362C231.127 122.345 230.623 121.883 230.598 121.329C230.572 120.766 231.043 120.325 231.648 120.359C232.244 120.384 232.731 120.863 232.74 121.417Z" fill="#BB83C3"/>
<path d="M237.39 118.691C237.361 119.254 236.895 119.674 236.349 119.64C235.794 119.606 235.349 119.119 235.362 118.544C235.374 117.96 235.857 117.515 236.428 117.565C236.991 117.607 237.42 118.115 237.39 118.691Z" fill="#BB83C3"/>
<path d="M237.167 122.971C237.141 123.467 236.705 123.857 236.188 123.849C235.663 123.841 235.247 123.429 235.255 122.921C235.268 122.404 235.718 122.001 236.255 122.018C236.789 122.039 237.196 122.467 237.167 122.971Z" fill="#BB83C3"/>
<path d="M241.206 120.283C241.151 120.8 240.706 121.194 240.211 121.169C239.707 121.144 239.333 120.703 239.375 120.174C239.417 119.636 239.875 119.225 240.391 119.258C240.899 119.3 241.265 119.758 241.206 120.283Z" fill="#BB83C3"/>
<path d="M240.778 124.231C240.727 124.689 240.311 125.059 239.841 125.054C239.366 125.05 239.009 124.676 239.047 124.206C239.085 123.731 239.518 123.349 240.005 123.362C240.484 123.374 240.828 123.765 240.778 124.231Z" fill="#BB83C3"/>
<path d="M230.779 132.653C230.75 133.211 230.288 133.615 229.746 133.564C229.204 133.51 228.78 133.014 228.805 132.455C228.826 131.892 229.293 131.477 229.839 131.535C230.385 131.59 230.809 132.094 230.779 132.653Z" fill="#BB83C3"/>
<path d="M230.557 137.038C230.532 137.567 230.083 137.953 229.553 137.903C229.024 137.853 228.613 137.382 228.634 136.853C228.655 136.32 229.104 135.925 229.642 135.975C230.171 136.026 230.582 136.504 230.557 137.038Z" fill="#BB83C3"/>
<path d="M235.075 134.572C235.033 135.118 234.567 135.513 234.038 135.459C233.505 135.408 233.101 134.925 233.139 134.379C233.177 133.829 233.643 133.426 234.181 133.48C234.718 133.535 235.117 134.026 235.075 134.572Z" fill="#BB83C3"/>
<path d="M234.745 138.848C234.703 139.365 234.253 139.743 233.732 139.693C233.212 139.642 232.821 139.189 232.855 138.668C232.888 138.147 233.342 137.76 233.867 137.811C234.396 137.865 234.787 138.332 234.745 138.848Z" fill="#BB83C3"/>
<path d="M238.945 136.294C238.89 136.828 238.424 137.214 237.899 137.164C237.374 137.113 236.988 136.643 237.038 136.11C237.084 135.572 237.555 135.177 238.088 135.228C238.613 135.282 239 135.761 238.945 136.294Z" fill="#BB83C3"/>
<path d="M238.521 140.478C238.47 140.982 238.013 141.351 237.504 141.305C236.992 141.259 236.614 140.81 236.66 140.306C236.706 139.797 237.164 139.419 237.681 139.466C238.197 139.516 238.571 139.97 238.521 140.478Z" fill="#BB83C3"/>
</svg>
